<svg width="33" height="32" viewBox="0 0 33 32" fill="none" xmlns="http://www.w3.org/2000/svg">
<path d="M16.5 28C9.88331 28 4.5 22.6167 4.5 16C4.5 9.38331 9.88331 4 16.5 4C23.1167 4 28.5 9.38331 28.5 16C28.5 22.6167 23.1167 28 16.5 28Z" fill="#C3E678"/>
<path d="M22.1 24C15.4833 24 10.1 18.6166 10.1 12C10.1 9.23026 11.0524 6.68387 12.6346 4.65076C7.911 6.26452 4.5 10.7368 4.5 15.9999C4.5 22.6166 9.88331 27.9999 16.5 27.9999C20.347 27.9999 23.7679 26.173 25.9654 23.3491C24.7506 23.7642 23.4535 24 22.1 24Z" fill="#A5D76E"/>
<path d="M14.0172 22.2069C13.9085 22.2071 13.8009 22.1857 13.7004 22.1441C13.6 22.1025 13.5088 22.0414 13.4321 21.9644L8.46656 16.9989C8.14327 16.6759 8.14327 16.1518 8.46656 15.8287C8.78944 15.5054 9.31397 15.5054 9.63684 15.8287L14.0173 20.2088L22.5356 11.6907C22.8585 11.3674 23.383 11.3674 23.7059 11.6907C24.0292 12.0138 24.0292 12.5379 23.7059 12.861L14.6024 21.9644C14.5256 22.0414 14.4344 22.1025 14.334 22.1441C14.2336 22.1857 14.1259 22.2071 14.0172 22.2069Z" fill="white"/>
</svg>
