<svg width="115" height="100" viewBox="0 0 115 100" fill="none" xmlns="http://www.w3.org/2000/svg">
<g clip-path="url(#clip0_1_3693)">
<rect width="115" height="100" rx="9.47059" fill="#F4F8F7"/>
<path d="M69.9961 68.3304L59.1554 64.11V64.2936C59.1554 67.6578 56.5415 70.4103 53.1948 70.4103H50.654C47.3073 70.4103 44.6934 67.6578 44.6934 64.2936V64.1055L33.8524 68.3304C31.7779 69.1886 29 71.8891 29 75.8963V100.375C29 101.273 29.7239 102 30.617 102H73.2314C74.1245 102 74.8485 101.273 74.8485 100.375V75.8961C74.8484 72.4453 72.6504 69.4285 69.9961 68.3304Z" fill="#3CBB9B"/>
<path d="M32.646 100.375V74.2717C32.646 71.0245 34.4702 68.6358 36.266 67.3896L33.8524 68.3302C31.7779 69.1885 29 71.8889 29 75.8961V100.375C29 101.273 29.7239 102 30.617 102H34.2631C33.3699 102 32.646 101.272 32.646 100.375ZM38.0436 102V79.675C38.0436 79.4265 37.9454 79.1882 37.7706 79.0124C37.5958 78.8367 37.3587 78.738 37.1114 78.738C36.8642 78.738 36.6271 78.8367 36.4523 79.0124C36.2775 79.1882 36.1792 79.4265 36.1792 79.675V102H38.0436ZM67.6691 102V79.675C67.6691 79.4265 67.5709 79.1882 67.3961 79.0124C67.2213 78.8367 66.9842 78.738 66.7369 78.738C66.4897 78.738 66.2526 78.8367 66.0778 79.0124C65.903 79.1882 65.8047 79.4265 65.8047 79.675V102H67.6691Z" fill="#1E9D7D"/>
<path d="M50.6542 70.6596H53.195C56.5417 70.6596 59.2799 67.9071 59.2799 64.5429V64.1578L57.4592 63.449C57.1439 63.3264 56.8868 62.9983 56.8858 62.6102L56.8834 59.2709C55.4934 60.1853 53.8343 60.7192 52.0526 60.7192C50.0881 60.7192 48.364 60.1716 46.9581 59.2576V62.6047C46.9581 62.8438 46.8841 63.0192 46.7771 63.1515L46.777 63.1514C46.5755 63.401 46.2539 63.4969 46.0845 63.563L44.5693 64.1536V64.5431C44.5693 67.9071 47.3075 70.6596 50.6542 70.6596Z" fill="#FFBD86"/>
<path d="M49.7852 65.3912C49.9546 65.2972 50.2761 65.1605 50.4776 64.8049L50.4777 64.805C50.5847 64.6165 50.6587 64.3667 50.6587 64.0261V60.6235C49.2657 60.4296 48.0208 59.9485 46.958 59.2576L46.9581 62.6047C46.9581 62.8438 46.8841 63.019 46.7771 63.1515L46.777 63.1514C46.5755 63.401 46.2539 63.4969 46.0845 63.563L44.5693 64.1534V64.5429C44.5693 65.6528 44.8688 66.6951 45.3883 67.5949L49.7852 65.3912Z" fill="#F6A96C"/>
<path d="M43.0632 52.1925V45.6365H41.9266C41.6382 45.6365 41.3608 45.5902 41.1001 45.5061C39.7984 46.0615 38.7896 47.4104 38.7896 48.8949C38.7896 50.9896 40.7294 52.7069 43.0688 52.4312C43.0669 52.3517 43.0632 52.2723 43.0632 52.1925Z" fill="#FFBD86"/>
<path d="M43.0632 51.7336C42.1502 51.0783 41.5657 50.0438 41.5657 48.8949C41.5657 47.7394 42.1783 46.6679 43.0632 45.987V45.6365H41.9266C41.6382 45.6365 41.3608 45.5902 41.1001 45.5061C39.7984 46.0615 38.7896 47.4104 38.7896 48.8949C38.7896 50.9896 40.7293 52.7069 43.0688 52.4312C43.0668 52.3518 43.063 52.2725 43.063 52.1927L43.0632 51.7336Z" fill="#F6A96C"/>
<path d="M58.3405 41.7016C58.3405 41.5277 58.109 41.4679 58.0274 41.6212C56.9754 43.5992 54.9022 44.9455 52.5149 44.9455H42.9478V52.199C42.9478 56.8477 46.5713 61.0936 52.0522 61.0936C56.9312 61.0936 60.9006 57.1035 60.9006 52.199V44.875C59.4429 44.5639 58.3405 43.2562 58.3405 41.7016Z" fill="#FED2A4"/>
<path d="M46.6749 52.1999V44.9463H42.9478V52.1999C42.9478 56.8485 46.5713 61.0944 52.0522 61.0944C52.6684 61.0944 53.2699 61.0304 53.8509 60.9092C49.4647 60.0465 46.6749 56.2786 46.6749 52.1999Z" fill="#FFBD86"/>
<path d="M60.3259 34.1125C59.4805 34.1778 58.7048 33.6435 58.542 32.8069C58.268 31.3981 57.5741 30 54.8637 30H45.46C42.0088 30 39.2111 32.8124 39.2111 36.2817V43.1758C39.2111 44.6365 40.389 45.8207 41.8422 45.8207H52.515C54.9022 45.8207 56.9755 44.4744 58.0275 42.4964C58.1091 42.3431 58.3406 42.4029 58.3406 42.5768C58.3406 44.361 59.7927 45.8207 61.5675 45.8207C62.4978 45.8207 63.259 45.0555 63.259 44.1203V36.9262C63.259 35.2313 61.788 33.9994 60.3259 34.1125Z" fill="#685E68"/>
<path d="M42.948 43.1759V36.2817C42.948 32.8124 45.7458 30 49.197 30H45.46C42.0088 30 39.2111 32.8124 39.2111 36.2817V43.1758C39.2111 44.6365 40.389 45.8207 41.8422 45.8207H45.5793C44.126 45.8208 42.948 44.6365 42.948 43.1759Z" fill="#554E56"/>
<path d="M82.6712 39.5791H63.0988C61.8148 39.5791 60.77 40.6292 60.77 41.9199V55.9933C60.77 57.2841 61.8147 58.3342 63.0988 58.3342H78.2337C78.3829 58.3344 78.5259 58.394 78.6314 58.5001C78.7369 58.6061 78.7962 58.7499 78.7964 58.8999V63.6565C78.7964 63.7756 78.8221 63.8932 78.8719 64.0012C78.9217 64.1093 78.9944 64.2051 79.0848 64.282C79.1731 64.3575 79.2768 64.4129 79.3885 64.4441C79.5003 64.4753 79.6174 64.4817 79.7319 64.4628C82.7842 63.9537 84.9997 61.3237 84.9997 58.2093V41.9199C84.9999 40.6292 83.9553 39.5791 82.6712 39.5791Z" fill="#FF646F"/>
<path d="M64.499 55.9933V41.9199C64.499 40.6292 65.5436 39.5791 66.8278 39.5791H63.0988C61.8148 39.5791 60.77 40.6292 60.77 41.9199V55.9933C60.77 57.2841 61.8147 58.3342 63.0988 58.3342H66.8276C65.5436 58.3342 64.499 57.2841 64.499 55.9933ZM82.5254 58.9C82.5252 58.75 82.4659 58.6062 82.3604 58.5002C82.2549 58.3942 82.1119 58.3345 81.9627 58.3343H78.2338C78.383 58.3345 78.526 58.3942 78.6315 58.5002C78.737 58.6062 78.7964 58.75 78.7965 58.9V63.6566C78.7965 63.7757 78.8222 63.8933 78.872 64.0014C78.9219 64.1094 78.9945 64.2052 79.0849 64.2821C79.1732 64.3577 79.2769 64.413 79.3886 64.4442C79.5004 64.4754 79.6175 64.4818 79.732 64.4629C80.7805 64.288 81.7302 63.8628 82.5253 63.2537L82.5254 58.9Z" fill="#FF4756"/>
<path d="M73.7466 48.7227C72.8049 49.4628 72.7877 49.9791 72.7877 50.8739C72.7877 51.2009 72.6165 51.5796 71.7777 51.5796C71.0757 51.5796 70.836 51.3214 70.836 50.4264C70.836 48.9463 71.4866 48.2407 71.9831 47.8105C72.5481 47.3286 73.5068 46.7951 73.5068 45.8658C73.5068 45.074 72.822 44.6955 71.9659 44.6955C70.2196 44.6955 70.5963 46.0206 69.6718 46.0206C69.2094 46.0206 68.6445 45.7109 68.6445 45.0397C68.6445 44.1104 69.7061 42.7334 72.0173 42.7334C74.2088 42.7334 75.664 43.9554 75.664 45.5731C75.664 47.1909 74.2088 48.3612 73.7466 48.7227ZM73.113 54.0923C73.113 54.7979 72.531 55.4176 71.7947 55.4176C71.0585 55.4176 70.4935 54.7979 70.4935 54.0923C70.4935 53.3694 71.0756 52.7671 71.7947 52.7671C72.5139 52.7671 73.113 53.3694 73.113 54.0923Z" fill="#D9EDFF"/>
</g>
<defs>
<clipPath id="clip0_1_3693">
<rect width="115" height="100" rx="9.47059" fill="white"/>
</clipPath>
</defs>
</svg>
