<svg width="83" height="75" viewBox="0 0 83 75" fill="none" xmlns="http://www.w3.org/2000/svg">
<g clip-path="url(#clip0_98_8941)">
<rect width="83" height="75" rx="4.92308" fill="#F4F8F7"/>
<path d="M22.7195 56.1208C22.7195 56.1208 30.1109 57.3775 34.0517 51.1817C37.9924 44.986 32.7512 40.8603 32.7512 40.8603L21.5154 53.5108L22.7195 56.1208Z" fill="#FF8857"/>
<path d="M36.8594 44.1113C38.8491 37.1929 35.1657 29.8168 28.2976 27.3189L27.541 27.7326C20.3359 25.1713 11.9386 31.8715 9.32326 39.0571C6.72843 46.1863 9.41327 48.468 8.41564 50.9704C7.98407 52.0528 7.18635 52.6998 6.40975 53.086C5.9076 53.3358 5.99218 54.0751 6.53586 54.2131L8.17908 54.6298C9.60404 54.9911 11.0854 54.2731 11.671 52.9247C12.3122 51.4481 12.6291 49.1264 12.2079 46.0833L36.8594 44.1113Z" fill="#FF8857"/>
<path d="M24.4305 26.7285L24.1209 26.4985C18.2299 26.3245 12.5953 30.0651 10.4723 35.8981L9.3225 39.0571C9.25996 39.2289 9.21443 39.385 9.15786 39.5513C12.425 31.4593 24.1016 29.8767 24.1016 29.8767L24.4305 26.7285Z" fill="#FF744D"/>
<path d="M22.4398 60.4801C22.1792 60.0809 22.0152 59.6264 21.9607 59.1528C21.9062 58.6792 21.9627 58.1994 22.1257 57.7514L22.7194 56.1203L14.7663 53.2256L14.1726 54.8568C14.0095 55.3048 13.7444 55.7087 13.3982 56.0365C13.0521 56.3642 12.6343 56.6069 12.1781 56.7453L9.97404 57.4136L10.3178 63.2575L18.9748 66.4084L23.6984 62.4088L22.4398 60.4801Z" fill="#F9D8AF"/>
<path d="M11.9181 57.9596C12.6029 57.7521 13.2299 57.388 13.7495 56.8962C14.2691 56.4043 14.667 55.7982 14.9117 55.1259C15.1162 54.5642 15.7743 54.3286 16.2919 54.6277C16.856 54.9545 17.4476 55.2312 18.0599 55.4548C19.5991 56.015 21.1808 56.2192 22.7195 56.1203L23.9638 52.7017L15.3068 49.5508L13.4688 54.6007C13.3058 55.0487 13.0407 55.4526 12.6945 55.7803C12.3483 56.1081 11.9306 56.3507 11.4744 56.489L9.2703 57.1573L9.71596 58.6268L11.9181 57.9596Z" fill="#F2C59A"/>
<path d="M29.5281 66.6369L23.2405 61.4253L18.6495 60.5713L15.9813 63.4128L15.5682 64.1684C15.1504 64.6132 14.4033 64.3413 14.3692 63.732L14.5384 62.8876L14.321 58.9959L11.0022 56.971L2.83559 56.9216C0.888952 56.9098 -0.854946 58.123 -1.52075 59.9523L-6.3473 73.2132L-6.39432 75.5076C-6.19239 75.6736 -5.96364 75.804 -5.71789 75.8932L7.98889 80.882L8.87451 80.6937L9.4317 81.4072L23.1385 86.396C24.3337 86.8311 25.6554 86.2148 26.0904 85.0195L30.9169 71.7587C31.5829 69.9295 31.0269 67.879 29.5281 66.6369Z" fill="#007F5F"/>
<path d="M25.3808 33.6234C23.0703 34.5257 16.0973 34.9249 13.9299 40.8799L13.6673 41.6013C11.7821 46.7807 13.4439 52.023 18.6234 53.9081C19.1152 54.0872 19.5742 54.329 20.0722 54.4277C24.8182 55.3675 29.6712 52.7348 31.3774 48.0472L34.0031 40.8331L25.3808 33.6234Z" fill="#FBE7C3"/>
<path d="M15.5059 42.2704L15.7684 41.549C17.6485 36.3836 23.5338 35.5321 26.5705 34.808L24.8576 33.4194C22.5471 34.3217 15.0503 34.5437 12.8828 40.4987L12.6203 41.2201C10.7351 46.3996 13.4057 52.1267 18.5852 54.0119C19.0772 54.1909 19.5737 54.3288 20.0718 54.4274C15.8323 52.0967 13.7997 46.9579 15.5059 42.2704Z" fill="#F9D8AF"/>
<path d="M17.6701 43.0581C17.5754 43.0237 17.4884 42.9709 17.414 42.9028C17.3397 42.8347 17.2795 42.7526 17.2369 42.6612C17.1943 42.5698 17.1701 42.4709 17.1657 42.3702C17.1613 42.2695 17.1768 42.1689 17.2113 42.0742L17.4739 41.3528C17.5083 41.258 17.5611 41.171 17.6292 41.0966C17.6973 41.0223 17.7794 40.9621 17.8708 40.9195C17.9622 40.8769 18.0611 40.8527 18.1618 40.8483C18.2625 40.8439 18.3631 40.8594 18.4579 40.8939C18.5526 40.9284 18.6396 40.9812 18.714 41.0493C18.7883 41.1174 18.8485 41.1995 18.8911 41.2908C18.9337 41.3822 18.9579 41.4811 18.9623 41.5818C18.9667 41.6826 18.9512 41.7832 18.9167 41.8779L18.6541 42.5993C18.6197 42.694 18.5669 42.7811 18.4988 42.8554C18.4307 42.9298 18.3486 42.99 18.2572 43.0326C18.1658 43.0752 18.0669 43.0994 17.9662 43.1038C17.8655 43.1081 17.7649 43.0926 17.6701 43.0581ZM26.327 46.209C26.2322 46.1745 26.1452 46.1217 26.0709 46.0536C25.9965 45.9855 25.9363 45.9034 25.8937 45.812C25.8511 45.7207 25.8269 45.6218 25.8225 45.5211C25.8182 45.4203 25.8337 45.3197 25.8682 45.225L26.1307 44.5036C26.2757 44.1052 26.716 43.8996 27.1147 44.0448C27.5134 44.1899 27.7185 44.6304 27.5735 45.0287L27.311 45.7501C27.2765 45.8449 27.2237 45.9319 27.1556 46.0063C27.0875 46.0806 27.0054 46.1408 26.9141 46.1834C26.8227 46.2261 26.7238 46.2502 26.6231 46.2546C26.5223 46.259 26.4217 46.2435 26.327 46.209Z" fill="#6B4F5A"/>
<path d="M20.1605 49.6838C19.0784 49.2899 18.2058 48.579 17.8279 47.7825C17.6458 47.3994 17.8092 46.9416 18.1921 46.7598C18.5751 46.5777 19.0341 46.7416 19.2147 47.124C19.3687 47.4485 19.8464 47.9355 20.6855 48.2409C21.5246 48.5463 22.2036 48.4804 22.5302 48.3307C22.9145 48.1538 23.3714 48.3234 23.5477 48.7091C23.7242 49.0944 23.555 49.5503 23.1693 49.7266C22.368 50.0939 21.2426 50.0776 20.1605 49.6838Z" fill="#F2C59A"/>
<path d="M19.4652 40.3726L18.0224 39.8475C17.6236 39.7023 17.4186 39.2618 17.5636 38.8635C17.7086 38.4651 18.1489 38.2595 18.5476 38.4047L19.9904 38.9298C20.0851 38.9643 20.1722 39.0171 20.2465 39.0852C20.3209 39.1533 20.3811 39.2353 20.4237 39.3267C20.4663 39.4181 20.4905 39.517 20.4948 39.6177C20.4992 39.7184 20.4837 39.819 20.4492 39.9138C20.4148 40.0085 20.362 40.0956 20.2939 40.1699C20.2258 40.2442 20.1437 40.3044 20.0523 40.347C19.9609 40.3897 19.862 40.4138 19.7613 40.4182C19.6606 40.4226 19.56 40.4071 19.4652 40.3726ZM28.1221 43.5234L26.6793 42.9983C26.2805 42.8532 26.0755 42.4127 26.2205 42.0143C26.3654 41.616 26.8057 41.4104 27.2044 41.5555L28.6472 42.0806C28.742 42.1151 28.829 42.1679 28.9034 42.236C28.9777 42.3041 29.0379 42.3862 29.0805 42.4776C29.1231 42.5689 29.1473 42.6678 29.1517 42.7685C29.1561 42.8693 29.1406 42.9699 29.1061 43.0646C29.0716 43.1594 29.0188 43.2464 28.9507 43.3208C28.8826 43.3951 28.8005 43.4553 28.7092 43.4979C28.6178 43.5405 28.5189 43.5647 28.4182 43.5691C28.3174 43.5735 28.2168 43.558 28.1221 43.5234Z" fill="#FF744D"/>
<path d="M24.5597 60.4018C24.4097 60.0801 24.1528 59.8203 23.8329 59.6666C23.5129 59.513 23.1496 59.4749 22.8047 59.5589L18.649 60.5712L20.6105 64.7777C21.02 65.6559 22.1304 65.9399 22.9113 65.3661L25.356 63.5697C25.499 63.4647 25.6012 63.3133 25.6451 63.1413C25.6891 62.9694 25.6721 62.7875 25.5971 62.6267L24.5597 60.4018ZM11.7877 55.549C11.5775 55.263 11.2747 55.0586 10.9309 54.9707C10.587 54.8827 10.2232 54.9167 9.90155 55.0667L7.67682 56.1041C7.43982 56.2146 7.28737 56.435 7.24819 56.6808L2.08812 56.6496C0.141475 56.6379 -1.60242 57.8511 -2.26823 59.6803L-7.88795 75.1204C-8.23043 76.0614 -7.91839 77.0839 -7.18827 77.6873L-0.825482 60.2057C-0.382789 58.9894 0.78485 58.1773 2.07929 58.1849L7.55651 58.218L7.97328 59.9291C8.20256 60.8705 9.23582 61.3668 10.114 60.9573L14.3204 58.9959L11.7877 55.549ZM15.7553 63.6527C15.3375 64.0975 14.5904 63.8256 14.5563 63.2163L14.5379 62.8874L11.2995 71.7848L12.7423 72.31L15.9807 63.4126L15.7553 63.6527Z" fill="#006B4B"/>
<path d="M15.6944 70.9334C16.0929 71.0784 16.5334 70.873 16.6784 70.4746C16.8234 70.0762 16.618 69.6356 16.2196 69.4906C15.8212 69.3456 15.3806 69.551 15.2356 69.9494C15.0906 70.3479 15.296 70.7884 15.6944 70.9334Z" fill="white"/>
<path d="M17.0068 67.3265C17.4052 67.4715 17.8458 67.2661 17.9908 66.8676C18.1358 66.4692 17.9304 66.0287 17.532 65.8837C17.1335 65.7387 16.693 65.9441 16.548 66.3425C16.403 66.7409 16.6084 67.1815 17.0068 67.3265Z" fill="white"/>
<path d="M28.5282 60.9271C28.6381 61.3991 29.1683 61.6335 29.5966 61.4068C29.7455 61.328 29.8631 61.2009 29.93 61.0463C29.997 60.8917 30.0093 60.7189 29.9649 60.5563L29.9364 60.4519C29.3232 58.2058 30.9325 56.0081 32.4746 54.8768C34.1921 53.6168 36.3086 52.4566 37.1489 50.1477C39.0555 44.9094 34.7436 40.3777 31.2787 36.7366C29.8781 35.2646 28.1828 33.2345 27.4663 31.8569C26.3825 29.7729 27.6248 28.0418 28.2978 27.319C26.9566 26.8312 25.5479 26.5544 24.1219 26.4985C23.668 27.3957 23.3229 28.4709 23.3812 29.6141C23.7047 35.9614 36.6264 42.6048 34.2633 49.0975C32.6879 53.4259 29.9985 54.0811 28.6857 57.6881C28.2253 58.9526 28.3473 60.15 28.5282 60.9271Z" fill="#FFA65A"/>
<path d="M64.7051 61.9189L77.5011 57.2616L78.5251 60.0748L65.729 64.7322L64.7051 61.9189Z" fill="#EDEBED"/>
<path d="M62.8952 65.0806C58.9529 66.5155 57.3976 72.1864 59.4214 77.7468L59.9711 79.257C60.4771 80.6471 67.8426 98.3977 68.8282 98.039L81.6326 93.3786L82.6961 92.1364L84.3094 92.4043L95.3292 88.3935C96.3148 88.0347 90.5472 69.7025 90.0413 68.3124L89.4916 66.8022C87.4678 61.2417 82.6312 57.8973 78.6888 59.3322L62.8952 65.0806Z" fill="#007F5F"/>
<path d="M91.371 66.1181L91.9207 67.6283C92.4268 69.0189 97.5446 85.4588 96.6005 85.8024L94.0378 86.7351C94.9817 86.3916 89.8641 69.9518 89.3579 68.5611L88.8082 67.0509C86.7845 61.4908 82.0837 58.0965 78.3096 59.4702L80.8724 58.5374C84.6465 57.1638 89.3473 60.558 91.371 66.1181Z" fill="#006B4B"/>
<path d="M66.8323 63.1925L67.8597 62.8185L65.2393 55.6189L73.0688 52.7692L75.6893 59.9688L77.0017 59.4912L73.0742 64.9652L66.8323 63.1925ZM55.3352 43.5285C55.3352 43.5285 52.2448 48.4308 52.2485 49.0491C51.5052 49.8272 51.2218 50.9881 51.6148 52.0678C52.1666 53.5837 53.8427 54.3653 55.3586 53.8136L58.6435 52.618L55.3352 43.5285ZM76.1926 46.2307L79.4774 45.0352C80.9933 44.4834 81.7749 42.8073 81.2232 41.2913C80.8302 40.2118 79.867 39.5046 78.7976 39.3862C78.3523 38.852 72.8843 37.1413 72.8843 37.1413L76.1926 46.2307Z" fill="#ECBD83"/>
<path d="M78.7694 42.9487L76.4295 43.8004C76.2505 43.8655 76.053 43.8569 75.8803 43.7764C75.7077 43.6959 75.5741 43.5501 75.5089 43.3711C75.4438 43.1921 75.4524 42.9946 75.5329 42.8219C75.6134 42.6493 75.7592 42.5157 75.9382 42.4505L78.2781 41.5989C78.4571 41.5337 78.6547 41.5424 78.8273 41.6229C78.9999 41.7034 79.1335 41.8492 79.1987 42.0282C79.2638 42.2072 79.2552 42.4047 79.1747 42.5774C79.0942 42.75 78.9484 42.8836 78.7694 42.9487ZM56.9007 50.9083L54.5608 51.76C54.3818 51.8251 54.1842 51.8165 54.0116 51.736C53.8389 51.6555 53.7053 51.5097 53.6402 51.3307C53.575 51.1517 53.5837 50.9541 53.6642 50.7815C53.7447 50.6089 53.8905 50.4753 54.0695 50.4101L56.4094 49.5585C56.5884 49.4933 56.7859 49.5019 56.9586 49.5824C57.1312 49.6629 57.2648 49.8087 57.3299 49.9877C57.3951 50.1667 57.3865 50.3643 57.306 50.5369C57.2255 50.7096 57.0797 50.8432 56.9007 50.9083Z" fill="#EAAD6C"/>
<path d="M52.553 41.4839L56.2052 51.5183C58.1644 56.9011 63.8038 59.8807 69.2478 58.6498C69.7101 58.5453 70.886 57.8784 70.886 57.8784C73.774 56.6659 78.5796 49.9884 76.454 44.1483L72.8018 34.1139L52.553 41.4839Z" fill="#F6D190"/>
<path d="M77.0798 37.3979L75.9944 40.086L77.3538 43.8208C78.4163 46.7402 78.1953 49.815 76.9774 52.425C75.7608 55.0355 73.5476 57.1813 70.6281 58.2439C70.171 58.4103 69.7097 58.5456 69.2471 58.6497C71.517 57.48 73.2517 55.6094 74.2776 53.4076C75.4954 50.7976 75.7165 47.7229 74.654 44.8034L71.0017 34.769L77.0798 37.3979Z" fill="#ECBD83"/>
<path d="M76.9992 34.4463L78.7975 39.387C78.3518 39.3372 77.9006 39.3916 77.4794 39.5457L75.9945 40.0862L75.5031 38.7363C75.2319 37.9911 74.407 37.6064 73.6619 37.8776L72.8969 38.1561L76.9992 34.4463Z" fill="#413124"/>
<path d="M68.9524 53.6615C67.6365 54.1405 66.1543 54.1543 64.7232 53.6238C64.6339 53.5916 64.5518 53.5421 64.4818 53.4781C64.4118 53.414 64.3551 53.3368 64.3151 53.2507C64.2751 53.1646 64.2525 53.0715 64.2487 52.9767C64.2449 52.8818 64.2599 52.7872 64.2929 52.6982C64.3259 52.6092 64.3762 52.5277 64.4409 52.4582C64.5056 52.3888 64.5834 52.3329 64.6698 52.2937C64.7563 52.2545 64.8496 52.2328 64.9445 52.2299C65.0393 52.227 65.1338 52.2429 65.2225 52.2767C67.4131 53.0888 69.762 52.2331 70.9347 50.1954C71.0298 50.0303 71.1865 49.9097 71.3704 49.8601C71.5544 49.8106 71.7504 49.8361 71.9155 49.9312C72.0806 50.0262 72.2012 50.1829 72.2508 50.3669C72.3003 50.5508 72.2748 50.7469 72.1797 50.912C71.4156 52.24 70.2669 53.1831 68.9524 53.6615Z" fill="#EAAD6C"/>
<path d="M80.2099 60.4593L77.1931 65.6845C76.7964 66.3716 75.9178 66.607 75.2308 66.2103L73.0743 64.9653L77.5277 57.252L79.6841 58.497C80.3711 58.8937 80.6066 59.7723 80.2099 60.4593ZM64.7116 66.1002L70.3812 68.1639C71.1268 68.4352 71.9511 68.0508 72.2224 67.3052L73.0741 64.9654L64.7046 61.9192L63.8529 64.259C63.5817 65.0046 63.9661 65.8289 64.7116 66.1002Z" fill="white"/>
<path d="M68.4283 46.458L64.7385 47.801C64.5595 47.8661 64.3619 47.8575 64.1893 47.777C64.0167 47.6965 63.8831 47.5507 63.8179 47.3717C63.7528 47.1927 63.7614 46.9952 63.8419 46.8225C63.9224 46.6499 64.0682 46.5163 64.2472 46.4511L67.9369 45.1082C68.1159 45.043 68.3135 45.0516 68.4861 45.1321C68.6588 45.2126 68.7924 45.3584 68.8575 45.5374C68.9227 45.7164 68.9141 45.914 68.8336 46.0866C68.753 46.2593 68.6073 46.3929 68.4283 46.458Z" fill="#EDEBED"/>
<path d="M70.6581 48.1055C69.4377 48.16 68.2708 47.4259 67.8308 46.2171L67.5688 45.4971C67.3879 45.0001 67.6441 44.4505 68.1412 44.2696L71.921 42.8939C72.4181 42.7129 72.9676 42.9692 73.1485 43.4663L73.4105 44.1862C74.3164 46.8503 70.9431 48.0928 70.6581 48.1055Z" fill="#6F6571"/>
<path d="M74.0482 43.1387L74.3102 43.8586C74.853 45.3498 74.0842 46.9983 72.593 47.5411L71.5131 47.9341C71.2315 48.0367 70.943 48.0927 70.6579 48.1047C71.628 47.3624 72.0503 46.0499 71.6104 44.8412L71.3483 44.1213C71.1675 43.6245 70.6176 43.368 70.1208 43.5489L72.8206 42.5662C73.3174 42.3855 73.8673 42.6419 74.0482 43.1387Z" fill="#5D5360"/>
<path d="M61.3889 51.479C60.1683 51.5337 59.0013 50.7995 58.5613 49.5906L58.2992 48.8707C58.1183 48.3736 58.3746 47.8241 58.8716 47.6431L62.6515 46.2674C63.1485 46.0865 63.6981 46.3427 63.879 46.8398L64.141 47.5597C64.6837 49.0509 63.7715 50.395 61.3889 51.479Z" fill="#6F6571"/>
<path d="M64.7786 46.5122L65.0407 47.2322C65.5834 48.7234 64.8147 50.3719 63.3235 50.9146L62.2436 51.3077C61.9619 51.4102 61.6735 51.4662 61.3884 51.4783C62.3585 50.7359 62.7808 49.4234 62.3408 48.2147L62.0788 47.4948C61.898 46.998 61.3481 46.7416 60.8513 46.9224L63.5511 45.9398C64.0479 45.759 64.5978 46.0154 64.7786 46.5122Z" fill="#5D5360"/>
<path d="M76.4737 28.8026L76.9323 30.0625C77.9969 32.9874 76.7326 36.1922 74.0865 37.6445C73.8099 37.7971 73.1578 38.061 72.8518 38.1724L55.2128 44.5924C54.4676 44.8636 54.083 45.6885 54.3542 46.4337L54.8455 47.7836L53.3606 48.3241C52.9389 48.4767 52.5583 48.7251 52.2489 49.0498L49.5617 41.6666C49.1997 40.6722 49.2753 39.6255 49.6901 38.7376C50.1044 37.8489 50.8577 37.1181 51.8512 36.7565C52.4483 36.5393 52.9839 36.1806 53.4121 35.7111C53.8403 35.2416 54.1483 34.6754 54.3098 34.0608L54.7758 32.2891C55.13 30.9426 55.8051 29.7018 56.7434 28.6731C57.6816 27.6443 58.8551 26.8581 60.1635 26.3818L71.8079 22.1436C72.3047 21.9628 72.8546 22.2192 73.0354 22.716L73.4285 23.7959C74.3329 26.2806 73.9512 28.7015 71.4665 29.6059L75.2463 28.2301C75.743 28.0493 76.2929 28.3058 76.4737 28.8026Z" fill="#37271A"/>
<path d="M73.9357 22.3883L74.3287 23.4682C75.2331 25.9529 73.9515 28.7014 71.4668 29.6057L68.767 30.5884C71.2517 29.684 72.5333 26.9356 71.6289 24.4509L71.2359 23.3709C71.055 22.8741 70.5051 22.6177 70.0083 22.7985L72.7082 21.8159C73.205 21.6351 73.7549 21.8915 73.9357 22.3883ZM77.374 28.4749L77.8326 29.7348C78.8971 32.6597 77.6329 35.8645 74.9868 37.3168C74.7059 37.4715 74.4134 37.6042 74.112 37.7136L71.4122 38.6963C71.7182 38.5849 72.0102 38.4521 72.287 38.2994C74.933 36.8471 76.1973 33.6423 75.1328 30.7175L74.6742 29.4575C74.4934 28.9607 73.9435 28.7043 73.4467 28.8851L76.1465 27.9025C76.6433 27.7216 77.1932 27.9781 77.374 28.4749Z" fill="#413124"/>
</g>
<defs>
<clipPath id="clip0_98_8941">
<rect width="83" height="75" rx="4.92308" fill="white"/>
</clipPath>
</defs>
</svg>
