<svg width="33" height="32" viewBox="0 0 33 32" fill="none" xmlns="http://www.w3.org/2000/svg">
<path d="M28.4976 16C28.4976 9.37147 23.1249 3.99817 16.4977 3.99817C9.8702 3.99817 4.49756 9.37147 4.49756 16C4.49756 22.6285 9.8702 28.0018 16.4976 28.0018C23.1249 28.0018 28.4976 22.6285 28.4976 16Z" fill="#F36986"/>
<path d="M20.6472 4.7356C23.8407 6.89217 25.9404 10.5455 25.9404 14.6892C25.9404 21.3178 20.5677 26.6911 13.9403 26.6911C12.4816 26.6911 11.0838 26.4306 9.7906 25.9538C11.7053 27.2469 14.0133 28.0019 16.4976 28.0019C23.1249 28.0019 28.4975 22.6286 28.4975 16.0001C28.4975 10.8306 25.2296 6.42481 20.6472 4.7356Z" fill="#FC476E"/>
<path d="M21.9248 12.2689L21.9163 12.2605C20.5443 10.8826 18.3135 10.8824 16.9413 12.2602L16.5283 12.6746L16.0919 12.2365C14.7173 10.8562 12.4829 10.8562 11.1083 12.2365C9.73041 13.6197 9.73041 15.8569 11.1083 17.2401L15.8868 22.0378C16.2408 22.3931 16.8162 22.3931 17.17 22.0378L21.9248 17.2643C23.2986 15.8847 23.2986 13.6482 21.9248 12.2689Z" fill="#FFD2E3"/>
<path d="M21.9248 12.269L21.9163 12.2605C21.1593 11.5004 20.1408 11.1603 19.1493 11.239C20.4331 12.624 20.404 14.7918 19.0607 16.1406L14.5367 20.6825L15.8868 22.0378C16.2408 22.3933 16.8162 22.3933 17.17 22.0378L21.9248 17.2643C23.2986 15.8847 23.2986 13.6482 21.9248 12.269Z" fill="#FFBBD7"/>
</svg>
