<svg width="33" height="32" viewBox="0 0 33 32" fill="none" xmlns="http://www.w3.org/2000/svg">
<g clip-path="url(#clip0_120_3843)">
<path d="M25.9815 19.3075H25.7324C26.2905 19.3075 26.7955 19.534 27.1615 19.8999C27.5274 20.2654 27.7534 20.7709 27.7534 21.329C27.7534 22.4453 26.8486 23.3501 25.7324 23.3501H25.4832C26.0414 23.3501 26.5469 23.576 26.9123 23.942C27.2783 24.308 27.5047 24.813 27.5047 25.3712C27.5047 26.4874 26.5995 27.3922 25.4832 27.3922H9.74316V12.6809C11.6382 12.6809 13.3232 11.4763 13.9368 9.68364L15.3273 5.61888C15.4888 5.14646 15.7943 4.73651 16.2007 4.44663C16.6067 4.15597 17.0935 3.99978 17.5927 4C18.1412 4 18.6414 4.17428 19.0479 4.46688H19.0484C19.8247 5.02548 20.2583 6.01478 20.0318 7.03881L19.1053 11.2233H26.2306C27.3469 11.2233 28.2517 12.1281 28.2517 13.2444C28.2517 14.3607 27.3469 15.2655 26.2306 15.2655H25.9815C26.5396 15.2655 27.0447 15.4919 27.4106 15.8574C27.7766 16.2229 28.0026 16.7284 28.0026 17.2865C28.0026 18.4027 27.0978 19.3075 25.9815 19.3075Z" fill="#F1D0A5"/>
<path d="M19.0479 4.46688C17.5922 4.00047 16.4494 6.21705 15.5504 9.42775C14.6514 12.6385 12.2205 13.7948 9.74316 13.7948V12.6809C11.6382 12.6809 13.3232 11.4763 13.9368 9.68364L15.3273 5.61888C15.4888 5.14646 15.7943 4.73651 16.2007 4.44663C16.6067 4.15597 17.0935 3.99978 17.5927 4C18.1412 4 18.6413 4.17428 19.0479 4.46688ZM27.5048 25.3711C27.5048 26.4873 26.5995 27.3922 25.4833 27.3922H9.74316V21.5014C9.74316 23.1709 10.5412 25.9326 16.2567 25.9326C21.9727 25.9326 28.0629 26.7679 26.9123 23.942C27.2783 24.3079 27.5048 24.813 27.5048 25.3711Z" fill="#F1B986"/>
<path d="M5.7788 27.9998H9.19556C9.76467 27.9998 10.226 27.5385 10.226 26.9694V13.1039C10.226 12.5348 9.76467 12.0735 9.19556 12.0735H5.7788C5.20969 12.0735 4.74834 12.5348 4.74834 13.1039V26.9694C4.74834 27.5385 5.20969 27.9998 5.7788 27.9998Z" fill="#6BBEF6"/>
<path d="M10.2259 23.5654V26.9693C10.2259 27.5385 9.7643 28 9.19556 28H5.77861C5.20936 28 4.74829 27.5385 4.74829 26.9693V23.5654C4.74829 24.1347 5.20936 24.5962 5.77861 24.5962H9.19556C9.7643 24.5962 10.2259 24.1347 10.2259 23.5654Z" fill="#528ECB"/>
</g>
<defs>
<clipPath id="clip0_120_3843">
<rect width="24" height="24" fill="white" transform="translate(4.5 4)"/>
</clipPath>
</defs>
</svg>
