<svg width="56" height="70" viewBox="0 0 56 70" fill="none" xmlns="http://www.w3.org/2000/svg">
<g clip-path="url(#clip0_55_2685)">
<path d="M55.0977 83.9141C55.0977 87.6356 52.1437 90.6524 48.4996 90.6524H7.50295C3.85883 90.6524 0.904785 87.6356 0.904785 83.9141V8.08597C0.904785 4.36446 3.85883 1.34769 7.50295 1.34769H48.4996C52.1437 1.34769 55.0977 4.36446 55.0977 8.08597V83.9141Z" fill="#F8F7F7"/>
<path d="M54.3816 86.9691C53.2907 89.1559 51.0667 90.6527 48.4996 90.6527H7.50295C3.859 90.6527 0.904785 87.6357 0.904785 83.9144V8.08626C0.904785 5.46103 2.37398 3.18798 4.51882 2.07571V82.4769C4.51882 84.9584 6.48771 86.9691 8.9176 86.9691H54.3816Z" fill="#E8E8E8"/>
<path d="M34.6873 8.08606C35.4161 8.08606 36.0069 7.48269 36.0069 6.7384C36.0069 5.99411 35.4161 5.39075 34.6873 5.39075C33.9585 5.39075 33.3677 5.99411 33.3677 6.7384C33.3677 7.48269 33.9585 8.08606 34.6873 8.08606Z" fill="#E8E8E8"/>
<path d="M48.4994 92H7.50276C3.13689 92 -0.415039 88.3727 -0.415039 83.9141V8.08594C-0.415039 3.62735 3.13689 0 7.50276 0H48.4994C52.8652 0 56.4172 3.62735 56.4172 8.08594V83.9141C56.4172 88.3727 52.8652 92 48.4994 92ZM7.50276 2.69531C4.59218 2.69531 2.22423 5.11355 2.22423 8.08594V83.9141C2.22423 86.8865 4.59218 89.3047 7.50276 89.3047H48.4994C51.4099 89.3047 53.7779 86.8865 53.7779 83.9141V8.08594C53.7779 5.11355 51.4099 2.69531 48.4994 2.69531H7.50276Z" fill="#007F5F"/>
<path d="M30.2888 8.08606H21.4913C21.1413 8.08606 20.8056 7.94408 20.5581 7.69134C20.3107 7.43861 20.1716 7.09582 20.1716 6.7384C20.1716 6.38098 20.3107 6.0382 20.5581 5.78547C20.8056 5.53273 21.1413 5.39075 21.4913 5.39075H30.2888C30.6388 5.39075 30.9745 5.53273 31.2219 5.78547C31.4694 6.0382 31.6085 6.38098 31.6085 6.7384C31.6085 7.09582 31.4694 7.43861 31.2219 7.69134C30.9745 7.94408 30.6388 8.08606 30.2888 8.08606Z" fill="#E8E8E8"/>
<path d="M43.6045 43.1506H35.4531C34.9508 43.1506 34.4543 43.2588 33.9958 43.4682C33.5373 43.6776 33.1272 43.9834 32.7924 44.3657L29.2529 48.6065C28.5869 49.3666 27.4204 49.3617 26.7606 48.5962L23.3088 44.3876C22.9737 43.9989 22.5614 43.6875 22.0993 43.4743C21.6372 43.261 21.1359 43.1506 20.6289 43.1506H12.3975C9.1111 43.1506 6.44702 40.43 6.44702 37.0738L6.75933 18.7848C6.75933 16.7583 7.24232 14.3557 8.73527 13.2515C9.74898 12.501 10.9695 12.0979 12.2216 12.0999H43.7805C47.0669 12.0999 49.731 14.8206 49.731 18.1768V37.2535C49.733 38.5319 49.3383 39.7781 48.6037 40.8133C47.5226 42.3383 45.5889 43.1506 43.6045 43.1506Z" fill="#3CBB9B"/>
<path d="M48.6051 40.8142C47.5212 42.3379 45.7652 43.3298 43.7805 43.3298H35.6287C35.1265 43.3299 34.6301 43.4382 34.1717 43.6475C33.7133 43.8568 33.3032 44.1624 32.9683 44.5445L29.2522 48.7869C28.5871 49.547 27.4206 49.5416 26.7607 48.7761L23.1326 44.5679C22.4552 43.7808 21.4787 43.3298 20.4529 43.3298H12.2219C8.93514 43.3298 6.27124 40.6093 6.27124 37.2528V18.1772C6.27124 16.1503 7.24249 14.357 8.73456 13.2501V37.2528C8.73456 39.2204 10.2952 40.8142 12.2219 40.8142H20.4529C22.186 40.8142 23.8364 41.5761 24.9819 42.9057L27.6229 45.9694C27.6722 46.0266 27.7329 46.0725 27.8008 46.1041C27.8688 46.1356 27.9425 46.1521 28.0171 46.1524C28.0918 46.1528 28.1656 46.137 28.2338 46.106C28.3021 46.0751 28.3631 46.0298 28.4129 45.973L31.1331 42.868C32.2768 41.5617 33.9132 40.8142 35.6287 40.8142H48.6051Z" fill="#1E9D7D"/>
<path d="M41.7761 21.742C41.7761 19.8647 40.6012 18.2674 38.9615 17.6752C38.5211 17.5161 38.1112 17.5582 37.6173 17.5582C35.285 17.5582 33.6462 19.3605 33.6462 21.742C33.6462 24.1236 35.221 25.7083 37.5532 25.7083C38.0471 25.7083 38.5211 25.9679 38.9615 25.8089C40.6014 25.2167 41.7761 23.6194 41.7761 21.742Z" fill="#F2D1A5"/>
<path d="M38.961 25.8083C38.5211 25.9682 38.0478 26.0545 37.5534 26.0545C35.2203 26.0545 33.3306 24.1228 33.3306 21.742C33.3306 19.3611 35.2203 17.4295 37.5534 17.4295C38.0478 17.4295 38.5211 17.5157 38.961 17.6756C37.3194 18.2668 36.1458 19.866 36.1458 21.742C36.1458 23.6179 37.3194 25.2171 38.961 25.8083Z" fill="#F2BB88"/>
<path d="M40.1041 31.4456H34.8256C34.0185 31.4443 33.2268 31.6708 32.5379 32.1002C31.2719 32.8888 30.6028 34.3125 30.6028 35.9377V36.8362C30.6028 37.0745 30.6955 37.303 30.8605 37.4715C31.0254 37.64 31.2492 37.7346 31.4825 37.7346H43.6232C43.8098 37.7346 43.9888 37.6589 44.1208 37.5241C44.2528 37.3893 44.327 37.2065 44.327 37.0159L44.5029 35.9377C44.5029 33.4568 42.5335 31.4456 40.1041 31.4456Z" fill="#C8B8F4"/>
<path d="M44.5036 35.9374V37.1952C44.5036 37.5924 44.1886 37.914 43.7998 37.914H31.3072C30.8216 37.914 30.4275 37.5115 30.4275 37.0156V35.9374C30.4275 34.3113 31.2721 32.8881 32.5389 32.1011V35.039C32.5389 35.5349 32.933 35.9374 33.4187 35.9374H44.5036Z" fill="#B09EEF"/>
<path d="M24.6346 36.2072C24.2846 36.2072 23.949 36.0652 23.7015 35.8125C23.454 35.5597 23.315 35.2169 23.315 34.8595V21.8322H21.626C21.2761 21.8322 20.9404 21.6902 20.6929 21.4375C20.4454 21.1847 20.3064 20.8419 20.3064 20.4845C20.3064 20.1271 20.4454 19.7843 20.6929 19.5316C20.9404 19.2789 21.2761 19.1369 21.626 19.1369H24.6346C24.9846 19.1369 25.3203 19.2789 25.5678 19.5316C25.8152 19.7843 25.9543 20.1271 25.9543 20.4845V34.8595C25.9543 35.2169 25.8152 35.5597 25.5678 35.8125C25.3203 36.0652 24.9846 36.2072 24.6346 36.2072ZM18.5879 29.0197H11.5499C11.1999 29.0197 10.8642 28.8777 10.6167 28.625C10.3693 28.3722 10.2302 28.0294 10.2302 27.672C10.2302 27.3146 10.3693 26.9718 10.6167 26.7191C10.8642 26.4664 11.1999 26.3244 11.5499 26.3244H18.5879C18.9379 26.3244 19.2735 26.4664 19.521 26.7191C19.7685 26.9718 19.9075 27.3146 19.9075 27.672C19.9075 28.0294 19.7685 28.3722 19.521 28.625C19.2735 28.8777 18.9379 29.0197 18.5879 29.0197Z" fill="#F8F7F7"/>
<path d="M15.0689 32.6133C14.7189 32.6133 14.3833 32.4713 14.1358 32.2186C13.8883 31.9658 13.7493 31.623 13.7493 31.2656V24.0781C13.7493 23.7207 13.8883 23.3779 14.1358 23.1252C14.3833 22.8725 14.7189 22.7305 15.0689 22.7305C15.4189 22.7305 15.7545 22.8725 16.002 23.1252C16.2495 23.3779 16.3885 23.7207 16.3885 24.0781V31.2656C16.3885 31.623 16.2495 31.9658 16.002 32.2186C15.7545 32.4713 15.4189 32.6133 15.0689 32.6133Z" fill="#F8F7F7"/>
<path d="M35.1269 62.0817C35.1269 58.6364 32.7532 55.7573 29.5847 55.0569C29.1025 54.9503 28.6021 55.0845 28.0889 55.0845C24.202 55.0845 21.4907 58.0501 21.4907 62.0196C21.4907 65.989 24.202 68.9715 28.0889 68.9715C28.5747 68.9715 29.0491 69.2188 29.5072 69.123C32.7145 68.4529 35.1269 65.5551 35.1269 62.0817Z" fill="#FFD163"/>
<path d="M29.5849 69.1062C29.1028 69.214 28.6031 69.2697 28.0893 69.2697C24.2026 69.2697 21.0513 66.0515 21.0513 62.0822C21.0513 58.1129 24.2026 54.8947 28.0893 54.8947C28.6031 54.8947 29.1028 54.9504 29.5849 55.0583C26.416 55.7572 24.0424 58.6376 24.0424 62.0822C24.0424 65.5269 26.416 68.4072 29.5849 69.1062Z" fill="#FFB65F"/>
</g>
<defs>
<clipPath id="clip0_55_2685">
<rect width="56" height="92" fill="white"/>
</clipPath>
</defs>
</svg>
