<svg width="83" height="75" viewBox="0 0 83 75" fill="none" xmlns="http://www.w3.org/2000/svg">
<rect width="83" height="75" rx="4.92308" fill="#F4F8F7"/>
<g clip-path="url(#clip0_98_8985)">
<path d="M59.8802 32.5074L47.6446 30.7295L42.1726 19.6421C41.694 18.6723 40.3064 18.6718 39.8274 19.6421L34.3555 30.7295L22.12 32.5074C21.0499 32.663 20.6202 33.9823 21.3953 34.7378L30.249 43.3681L28.1588 55.5542C28.1176 55.7947 28.1444 56.0419 28.2364 56.2679C28.3283 56.494 28.4816 56.6897 28.679 56.8332C28.8764 56.9766 29.11 57.0619 29.3533 57.0795C29.5967 57.0971 29.8401 57.0462 30.0561 56.9327L41 51.1793C52.9145 57.443 52.0962 57.083 52.5523 57.083C53.3582 57.083 53.9788 56.3564 53.8412 55.5542L51.7511 43.3681L60.6048 34.7378C61.3791 33.9829 60.9511 32.6631 59.8802 32.5074Z" fill="#F7AC16"/>
<path d="M41.0001 18.9131C40.7561 18.9131 40.5169 18.9814 40.3097 19.1102C40.1024 19.239 39.9354 19.4232 39.8273 19.642L34.3555 30.7294L22.12 32.5073C21.0499 32.6629 20.6202 33.9822 21.3953 34.7377L30.249 43.368L28.1588 55.5541C28.1176 55.7946 28.1444 56.0418 28.2364 56.2678C28.3283 56.4938 28.4816 56.6896 28.679 56.833C28.8764 56.9765 29.11 57.0618 29.3533 57.0794C29.5967 57.0969 29.8401 57.0461 30.0561 56.9325L41 51.1792H41.0001V18.9131Z" fill="#F2D422"/>
<path d="M22.12 32.5075C21.0499 32.663 20.6202 33.9824 21.3953 34.7379L30.249 43.3682L28.1588 55.5543C28.1176 55.7947 28.1444 56.042 28.2364 56.268C28.3283 56.494 28.4816 56.6898 28.679 56.8332C28.8764 56.9766 29.11 57.0619 29.3533 57.0795C29.5967 57.0971 29.8401 57.0462 30.0561 56.9327L41 51.1793C52.9145 57.443 52.0962 57.083 52.5523 57.083C52.8284 57.0831 53.0975 56.9956 53.3209 56.8332L34.3555 30.7295L22.12 32.5075Z" fill="#F7AC16"/>
<path d="M34.9498 41.863C25.4659 32.6184 25.8736 33.1139 25.7463 32.6344C25.6945 32.4418 25.6839 32.2178 25.7402 31.9814L22.12 32.5075C21.0499 32.663 20.6202 33.9824 21.3953 34.7379L30.249 43.3682L28.1588 55.5543C28.1176 55.7948 28.1444 56.042 28.2364 56.2681C28.3283 56.4941 28.4816 56.6899 28.679 56.8333C28.8764 56.9767 29.11 57.062 29.3533 57.0796C29.5967 57.0972 29.8401 57.0463 30.0561 56.9328L33.2738 55.2411C33.1098 55.0936 32.9858 54.9069 32.9133 54.6984C32.8409 54.49 32.8225 54.2666 32.8597 54.0491L34.9498 41.863Z" fill="#F48B19"/>
<path d="M21.3953 34.7379L30.2489 43.3682L28.1588 55.5543C28.1175 55.7948 28.1444 56.042 28.2363 56.2681C28.3282 56.4941 28.4816 56.6899 28.679 56.8333C28.8763 56.9767 29.1099 57.062 29.3533 57.0796C29.5967 57.0972 29.8401 57.0463 30.056 56.9328L40.9999 51.1794C52.9145 57.4431 52.0961 57.0831 52.5522 57.0831C53.3581 57.0831 53.9787 56.3565 53.8411 55.5543L51.751 43.3682L21.0642 33.3975C20.9113 33.9455 21.0644 34.4156 21.3953 34.7379Z" fill="#F2D422"/>
<path d="M21.3953 34.7379L30.2489 43.3682L28.1588 55.5543C28.1175 55.7948 28.1444 56.042 28.2363 56.2681C28.3282 56.4941 28.4816 56.6899 28.679 56.8333C28.8763 56.9767 29.1099 57.062 29.3533 57.0796C29.5967 57.0972 29.8401 57.0463 30.056 56.9328L33.2738 55.2411C33.1097 55.0936 32.9857 54.9069 32.9133 54.6984C32.8409 54.49 32.8224 54.2666 32.8596 54.0491L34.9498 41.863L28.8656 35.9323L21.0642 33.3975C20.9113 33.9455 21.0644 34.4156 21.3953 34.7379Z" fill="#EFB616"/>
<path d="M28.1585 55.5543C28.1172 55.7947 28.1441 56.042 28.236 56.268C28.3279 56.494 28.4813 56.6898 28.6787 56.8332C28.876 56.9766 29.1096 57.0619 29.353 57.0795C29.5964 57.0971 29.8398 57.0462 30.0557 56.9327L40.9996 51.1793C52.9142 57.443 52.0958 57.083 52.5519 57.083C53.3578 57.083 53.9784 56.3564 53.8408 55.5543L51.7507 43.3682L60.6045 34.7379C60.7792 34.5675 60.9027 34.3517 60.9612 34.1149C61.0196 33.878 61.0107 33.6295 60.9353 33.3975L30.2486 43.3682L28.1585 55.5543Z" fill="#F7AC16"/>
<path d="M28.1585 55.5542C28.1172 55.7946 28.1441 56.0419 28.236 56.2679C28.3279 56.4939 28.4813 56.6897 28.6787 56.8331C28.876 56.9765 29.1096 57.0618 29.353 57.0794C29.5964 57.097 29.8398 57.0461 30.0557 56.9326L33.2735 55.241C33.1094 55.0934 32.9854 54.9067 32.913 54.6982C32.8406 54.4898 32.8221 54.2664 32.8593 54.0489L34.9495 41.8628L34.9324 41.8462L30.2486 43.3681L28.1585 55.5542Z" fill="#F48B19"/>
<path d="M30.0558 56.9326L40.9996 51.1793C52.9142 57.4429 52.0958 57.0829 52.5519 57.0829C53.3579 57.0829 53.9784 56.3564 53.8408 55.5542L51.7507 43.3681L60.6045 34.7378C61.3787 33.9829 60.9507 32.6631 59.8797 32.5074L47.6442 30.7295L28.6787 56.8332C28.8761 56.9766 29.1097 57.0619 29.3531 57.0794C29.5964 57.097 29.8399 57.0462 30.0558 56.9326Z" fill="#F2D422"/>
<path d="M60.9354 33.3975L40.9996 39.875L28.6787 56.8333C28.8761 56.9767 29.1097 57.062 29.353 57.0796C29.5964 57.0972 29.8398 57.0463 30.0557 56.9328L40.9996 51.1794C52.9142 57.4431 52.0958 57.0831 52.5519 57.0831C53.3579 57.0831 53.9784 56.3565 53.8408 55.5543L51.7507 43.3682L60.6045 34.7379C60.7792 34.5676 60.9028 34.3518 60.9612 34.1149C61.0197 33.878 61.0108 33.6295 60.9354 33.3975Z" fill="#F7AC16"/>
<path d="M51.7508 43.3678L40.9996 39.8745L28.6787 56.8329C28.8761 56.9763 29.1097 57.0616 29.353 57.0792C29.5964 57.0967 29.8398 57.0459 30.0557 56.9323L40.9996 51.179C52.9142 57.4426 52.0958 57.0826 52.5519 57.0826C53.3579 57.0826 53.9784 56.3561 53.8408 55.5539L51.7508 43.3678Z" fill="#F2D422"/>
<path d="M28.6787 56.8329C28.8761 56.9763 29.1097 57.0616 29.353 57.0792C29.5964 57.0967 29.8398 57.0459 30.0557 56.9323L40.9996 51.179C52.9142 57.4426 52.0958 57.0826 52.5519 57.0826C52.8281 57.0827 53.0972 56.9952 53.3206 56.8329L40.9996 39.8745L28.6787 56.8329Z" fill="#F7AC16"/>
<path d="M40.9997 39.8747L40.9996 39.8745L28.6787 56.8329C28.8761 56.9763 29.1097 57.0616 29.353 57.0792C29.5964 57.0967 29.8398 57.0459 30.0557 56.9323L40.9996 51.179H40.9997V39.8747Z" fill="#F2D422"/>
<path d="M33.5261 50.1611L28.6787 56.833C28.8761 56.9764 29.1097 57.0617 29.353 57.0793C29.5964 57.0969 29.8398 57.046 30.0557 56.9325L33.2735 55.2408C33.1094 55.0933 32.9854 54.9065 32.913 54.6981C32.8406 54.4897 32.8221 54.2663 32.8593 54.0488L33.5261 50.1611Z" fill="#EFB616"/>
</g>
<defs>
<clipPath id="clip0_98_8985">
<rect width="40" height="40" fill="white" transform="translate(21 18)"/>
</clipPath>
</defs>
</svg>
