<svg width="165" height="156" viewBox="0 0 165 156" fill="none" xmlns="http://www.w3.org/2000/svg">
<path d="M101.309 76.1809L138.52 78.6071C139.569 78.6774 140.619 78.491 141.579 78.0639C142.54 77.6368 143.382 76.982 144.032 76.156L167.139 46.8862C167.889 45.9384 168.89 45.2193 170.028 44.8101C171.166 44.4008 172.395 44.3177 173.577 44.57C174.76 44.8224 175.848 45.4002 176.72 46.2382C177.591 47.0763 178.211 48.1412 178.51 49.3129L187.678 85.4274C187.937 86.4465 188.44 87.3872 189.143 88.1684C189.847 88.9496 190.73 89.5476 191.717 89.9109L226.683 102.82C227.817 103.239 228.812 103.968 229.555 104.923C230.297 105.878 230.757 107.022 230.883 108.225C231.01 109.428 230.797 110.642 230.269 111.731C229.74 112.819 228.918 113.738 227.895 114.384L196.364 134.294C195.475 134.854 194.736 135.622 194.211 136.532C193.685 137.442 193.39 138.467 193.349 139.517L191.872 176.778C191.824 177.987 191.439 179.159 190.761 180.16C190.082 181.162 189.137 181.953 188.032 182.446C186.927 182.938 185.706 183.111 184.508 182.946C183.309 182.781 182.181 182.283 181.251 181.51L152.588 157.683C151.78 157.01 150.821 156.544 149.793 156.326C148.764 156.107 147.698 156.142 146.686 156.428L110.792 166.541C109.628 166.868 108.396 166.864 107.234 166.528C106.073 166.192 105.028 165.538 104.219 164.641C103.409 163.743 102.866 162.636 102.652 161.446C102.437 160.257 102.56 159.03 103.005 157.906L116.8 123.26C117.19 122.284 117.336 121.228 117.226 120.182C117.116 119.137 116.752 118.134 116.167 117.261L95.4939 86.2528C94.8229 85.2463 94.4467 84.0723 94.4077 82.8633C94.3688 81.6543 94.6687 80.4585 95.2735 79.4109C95.8783 78.3634 96.764 77.5058 97.8305 76.935C98.897 76.3642 100.102 76.103 101.309 76.1809Z" fill="#FFD44D"/>
<path d="M178.503 49.2984C178.206 48.1256 177.586 47.0594 176.715 46.2202C175.843 45.3811 174.755 44.8025 173.571 44.55C172.388 44.2975 171.158 44.3812 170.02 44.7914C168.882 45.2017 167.881 45.9223 167.131 46.8717L156.621 60.1923L163.007 85.2953C163.266 86.314 163.769 87.2544 164.472 88.0355C165.176 88.8166 166.059 89.4148 167.045 89.7787L202.011 102.688C203.145 103.108 204.139 103.836 204.882 104.791C205.624 105.747 206.084 106.89 206.211 108.093C206.337 109.296 206.125 110.51 205.598 111.599C205.07 112.687 204.249 113.607 203.227 114.254L171.695 134.158C170.807 134.721 170.068 135.491 169.542 136.402C169.016 137.313 168.719 138.337 168.675 139.388L167.462 170.037L181.267 181.509C182.197 182.283 183.325 182.781 184.524 182.948C185.723 183.114 186.944 182.941 188.05 182.449C189.156 181.956 190.101 181.165 190.78 180.163C191.459 179.161 191.844 177.989 191.891 176.78L193.369 139.518C193.41 138.468 193.705 137.443 194.231 136.534C194.756 135.624 195.495 134.855 196.384 134.296L227.915 114.385C228.939 113.739 229.761 112.82 230.289 111.731C230.818 110.642 231.031 109.427 230.904 108.223C230.777 107.02 230.316 105.876 229.573 104.921C228.83 103.965 227.834 103.237 226.699 102.819L191.733 89.9098C190.747 89.5476 189.864 88.9511 189.161 88.1717C188.457 87.3924 187.954 86.4536 187.694 85.4364L178.503 49.2984Z" fill="#F9BB0D"/>
<path d="M115.992 32.9812L125.116 33.5931C125.373 33.6093 125.63 33.5631 125.865 33.4584C126.1 33.3537 126.307 33.1936 126.467 32.9918L132.137 25.8054C132.319 25.5747 132.561 25.3991 132.837 25.2982C133.113 25.1973 133.412 25.1751 133.7 25.234C133.987 25.2929 134.253 25.4307 134.467 25.6318C134.682 25.833 134.836 26.0898 134.912 26.3734L137.21 35.2423C137.275 35.4914 137.399 35.7209 137.572 35.9111C137.745 36.1013 137.962 36.2463 138.204 36.3337L146.787 39.5042C147.066 39.6065 147.311 39.7849 147.494 40.0191C147.676 40.2533 147.79 40.5341 147.821 40.8295C147.853 41.1249 147.801 41.4232 147.671 41.6906C147.542 41.958 147.34 42.1838 147.089 42.3423L139.349 47.2268C139.131 47.3653 138.95 47.5545 138.821 47.778C138.692 48.0016 138.619 48.2531 138.607 48.511L138.228 57.6708C138.216 57.9676 138.121 58.2551 137.954 58.5008C137.787 58.7465 137.555 58.9407 137.283 59.0615C137.012 59.1823 136.712 59.2249 136.418 59.1845C136.123 59.1441 135.846 59.0223 135.618 58.8328L128.583 52.9813C128.385 52.8167 128.151 52.7021 127.9 52.6472C127.649 52.5923 127.388 52.5987 127.14 52.6659L118.333 55.1439C118.049 55.2192 117.749 55.2142 117.468 55.1293C117.187 55.0444 116.935 54.883 116.74 54.6632C116.545 54.4433 116.415 54.1736 116.364 53.8842C116.313 53.5947 116.344 53.2969 116.453 53.0239L119.839 44.5243C119.936 44.2852 119.972 44.0262 119.945 43.7698C119.918 43.5135 119.829 43.2676 119.685 43.0538L114.593 35.4583C114.428 35.2134 114.334 34.9274 114.323 34.6323C114.311 34.3371 114.382 34.0446 114.527 33.7875C114.672 33.5303 114.886 33.3187 115.145 33.1763C115.404 33.0339 115.697 32.9663 115.992 32.9812Z" fill="#FFD44D"/>
<path d="M134.935 26.3868C134.858 26.1032 134.704 25.8464 134.49 25.6452C134.276 25.4441 134.01 25.3063 133.722 25.2474C133.434 25.1885 133.136 25.2107 132.86 25.3116C132.584 25.4125 132.341 25.5881 132.159 25.8188L129.578 29.088L131.143 35.2475C131.208 35.4972 131.333 35.7274 131.507 35.9179C131.681 36.1085 131.899 36.2537 132.142 36.3411L140.724 39.5117C141.003 39.6146 141.246 39.7934 141.428 40.0276C141.61 40.2618 141.723 40.5422 141.754 40.8372C141.785 41.1322 141.733 41.4299 141.603 41.6968C141.474 41.9637 141.273 42.1891 141.022 42.3475L133.286 47.2342C133.067 47.3713 132.885 47.5601 132.756 47.784C132.626 48.0079 132.554 48.26 132.545 48.5184L132.244 56.0371L135.632 58.8517C135.86 59.0412 136.138 59.163 136.432 59.2034C136.726 59.2438 137.026 59.2012 137.297 59.0804C137.569 58.9596 137.801 58.7654 137.968 58.5197C138.135 58.274 138.23 57.9865 138.242 57.6897L138.6 48.5487C138.612 48.2908 138.685 48.0393 138.814 47.8158C138.943 47.5922 139.124 47.4031 139.342 47.2645L147.067 42.3611C147.318 42.2025 147.52 41.9768 147.649 41.7094C147.779 41.442 147.831 41.1437 147.799 40.8483C147.768 40.5528 147.654 40.2721 147.472 40.0379C147.289 39.8036 147.044 39.6253 146.765 39.523L138.182 36.3524C137.94 36.2651 137.723 36.1201 137.55 35.9299C137.377 35.7397 137.253 35.5101 137.188 35.2611L134.935 26.3868Z" fill="#F9BB0D"/>
<path d="M62.0372 102.015L71.1571 102.624C71.4168 102.647 71.6781 102.605 71.9178 102.502C72.1574 102.4 72.3681 102.24 72.5312 102.036L78.195 94.8516C78.3774 94.6159 78.6223 94.4362 78.9019 94.333C79.1815 94.2298 79.4845 94.2072 79.7763 94.2678C80.0681 94.3284 80.3369 94.4698 80.5523 94.6758C80.7676 94.8819 80.9207 95.1443 80.9942 95.4331L83.2575 104.272C83.323 104.52 83.4477 104.749 83.6208 104.94C83.7939 105.13 84.0104 105.275 84.2518 105.363L92.8369 108.53C93.1158 108.633 93.3604 108.812 93.5428 109.046C93.7252 109.281 93.8382 109.562 93.869 109.858C93.8997 110.154 93.847 110.452 93.7167 110.719C93.5865 110.986 93.3839 111.212 93.1321 111.37L85.3986 116.252C85.1808 116.391 84.9996 116.58 84.8705 116.804C84.7414 117.027 84.6682 117.279 84.6571 117.537L84.2712 126.708C84.2594 127.004 84.1649 127.292 83.9984 127.537C83.832 127.783 83.6002 127.977 83.3293 128.097C83.0584 128.218 82.7591 128.26 82.4653 128.22C82.1715 128.18 81.8948 128.058 81.6666 127.868L74.6294 122.021C74.4327 121.855 74.1986 121.739 73.9473 121.684C73.696 121.63 73.435 121.637 73.1871 121.705L64.3674 124.187C64.0805 124.268 63.7767 124.266 63.4906 124.183C63.2045 124.099 62.9476 123.937 62.7493 123.715C62.5509 123.492 62.4189 123.219 62.3686 122.925C62.3182 122.631 62.3513 122.329 62.4642 122.053L65.8567 113.552C65.9502 113.309 65.9828 113.047 65.9518 112.788C65.9208 112.529 65.8271 112.282 65.6789 112.068L60.591 104.475C60.4277 104.227 60.3372 103.938 60.3297 103.641C60.3222 103.344 60.398 103.051 60.5485 102.795C60.699 102.539 60.9183 102.33 61.1814 102.192C61.4445 102.054 61.741 101.993 62.0372 102.015Z" fill="#FFD44D"/>
<path d="M80.9815 95.4203C80.908 95.1314 80.7549 94.8691 80.5396 94.663C80.3243 94.457 80.0554 94.3156 79.7636 94.255C79.4718 94.1944 79.1688 94.217 78.8892 94.3202C78.6096 94.4234 78.3647 94.6031 78.1823 94.8388L75.6077 98.1064L77.1729 104.266C77.2373 104.515 77.3616 104.745 77.5348 104.935C77.7081 105.125 77.9251 105.27 78.1671 105.357L86.75 108.528C87.0289 108.63 87.2736 108.808 87.4563 109.043C87.6391 109.277 87.7526 109.558 87.7839 109.853C87.8153 110.149 87.7633 110.447 87.6338 110.714C87.5043 110.982 87.3025 111.207 87.0513 111.366L79.3117 116.25C79.0939 116.389 78.9127 116.578 78.7836 116.802C78.6545 117.025 78.5813 117.277 78.5702 117.535L78.2734 125.055L81.661 127.87C81.8893 128.059 82.1659 128.181 82.4598 128.222C82.7536 128.262 83.0528 128.22 83.3237 128.099C83.5947 127.978 83.8264 127.784 83.9929 127.539C84.1593 127.293 84.2538 127.006 84.2657 126.71L84.6298 117.567C84.6409 117.309 84.7141 117.058 84.8432 116.834C84.9723 116.611 85.1534 116.421 85.3712 116.283L93.1047 111.4C93.3566 111.242 93.5591 111.017 93.6894 110.75C93.8196 110.482 93.8724 110.184 93.8416 109.888C93.8109 109.593 93.6979 109.311 93.5155 109.077C93.333 108.842 93.0885 108.663 92.8095 108.56L84.2267 105.39C83.9847 105.302 83.7677 105.157 83.5944 104.967C83.4211 104.777 83.2969 104.547 83.2324 104.298L80.9815 95.4203Z" fill="#F9BB0D"/>
<path d="M50.0314 41.0147L59.1552 41.6266C59.4129 41.6427 59.6706 41.5961 59.9063 41.4907C60.1419 41.3853 60.3485 41.2242 60.5082 41.0213L66.1781 33.835C66.3605 33.5993 66.6055 33.4196 66.885 33.3163C67.1646 33.2131 67.4676 33.1905 67.7594 33.2511C68.0512 33.3117 68.3201 33.4531 68.5354 33.6592C68.7507 33.8652 68.9038 34.1276 68.9773 34.4164L71.2289 43.2846C71.2937 43.5343 71.4185 43.7644 71.5925 43.955C71.7664 44.1456 71.9842 44.2908 72.227 44.3782L80.8009 47.5643C81.079 47.6672 81.3228 47.846 81.5047 48.0802C81.6866 48.3144 81.7994 48.5949 81.8303 48.8898C81.8613 49.1848 81.8091 49.4825 81.6798 49.7494C81.5504 50.0163 81.349 50.2417 81.0983 50.4001L73.3626 55.2868C73.1434 55.4239 72.9613 55.6127 72.832 55.8366C72.7027 56.0605 72.6303 56.3127 72.6211 56.571L72.2615 65.7059C72.2496 66.0023 72.1551 66.2894 71.9887 66.5348C71.8222 66.7803 71.5905 66.9743 71.3196 67.095C71.0486 67.2157 70.7494 67.2583 70.4556 67.2178C70.1618 67.1774 69.8851 67.0556 69.6569 66.8662L62.6196 61.0186C62.4226 60.852 62.1879 60.736 61.9359 60.6807C61.6839 60.6253 61.4222 60.6323 61.1735 60.701L52.3654 63.189C52.0786 63.2698 51.7748 63.2684 51.4887 63.185C51.2026 63.1015 50.9457 62.9393 50.7473 62.7169C50.5489 62.4945 50.417 62.2209 50.3666 61.9271C50.3162 61.6334 50.3493 61.3314 50.4623 61.0556L53.8487 52.556C53.9435 52.3166 53.979 52.0578 53.9521 51.8017C53.9251 51.5457 53.8366 51.2999 53.6941 51.0855L48.6023 43.49C48.4358 43.243 48.3421 42.9541 48.3317 42.6564C48.3214 42.3587 48.3949 42.0641 48.5439 41.8061C48.6928 41.5481 48.9112 41.3371 49.1742 41.1972C49.4372 41.0573 49.7342 40.9941 50.0314 41.0147Z" fill="#FFD44D"/>
<path d="M68.9788 34.4226C68.9054 34.1337 68.7522 33.8713 68.5369 33.6653C68.3216 33.4593 68.0527 33.3179 67.7609 33.2572C67.4691 33.1966 67.1661 33.2192 66.8865 33.3225C66.607 33.4257 66.362 33.6054 66.1796 33.8411L63.5989 37.1103L65.168 43.272C65.2324 43.5211 65.3567 43.7507 65.5299 43.9408C65.7032 44.131 65.9202 44.2761 66.1622 44.3634L74.7451 47.534C75.0232 47.6369 75.267 47.8157 75.4489 48.0499C75.6308 48.2841 75.7436 48.5646 75.7745 48.8595C75.8055 49.1545 75.7533 49.4522 75.624 49.7191C75.4946 49.986 75.2932 50.2114 75.0425 50.3698L67.3068 55.2565C67.0876 55.3936 66.9055 55.5824 66.7762 55.8063C66.6469 56.0302 66.5745 56.2823 66.5653 56.5407L66.2684 64.0616L69.6561 66.8762C69.8844 67.0656 70.161 67.1874 70.4548 67.2278C70.7487 67.2683 71.0479 67.2257 71.3188 67.105C71.5897 66.9843 71.8215 66.7903 71.988 66.5448C72.1544 66.2994 72.2489 66.0122 72.2608 65.7159L72.6249 56.5732C72.6341 56.3149 72.7065 56.0627 72.8358 55.8388C72.965 55.615 73.1472 55.4262 73.3663 55.289L81.102 50.4024C81.3528 50.2439 81.5542 50.0185 81.6835 49.7516C81.8129 49.4848 81.865 49.187 81.8341 48.8921C81.8032 48.5971 81.6904 48.3167 81.5085 48.0824C81.3265 47.8482 81.0827 47.6695 80.8046 47.5665L72.2218 44.3959C71.979 44.3086 71.7612 44.1633 71.5873 43.9728C71.4133 43.7822 71.2885 43.5521 71.2236 43.3023L68.9788 34.4226Z" fill="#F9BB0D"/>
</svg>
