<svg width="33" height="32" viewBox="0 0 33 32" fill="none" xmlns="http://www.w3.org/2000/svg">
<g clip-path="url(#clip0_120_3533)">
<path d="M16.5 28C23.1274 28 28.5 22.6274 28.5 16C28.5 9.37258 23.1274 4 16.5 4C9.87258 4 4.5 9.37258 4.5 16C4.5 22.6274 9.87258 28 16.5 28Z" fill="#EAB14D"/>
<path d="M16.5 4C16.2858 4 16.0729 4.00586 15.8615 4.01692C22.192 4.34889 27.223 9.5868 27.223 16C27.223 22.4132 22.192 27.6511 15.8615 27.9831C16.0729 27.9941 16.2858 28 16.5 28C23.1274 28 28.5 22.6274 28.5 16C28.5 9.37258 23.1274 4 16.5 4Z" fill="#E49542"/>
<path d="M16.5 25.351C21.6644 25.351 25.851 21.1644 25.851 16C25.851 10.8356 21.6644 6.64905 16.5 6.64905C11.3356 6.64905 7.14905 10.8356 7.14905 16C7.14905 21.1644 11.3356 25.351 16.5 25.351Z" fill="#F4FBFF"/>
<path d="M16.5 6.64905C16.241 6.64905 15.9847 6.66006 15.731 6.68069C20.5357 7.07181 24.313 11.0946 24.313 16C24.313 20.9054 20.5357 24.9281 15.731 25.3193C15.9847 25.34 16.241 25.351 16.5 25.351C21.6644 25.351 25.851 21.1644 25.851 16C25.851 10.8357 21.6644 6.64905 16.5 6.64905Z" fill="#DAF1F4"/>
<path d="M16.5 9.52707C16.404 9.52707 16.3118 9.48891 16.2439 9.421C16.176 9.35308 16.1378 9.26096 16.1378 9.16491V8.63335C16.1389 8.53801 16.1776 8.44694 16.2454 8.3799C16.3132 8.31287 16.4047 8.27527 16.5 8.27527C16.5954 8.27527 16.6869 8.31287 16.7547 8.3799C16.8225 8.44694 16.8611 8.53801 16.8622 8.63335V9.16491C16.8622 9.26097 16.824 9.35308 16.7561 9.421C16.6882 9.48892 16.5961 9.52707 16.5 9.52707ZM21.3135 11.5372C21.2418 11.5372 21.1718 11.516 21.1122 11.4762C21.0527 11.4364 21.0062 11.3798 20.9788 11.3136C20.9514 11.2475 20.9442 11.1746 20.9582 11.1044C20.9722 11.0341 21.0067 10.9696 21.0574 10.9189L21.4333 10.5431C21.5012 10.4752 21.5933 10.437 21.6894 10.437C21.7854 10.437 21.8775 10.4752 21.9454 10.5431C22.0134 10.611 22.0515 10.7032 22.0515 10.7992C22.0515 10.8953 22.0133 10.9874 21.9454 11.0553L21.5695 11.4312C21.5359 11.4648 21.496 11.4915 21.4521 11.5097C21.4081 11.5279 21.361 11.5373 21.3135 11.5372ZM23.8273 16.3622H23.2957C23.1997 16.3622 23.1075 16.324 23.0396 16.2561C22.9717 16.1882 22.9335 16.0961 22.9335 16C22.9335 15.904 22.9717 15.8119 23.0396 15.744C23.1075 15.676 23.1997 15.6379 23.2957 15.6379H23.8273C23.9233 15.6379 24.0154 15.676 24.0833 15.744C24.1513 15.8119 24.1894 15.904 24.1894 16C24.1894 16.0961 24.1513 16.1882 24.0833 16.2561C24.0154 16.324 23.9233 16.3622 23.8273 16.3622ZM21.6614 21.5515C21.6138 21.5516 21.5667 21.5422 21.5228 21.524C21.4788 21.5058 21.4389 21.4791 21.4053 21.4455L21.0294 21.0696C20.9615 21.0017 20.9234 20.9096 20.9234 20.8135C20.9234 20.7174 20.9615 20.6253 21.0294 20.5574C21.0974 20.4895 21.1895 20.4513 21.2856 20.4513C21.3816 20.4513 21.4737 20.4895 21.5417 20.5574L21.9175 20.9332C21.9681 20.9839 22.0026 21.0484 22.0166 21.1187C22.0305 21.1889 22.0233 21.2617 21.9959 21.3279C21.9685 21.3941 21.9221 21.4506 21.8626 21.4904C21.803 21.5302 21.733 21.5515 21.6614 21.5515ZM16.4605 23.6895C16.3645 23.6895 16.2724 23.6514 16.2045 23.5834C16.1365 23.5155 16.0984 23.4234 16.0984 23.3274V22.7958C16.0984 22.6997 16.1365 22.6076 16.2045 22.5397C16.2724 22.4718 16.3645 22.4336 16.4605 22.4336C16.5566 22.4336 16.6487 22.4718 16.7166 22.5397C16.7845 22.6076 16.8227 22.6997 16.8227 22.7958V23.3274C16.8227 23.4234 16.7845 23.5155 16.7166 23.5834C16.6487 23.6514 16.5566 23.6895 16.4605 23.6895ZM11.2712 21.5236C11.2236 21.5237 11.1765 21.5143 11.1326 21.4961C11.0886 21.4779 11.0487 21.4512 11.0151 21.4175C10.9815 21.3838 10.9548 21.3439 10.9366 21.3C10.9184 21.256 10.909 21.2089 10.909 21.1614C10.909 21.1138 10.9184 21.0667 10.9366 21.0228C10.9548 20.9788 10.9815 20.9389 11.0151 20.9053L11.391 20.5294C11.4592 20.4627 11.5509 20.4256 11.6463 20.4261C11.7417 20.4266 11.833 20.4648 11.9005 20.5322C11.9679 20.5997 12.006 20.691 12.0065 20.7864C12.007 20.8818 11.9699 20.9735 11.9032 21.0417L11.5273 21.4175C11.4937 21.4512 11.4538 21.4779 11.4098 21.4961C11.3659 21.5143 11.3188 21.5237 11.2712 21.5236ZM9.66483 16.3228H9.13327C9.03722 16.3228 8.9451 16.2846 8.87718 16.2167C8.80927 16.1488 8.77111 16.0567 8.77111 15.9606C8.77111 15.8646 8.80927 15.7725 8.87718 15.7045C8.9451 15.6366 9.03722 15.5985 9.13327 15.5985H9.66483C9.76088 15.5985 9.853 15.6366 9.92091 15.7045C9.98883 15.7725 10.027 15.8646 10.027 15.9606C10.027 16.0567 9.98883 16.1488 9.92091 16.2167C9.853 16.2846 9.76088 16.3228 9.66483 16.3228ZM11.675 11.5093C11.6274 11.5094 11.5803 11.5 11.5364 11.4818C11.4924 11.4636 11.4525 11.4369 11.4189 11.4032L11.043 11.0274C10.9763 10.9592 10.9392 10.8675 10.9397 10.7721C10.9402 10.6767 10.9783 10.5854 11.0457 10.5179C11.1132 10.4505 11.2045 10.4123 11.2999 10.4118C11.3953 10.4113 11.487 10.4484 11.5552 10.5151L11.9311 10.891C11.9817 10.9417 12.0162 11.0062 12.0302 11.0765C12.0442 11.1467 12.037 11.2195 12.0096 11.2857C11.9822 11.3519 11.9358 11.4085 11.8762 11.4483C11.8167 11.4881 11.7466 11.5093 11.675 11.5093ZM16.5 16.3622H13.4241C13.3287 16.3611 13.2377 16.3225 13.1706 16.2547C13.1036 16.1869 13.066 16.0954 13.066 16C13.066 15.9047 13.1036 15.8132 13.1706 15.7454C13.2377 15.6776 13.3287 15.6389 13.4241 15.6378H16.1378V11.0302C16.1378 10.9341 16.176 10.842 16.2439 10.7741C16.3118 10.7062 16.4039 10.668 16.5 10.668C16.596 10.668 16.6881 10.7062 16.756 10.7741C16.824 10.842 16.8621 10.9341 16.8621 11.0302V16C16.8621 16.0476 16.8528 16.0947 16.8346 16.1386C16.8164 16.1825 16.7897 16.2225 16.7561 16.2561C16.7225 16.2897 16.6825 16.3164 16.6386 16.3346C16.5947 16.3528 16.5476 16.3622 16.5 16.3622Z" fill="#2B4D66"/>
<path d="M20.2156 18.273C20.1581 18.273 20.1014 18.2592 20.0503 18.2328L16.3344 16.322C16.1565 16.2306 16.0865 16.0122 16.1779 15.8343C16.2694 15.6565 16.4877 15.5864 16.6657 15.6779L20.3815 17.5886C20.4238 17.6104 20.4614 17.6403 20.4922 17.6765C20.5229 17.7128 20.5462 17.7548 20.5608 17.8001C20.5753 17.8454 20.5808 17.8931 20.5769 17.9405C20.573 17.9879 20.5597 18.034 20.538 18.0763C20.5075 18.1356 20.4613 18.1853 20.4045 18.22C20.3476 18.2547 20.2822 18.2731 20.2156 18.273Z" fill="#DA4A54"/>
<path d="M16.5 16.9666C17.0339 16.9666 17.4667 16.5339 17.4667 16C17.4667 15.4661 17.0339 15.0333 16.5 15.0333C15.9661 15.0333 15.5333 15.4661 15.5333 16C15.5333 16.5339 15.9661 16.9666 16.5 16.9666Z" fill="#365E7D"/>
</g>
<defs>
<clipPath id="clip0_120_3533">
<rect width="24" height="24" fill="white" transform="translate(4.5 4)"/>
</clipPath>
</defs>
</svg>
