<svg width="33" height="32" viewBox="0 0 33 32" fill="none" xmlns="http://www.w3.org/2000/svg">
<path fill-rule="evenodd" clip-rule="evenodd" d="M31.6097 16.3635C31.6097 15.229 31.5079 14.1381 31.3188 13.0908H16.2498V19.2799H24.8607C24.4897 21.2799 23.3625 22.9745 21.6679 24.109V28.1235H26.8388C29.8643 25.3381 31.6097 21.2363 31.6097 16.3635Z" fill="#4285F4"/>
<path fill-rule="evenodd" clip-rule="evenodd" d="M16.2498 31.9999C20.5698 31.9999 24.1916 30.5672 26.8389 28.1236L21.668 24.109C20.2353 25.069 18.4025 25.6363 16.2498 25.6363C12.0826 25.6363 8.55529 22.8217 7.29711 19.0399H1.95166V23.1854C4.58438 28.4145 9.99528 31.9999 16.2498 31.9999Z" fill="#34A853"/>
<path fill-rule="evenodd" clip-rule="evenodd" d="M7.29702 19.04C6.97702 18.08 6.7952 17.0546 6.7952 16C6.7952 14.9455 6.97702 13.92 7.29702 12.96V8.81458H1.95157C0.867937 10.9746 0.249756 13.4182 0.249756 16C0.249756 18.5818 0.867937 21.0255 1.95157 23.1855L7.29702 19.04Z" fill="#FBBC05"/>
<path fill-rule="evenodd" clip-rule="evenodd" d="M16.2498 6.36363C18.5989 6.36363 20.708 7.17091 22.3662 8.75636L26.9553 4.16727C24.1844 1.58545 20.5625 0 16.2498 0C9.99529 0 4.58438 3.58545 1.95166 8.81454L7.29711 12.96C8.55529 9.17818 12.0826 6.36363 16.2498 6.36363Z" fill="#EA4335"/>
</svg>
