<?xml version="1.0" encoding="utf-8"?><svg viewBox="0 0 123 33" xmlns="http://www.w3.org/2000/svg" xmlns:xlink="http://www.w3.org/1999/xlink"><style>:root>svg{display:none}:root>svg:target{display:block}</style><svg fill="none" viewBox="0 0 24 25" id="alert" xmlns="http://www.w3.org/2000/svg"><path d="M10.29 4.36L1.82 18.5a2 2 0 001.71 3h16.94a2 2 0 001.71-3L13.71 4.36a2 2 0 00-3.42 0zM12 9.5v4M12 17.5h.01" stroke="#E84141" stroke-width="2" stroke-linecap="round" stroke-linejoin="round"/></svg><svg fill="none" viewBox="0 0 10 6" id="arrow" xmlns="http://www.w3.org/2000/svg"><path d="M1 1l4 4 4-4" stroke="#000" stroke-width="2" stroke-linecap="round" stroke-linejoin="round"/></svg><svg fill="none" viewBox="0 0 24 24" id="arrow-left" xmlns="http://www.w3.org/2000/svg"><path d="M16 4l-8 8 8 8"/></svg><svg fill="none" viewBox="0 0 24 25" id="arrow-menu" xmlns="http://www.w3.org/2000/svg"><path d="M5 12.5h14M12 5.5l7 7-7 7" stroke="#EBEBEB" stroke-width="2" stroke-linecap="round" stroke-linejoin="round"/></svg><svg fill="none" viewBox="0 0 24 25" id="arrow-right" xmlns="http://www.w3.org/2000/svg"><path d="M5 12.5h14M12 5.5l7 7-7 7"/></svg><svg fill="none" viewBox="0 0 24 25" id="arrow-right-stroke" xmlns="http://www.w3.org/2000/svg"><path d="M5 12.5h14M12 5.5l7 7-7 7" stroke="#000" stroke-width="2" stroke-linecap="round" stroke-linejoin="round"/></svg><svg fill="none" viewBox="0 0 10 6" id="arrow-str" xmlns="http://www.w3.org/2000/svg"><path d="M1 1l4 4 4-4"/></svg><svg fill="none" viewBox="0 0 24 25" id="birthday" xmlns="http://www.w3.org/2000/svg"><path d="M15.582 17.45l-.723 2.519h2.857l-.722-2.52M7.012 14.96l-.723 2.52h2.857l-.723-2.52M7.71 22.5v-5.02M16.29 22.5v-2.531"/><path d="M21.999 11.255c0 3.438-2.558 6.224-5.714 6.224-3.156 0-5.715-2.786-5.715-6.224 0-3.437 2.559-6.265 5.715-6.265 3.155 0 5.714 2.828 5.714 6.265z"/><path d="M11.07 13.803a5.383 5.383 0 01-3.356 1.186C4.558 14.99 2 12.204 2 8.765 2 5.328 4.558 2.5 7.714 2.5c2.323 0 4.322 1.509 5.215 3.676"/></svg><svg fill="none" viewBox="0 0 24 25" id="book" xmlns="http://www.w3.org/2000/svg"><path d="M5 6.2h4.2A2.8 2.8 0 0112 9v9.8a2.1 2.1 0 00-2.1-2.1H5V6.2zM19 6.2h-4.2A2.8 2.8 0 0012 9v9.8a2.1 2.1 0 012.1-2.1H19V6.2z"/></svg><svg fill="none" viewBox="0 0 24 25" id="calendar" xmlns="http://www.w3.org/2000/svg"><path d="M19 4.5H5a2 2 0 00-2 2v14a2 2 0 002 2h14a2 2 0 002-2v-14a2 2 0 00-2-2zM16 2.5v4M8 2.5v4M3 10.5h18"/><path d="M14.5 14.073l-3.438 3.437L9.5 15.948"/></svg><svg fill="none" viewBox="0 0 24 25" id="camera" xmlns="http://www.w3.org/2000/svg"><path d="M23 19.5a2 2 0 01-2 2H3a2 2 0 01-2-2v-11a2 2 0 012-2h4l2-3h6l2 3h4a2 2 0 012 2v11z"/><path d="M12 17.5a4 4 0 100-8 4 4 0 000 8z"/></svg><svg fill="none" viewBox="0 0 16 16" id="cart" xmlns="http://www.w3.org/2000/svg"><g clip-path="url(#alclip0_1_5812)"><path d="M6 14.667a.667.667 0 100-1.334.667.667 0 000 1.334zM13.333 14.667a.667.667 0 100-1.334.667.667 0 000 1.334zM.667.667h2.666L5.12 9.593a1.333 1.333 0 001.333 1.074h6.48a1.334 1.334 0 001.334-1.074L15.333 4H4"/></g><defs><clipPath id="alclip0_1_5812"><path fill="#fff" d="M0 0h16v16H0z"/></clipPath></defs></svg><svg fill="none" viewBox="0 0 24 25" id="catalog" xmlns="http://www.w3.org/2000/svg"><path d="M17.146 12.084h0a4.203 4.203 0 01-2.966-1.231s0 0 0 0m2.966 1.231l-4.122-4.198a4.127 4.127 0 001.21 2.914l-.054.053m2.966 1.231a4.198 4.198 0 002.97-1.23m-2.97 1.23l2.97-1.23m-5.936-.001a4.202 4.202 0 01-1.23-2.967h0c0-1.113.441-2.18 1.229-2.968m.001 5.935l-.001-5.935m0 0a4.197 4.197 0 012.968-1.23m-2.968 1.23l2.968-1.23m2.968 7.167a4.198 4.198 0 001.23-2.968m-1.23 2.968l1.23-2.968m0 0a4.198 4.198 0 00-1.23-2.969m1.23 2.969l-1.23-2.969m0 0a4.198 4.198 0 00-2.968-1.23m2.969 1.23l-2.969-1.23m1.884 6.083h0c-.5.5-1.177.78-1.884.78h0a2.665 2.665 0 111.884-.78zm1.547 3.672h-6.862a.766.766 0 00-.766.767v6.862c0 .423.343.766.766.766h6.862a.767.767 0 00.767-.766V14.21a.767.767 0 00-.767-.767zm-.766 6.862h-5.33v-5.329h5.33v5.329zM10.824 3.689H3.962a.767.767 0 00-.767.766v6.862c0 .424.343.767.767.767h6.862a.767.767 0 00.767-.767V4.455a.767.767 0 00-.767-.766zm-.767 6.862H4.728V5.222h5.33v5.329zm.767 2.892H3.962a.767.767 0 00-.767.766v6.862c0 .423.343.767.767.767h6.862a.767.767 0 00.767-.767V14.21a.767.767 0 00-.767-.766zm-.767 6.861H4.728v-5.328h5.33v5.328z" fill="#fff" stroke="#fff" stroke-width=".15"/></svg><svg fill="none" viewBox="0 0 14 11" id="check" xmlns="http://www.w3.org/2000/svg"><path d="M13 1.375l-8.25 8.25L1 5.875" stroke="#007F5F" stroke-width="2" stroke-linecap="round" stroke-linejoin="round"/></svg><svg fill="none" viewBox="0 0 24 24" id="check-icon" xmlns="http://www.w3.org/2000/svg"><path d="M18 7.375l-8.25 8.25L6 11.875" stroke="#fff" stroke-width="2" stroke-linecap="round" stroke-linejoin="round"/></svg><svg fill="none" viewBox="0 0 24 24" id="check-one" xmlns="http://www.w3.org/2000/svg"><path d="M12 22a9.97 9.97 0 007.071-2.929A9.97 9.97 0 0022 12a9.969 9.969 0 00-2.929-7.071A9.969 9.969 0 0012 2a9.969 9.969 0 00-7.071 2.929A9.969 9.969 0 002 12a9.969 9.969 0 002.929 7.071A9.969 9.969 0 0012 22z" stroke="#fff" stroke-width="2" stroke-linejoin="round"/><path d="M8 12l3 3 6-6" stroke="#fff" stroke-width="2" stroke-linecap="round" stroke-linejoin="round"/></svg><svg fill="none" viewBox="0 0 14 11" id="check-str" xmlns="http://www.w3.org/2000/svg"><path d="M13 1.375l-8.25 8.25L1 5.875"/></svg><svg fill="none" viewBox="0 0 24 24" id="close" xmlns="http://www.w3.org/2000/svg"><path d="M18 6L6 18M6 6l12 12"/></svg><svg fill="none" viewBox="0 0 24 24" id="comment" xmlns="http://www.w3.org/2000/svg"><path d="M21 11.5a8.38 8.38 0 01-.9 3.8 8.5 8.5 0 01-7.6 4.7 8.379 8.379 0 01-3.8-.9L3 21l1.9-5.7a8.38 8.38 0 01-.9-3.8 8.5 8.5 0 014.7-7.6 8.38 8.38 0 013.8-.9h.5a8.48 8.48 0 018 8v.5z"/></svg><svg fill="none" viewBox="0 0 32 32" id="comment-square" xmlns="http://www.w3.org/2000/svg"><path d="M25.333 19.11a2.074 2.074 0 01-2.074 2.075H10.815l-4.148 4.148V8.741A2.074 2.074 0 018.74 6.667h14.518a2.074 2.074 0 012.074 2.074v10.37z"/></svg><svg fill="none" viewBox="0 0 24 25" id="compare" xmlns="http://www.w3.org/2000/svg"><path d="M18 20.5v-10M12 20.5v-16M6 20.5v-6"/></svg><svg viewBox="0 0 24 25" id="copy" xmlns="http://www.w3.org/2000/svg"><path d="M5.594 4.64h.015v-.015c0-1.343 1.23-2.61 2.61-2.61h7.868l4.585 5.256V17.75c0 1.343-1.23 2.61-2.61 2.61h-.671v.015c0 1.343-1.23 2.61-2.61 2.61H4.938c-1.38 0-2.61-1.267-2.61-2.61V7.25c0-1.344 1.128-2.592 2.507-2.592l.76-.018zm.015 1.298v-.016h-.016l-.718.022c-.698 0-1.265.63-1.265 1.306v13.125c0 .339.158.67.402.918.245.247.576.41.926.41h9.843c.35 0 .681-.163.926-.41.244-.247.402-.579.402-.918v-.015h-7.89c-1.38 0-2.61-1.267-2.61-2.61V5.938zm9.187-2.625v-.015H8.22c-.35 0-.681.163-.926.41-.244.246-.402.578-.402.917V17.75c0 .339.158.67.402.918.245.246.577.41.926.41h9.844c.349 0 .68-.164.925-.41.244-.247.402-.579.402-.918V8.548h-1.984c-1.39 0-2.61-1.239-2.61-2.594V5.902l-.001-.148a172.771 172.771 0 01.001-2.441zm1.31.009l-.027-.032V5.3c0 .344.154.834.396 1.239.121.202.264.383.422.514.157.132.33.213.51.213h2l-.02-.025-3.282-3.918zm-5.919 7.892h5.907a.641.641 0 110 1.281h-5.907a.64.64 0 110-1.28zm0 3.278h5.907a.64.64 0 110 1.281h-5.907a.64.64 0 110-1.28z"/></svg><svg viewBox="0 0 20 21" id="currency" xmlns="http://www.w3.org/2000/svg"><path fill-rule="evenodd" clip-rule="evenodd" d="M9.774 1.542c-4.568 0-8.27 3.799-8.27 8.484 0 4.685 3.703 8.483 8.27 8.483 4.568 0 8.271-3.798 8.271-8.483 0-4.685-3.703-8.484-8.27-8.484zM0 10.026C0 4.489 4.376 0 9.774 0c5.399 0 9.775 4.488 9.775 10.026 0 5.537-4.377 10.026-9.775 10.026C4.376 20.052 0 15.563 0 10.026z"/><path fill-rule="evenodd" clip-rule="evenodd" d="M7.269 5.79c0-.427.336-.772.752-.772h2.506c1.634 0 3.258 1.114 3.258 2.828 0 1.713-1.624 2.828-3.258 2.828H8.773v1.028h3.007c.415 0 .752.345.752.771a.762.762 0 01-.752.771H8.773v1.286a.762.762 0 01-.752.77.762.762 0 01-.752-.77v-1.286h-.502a.762.762 0 01-.751-.77c0-.427.336-.772.752-.772h.5v-1.028h-.5a.762.762 0 01-.752-.772c0-.425.336-.77.752-.77h.5V5.788zM8.773 9.13h1.754c1.134 0 1.754-.727 1.754-1.285 0-.558-.62-1.285-1.754-1.285H8.773v2.57z"/></svg><svg fill="none" viewBox="0 0 24 24" id="delivered" xmlns="http://www.w3.org/2000/svg"><g clip-path="url(#axclip0_1_539)" stroke="#999" stroke-width="1.5" stroke-linecap="round" stroke-linejoin="round"><path d="M15.78 15l-8.24 8.24-3.746-3.745M21.999 15.361l-8.24 8.24-3.019-3.018"/></g><defs><clipPath id="axclip0_1_539"><path fill="#fff" d="M0 0h24v24H0z"/></clipPath></defs></svg><svg fill="none" viewBox="0 0 24 24" id="dots" xmlns="http://www.w3.org/2000/svg"><path d="M12 13a1 1 0 100-2 1 1 0 000 2zM19 13a1 1 0 100-2 1 1 0 000 2zM5 13a1 1 0 100-2 1 1 0 000 2z"/></svg><svg fill="none" viewBox="0 0 24 24" id="drag" xmlns="http://www.w3.org/2000/svg"><circle cx="8" cy="4" r="2" fill="#D9D9D9"/><circle cx="8" cy="12" r="2" fill="#D9D9D9"/><circle cx="8" cy="20" r="2" fill="#D9D9D9"/><circle cx="16" cy="20" r="2" fill="#D9D9D9"/><circle cx="16" cy="12" r="2" fill="#D9D9D9"/><circle cx="16" cy="4" r="2" fill="#D9D9D9"/></svg><svg fill="none" viewBox="0 0 25 25" id="edit" xmlns="http://www.w3.org/2000/svg"><path d="M11.5 4.5h-7a2 2 0 00-2 2v14a2 2 0 002 2h14a2 2 0 002-2v-7"/><path d="M19 3a2.121 2.121 0 113 3l-9.5 9.5-4 1 1-4L19 3z"/></svg><svg fill="none" viewBox="0 0 24 25" id="eye" xmlns="http://www.w3.org/2000/svg"><g clip-path="url(#bbclip0_22_11785)"><path clip-rule="evenodd" d="M12 19.25c4 0 7.25-2.25 9.75-6.75C19.25 8 16 5.75 12 5.75S4.75 8 2.25 12.5C4.75 17 8 19.25 12 19.25z"/><circle cx="12" cy="12.5" r="3"/></g><defs><clipPath id="bbclip0_22_11785"><path fill="#fff" transform="translate(0 .5)" d="M0 0h24v24H0z"/></clipPath></defs></svg><svg fill="none" viewBox="0 0 24 24" id="eye2" xmlns="http://www.w3.org/2000/svg"><path clip-rule="evenodd" d="M12 18.75c4 0 7.25-2.25 9.75-6.75C19.25 7.5 16 5.25 12 5.25S4.75 7.5 2.25 12C4.75 16.5 8 18.75 12 18.75z"/><circle cx="12" cy="12" r="3"/><path d="M3 6l18 12"/></svg><svg viewBox="0 0 32 33" id="favorite" xmlns="http://www.w3.org/2000/svg"><path d="M25.998 7.681a6.442 6.442 0 00-4.518-1.848c-2.245 0-4.299 1.184-5.48 3.057-1.181-1.873-3.235-3.057-5.48-3.057a6.392 6.392 0 00-4.617 1.963A6.748 6.748 0 004 12.48c-.018 2.686 1.946 5.965 5.839 9.745a52.923 52.923 0 005.749 4.812.716.716 0 00.826-.002 53.267 53.267 0 005.717-4.811c3.876-3.777 5.85-7.053 5.869-9.735a6.593 6.593 0 00-2.002-4.808zM21.15 21.254A53.648 53.648 0 0116 25.637a53.266 53.266 0 01-5.18-4.384c-3.559-3.459-5.432-6.49-5.416-8.764a5.416 5.416 0 011.522-3.762 4.982 4.982 0 013.595-1.535c2.154 0 4.09 1.413 4.815 3.517a.68.68 0 00.255.336.717.717 0 00.82 0 .68.68 0 00.255-.336c.726-2.104 2.66-3.517 4.815-3.517 1.316 0 2.567.514 3.523 1.447a5.265 5.265 0 011.594 3.84c-.015 2.28-1.9 5.314-5.448 8.775z"/><path d="M23.357 9.748c-.79-.581-1.736-.822-2.664-.679a.701.701 0 10.215 1.387c.556-.087 1.13.063 1.617.422.58.427.96 1.075 1.071 1.826a.701.701 0 00.797.591h.005a.701.701 0 00.586-.797c-.167-1.123-.745-2.1-1.627-2.75z"/></svg><svg viewBox="0 0 26 22" id="favorite-eye" xmlns="http://www.w3.org/2000/svg"><g clip-path="url(#beclip0_16_5087)"><path d="M18.39.25c1.69 0 3.3.66 4.52 1.85a6.616 6.616 0 012 4.81c-.02 2.68-1.99 5.96-5.87 9.74-2.83 2.75-5.6 4.73-5.72 4.81-.12.09-.27.13-.41.13-.15 0-.29-.05-.41-.13-.07-.05-1.02-.72-2.35-1.81.4-.27.76-.58 1.09-.89.72.58 1.3 1.02 1.67 1.29.88-.65 3.03-2.31 5.15-4.38 3.55-3.46 5.43-6.5 5.45-8.77 0-1.46-.56-2.83-1.59-3.84-.96-.93-2.21-1.45-3.52-1.45-2.15 0-4.09 1.41-4.81 3.52-.05.14-.14.25-.26.34-.12.08-.26.13-.41.13-.15 0-.29-.04-.41-.13a.68.68 0 01-.26-.34c-.73-2.1-2.66-3.52-4.81-3.52-1.36 0-2.63.55-3.6 1.54a5.43 5.43 0 00-1.52 3.76c0 1.14.46 2.47 1.37 3.94-.43.2-.83.44-1.21.7C1.43 9.85.9 8.3.91 6.9a6.75 6.75 0 011.9-4.68C4.05.95 5.69.25 7.43.25c2.25 0 4.3 1.18 5.48 3.06C14.1 1.43 16.15.25 18.39.25z"/><path d="M12.91 21.83c-.2 0-.39-.06-.56-.18 0 0-.97-.68-2.37-1.81l-.26-.21.27-.19c.36-.25.72-.54 1.06-.87l.16-.15.17.14c.63.5 1.15.9 1.51 1.18.92-.69 2.97-2.29 4.98-4.25 3.5-3.41 5.36-6.39 5.37-8.6 0-1.4-.53-2.7-1.52-3.66-.91-.89-2.1-1.38-3.35-1.38-2.05 0-3.89 1.35-4.58 3.35-.06.19-.19.35-.35.46a.98.98 0 01-1.11 0 .95.95 0 01-.35-.46c-.69-2-2.53-3.35-4.58-3.35-1.29 0-2.5.52-3.42 1.46-.93.95-1.44 2.23-1.45 3.59 0 1.08.44 2.37 1.33 3.81l.15.24-.26.12c-.39.18-.79.41-1.17.68l-.22.15-.14-.22C1.15 9.94.61 8.33.62 6.9c.01-1.83.71-3.56 1.97-4.86C3.92.72 5.62 0 7.43 0c2.19 0 4.21 1.06 5.48 2.86C14.18 1.06 16.2 0 18.39 0c1.76 0 3.42.68 4.69 1.92a6.867 6.867 0 012.08 4.99c-.02 2.75-2.02 6.09-5.94 9.91-2.76 2.69-5.45 4.62-5.75 4.84-.16.12-.36.18-.56.18v-.01zm-2.35-2.17c1.24 1 2.08 1.58 2.08 1.59.16.11.38.11.54 0 .29-.21 2.95-2.12 5.69-4.79 3.83-3.73 5.78-6.95 5.79-9.56.01-1.76-.67-3.4-1.93-4.63A6.172 6.172 0 0018.39.49c-2.14 0-4.11 1.1-5.27 2.94l-.21.34-.21-.34C11.54 1.59 9.57.49 7.43.49c-1.68 0-3.26.67-4.44 1.89a6.49 6.49 0 00-1.83 4.51c0 1.28.46 2.72 1.39 4.29.25-.17.51-.32.77-.45-.85-1.43-1.27-2.72-1.26-3.84.01-1.49.58-2.89 1.59-3.93a5.222 5.222 0 013.77-1.61c2.26 0 4.29 1.48 5.05 3.69.03.09.09.16.16.21.16.11.38.11.53 0 .08-.05.13-.13.16-.21.76-2.2 2.79-3.68 5.05-3.68 1.38 0 2.69.54 3.7 1.52a5.505 5.505 0 011.67 4.02c-.02 2.35-1.93 5.44-5.52 8.95a51.58 51.58 0 01-5.18 4.4l-.15.11-.15-.11c-.34-.25-.86-.65-1.51-1.17-.23.2-.46.39-.69.57l.02.01z"/><path d="M6.33 18.08a2.5 2.5 0 010-5 2.5 2.5 0 010 5zm0-3.5c-.55 0-1 .45-1 1s.45 1 1 1 1-.45 1-1-.45-1-1-1z"/><path d="M6.33 20.39c-3.97 0-6.16-4.29-6.25-4.47a.721.721 0 010-.67c.09-.18 2.28-4.47 6.25-4.47s6.16 4.29 6.25 4.47c.11.21.11.46 0 .67-.09.18-2.28 4.47-6.25 4.47zm-4.72-4.81c.55.9 2.24 3.31 4.72 3.31 2.48 0 4.17-2.41 4.72-3.31-.55-.9-2.24-3.31-4.72-3.31-2.48 0-4.17 2.41-4.72 3.31z"/></g><defs><clipPath id="beclip0_16_5087"><path fill="#fff" d="M0 0h25.16v21.83H0z"/></clipPath></defs></svg><svg fill="none" viewBox="0 0 32 32" id="favorite-fill" xmlns="http://www.w3.org/2000/svg"><path d="M25.998 7.182a6.442 6.442 0 00-4.518-1.849c-2.245 0-4.299 1.184-5.48 3.058-1.181-1.874-3.235-3.058-5.48-3.058a6.392 6.392 0 00-4.617 1.963A6.748 6.748 0 004 11.98c-.018 2.687 1.946 5.965 5.839 9.745a52.896 52.896 0 005.749 4.812.715.715 0 00.826-.001 53.253 53.253 0 005.717-4.812c3.876-3.777 5.85-7.052 5.869-9.735a6.593 6.593 0 00-2.002-4.807z" fill="#007F5F" stroke="#007F5F" stroke-width=".667"/></svg><svg fill="none" viewBox="0 0 24 25" id="filter" xmlns="http://www.w3.org/2000/svg"><path d="M16.486 20.784a3.797 3.797 0 100-7.594 3.797 3.797 0 000 7.594zM7.512 11.81a3.797 3.797 0 100-7.594 3.797 3.797 0 000 7.594zM22.355 16.987h-2.07M1.644 8.013h2.07m8.975 8.974H1.645m9.665-8.974h11.045"/></svg><svg fill="none" viewBox="0 0 25 24" id="footer-catalog" xmlns="http://www.w3.org/2000/svg"><path d="M19.865 9.27h0a2.665 2.665 0 10-3.769 0h3.769zm0 0c-.5.5-1.178.781-1.885.781h0m1.885-.78l-1.885.78m0 0c-.706 0-1.384-.28-1.884-.78l1.884.78zm0 1.533h0a4.198 4.198 0 10-4.197-4.198v0a4.202 4.202 0 004.197 4.198zm3.432 1.36h-6.863a.766.766 0 00-.766.766v6.862c0 .423.343.767.766.767h6.863a.767.767 0 00.766-.767V13.71a.767.767 0 00-.766-.767zm-.767 6.861h-5.329v-5.329h5.33v5.33zM11.657 3.19H4.795a.767.767 0 00-.767.767v6.862c0 .423.344.766.767.766h6.862a.766.766 0 00.767-.766V3.956a.767.767 0 00-.767-.767zm-.766 6.862H5.56V4.722h5.33v5.33zm.766 2.892H4.795a.767.767 0 00-.767.767v6.862c0 .423.344.766.767.766h6.862a.767.767 0 00.767-.766V13.71a.767.767 0 00-.767-.767zm-.766 6.862H5.56v-5.329h5.33v5.329z" fill="#007F5F" stroke="#007F5F" stroke-width=".15"/></svg><svg fill="none" viewBox="0 0 25 24" id="footer-compare" xmlns="http://www.w3.org/2000/svg"><path d="M18.5 20V10M12.5 20V4M6.5 20v-6" stroke="#007F5F" stroke-width="2" stroke-linecap="round" stroke-linejoin="round"/></svg><svg fill="none" viewBox="0 0 25 24" id="footer-favorite" xmlns="http://www.w3.org/2000/svg"><g clip-path="url(#bjclip0_16_4520)"><path d="M21.007 4.61a5.499 5.499 0 00-7.78 0l-1.06 1.06-1.06-1.06a5.501 5.501 0 10-7.78 7.78l1.06 1.06 7.78 7.78 7.78-7.78 1.06-1.06a5.501 5.501 0 000-7.78z" stroke="#007F5F" stroke-width="2" stroke-linecap="round" stroke-linejoin="round"/></g><defs><clipPath id="bjclip0_16_4520"><path fill="#fff" transform="translate(.167)" d="M0 0h24v24H0z"/></clipPath></defs></svg><svg fill="none" viewBox="0 0 25 24" id="footer-home" xmlns="http://www.w3.org/2000/svg"><path d="M3.5 9l9-7 9 7v11a2 2 0 01-2 2h-14a2 2 0 01-2-2V9z" stroke="#007F5F" stroke-width="2" stroke-linecap="round" stroke-linejoin="round"/><path d="M9.5 22V12h6v10" stroke="#007F5F" stroke-width="2" stroke-linecap="round" stroke-linejoin="round"/></svg><svg fill="none" viewBox="0 0 25 25" id="hat" xmlns="http://www.w3.org/2000/svg"><path d="M13.743 4.09c-.96-.288-2.528-.288-3.487 0L1.719 6.65c-.959.288-.959.759 0 1.047l8.537 2.56c.959.288 2.528.288 3.487 0l8.536-2.56c.96-.288.96-.759 0-1.046L13.743 4.09zM22 15c-1.105 0-2 .672-2 1.5v3c0 .829.895 1.5 2 1.5s2-.671 2-1.5v-3c0-.828-.895-1.5-2-1.5z"/><path d="M5.4 8.8v3.873c0 1.215 2.955 2.2 6.6 2.2 3.645 0 6.6-.985 6.6-2.2V8.801M22 15V8"/></svg><svg viewBox="0 0 24 25" id="heart" xmlns="http://www.w3.org/2000/svg"><path d="M19.499 5.886A4.832 4.832 0 0016.11 4.5c-1.684 0-3.224.888-4.11 2.293C11.114 5.388 9.574 4.5 7.89 4.5c-1.31 0-2.54.523-3.463 1.472A5.061 5.061 0 003 9.485c-.014 2.015 1.46 4.474 4.38 7.309a39.671 39.671 0 004.31 3.609.537.537 0 00.62-.001 39.957 39.957 0 004.289-3.609c2.907-2.833 4.387-5.29 4.4-7.301a4.945 4.945 0 00-1.5-3.606zm-3.637 10.18a40.23 40.23 0 01-3.863 3.286 39.958 39.958 0 01-3.884-3.287c-2.67-2.594-4.074-4.867-4.063-6.573A4.062 4.062 0 015.193 6.67 3.736 3.736 0 017.89 5.519c1.616 0 3.067 1.06 3.611 2.638.035.101.102.19.192.252a.538.538 0 00.614 0 .511.511 0 00.192-.252c.544-1.578 1.995-2.638 3.611-2.638a3.77 3.77 0 012.643 1.085 3.948 3.948 0 011.195 2.88c-.012 1.71-1.425 3.985-4.086 6.581z"/><path d="M17.518 7.436a2.666 2.666 0 00-1.998-.509.526.526 0 10.161 1.04c.417-.065.848.048 1.213.317.434.32.72.806.803 1.37.043.287.31.485.598.442h.003a.526.526 0 00.44-.597 3.098 3.098 0 00-1.22-2.063z"/></svg><svg fill="none" viewBox="0 0 32 32" id="heart-fill" xmlns="http://www.w3.org/2000/svg"><path d="M25.998 7.182a6.442 6.442 0 00-4.518-1.849c-2.245 0-4.299 1.184-5.48 3.058-1.181-1.874-3.235-3.058-5.48-3.058a6.392 6.392 0 00-4.617 1.963A6.748 6.748 0 004 11.98c-.018 2.687 1.946 5.965 5.839 9.745a52.896 52.896 0 005.749 4.812.715.715 0 00.826-.001 53.253 53.253 0 005.717-4.812c3.876-3.777 5.85-7.052 5.869-9.735a6.593 6.593 0 00-2.002-4.807z" fill="#007F5F" stroke="#007F5F" stroke-width=".667"/></svg><svg fill="none" viewBox="0 0 24 24" id="help" xmlns="http://www.w3.org/2000/svg"><path d="M12 19.5a7.5 7.5 0 100-15 7.5 7.5 0 000 15z" stroke="#C3C3C3" stroke-width="1.5" stroke-linecap="round" stroke-linejoin="round"/><path d="M9.817 9.75a2.25 2.25 0 014.373.75c0 1.5-2.25 2.25-2.25 2.25M12 15.75h.008" stroke="#C3C3C3" stroke-width="1.5" stroke-linecap="round" stroke-linejoin="round"/></svg><svg fill="none" viewBox="0 0 24 24" id="home" xmlns="http://www.w3.org/2000/svg"><path d="M4.78 9.5l7-5.25 7 5.25v8.25c0 .398-.164.78-.455 1.06-.292.282-.688.44-1.1.44H6.335c-.412 0-.807-.158-1.1-.44a1.473 1.473 0 01-.455-1.06V9.5z" stroke="#C3C3C3" stroke-width="1.75" stroke-linecap="round" stroke-linejoin="round"/><path d="M9.446 19v-7h4.667v7" stroke="#C3C3C3" stroke-width="1.75" stroke-linecap="round" stroke-linejoin="round"/></svg><svg fill="none" viewBox="0 0 32 33" id="img" xmlns="http://www.w3.org/2000/svg"><path d="M28.413 19.645a1 1 0 001.168-1.624l-1.168 1.624zM2.916 18.021a1 1 0 10-1.17 1.624l1.17-1.624zM7.664 3.833h16v-2h-16v2zm20.333 4.333v16h2v-16h-2zM23.664 28.5h-16v2h16v-2zM3.33 24.166v-16h-2v16h2zM7.664 28.5a4.334 4.334 0 01-4.333-4.334h-2A6.333 6.333 0 007.664 30.5v-2zm20.333-4.334a4.333 4.333 0 01-4.333 4.334v2a6.333 6.333 0 006.333-6.334h-2zM23.664 3.833a4.333 4.333 0 014.333 4.333h2a6.333 6.333 0 00-6.333-6.333v2zm-16-2A6.333 6.333 0 001.33 8.166h2a4.333 4.333 0 014.333-4.333v-2zM29.58 18.021L25.664 15.2l-1.168 1.624 3.917 2.821 1.168-1.624zm-11.856-2.388l-5.461 4.915 1.339 1.486 5.46-4.916-1.338-1.485zm-10.892 5.21l-3.918-2.82-1.168 1.622 3.917 2.821 1.17-1.622zm5.43-.295a4.335 4.335 0 01-5.43.296l-1.168 1.624a6.333 6.333 0 007.938-.432l-1.34-1.488zm13.4-5.346a6.334 6.334 0 00-7.938.431l1.339 1.487a4.333 4.333 0 015.43-.295l1.17-1.623zM13.332 11.5a2.334 2.334 0 01-2.334 2.333v2a4.333 4.333 0 004.334-4.333h-2zm-2.334 2.333A2.333 2.333 0 018.664 11.5h-2a4.333 4.333 0 004.333 4.333v-2zM8.664 11.5a2.333 2.333 0 012.333-2.334v-2A4.333 4.333 0 006.664 11.5h2zm2.333-2.334a2.332 2.332 0 012.334 2.334h2a4.334 4.334 0 00-4.334-4.334v2z" fill="#C3C3C3"/></svg><svg fill="none" viewBox="0 0 24 24" id="info" xmlns="http://www.w3.org/2000/svg"><path d="M12 22c5.523 0 10-4.477 10-10S17.523 2 12 2 2 6.477 2 12s4.477 10 10 10zM12 16v-4M12 8h.01" stroke="#000" stroke-width="2" stroke-linecap="round" stroke-linejoin="round"/></svg><svg viewBox="0 0 24 24" id="insta" xmlns="http://www.w3.org/2000/svg"><path d="M8.876 12a3.125 3.125 0 116.25 0 3.125 3.125 0 01-6.25 0zm-1.69 0a4.814 4.814 0 109.628 0 4.814 4.814 0 00-9.628 0zm8.694-5.005a1.126 1.126 0 102.25 0 1.126 1.126 0 00-2.25 0zM8.212 19.631c-.914-.042-1.41-.194-1.74-.323a2.916 2.916 0 01-1.08-.7 2.898 2.898 0 01-.7-1.078c-.13-.33-.281-.827-.323-1.741-.045-.989-.055-1.285-.055-3.789 0-2.504.01-2.8.055-3.789.042-.914.195-1.41.323-1.74.17-.438.373-.75.7-1.079.329-.328.64-.532 1.08-.701.33-.129.826-.281 1.74-.323.988-.045 1.285-.054 3.788-.054 2.504 0 2.8.01 3.789.054.914.042 1.41.195 1.74.323.438.17.75.373 1.079.701.328.328.53.64.701 1.078.129.33.281.827.323 1.741.045.99.054 1.285.054 3.789 0 2.503-.009 2.8-.054 3.789-.042.914-.195 1.41-.323 1.74-.17.438-.373.75-.701 1.078a2.91 2.91 0 01-1.078.701c-.33.13-.827.281-1.741.323-.989.045-1.285.055-3.789.055-2.503 0-2.8-.01-3.788-.055zm-.077-16.95c-.998.046-1.68.204-2.276.436A4.6 4.6 0 004.2 4.2a4.587 4.587 0 00-1.082 1.66c-.232.596-.39 1.278-.435 2.276-.046 1-.057 1.32-.057 3.865 0 2.546.01 2.866.057 3.865.045.998.204 1.68.435 2.276.24.616.56 1.14 1.082 1.66a4.598 4.598 0 001.66 1.082c.597.232 1.278.39 2.276.435 1 .046 1.32.057 3.865.057 2.547 0 2.866-.01 3.865-.057.998-.045 1.68-.204 2.276-.435A4.611 4.611 0 0019.8 19.8a4.605 4.605 0 001.082-1.66c.232-.596.39-1.278.435-2.276.046-1 .056-1.32.056-3.865 0-2.546-.01-2.866-.056-3.865-.045-.998-.204-1.68-.435-2.276A4.61 4.61 0 0019.8 4.2a4.598 4.598 0 00-1.66-1.082c-.596-.232-1.278-.39-2.275-.435-1-.046-1.32-.057-3.865-.057-2.547 0-2.866.01-3.866.057z"/></svg><svg viewBox="0 0 24 25" id="lang" xmlns="http://www.w3.org/2000/svg"><path d="M12.002 2h-.072A9.932 9.932 0 004.879 4.98 9.93 9.93 0 002 12.07C2.04 17.545 6.525 22 12 22h.073a9.926 9.926 0 007.049-2.979A9.93 9.93 0 0022 11.93C21.96 6.454 17.477 2 12.002 2zm.062 18.84H12c-4.84 0-8.806-3.937-8.84-8.778-.001-.082.01-.164.01-.246.308.564.729.855 1.266 1.09.88.384 1.348.099 1.468 2.864.126 2.908 3.236 2.95 2.899 1.893-.274-.858-.307-2.044.564-2.828.871-.786.52-2.163-1.045-3.222-1.565-1.06-1.312-3.513-.653-3.696.557-.155 2.612.978 2.053-1.032-.414-1.49-2.36-1.548-3.243-1.782a8.743 8.743 0 013.916-1.791c.14.17.38.335.794.417 1.072.213 1.62.746 2.01 1.184.366.407 3.166 2.874 4.63.452a8.89 8.89 0 012.514 3.713c-.634-.121-1.565-.206-2.104.183-.871.631-.963 1.605-2.226 1.907-1.264.3-4.228 1.101-4 2.365.228 1.265-.06 1.851 1.402 2.034 1.462.185 2.53-.213 2.635.761.105.974-1.69 1.083-1.466 2.055.179.784 1.43.926 3.047.434a8.776 8.776 0 01-5.567 2.023z"/></svg><svg fill="none" viewBox="0 0 24 25" id="like" xmlns="http://www.w3.org/2000/svg"><path d="M7 11.5l4-9a3 3 0 013 3v4h5.66a2 2 0 012 2.3l-1.38 9a2 2 0 01-2 1.7H7m0-11v11m0-11H4a2 2 0 00-2 2v7a2 2 0 002 2h3"/></svg><svg fill="none" viewBox="0 0 24 25" id="location" xmlns="http://www.w3.org/2000/svg"><path d="M21 10.5c0 7-9 13-9 13s-9-6-9-13a9 9 0 1118 0z"/><path d="M12 13.5a3 3 0 100-6 3 3 0 000 6z"/></svg><svg fill="none" viewBox="0 0 24 24" id="lock" xmlns="http://www.w3.org/2000/svg"><path d="M19 11H5a2 2 0 00-2 2v7a2 2 0 002 2h14a2 2 0 002-2v-7a2 2 0 00-2-2zM7 11V7a5 5 0 1110 0v4" stroke="#000" stroke-width="2" stroke-linecap="round" stroke-linejoin="round"/></svg><svg fill="none" viewBox="0 0 24 25" id="login" xmlns="http://www.w3.org/2000/svg"><path d="M15 3.5h4a2 2 0 012 2v14a2 2 0 01-2 2h-4M10 17.5l5-5-5-5M15 12.5H3"/></svg><svg fill="none" viewBox="0 0 123 27" id="logo" xmlns="http://www.w3.org/2000/svg"><path d="M0 1.639v-.256h16.15v2.958h-.257v-.118s-.036-.059-.036-.098c-.23-.865-.559-1.395-.97-1.592-.413-.196-1.053-.295-1.905-.295h-8.23v11.095h7.662c.66 0 1.108-.05 1.346-.157.238-.108.385-.334.412-.688h.257v2.407h-.257c0-.58-.384-.874-1.144-.874H4.752v10.043c0 .943.146 1.553.439 1.828.293.275.796.413 1.52.413v.255H0v-.255c.787 0 1.282-.148 1.492-.443.21-.294.312-.707.312-1.248V3.91c0-.845-.12-1.435-.367-1.769C1.2 1.806.723 1.639 0 1.639zM21.395 1.639v-.256h7.242c1.84 0 3.168.04 3.982.118.824.079 1.657.344 2.518.796.86.452 1.51 1.062 1.95 1.828.44.767.66 1.72.66 2.83 0 1.278-.395 2.496-1.173 3.656-.778 1.16-1.877 2.132-3.295 2.938l1.803 2.732c.394.688 1.437 2.182 3.131 4.49 1.694 2.31 3.003 3.725 3.928 4.226.924.502 1.822.757 2.682.757.86 0 1.84-.324 2.948-.973l.1.344c-1.382 1.12-3.185 1.68-5.4 1.68-1.475 0-2.747-.432-3.81-1.296-1.061-.865-2.91-3.233-5.538-7.105a.087.087 0 01-.037-.07l-2.563-3.9-2.27.068h-2.07v9.63c0 .777.1 1.327.311 1.662.202.334.705.5 1.493.5v.256h-6.583v-.255c.824-.03 1.328-.207 1.53-.511.2-.305.301-.934.301-1.877V3.909c0-.649-.082-1.19-.256-1.612-.174-.422-.696-.648-1.575-.658h-.009zm4.779.413v11.812h2.673c2.106 0 3.672-.492 4.688-1.475 1.016-.982 1.529-2.27 1.529-3.861 0-1.592-.504-3.017-1.502-4.403-.998-1.386-2.765-2.073-5.282-2.073h-2.106z" fill="#000" stroke="#000" stroke-width=".339" stroke-miterlimit="10" stroke-linecap="round"/><path d="M90.892 26.314v.256h-10.29c-1.978 0-3.708-.206-5.191-.629-1.483-.423-2.994-1.218-4.541-2.398a13.698 13.698 0 01-3.745-4.402c-.952-1.76-1.428-3.548-1.428-5.385 0-2.005.595-4.01 1.795-6.005 1.199-1.995 2.893-3.616 5.1-4.864 2.206-1.248 4.705-1.867 7.497-1.867 2.509 0 5.155.55 7.956 1.64l1.053 2.91h-.256c-.888-1.12-2.106-2.044-3.644-2.781-1.538-.737-3.26-1.101-5.155-1.101-3.286 0-5.987 1.219-8.084 3.665-2.096 2.447-3.149 5.484-3.149 9.11 0 1.504.174 2.85.522 4.03.348 1.178.998 2.338 1.95 3.488s1.978 1.985 3.067 2.535c1.09.54 2.316.914 3.662 1.13 1.355.207 2.426.305 3.223.285l1.373-.03c1.547-.058 2.518-.196 2.902-.432.385-.226.577-.806.577-1.74v-3.812c0-.737-.156-1.238-.467-1.494-.311-.255-.76-.363-1.337-.334v-.255h6.601v.255c-.741 0-1.236.138-1.483.423-.247.285-.375.835-.375 1.64v3.961c0 .796.11 1.366.32 1.72.21.354.604.52 1.172.52h.366l.01-.039zM94.637 19.249h.623c.027 2.427.604 4.117 1.73 5.08 1.126.963 2.893 1.435 5.283 1.435 2.17 0 3.818-.511 4.944-1.523s1.684-2.23 1.684-3.656c0-.865-.192-1.602-.586-2.21-.393-.61-.943-1.15-1.648-1.613-.705-.461-2.041-1.021-4-1.69-1.951-.678-3.324-1.267-4.111-1.778-.797-.511-1.456-1.268-1.987-2.29-.53-1.022-.796-2.054-.796-3.115 0-1.946.677-3.577 2.032-4.904C99.16 1.668 100.945 1 103.152 1c.851 0 1.776.098 2.774.295.989.196 1.547.324 1.666.373.046.02.092.04.137.04l1.209 3.144-.211.04s-.32-.344-.961-1.013a6.814 6.814 0 00-2.197-1.533c-.824-.363-1.758-.54-2.802-.54-1.739 0-3.13.491-4.147 1.484-1.025.982-1.529 2.171-1.529 3.567 0 .924.238 1.73.723 2.417.476.688 1.483 1.337 3.003 1.926 2.619.875 4.413 1.524 5.374 1.966.962.442 1.895 1.179 2.793 2.23.897 1.052 1.345 2.389 1.345 4.03 0 .688-.082 1.336-.238 1.955a6.674 6.674 0 01-.778 1.799c-.357.58-.787 1.1-1.291 1.572-.503.472-1.016.835-1.529 1.071-.521.246-1.336.432-2.462.55-1.126.118-1.859.187-2.216.187-4.578.03-7.416-2.191-7.178-7.321v.01z" fill="#000" stroke="#000" stroke-width=".339" stroke-linecap="round" stroke-linejoin="round"/><path d="M122.679 1.383v.256c-.338-.04-.705.02-1.117.157-.412.138-.65.334-.723.6-.073.265-.11.884-.11 1.867v19.32c0 1.05.046 1.69.128 1.926.083.235.257.422.504.58.247.157.687.225 1.327.225v.256h-6.811v-.256c.851 0 1.382-.157 1.593-.481.211-.324.311-1.061.311-2.211V4.479c0-1.2-.119-1.975-.348-2.349-.229-.373-.75-.53-1.556-.481v-.256h6.811l-.009-.01z" fill="#000" stroke="#000" stroke-width=".339" stroke-miterlimit="10" stroke-linecap="round"/><path d="M63.692 24.87c-.467-.963-.696-1.504-.696-1.622L53.887 1.01h-.458l-9 22.415c.275.197.605.315.962.354l3.58-8.805h7.489l3.652 8.942s.028.06.055.168a.605.605 0 00.12.226c.265.629.402 1.08.402 1.366 0 .422-.274.628-.815.628v.256h5.96v-.256c-.952 0-1.666-.481-2.133-1.444l-.009.01zM49.218 14.276l3.451-8.589 3.452 8.59h-6.903z" fill="#000" stroke="#000" stroke-width=".339" stroke-linecap="round" stroke-linejoin="round"/></svg><svg fill="none" viewBox="0 0 24 25" id="loguot" xmlns="http://www.w3.org/2000/svg"><path d="M15 3.5h4a2 2 0 012 2v14a2 2 0 01-2 2h-4M8 7.5l-5 5 5 5M3 12.5h12"/></svg><svg fill="none" viewBox="0 0 24 25" id="map-pin" xmlns="http://www.w3.org/2000/svg"><g clip-path="url(#caclip0_1261_19657)"><path d="M21 10.5c0 7-9 13-9 13s-9-6-9-13a9 9 0 1118 0z"/><path d="M12 13.5a3 3 0 100-6 3 3 0 000 6z"/></g><defs><clipPath id="caclip0_1261_19657"><path fill="#fff" transform="translate(0 .5)" d="M0 0h24v24H0z"/></clipPath></defs></svg><svg fill="none" viewBox="0 0 20 11" id="menu" xmlns="http://www.w3.org/2000/svg"><path d="M1 1.5h18M1 9.5h18" stroke="#000" stroke-width="2" stroke-linecap="round" stroke-linejoin="round"/></svg><svg fill="none" viewBox="0 0 24 25" id="message" xmlns="http://www.w3.org/2000/svg"><path d="M8 9.206h8M8 12.97h6M18 4.5c.796 0 1.559.297 2.121.827.563.53.879 1.248.879 1.997v7.529c0 .749-.316 1.467-.879 1.996a3.098 3.098 0 01-2.121.828h-5L8 20.5v-2.823H6a3.098 3.098 0 01-2.121-.828A2.742 2.742 0 013 14.853v-7.53c0-.748.316-1.466.879-1.996A3.098 3.098 0 016 4.5h12z"/></svg><svg fill="none" viewBox="0 0 24 25" id="notification" xmlns="http://www.w3.org/2000/svg"><path d="M18 8.5a6 6 0 10-12 0c0 7-3 9-3 9h18s-3-2-3-9zM15 18.5a3.786 3.786 0 01-1.269 1.464A3.113 3.113 0 0112 20.5a3.113 3.113 0 01-1.731-.536A3.786 3.786 0 019 18.5"/></svg><svg fill="none" viewBox="0 0 24 24" id="parfume" xmlns="http://www.w3.org/2000/svg"><path d="M16.362 19.805c0 .657-.537 1.195-1.195 1.195H8.594a1.199 1.199 0 01-1.196-1.195v-8.402c0-.658.538-1.196 1.196-1.196h6.573c.658 0 1.195.538 1.195 1.195v8.403z"/><path d="M13.972 17.975H9.79v-4.78h4.183v4.78zM9.491 10.207V8.116h4.781v2.091M10.389 8.115V3.634h2.988v4.481M17.256 5.428h.896M16.064 3.635L16.662 3M16.064 6.922l.598.598M13.375 5.727h-.896"/></svg><svg fill="none" viewBox="0 0 24 24" id="plus" xmlns="http://www.w3.org/2000/svg"><path d="M12 6v12M6 12h12"/></svg><svg fill="none" viewBox="0 0 22 23" id="profile" xmlns="http://www.w3.org/2000/svg"><path d="M21 11.5c0 5.523-4.477 10-10 10s-10-4.477-10-10 4.477-10 10-10 10 4.477 10 10z"/><path d="M15.003 10.167a4 4 0 11-8 0 4 4 0 018 0zM5.032 19.526a6 6 0 0111.932 0"/></svg><svg fill="none" viewBox="0 0 24 24" id="read" xmlns="http://www.w3.org/2000/svg"><g clip-path="url(#chclip0_1_535)" stroke="#007F5F" stroke-width="1.5" stroke-linecap="round" stroke-linejoin="round"><path d="M15.78 15l-8.24 8.24-3.746-3.745M21.999 15.361l-8.24 8.24-3.019-3.018"/></g><defs><clipPath id="chclip0_1_535"><path fill="#fff" d="M0 0h24v24H0z"/></clipPath></defs></svg><svg fill="none" viewBox="0 0 24 25" id="rules" xmlns="http://www.w3.org/2000/svg"><path d="M12 22.5c5.523 0 10-4.477 10-10s-4.477-10-10-10-10 4.477-10 10 4.477 10 10 10zM12.012 8.5v4M12.012 16.5h-.01" stroke="#000" stroke-width="2" stroke-linecap="round" stroke-linejoin="round"/></svg><svg fill="none" viewBox="0 0 24 25" id="save" xmlns="http://www.w3.org/2000/svg"><path d="M19 21.5H5a2 2 0 01-2-2v-14a2 2 0 012-2h11l5 5v11a2 2 0 01-2 2z"/><path d="M17 21.5v-8H7v8M7 3.5v5h8"/></svg><svg fill="none" viewBox="0 0 24 25" id="search" xmlns="http://www.w3.org/2000/svg"><path d="M11 19.5a8 8 0 100-16 8 8 0 000 16zM21 21.5l-4.35-4.35" stroke="#C5C5C5" stroke-width="2" stroke-linecap="round" stroke-linejoin="round"/></svg><svg fill="none" viewBox="0 0 25 25" id="send" xmlns="http://www.w3.org/2000/svg"><path d="M9.689 10.854L3.962 5.128l19.835-3.925-5.331 18.428-5.985-5.985"/><path d="M3.304 17.718l2.461-2.46m3.977 3.977l-2.46 2.46m-6.079 2.102l4.969-4.969m3.516-2.11v-5.863l14.109-9.652L9.687 16.72z"/></svg><svg fill="none" viewBox="0 0 24 24" id="sent" xmlns="http://www.w3.org/2000/svg"><path d="M17.986 15l-8.24 8.24L6 19.495" stroke="#999" stroke-width="1.5" stroke-linecap="round" stroke-linejoin="round"/></svg><svg fill="none" viewBox="0 0 24 25" id="settings" xmlns="http://www.w3.org/2000/svg"><path d="M12 15.138a2.638 2.638 0 100-5.276 2.638 2.638 0 000 5.276z"/><path d="M18.506 15.138a1.451 1.451 0 00.29 1.6l.053.053a1.76 1.76 0 11-2.488 2.488l-.053-.053a1.45 1.45 0 00-1.6-.29 1.451 1.451 0 00-.88 1.328v.15a1.759 1.759 0 01-3.516 0v-.08a1.45 1.45 0 00-.95-1.328 1.451 1.451 0 00-1.6.29l-.053.053a1.759 1.759 0 11-2.488-2.488l.053-.053a1.45 1.45 0 00.29-1.6 1.45 1.45 0 00-1.328-.88h-.15a1.759 1.759 0 010-3.516h.08a1.451 1.451 0 001.327-.95 1.45 1.45 0 00-.29-1.6l-.052-.053a1.758 1.758 0 112.488-2.488l.053.053a1.45 1.45 0 001.6.29h.07a1.45 1.45 0 00.88-1.328v-.15a1.759 1.759 0 013.516 0v.08a1.452 1.452 0 00.88 1.327 1.45 1.45 0 001.6-.29l.053-.052a1.76 1.76 0 112.488 2.488l-.053.053a1.45 1.45 0 00-.29 1.6v.07a1.45 1.45 0 001.328.88h.15a1.759 1.759 0 010 3.516h-.08a1.451 1.451 0 00-1.328.88z"/></svg><svg fill="none" viewBox="0 0 32 33" id="share" xmlns="http://www.w3.org/2000/svg"><path d="M22 12.5a3 3 0 100-6 3 3 0 000 6zM10 19.5a3 3 0 100-6 3 3 0 000 6zM22 26.5a3 3 0 100-6 3 3 0 000 6zM12.59 18.01l6.83 3.98M19.41 11.01l-6.82 3.98"/></svg><svg fill="none" viewBox="0 0 24 24" id="share-link" xmlns="http://www.w3.org/2000/svg"><path d="M10 13a5 5 0 007.54.54l3-3a5 5 0 00-7.07-7.07l-1.72 1.71"/><path d="M14 11a5.001 5.001 0 00-7.54-.54l-3 3a5 5 0 007.07 7.07l1.71-1.71"/></svg><svg viewBox="0 0 24 24" id="sort" xmlns="http://www.w3.org/2000/svg"><path d="M9 17H3c-.6 0-1-.4-1-1s.4-1 1-1h6c.6 0 1 .4 1 1s-.4 1-1 1zm3-5H3c-.6 0-1-.4-1-1s.4-1 1-1h9c.6 0 1 .4 1 1s-.4 1-1 1zm5 7c-.6 0-1-.4-1-1v-8c0-.6.4-1 1-1s1 .4 1 1v8c0 .6-.4 1-1 1z"/><path d="M17 19c-.3 0-.5-.1-.7-.3l-3-3c-.4-.4-.4-1 0-1.4.4-.4 1-.4 1.4 0l2.3 2.3 2.3-2.3c.4-.4 1-.4 1.4 0 .4.4.4 1 0 1.4l-3 3c-.2.2-.4.3-.7.3zM15 7H3c-.6 0-1-.4-1-1s.4-1 1-1h12c.6 0 1 .4 1 1s-.4 1-1 1z"/></svg><svg fill="none" viewBox="0 0 25 24" id="star" xmlns="http://www.w3.org/2000/svg"><path d="M12.5 2l3.09 6.26 6.91 1.01-5 4.87 1.18 6.88-6.18-3.25-6.18 3.25 1.18-6.88-5-4.87 6.91-1.01L12.5 2z"/></svg><svg viewBox="0 0 22 21" id="star-fill" xmlns="http://www.w3.org/2000/svg"><path d="M10.104 1.302a1 1 0 011.792 0l2.412 4.857a1 1 0 00.75.544l5.364.794a1 1 0 01.553 1.704l-3.873 3.795a1 1 0 00-.286.88l.902 5.348a1 1 0 01-1.448 1.052l-4.807-2.51a1 1 0 00-.926 0l-4.806 2.51a1 1 0 01-1.45-1.052l.903-5.347a1 1 0 00-.286-.881L1.025 9.2a1 1 0 01.553-1.703l5.364-.794a1 1 0 00.75-.544l2.412-4.857z"/></svg><svg fill="none" viewBox="0 0 18 17" id="star-rating" xmlns="http://www.w3.org/2000/svg"><path d="M8.104 1.302a1 1 0 011.792 0l1.822 3.669a1 1 0 00.75.544l4.052.6a1 1 0 01.553 1.704l-2.926 2.867a1 1 0 00-.286.88l.682 4.04a1 1 0 01-1.45 1.052l-3.63-1.896a1 1 0 00-.926 0l-3.63 1.896a1 1 0 01-1.45-1.052l.682-4.04a1 1 0 00-.286-.88L.927 7.819a1 1 0 01.553-1.704l4.053-.6a1 1 0 00.749-.544l1.822-3.669z" fill="#DDE5D3"/></svg><svg viewBox="0 0 18 17" id="star-vote" xmlns="http://www.w3.org/2000/svg"><path d="M8.104 1.302a1 1 0 011.792 0l1.822 3.669a1 1 0 00.75.544l4.052.6a1 1 0 01.553 1.704l-2.926 2.867a1 1 0 00-.286.88l.682 4.04a1 1 0 01-1.45 1.052l-3.63-1.896a1 1 0 00-.926 0l-3.63 1.896a1 1 0 01-1.45-1.052l.682-4.04a1 1 0 00-.286-.88L.927 7.819a1 1 0 01.553-1.704l4.053-.6a1 1 0 00.749-.544l1.822-3.669z"/></svg><svg fill="none" viewBox="0 0 24 24" id="subscribe" xmlns="http://www.w3.org/2000/svg"><path d="M12 22a9.97 9.97 0 007.071-2.929A9.97 9.97 0 0022 12a9.969 9.969 0 00-2.929-7.071A9.969 9.969 0 0012 2a9.969 9.969 0 00-7.071 2.929A9.969 9.969 0 002 12a9.969 9.969 0 002.929 7.071A9.969 9.969 0 0012 22z" stroke="#fff" stroke-width="2" stroke-linejoin="round"/><path d="M8 12l3 3 6-6" stroke="#fff" stroke-width="2" stroke-linecap="round" stroke-linejoin="round"/></svg><svg fill="none" viewBox="0 0 24 25" id="subscribe-menu" xmlns="http://www.w3.org/2000/svg"><path d="M12 22.5a9.97 9.97 0 007.071-2.929A9.97 9.97 0 0022 12.5a9.969 9.969 0 00-2.929-7.071A9.969 9.969 0 0012 2.5a9.969 9.969 0 00-7.071 2.929A9.969 9.969 0 002 12.5a9.969 9.969 0 002.929 7.071A9.969 9.969 0 0012 22.5z"/><path d="M8 12.5l3 3 6-6"/></svg><svg fill="none" viewBox="0 0 24 24" id="subscription" xmlns="http://www.w3.org/2000/svg"><path d="M15 18a3.786 3.786 0 01-1.269 1.464A3.113 3.113 0 0112 20a3.113 3.113 0 01-1.731-.536A3.786 3.786 0 019 18" stroke="#000" stroke-width="2" stroke-linecap="round" stroke-linejoin="round"/><path fill-rule="evenodd" clip-rule="evenodd" d="M12 1a7 7 0 00-7 7c0 3.353-.717 5.435-1.378 6.646a5.938 5.938 0 01-.88 1.244 3.036 3.036 0 01-.305.284l-.003.002A1 1 0 003 18h18a1 1 0 00.566-1.824l-.002-.002a3.026 3.026 0 01-.306-.283 5.939 5.939 0 01-.88-1.245 9.101 9.101 0 01-.573-1.291l-1.494 1.629a10.306 10.306 0 00.54 1.016H5.15c.075-.125.152-.257.228-.396C6.218 14.065 7 11.647 7 8a5 5 0 1110 0c0 .854.043 1.64.12 2.364l1.882-2.053A22.698 22.698 0 0119 8a7 7 0 00-7-7z" fill="#000"/><path d="M22 8l-5.5 6-2.5-2.727" stroke="#000" stroke-width="2" stroke-linecap="round" stroke-linejoin="round"/></svg><svg fill="none" viewBox="0 0 24 25" id="tag" xmlns="http://www.w3.org/2000/svg"><path d="M20.59 13.91l-7.17 7.17a1.998 1.998 0 01-2.83 0L2 12.5v-10h10l8.59 8.59a2 2 0 010 2.82zM7 7.5h.01"/></svg><svg fill="none" viewBox="0 0 10 15" id="tip" xmlns="http://www.w3.org/2000/svg"><path d="M.489 13.827C4.004 11.93 10 7.707 10 .97V15H.759c-.557 0-.76-.909-.27-1.173z" fill="#F5F5F5"/></svg><svg fill="none" viewBox="0 0 10 15" id="tip-my" xmlns="http://www.w3.org/2000/svg"><path d="M9.511 13.827C5.996 11.93 0 7.707 0 .97V15h9.241c.557 0 .76-.909.27-1.173z" fill="#D9FFE1"/></svg><svg fill="none" viewBox="0 0 24 24" id="trash" xmlns="http://www.w3.org/2000/svg"><path d="M3 6h18M19 6v14a2 2 0 01-2 2H7a2 2 0 01-2-2V6m3 0V4a2 2 0 012-2h4a2 2 0 012 2v2M10 11v6M14 11v6"/></svg><svg fill="none" viewBox="0 0 24 25" id="user" xmlns="http://www.w3.org/2000/svg"><path d="M22 12.5c0 5.523-4.477 10-10 10s-10-4.477-10-10 4.477-10 10-10 10 4.477 10 10z"/><path d="M16.003 11.167a4 4 0 11-8 0 4 4 0 018 0zM6.032 20.526a6 6 0 0111.932 0"/></svg><svg fill="none" viewBox="0 0 24 25" id="user-plus" xmlns="http://www.w3.org/2000/svg"><path d="M16 21.5v-2a4 4 0 00-4-4H5a4 4 0 00-4 4v2M8.5 11.5a4 4 0 100-8 4 4 0 000 8zM20 8.5v6M23 11.5h-6"/></svg><svg fill="none" viewBox="0 0 24 25" id="user2" xmlns="http://www.w3.org/2000/svg"><path d="M20 21.5v-2a4 4 0 00-4-4H8a4 4 0 00-4 4v2M12 11.5a4 4 0 100-8 4 4 0 000 8z"/></svg><svg fill="none" viewBox="0 0 24 25" id="wardrobe" xmlns="http://www.w3.org/2000/svg"><path d="M21.195 17.043L12 11.715l-9.195 5.328a1.615 1.615 0 00.81 3.012h16.77a1.615 1.615 0 00.81-3.012zM9.944 7.556c0-1.162.964-2.098 2.136-2.054a2.055 2.055 0 01.897 3.863 1.834 1.834 0 00-.978 1.608v.742"/></svg><svg fill="none" viewBox="0 0 24 25" id="watch" xmlns="http://www.w3.org/2000/svg"><g clip-path="url(#dgclip0_1261_19665)"><path d="M12 19.5a7 7 0 100-14 7 7 0 000 14z"/><path d="M12 9.5v3l1.5 1.5M16.51 17.85l-.35 3.83a2 2 0 01-2 1.82H9.83a2 2 0 01-2-1.82l-.35-3.83m.01-10.7l.35-3.83A2 2 0 019.83 1.5h4.35a2 2 0 012 1.82l.35 3.83"/></g><defs><clipPath id="dgclip0_1261_19665"><path fill="#fff" transform="translate(0 .5)" d="M0 0h24v24H0z"/></clipPath></defs></svg><svg fill="none" viewBox="0 0 24 24" id="x-mark" xmlns="http://www.w3.org/2000/svg"><path d="M16.243 7.757l-8.486 8.486M7.757 7.757l8.486 8.486"/></svg></svg>