<?xml version="1.0" encoding="utf-8"?><svg viewBox="0 0 123 64" xmlns="http://www.w3.org/2000/svg" xmlns:xlink="http://www.w3.org/1999/xlink"><style>:root>svg{display:none}:root>svg:target{display:block}</style><svg fill="none" viewBox="0 0 48 48" id="Facebook" xmlns="http://www.w3.org/2000/svg"><path d="M48 24C48 10.744 37.256 0 24 0S0 10.744 0 24c0 11.981 8.775 21.91 20.25 23.71V30.936h-6.094V24h6.094v-5.288c0-6.014 3.581-9.337 9.066-9.337 2.625 0 5.372.469 5.372.469v5.906h-3.029c-2.98 0-3.909 1.852-3.909 3.75V24h6.656l-1.064 6.938H27.75v16.771C39.225 45.91 48 35.981 48 24z" fill="#1877F2"/><path d="M33.342 30.938L34.406 24H27.75v-4.5c0-1.898.928-3.75 3.91-3.75h3.027V9.844s-2.746-.469-5.371-.469c-5.485 0-9.066 3.323-9.066 9.337V24h-6.094v6.938h6.094v16.771c1.223.193 2.475.291 3.75.291s2.527-.098 3.75-.29V30.936h5.592z" fill="#fff"/></svg><svg viewBox="0 0 64 64" id="Instagram" xmlns="http://www.w3.org/2000/svg"><defs><radialGradient xlink:href="#ba" id="bc" cx="673.845" cy="1118.777" fx="673.845" fy="1118.777" r="646.025" gradientTransform="matrix(1.00709 -.16909 .10283 .61127 -712.344 -507.718)"/><radialGradient xlink:href="#ba" id="bb" gradientTransform="matrix(1.00709 -.16909 .10283 .61127 -712.344 -507.718)" cx="673.845" cy="1118.777" fx="673.845" fy="1118.777" r="646.025"/><linearGradient id="ba" gradientUnits="userSpaceOnUse"><stop offset="0" stop-color="#fed576"/><stop offset=".263" stop-color="#f47133"/><stop offset=".609" stop-color="#bc3081"/><stop offset="1" stop-color="#4c63d2"/></linearGradient></defs><path d="M187.796-195.814a79.834 79.834 0 00-16.041 1.627 79.047 79.047 0 00-7.636 1.972l-7.326 2.69-6.975 3.368-6.582 4.005-6.15 4.6-5.675 5.155-5.16 5.67-4.605 6.143-4.01 6.576-3.37 6.967a78.959 78.959 0 00-6.296 30.975c0 2.742.14 5.454.413 8.127a78.99 78.99 0 001.215 7.899 78.777 78.777 0 004.668 14.95l3.37 6.967 4.01 6.575 4.605 6.144 5.16 5.67 5.675 5.155 6.15 4.6 6.582 4.005 6.975 3.368 7.326 2.69 7.636 1.972a79.21 79.21 0 007.906 1.214 80.02 80.02 0 008.135.413c2.745 0 5.46-.14 8.134-.413a79.21 79.21 0 007.906-1.214l7.637-1.972 7.326-2.69 6.974-3.368 6.583-4.005 6.15-4.6 5.676-5.155 5.16-5.67 4.605-6.144 4.01-6.575 3.37-6.967 2.694-7.32c.78-2.494 1.44-5.04 1.974-7.63l1.215-7.9c.274-2.673.414-5.385.414-8.127s-.14-5.454-.414-8.127a78.97 78.97 0 00-1.215-7.898 78.339 78.339 0 00-1.974-7.63l-2.694-7.32-3.37-6.967-4.01-6.576-4.605-6.143-5.16-5.67-5.676-5.155-6.15-4.6-6.583-4.005-6.974-3.368-7.326-2.69-7.637-1.972-7.906-1.213a80 80 0 00-8.134-.414zm0 27.526c1.815 0 3.606.09 5.37.268l5.2.787 5.023 1.28 4.81 1.747 4.573 2.19 4.3 2.605 4.02 2.997 3.706 3.362 3.365 3.702 3 4.016 2.608 4.306 2.19 4.57c.658 1.564 1.242 3.167 1.75 4.806s.935 3.314 1.28 5.02.6 3.442.787 5.205l.268 5.366c0 1.813-.09 3.603-.268 5.367s-.44 3.5-.787 5.205-.775 3.38-1.28 5.02l-1.75 4.806-2.19 4.57-2.608 4.305-3 4.017-3.365 3.702-3.706 3.362-4.02 2.997-4.3 2.605-4.573 2.19-4.81 1.747-5.023 1.28-5.2.786a53.78 53.78 0 01-5.371.268 53.8 53.8 0 01-5.372-.268l-5.2-.786a52.323 52.323 0 01-5.024-1.28l-4.81-1.747-4.573-2.19-4.3-2.605-4.02-2.997-3.706-3.362-3.365-3.702-3-4.017-2.608-4.305-2.19-4.57-1.75-4.806-1.28-5.02-.787-5.205a53.63 53.63 0 01-.268-5.367 53.61 53.61 0 01.268-5.366c.177-1.763.44-3.5.787-5.205a52.11 52.11 0 011.281-5.019l1.75-4.806 2.19-4.57 2.608-4.306 3-4.016 3.365-3.702 3.706-3.362 4.02-2.997 4.3-2.605 4.573-2.19a51.97 51.97 0 014.811-1.747l5.024-1.28a52.934 52.934 0 015.2-.787 53.8 53.8 0 015.372-.268zM270.86-218.5a19.009 19.134 0 00-1.898.096 19.009 19.134 0 00-1.879.286 19.009 19.134 0 00-1.841.473 19.009 19.134 0 00-1.785.656 19.009 19.134 0 00-1.711.833 19.009 19.134 0 00-1.62.999 19.009 19.134 0 00-1.513 1.158 19.009 19.134 0 00-1.39 1.303 19.009 19.134 0 00-1.254 1.437 19.009 19.134 0 00-1.105 1.556 19.009 19.134 0 00-.945 1.658 19.009 19.134 0 00-.777 1.746 19.009 19.134 0 00-.599 1.815 19.009 19.134 0 00-.416 1.866 19.009 19.134 0 00-.229 1.898 19.009 19.134 0 00-.048 1.354 19.009 19.134 0 00.095 1.911 19.009 19.134 0 00.284 1.891 19.009 19.134 0 00.47 1.853 19.009 19.134 0 00.652 1.797 19.009 19.134 0 00.827 1.723 19.009 19.134 0 00.993 1.631 19.009 19.134 0 001.15 1.522 19.009 19.134 0 001.295 1.4 19.009 19.134 0 001.428 1.262 19.009 19.134 0 001.546 1.113 19.009 19.134 0 001.649.952 19.009 19.134 0 001.734.782 19.009 19.134 0 001.803.603 19.009 19.134 0 001.854.418 19.009 19.134 0 001.886.231 19.009 19.134 0 001.345.048 19.009 19.134 0 001.898-.095 19.009 19.134 0 001.879-.286 19.009 19.134 0 001.841-.473 19.009 19.134 0 001.785-.656 19.009 19.134 0 001.711-.832 19.009 19.134 0 001.62-1 19.009 19.134 0 001.513-1.157 19.009 19.134 0 001.39-1.304 19.009 19.134 0 001.254-1.437 19.009 19.134 0 001.105-1.556 19.009 19.134 0 00.945-1.659 19.009 19.134 0 00.777-1.746 19.009 19.134 0 00.599-1.815 19.009 19.134 0 00.416-1.866 19.009 19.134 0 00.229-1.898 19.009 19.134 0 00.048-1.354 19.009 19.134 0 00-.095-1.91 19.009 19.134 0 00-.284-1.891 19.009 19.134 0 00-.47-1.853 19.009 19.134 0 00-.652-1.797 19.009 19.134 0 00-.827-1.723 19.009 19.134 0 00-.993-1.631 19.009 19.134 0 00-1.151-1.523 19.009 19.134 0 00-1.294-1.4 19.009 19.134 0 00-1.428-1.262 19.009 19.134 0 00-1.546-1.112 19.009 19.134 0 00-1.649-.952 19.009 19.134 0 00-1.734-.782 19.009 19.134 0 00-1.803-.603 19.009 19.134 0 00-1.854-.419 19.009 19.134 0 00-1.886-.23 19.009 19.134 0 00-1.345-.048z" fill="url(#bb)" transform="translate(-6.476 55.843) scale(.20503)"/><path d="M172.658-272.08c-8.682-.014-16.43.022-23.39.12l-18.66.5c-5.528.24-10.412.553-14.796.958-2.192.202-4.26.428-6.22.677a136 136 0 00-5.579.821c-1.765.3-3.44.624-5.046.976s-3.14.732-4.62 1.14a81.54 81.54 0 00-4.305 1.316c-1.394.47-2.754.968-4.097 1.5-2.686 1.064-5.306 2.258-8.004 3.596-2.076 1.03-3.994 2.073-5.816 3.177s-3.548 2.27-5.238 3.54a69.42 69.42 0 00-5.027 4.182 98.973 98.973 0 00-5.185 5.1c-2.243 2.353-4.192 4.547-5.922 6.7a69.798 69.798 0 00-2.438 3.21 62.1 62.1 0 00-2.163 3.232c-.68 1.09-1.324 2.2-1.94 3.342a67.2 67.2 0 00-1.773 3.538c-1.138 2.444-2.2 5.076-3.26 8.014a91.85 91.85 0 00-2.111 6.598c-.633 2.274-1.196 4.653-1.698 7.226s-.94 5.34-1.325 8.4a203.95 203.95 0 00-.994 10.089c-.28 3.706-.512 7.784-.702 12.323l-.45 15.092-.242 18.397-.07 22.237.205 32.337.64 24.5.493 9.57.616 7.93a138.68 138.68 0 00.741 6.396c.27 1.888.56 3.54.872 4.97a112.08 112.08 0 002.244 8.636 97.95 97.95 0 002.83 8.06c1.042 2.59 2.182 5.088 3.422 7.492s2.58 4.714 4.02 6.933 2.98 4.347 4.624 6.384a75.68 75.68 0 005.233 5.844 77.031 77.031 0 005.848 5.312 82.35 82.35 0 006.47 4.79c2.073 1.386 4.124 2.655 6.19 3.82s4.15 2.222 6.292 3.183 4.338 1.826 6.632 2.604 4.684 1.47 7.21 2.084 5.2 1.153 8.03 1.623 5.855.873 9.087 1.22 6.68.634 10.385.874 7.665.432 11.92.586c6.573.238 16.523.377 27.997.43l37.145-.075 35.174-.493 13.374-.376 8.713-.448c1.87-.152 3.7-.332 5.466-.543s3.508-.452 5.204-.726 3.354-.58 4.983-.92a101.43 101.43 0 004.804-1.123c1.576-.4 3.13-.855 4.668-1.338s3.06-1.005 4.573-1.565a100.05 100.05 0 004.522-1.801c1.503-.64 3.004-1.324 4.51-2.05 2.313-1.114 4.175-2.043 5.81-2.95a40.27 40.27 0 004.434-2.824c1.396-1.028 2.784-2.198 4.384-3.672s3.413-3.25 5.658-5.496c1.973-1.972 3.637-3.686 5.072-5.245s2.644-2.962 3.704-4.314a45.89 45.89 0 002.82-4.002 55.816 55.816 0 002.422-4.307c1.196-2.34 2.26-4.507 3.213-6.598a84.1 84.1 0 002.534-6.148 67.86 67.86 0 001.951-6.295c.564-2.19 1.05-4.502 1.47-7.038s.775-5.296 1.083-8.378.57-6.488.8-10.315l.61-12.847.524-15.977.374-17.8.144-18.612-.334-36.555-.447-16.373-.61-14.058-.76-10.96c-.276-3.05-.574-5.452-.89-7.076a119.55 119.55 0 00-1.172-5.357 110.16 110.16 0 00-1.385-5.153 101.93 101.93 0 00-1.598-4.947c-.568-1.615-1.17-3.196-1.8-4.743s-1.312-3.058-2.022-4.537-1.454-2.922-2.235-4.332-1.595-2.785-2.446-4.126-1.737-2.648-2.66-3.92a75.09 75.09 0 00-2.87-3.715 73.91 73.91 0 00-3.082-3.508 73.62 73.62 0 00-3.293-3.302 74.406 74.406 0 00-3.504-3.096 75.68 75.68 0 00-3.716-2.889 78.06 78.06 0 00-3.928-2.682 81.34 81.34 0 00-4.138-2.476 85.61 85.61 0 00-4.35-2.268c-2.442-1.187-4.7-2.24-6.917-3.174a75.03 75.03 0 00-6.658-2.467c-2.27-.715-4.633-1.328-7.233-1.857s-5.435-.97-8.644-1.345-6.792-.678-10.89-.93-8.707-.45-13.97-.61l-17.886-.4-22.637-.267-28.988-.178zm15.055 27.502l41.803.238 15.77.304c4.343.122 7.657.265 9.6.43 2.53.213 4.94.48 7.245.8a99.46 99.46 0 016.6 1.139c2.1.44 4.103.94 6.02 1.504s3.748 1.196 5.505 1.895 3.437 1.468 5.054 2.31a51.47 51.47 0 014.67 2.755c1.5.995 2.946 2.067 4.35 3.222s2.765 2.393 4.094 3.717a55.005 55.005 0 013.89 4.288 46.9 46.9 0 013.293 4.579 46.35 46.35 0 012.742 5.015c.828 1.76 1.572 3.62 2.24 5.597s1.263 4.078 1.79 6.323a97.53 97.53 0 011.386 7.195c.4 2.56.742 5.29 1.032 8.213s.53 6.04.728 9.375c.158 2.675.296 6.205.413 10.374l.293 14.215.224 34.82-.255 34.787-.306 14.174L315.473-57c-.292 4.827-.6 8.885-.968 12.417-.185 1.766-.385 3.4-.607 4.933a82.37 82.37 0 01-.739 4.326 62.61 62.61 0 01-.905 3.9 57 57 0 01-1.109 3.657 63.83 63.83 0 01-1.349 3.596 89.01 89.01 0 01-1.625 3.717 55.427 55.427 0 01-1.604 3.197 51.6 51.6 0 01-1.776 3.02 48.21 48.21 0 01-1.95 2.845 47.23 47.23 0 01-2.126 2.672 46.51 46.51 0 01-2.307 2.5 47.468 47.468 0 01-5.165 4.496c-.923.694-1.878 1.36-2.865 1.998s-2.005 1.25-3.056 1.834-2.135 1.142-3.25 1.673a62.94 62.94 0 01-3.449 1.514 69.71 69.71 0 01-3.65 1.355c-2.5.852-5.137 1.6-7.913 2.245a106.2 106.2 0 01-8.752 1.638c-1.13.165-3.727.32-7.447.464l-14.176.394-40.19.522-42.066.066-16.52-.176-10.727-.334-7.91-.556c-2.456-.207-4.74-.437-6.88-.698s-4.133-.552-6.008-.88a80.49 80.49 0 01-5.295-1.1 61.05 61.05 0 01-4.74-1.358c-1.505-.5-2.944-1.05-4.344-1.655s-2.76-1.268-4.107-1.992-2.68-1.51-4.028-2.367c-1.017-.646-2-1.3-2.946-1.993s-1.86-1.384-2.74-2.108-1.725-1.47-2.54-2.238A46.45 46.45 0 0175.3-7.854a44.838 44.838 0 01-2.155-2.532 45.31 45.31 0 01-1.973-2.7 47.01 47.01 0 01-1.797-2.88 50.627 50.627 0 01-1.627-3.07 55.36 55.36 0 01-1.465-3.277 63.763 63.763 0 01-1.306-3.494c-.82-2.405-1.54-4.965-2.166-7.695s-1.16-5.63-1.612-8.72-.816-6.366-1.106-9.848c-.214-2.565-.384-6.56-.514-11.6l-.272-17.925.1-45.695.787-43.664.6-15.384.34-5.085c.118-1.358.24-2.364.365-2.968a148.73 148.73 0 011.256-5.567 91.2 91.2 0 011.337-4.863c.466-1.518.957-2.94 1.482-4.287a47.04 47.04 0 011.691-3.841 42.22 42.22 0 014.266-6.862c.832-1.097 1.728-2.18 2.703-3.278s2.028-2.207 3.17-3.35a68.3 68.3 0 014.154-3.845 52.29 52.29 0 014.24-3.249c1.443-1 2.923-1.89 4.464-2.708s3.143-1.557 4.828-2.222 3.455-1.26 5.33-1.8a74.71 74.71 0 015.97-1.413c2.112-.414 4.355-.775 6.75-1.09s4.943-.587 7.667-.823c1.9-.164 5.174-.31 9.485-.433l15.69-.31 41.738-.255z" fill="url(#bc)" transform="translate(-6.476 55.843) scale(.20503)"/></svg><svg viewBox="0 0 64 64" id="Telegram" xmlns="http://www.w3.org/2000/svg"><defs><clipPath id="cb"><path d="M15.903 131.998c0-65.17 52.83-118 118-118s118 52.83 118 118-52.83 118-118 118-118-52.83-118-118"/></clipPath><clipPath id="cc"><path d="M0 265.9h266.987V0H0z"/></clipPath><clipPath id="cd"><path d="M0 265.9h266.987V0H0z"/></clipPath><clipPath id="ce"><path d="M0 265.9h266.987V0H0z"/></clipPath><linearGradient x1="133.903" y1="13.999" x2="133.903" y2="249.999" gradientUnits="userSpaceOnUse" spreadMethod="pad" id="ca"><stop offset="0" stop-color="#1d93d2"/><stop offset="1" stop-color="#38b0e3"/></linearGradient></defs><path d="M15.903 131.998c0-65.17 52.83-118 118-118s118 52.83 118 118-52.83 118-118 118-118-52.83-118-118" fill="url(#ca)" clip-path="url(#cb)" transform="matrix(.27119 0 0 -.27119 -4.313 67.796)"/><g clip-path="url(#cc)" transform="matrix(.27119 0 0 -.27119 -4.313 67.796)"><path d="M95.778 123.374l14-38.75S111.528 81 113.403 81s29.75 29 29.75 29l31 59.875-77.875-36.5z" fill="#c8daea"/></g><g clip-path="url(#cd)" transform="matrix(.27119 0 0 -.27119 -4.313 67.796)"><path d="M114.34 113.436l-2.688-28.562s-1.125-8.75 7.625 0 17.125 15.5 17.125 15.5" fill="#a9c6d8"/></g><g clip-path="url(#ce)" transform="matrix(.27119 0 0 -.27119 -4.313 67.796)"><path d="M96.03 121.99l-28.795 9.383s-3.437 1.395-2.333 4.562c.228.653.687 1.208 2.062 2.167 6.382 4.447 118.104 44.604 118.104 44.604s3.155 1.062 5.02.356c.852-.323 1.396-.688 1.854-2.02.167-.485.263-1.516.25-2.542-.01-.74-.1-1.425-.166-2.5-.68-10.98-21.04-92.918-21.04-92.918s-1.218-4.795-5.583-4.958c-1.592-.06-3.524.263-5.834 2.25-8.565 7.368-38.172 27.265-44.713 31.64-.37.246-.474.567-.537.88-.092.46.4 1.034.4 1.034s51.552 45.825 52.924 50.633c.106.373-.293.557-.834.396-3.424-1.26-62.78-38.74-69.33-42.88-.383-.242-1.457-.086-1.457-.086" fill="#fff"/></g></svg><svg fill="none" viewBox="0 0 32 32" id="Twitter" xmlns="http://www.w3.org/2000/svg"><path fill-rule="evenodd" clip-rule="evenodd" d="M26.362 10.785c.01.233.012.466.012.7 0 7.07-4.973 15.23-14.067 15.23-2.793 0-5.391-.89-7.58-2.405.387.042.78.074 1.179.074 2.316 0 4.45-.859 6.142-2.3-2.164-.032-3.99-1.59-4.62-3.71.302.064.613.096.932.096.45 0 .885-.064 1.303-.191-2.264-.488-3.969-2.65-3.969-5.247v-.063c.667.392 1.43.636 2.242.667-1.329-.964-2.202-2.607-2.202-4.462 0-.975.243-1.897.671-2.692 2.438 3.243 6.083 5.374 10.192 5.596a5.826 5.826 0 01-.128-1.219c0-2.957 2.214-5.352 4.945-5.352 1.422 0 2.706.646 3.608 1.685A9.28 9.28 0 0028.164 5.9c-.37 1.25-1.154 2.3-2.177 2.957 1.001-.127 1.956-.413 2.841-.837a10.566 10.566 0 01-2.466 2.766z" fill="#1EA1F2"/></svg><svg viewBox="0 0 64 64" id="YouTube" xmlns="http://www.w3.org/2000/svg"><path d="M62.603 16.596a8.06 8.06 0 00-5.669-5.669C51.964 9.57 31.96 9.57 31.96 9.57s-20.005.04-24.976 1.397a8.06 8.06 0 00-5.669 5.669C0 21.607 0 32 0 32s0 10.393 1.356 15.404a8.06 8.06 0 005.669 5.669C11.995 54.43 32 54.43 32 54.43s20.005 0 24.976-1.356a8.06 8.06 0 005.669-5.669C64 42.434 64 32 64 32s-.04-10.393-1.397-15.404z" fill="red"/><path d="M25.592 41.612L42.187 32l-16.596-9.612z" fill="#fff"/></svg><svg fill="none" viewBox="0 0 10 6" id="arrow" xmlns="http://www.w3.org/2000/svg"><path d="M1 1l4 4 4-4" stroke="#000" stroke-width="2" stroke-linecap="round" stroke-linejoin="round"/></svg><svg fill="none" viewBox="0 0 24 25" id="arrow-right" xmlns="http://www.w3.org/2000/svg"><path d="M5 12.5h14M12 5.5l7 7-7 7"/></svg><svg fill="none" viewBox="0 0 19 19" id="catalog" xmlns="http://www.w3.org/2000/svg"><path d="M14.146 9.084h0a4.203 4.203 0 01-2.966-1.231s0 0 0 0m2.966 1.231l-4.122-4.198a4.127 4.127 0 001.21 2.914l-.054.053m2.966 1.231a4.198 4.198 0 002.97-1.23m-2.97 1.23l2.97-1.23m-5.936-.001a4.202 4.202 0 01-1.23-2.967h0c0-1.113.441-2.18 1.229-2.968m.001 5.935l-.001-5.935m0 0a4.197 4.197 0 012.968-1.23m-2.968 1.23l2.968-1.23m2.968 7.167a4.198 4.198 0 001.23-2.968m-1.23 2.968l1.23-2.968m0 0a4.198 4.198 0 00-1.23-2.969m1.23 2.969l-1.23-2.969m0 0a4.198 4.198 0 00-2.968-1.23m2.969 1.23L14.147.688m1.884 6.083h0c-.5.5-1.177.78-1.884.78h0a2.664 2.664 0 111.884-.78zm1.547 3.672h-6.862a.766.766 0 00-.767.767v6.862c0 .423.344.766.767.766h6.862a.767.767 0 00.767-.766V11.21a.767.767 0 00-.767-.767zm-.766 6.862h-5.33v-5.329h5.33v5.329zM7.824.689H.962a.767.767 0 00-.767.767v6.861c0 .424.343.767.767.767h6.862a.766.766 0 00.767-.767V1.455A.767.767 0 007.824.69zM7.057 7.55H1.728V2.222h5.33v5.329zm.767 2.892H.962a.767.767 0 00-.767.766v6.862c0 .423.343.767.767.767h6.862a.767.767 0 00.767-.767V11.21a.767.767 0 00-.767-.766zm-.767 6.861H1.728v-5.328h5.33v5.328z" fill="#fff" stroke="#fff" stroke-width=".15"/></svg><svg fill="none" viewBox="0 0 24 24" id="check-one" xmlns="http://www.w3.org/2000/svg"><path d="M12 22a9.97 9.97 0 007.071-2.929A9.97 9.97 0 0022 12a9.969 9.969 0 00-2.929-7.071A9.969 9.969 0 0012 2a9.969 9.969 0 00-7.071 2.929A9.969 9.969 0 002 12a9.969 9.969 0 002.929 7.071A9.969 9.969 0 0012 22z" stroke="#fff" stroke-width="2" stroke-linejoin="round"/><path d="M8 12l3 3 6-6" stroke="#fff" stroke-width="2" stroke-linecap="round" stroke-linejoin="round"/></svg><svg viewBox="0 0 32 32" id="close" xmlns="http://www.w3.org/2000/svg"><defs><style>.jcls-1{fill:none}</style></defs><g data-name="Layer 2" id="jLayer_2"><path d="M4 29a1 1 0 01-.71-.29 1 1 0 010-1.42l24-24a1 1 0 111.42 1.42l-24 24A1 1 0 014 29z"/><path d="M28 29a1 1 0 01-.71-.29l-24-24a1 1 0 011.42-1.42l24 24a1 1 0 010 1.42A1 1 0 0128 29z"/></g><path class="jcls-1" d="M0 0h32v32H0z" id="jframe"/></svg><svg fill="none" viewBox="0 0 24 24" id="comment" xmlns="http://www.w3.org/2000/svg"><path d="M21 11.5a8.38 8.38 0 01-.9 3.8 8.5 8.5 0 01-7.6 4.7 8.379 8.379 0 01-3.8-.9L3 21l1.9-5.7a8.38 8.38 0 01-.9-3.8 8.5 8.5 0 014.7-7.6 8.38 8.38 0 013.8-.9h.5a8.48 8.48 0 018 8v.5z"/></svg><svg fill="none" viewBox="0 0 24 25" id="compare" xmlns="http://www.w3.org/2000/svg"><path d="M18 20.5v-10M12 20.5v-16M6 20.5v-6" stroke="#000" stroke-width="2" stroke-linecap="round" stroke-linejoin="round"/></svg><svg fill="none" viewBox="0 0 19 17" id="favorite" xmlns="http://www.w3.org/2000/svg"><path d="M16.999 1.886A4.832 4.832 0 0013.61.5c-1.684 0-3.224.887-4.11 2.293C8.614 1.387 7.074.5 5.39.5c-1.31 0-2.54.523-3.463 1.472A5.061 5.061 0 00.5 5.485C.486 7.5 1.96 9.959 4.88 12.794a39.673 39.673 0 004.31 3.609.537.537 0 00.62-.001 39.953 39.953 0 004.288-3.609c2.908-2.833 4.388-5.29 4.402-7.301a4.945 4.945 0 00-1.501-3.606zm-3.637 10.18a40.23 40.23 0 01-3.863 3.286 39.96 39.96 0 01-3.884-3.287C2.945 9.47 1.54 7.198 1.552 5.492A4.062 4.062 0 012.693 2.67 3.736 3.736 0 015.39 1.519C7.006 1.52 8.457 2.58 9 4.157c.035.101.102.19.192.252a.538.538 0 00.614 0A.511.511 0 0010 4.157c.544-1.578 1.995-2.638 3.611-2.638a3.77 3.77 0 012.643 1.085 3.948 3.948 0 011.195 2.88c-.012 1.71-1.425 3.985-4.086 6.581z" fill="#000" stroke="#000" stroke-width=".5"/><path d="M15.018 3.436a2.666 2.666 0 00-1.998-.509.526.526 0 10.161 1.04c.417-.065.848.048 1.213.317.434.32.72.806.803 1.37.043.287.31.485.598.442h.003a.526.526 0 00.44-.597 3.098 3.098 0 00-1.22-2.063z" fill="#000" stroke="#000" stroke-width=".5"/></svg><svg fill="none" viewBox="0 0 24 24" id="home" xmlns="http://www.w3.org/2000/svg"><path d="M4.78 9.5l7-5.25 7 5.25v8.25c0 .398-.164.78-.455 1.06-.292.282-.688.44-1.1.44H6.335c-.412 0-.807-.158-1.1-.44a1.473 1.473 0 01-.455-1.06V9.5z" stroke="#C3C3C3" stroke-width="1.75" stroke-linecap="round" stroke-linejoin="round"/><path d="M9.446 19v-7h4.667v7" stroke="#C3C3C3" stroke-width="1.75" stroke-linecap="round" stroke-linejoin="round"/></svg><svg fill="none" viewBox="0 0 24 25" id="login" xmlns="http://www.w3.org/2000/svg"><path d="M15 3.5h4a2 2 0 012 2v14a2 2 0 01-2 2h-4M10 17.5l5-5-5-5M15 12.5H3" stroke="#000" stroke-width="2" stroke-linecap="round" stroke-linejoin="round"/></svg><svg fill="none" viewBox="0 0 123 27" id="logo" xmlns="http://www.w3.org/2000/svg"><path d="M0 1.639v-.256h16.15v2.958h-.257v-.118s-.036-.059-.036-.098c-.23-.865-.559-1.395-.97-1.592-.413-.196-1.053-.295-1.905-.295h-8.23v11.095h7.662c.66 0 1.108-.05 1.346-.157.238-.108.385-.334.412-.688h.257v2.407h-.257c0-.58-.384-.874-1.144-.874H4.752v10.043c0 .943.146 1.553.439 1.828.293.275.796.413 1.52.413v.255H0v-.255c.787 0 1.282-.148 1.492-.443.21-.294.312-.707.312-1.248V3.91c0-.845-.12-1.435-.367-1.769C1.2 1.806.723 1.639 0 1.639zM21.395 1.639v-.256h7.242c1.84 0 3.168.04 3.982.118.824.079 1.657.344 2.518.796.86.452 1.51 1.062 1.95 1.828.44.767.66 1.72.66 2.83 0 1.278-.395 2.496-1.173 3.656-.778 1.16-1.877 2.132-3.295 2.938l1.803 2.732c.394.688 1.437 2.182 3.131 4.49 1.694 2.31 3.003 3.725 3.928 4.226.924.502 1.822.757 2.682.757.86 0 1.84-.324 2.948-.973l.1.344c-1.382 1.12-3.185 1.68-5.4 1.68-1.475 0-2.747-.432-3.81-1.296-1.061-.865-2.91-3.233-5.538-7.105a.087.087 0 01-.037-.07l-2.563-3.9-2.27.068h-2.07v9.63c0 .777.1 1.327.311 1.662.202.334.705.5 1.493.5v.256h-6.583v-.255c.824-.03 1.328-.207 1.53-.511.2-.305.301-.934.301-1.877V3.909c0-.649-.082-1.19-.256-1.612-.174-.422-.696-.648-1.575-.658h-.009zm4.779.413v11.812h2.673c2.106 0 3.672-.492 4.688-1.475 1.016-.982 1.529-2.27 1.529-3.861 0-1.592-.504-3.017-1.502-4.403-.998-1.386-2.765-2.073-5.282-2.073h-2.106z" fill="#000" stroke="#000" stroke-width=".339" stroke-miterlimit="10" stroke-linecap="round"/><path d="M90.892 26.314v.256h-10.29c-1.978 0-3.708-.206-5.191-.629-1.483-.423-2.994-1.218-4.541-2.398a13.698 13.698 0 01-3.745-4.402c-.952-1.76-1.428-3.548-1.428-5.385 0-2.005.595-4.01 1.795-6.005 1.199-1.995 2.893-3.616 5.1-4.864 2.206-1.248 4.705-1.867 7.497-1.867 2.509 0 5.155.55 7.956 1.64l1.053 2.91h-.256c-.888-1.12-2.106-2.044-3.644-2.781-1.538-.737-3.26-1.101-5.155-1.101-3.286 0-5.987 1.219-8.084 3.665-2.096 2.447-3.149 5.484-3.149 9.11 0 1.504.174 2.85.522 4.03.348 1.178.998 2.338 1.95 3.488s1.978 1.985 3.067 2.535c1.09.54 2.316.914 3.662 1.13 1.355.207 2.426.305 3.223.285l1.373-.03c1.547-.058 2.518-.196 2.902-.432.385-.226.577-.806.577-1.74v-3.812c0-.737-.156-1.238-.467-1.494-.311-.255-.76-.363-1.337-.334v-.255h6.601v.255c-.741 0-1.236.138-1.483.423-.247.285-.375.835-.375 1.64v3.961c0 .796.11 1.366.32 1.72.21.354.604.52 1.172.52h.366l.01-.039zM94.637 19.249h.623c.027 2.427.604 4.117 1.73 5.08 1.126.963 2.893 1.435 5.283 1.435 2.17 0 3.818-.511 4.944-1.523s1.684-2.23 1.684-3.656c0-.865-.192-1.602-.586-2.21-.393-.61-.943-1.15-1.648-1.613-.705-.461-2.041-1.021-4-1.69-1.951-.678-3.324-1.267-4.111-1.778-.797-.511-1.456-1.268-1.987-2.29-.53-1.022-.796-2.054-.796-3.115 0-1.946.677-3.577 2.032-4.904C99.16 1.668 100.945 1 103.152 1c.851 0 1.776.098 2.774.295.989.196 1.547.324 1.666.373.046.02.092.04.137.04l1.209 3.144-.211.04s-.32-.344-.961-1.013a6.814 6.814 0 00-2.197-1.533c-.824-.363-1.758-.54-2.802-.54-1.739 0-3.13.491-4.147 1.484-1.025.982-1.529 2.171-1.529 3.567 0 .924.238 1.73.723 2.417.476.688 1.483 1.337 3.003 1.926 2.619.875 4.413 1.524 5.374 1.966.962.442 1.895 1.179 2.793 2.23.897 1.052 1.345 2.389 1.345 4.03 0 .688-.082 1.336-.238 1.955a6.674 6.674 0 01-.778 1.799c-.357.58-.787 1.1-1.291 1.572-.503.472-1.016.835-1.529 1.071-.521.246-1.336.432-2.462.55-1.126.118-1.859.187-2.216.187-4.578.03-7.416-2.191-7.178-7.321v.01z" fill="#000" stroke="#000" stroke-width=".339" stroke-linecap="round" stroke-linejoin="round"/><path d="M122.679 1.383v.256c-.338-.04-.705.02-1.117.157-.412.138-.65.334-.723.6-.073.265-.11.884-.11 1.867v19.32c0 1.05.046 1.69.128 1.926.083.235.257.422.504.58.247.157.687.225 1.327.225v.256h-6.811v-.256c.851 0 1.382-.157 1.593-.481.211-.324.311-1.061.311-2.211V4.479c0-1.2-.119-1.975-.348-2.349-.229-.373-.75-.53-1.556-.481v-.256h6.811l-.009-.01z" fill="#000" stroke="#000" stroke-width=".339" stroke-miterlimit="10" stroke-linecap="round"/><path d="M63.692 24.87c-.467-.963-.696-1.504-.696-1.622L53.887 1.01h-.458l-9 22.415c.275.197.605.315.962.354l3.58-8.805h7.489l3.652 8.942s.028.06.055.168a.605.605 0 00.12.226c.265.629.402 1.08.402 1.366 0 .422-.274.628-.815.628v.256h5.96v-.256c-.952 0-1.666-.481-2.133-1.444l-.009.01zM49.218 14.276l3.451-8.589 3.452 8.59h-6.903z" fill="#000" stroke="#000" stroke-width=".339" stroke-linecap="round" stroke-linejoin="round"/></svg><svg fill="none" viewBox="0 0 20 11" id="menu" xmlns="http://www.w3.org/2000/svg"><path d="M1 1.5h18M1 9.5h18" stroke="#000" stroke-width="2" stroke-linecap="round" stroke-linejoin="round"/></svg><svg fill="none" viewBox="0 0 24 25" id="notification" xmlns="http://www.w3.org/2000/svg"><path d="M18 8.5a6 6 0 10-12 0c0 7-3 9-3 9h18s-3-2-3-9zM15 18.5a3.786 3.786 0 01-1.269 1.464A3.113 3.113 0 0112 20.5a3.113 3.113 0 01-1.731-.536A3.786 3.786 0 019 18.5" stroke="#000" stroke-width="2" stroke-linecap="round" stroke-linejoin="round"/><circle cx="17" cy="4.5" r="4" fill="#2E3192"/></svg><svg fill="none" viewBox="0 0 32 32" id="ok" xmlns="http://www.w3.org/2000/svg"><path d="M15.932 16.419a6.71 6.71 0 10-6.711-6.707 6.716 6.716 0 006.711 6.707zm0-9.486a2.78 2.78 0 110 5.56 2.78 2.78 0 010-5.56zm2.713 14.96a12.52 12.52 0 003.898-1.614 1.967 1.967 0 00-2.098-3.33 8.52 8.52 0 01-9.033 0 1.965 1.965 0 00-2.094 3.327l.002.002c1.198.753 2.515 1.3 3.895 1.614l-3.752 3.751a1.967 1.967 0 002.782 2.782l3.685-3.687 3.687 3.687a1.965 1.965 0 002.777-2.777l-3.749-3.755z" fill="#EB722E"/></svg><svg fill="none" viewBox="0 0 24 25" id="search" xmlns="http://www.w3.org/2000/svg"><path d="M11 19.5a8 8 0 100-16 8 8 0 000 16zM21 21.5l-4.35-4.35" stroke="#C5C5C5" stroke-width="2" stroke-linecap="round" stroke-linejoin="round"/></svg><svg fill="none" viewBox="0 0 32 32" id="share" xmlns="http://www.w3.org/2000/svg"><path d="M22 12a3 3 0 100-6 3 3 0 000 6zM10 19a3 3 0 100-6 3 3 0 000 6zM22 26a3 3 0 100-6 3 3 0 000 6zM12.59 17.51l6.83 3.98M19.41 10.51l-6.82 3.98" stroke="#000" stroke-width="1.5" stroke-linecap="round" stroke-linejoin="round"/></svg><svg fill="none" viewBox="0 0 24 24" id="subscribe" xmlns="http://www.w3.org/2000/svg"><path d="M12 22a9.97 9.97 0 007.071-2.929A9.97 9.97 0 0022 12a9.969 9.969 0 00-2.929-7.071A9.969 9.969 0 0012 2a9.969 9.969 0 00-7.071 2.929A9.969 9.969 0 002 12a9.969 9.969 0 002.929 7.071A9.969 9.969 0 0012 22z" stroke="#fff" stroke-width="2" stroke-linejoin="round"/><path d="M8 12l3 3 6-6" stroke="#fff" stroke-width="2" stroke-linecap="round" stroke-linejoin="round"/></svg><svg viewBox="0 0 64 64" id="vk" xmlns="http://www.w3.org/2000/svg"><defs><style>.wcls-1{fill:#4489c8}.wcls-2{fill:#fff}</style></defs><g data-name="32-vk" id="w_32-vk"><rect class="wcls-1" height="64" rx="11.2" ry="11.2" width="64"/><path class="wcls-2" d="M9.62 19.77h7.68a.79.79 0 01.74.51c.85 2.19 4.38 10.76 7.61 11.46 2.4 0 1.55-11.4-1.5-11.4-.8 0 1.42-1.42 1.57-1.48a16.38 16.38 0 018.66 0c1.53.64 1.79 2.43 1.83 3.95s-1.7 8 .59 8.7c3 .92 6.86-8.49 7.76-10.8a.79.79 0 01.74-.5h8.55a.8.8 0 01.74 1.11 74.74 74.74 0 01-6.31 11.52 1.59 1.59 0 00.16 2C51 37.58 58 45.34 54 45.34h-8.63a1.57 1.57 0 01-1.18-.53c-1.34-1.48-5.24-5.6-7-5.27-1.46.27-1.6 2.75-1.53 4.37a1.6 1.6 0 01-1.48 1.68c-1.53.09-3.62.13-3.81.12-6.1-.39-9.71-4.46-13.16-9a56.33 56.33 0 01-8.35-15.88.81.81 0 01.76-1.06z"/></g></svg><svg fill="none" viewBox="0 0 24 24" id="x-mark" xmlns="http://www.w3.org/2000/svg"><path d="M16.243 7.757l-8.486 8.486M7.757 7.757l8.486 8.486"/></svg></svg>