<?xml version="1.0" encoding="utf-8"?><svg viewBox="0 0 123 32" xmlns="http://www.w3.org/2000/svg" xmlns:xlink="http://www.w3.org/1999/xlink"><style>:root>svg{display:none}:root>svg:target{display:block}</style><svg fill="none" viewBox="0 0 24 25" id="alert" xmlns="http://www.w3.org/2000/svg"><path d="M10.29 4.36L1.82 18.5a2 2 0 001.71 3h16.94a2 2 0 001.71-3L13.71 4.36a2 2 0 00-3.42 0zM12 9.5v4M12 17.5h.01"/></svg><svg fill="none" viewBox="0 0 10 6" id="arrow" xmlns="http://www.w3.org/2000/svg"><path d="M1 1l4 4 4-4" stroke="#000" stroke-width="2" stroke-linecap="round" stroke-linejoin="round"/></svg><svg fill="none" viewBox="0 0 24 25" id="arrow-right" xmlns="http://www.w3.org/2000/svg"><path d="M5 12.5h14M12 5.5l7 7-7 7"/></svg><svg fill="none" viewBox="0 0 19 19" id="catalog" xmlns="http://www.w3.org/2000/svg"><path d="M14.146 9.084h0a4.203 4.203 0 01-2.966-1.231s0 0 0 0m2.966 1.231l-4.122-4.198a4.127 4.127 0 001.21 2.914l-.054.053m2.966 1.231a4.198 4.198 0 002.97-1.23m-2.97 1.23l2.97-1.23m-5.936-.001a4.202 4.202 0 01-1.23-2.967h0c0-1.113.441-2.18 1.229-2.968m.001 5.935l-.001-5.935m0 0a4.197 4.197 0 012.968-1.23m-2.968 1.23l2.968-1.23m2.968 7.167a4.198 4.198 0 001.23-2.968m-1.23 2.968l1.23-2.968m0 0a4.198 4.198 0 00-1.23-2.969m1.23 2.969l-1.23-2.969m0 0a4.198 4.198 0 00-2.968-1.23m2.969 1.23L14.147.688m1.884 6.083h0c-.5.5-1.177.78-1.884.78h0a2.664 2.664 0 111.884-.78zm1.547 3.672h-6.862a.766.766 0 00-.767.767v6.862c0 .423.344.766.767.766h6.862a.767.767 0 00.767-.766V11.21a.767.767 0 00-.767-.767zm-.766 6.862h-5.33v-5.329h5.33v5.329zM7.824.689H.962a.767.767 0 00-.767.767v6.861c0 .424.343.767.767.767h6.862a.766.766 0 00.767-.767V1.455A.767.767 0 007.824.69zM7.057 7.55H1.728V2.222h5.33v5.329zm.767 2.892H.962a.767.767 0 00-.767.766v6.862c0 .423.343.767.767.767h6.862a.767.767 0 00.767-.767V11.21a.767.767 0 00-.767-.766zm-.767 6.861H1.728v-5.328h5.33v5.328z" fill="#fff" stroke="#fff" stroke-width=".15"/></svg><svg fill="none" viewBox="0 0 24 24" id="check-one" xmlns="http://www.w3.org/2000/svg"><path d="M12 22a9.97 9.97 0 007.071-2.929A9.97 9.97 0 0022 12a9.969 9.969 0 00-2.929-7.071A9.969 9.969 0 0012 2a9.969 9.969 0 00-7.071 2.929A9.969 9.969 0 002 12a9.969 9.969 0 002.929 7.071A9.969 9.969 0 0012 22z" stroke="#fff" stroke-width="2" stroke-linejoin="round"/><path d="M8 12l3 3 6-6" stroke="#fff" stroke-width="2" stroke-linecap="round" stroke-linejoin="round"/></svg><svg fill="none" viewBox="0 0 24 24" id="close" xmlns="http://www.w3.org/2000/svg"><path d="M18 6L6 18M6 6l12 12"/></svg><svg fill="none" viewBox="0 0 24 24" id="comment" xmlns="http://www.w3.org/2000/svg"><path d="M21 11.5a8.38 8.38 0 01-.9 3.8 8.5 8.5 0 01-7.6 4.7 8.379 8.379 0 01-3.8-.9L3 21l1.9-5.7a8.38 8.38 0 01-.9-3.8 8.5 8.5 0 014.7-7.6 8.38 8.38 0 013.8-.9h.5a8.48 8.48 0 018 8v.5z"/></svg><svg fill="none" viewBox="0 0 24 25" id="compare" xmlns="http://www.w3.org/2000/svg"><path d="M18 20.5v-10M12 20.5v-16M6 20.5v-6" stroke="#000" stroke-width="2" stroke-linecap="round" stroke-linejoin="round"/></svg><svg viewBox="0 0 20 21" id="currency" xmlns="http://www.w3.org/2000/svg"><path fill-rule="evenodd" clip-rule="evenodd" d="M9.774 1.542c-4.568 0-8.27 3.799-8.27 8.484 0 4.685 3.703 8.483 8.27 8.483 4.568 0 8.271-3.798 8.271-8.483 0-4.685-3.703-8.484-8.27-8.484zM0 10.026C0 4.489 4.376 0 9.774 0c5.399 0 9.775 4.488 9.775 10.026 0 5.537-4.377 10.026-9.775 10.026C4.376 20.052 0 15.563 0 10.026z"/><path fill-rule="evenodd" clip-rule="evenodd" d="M7.269 5.79c0-.427.336-.772.752-.772h2.506c1.634 0 3.258 1.114 3.258 2.828 0 1.713-1.624 2.828-3.258 2.828H8.773v1.028h3.007c.415 0 .752.345.752.771a.762.762 0 01-.752.771H8.773v1.286a.762.762 0 01-.752.77.762.762 0 01-.752-.77v-1.286h-.502a.762.762 0 01-.751-.77c0-.427.336-.772.752-.772h.5v-1.028h-.5a.762.762 0 01-.752-.772c0-.425.336-.77.752-.77h.5V5.788zM8.773 9.13h1.754c1.134 0 1.754-.727 1.754-1.285 0-.558-.62-1.285-1.754-1.285H8.773v2.57z"/></svg><svg fill="none" viewBox="0 0 24 25" id="eye" xmlns="http://www.w3.org/2000/svg"><g clip-path="url(#jclip0_22_11785)"><path clip-rule="evenodd" d="M12 19.25c4 0 7.25-2.25 9.75-6.75C19.25 8 16 5.75 12 5.75S4.75 8 2.25 12.5C4.75 17 8 19.25 12 19.25z"/><circle cx="12" cy="12.5" r="3"/></g><defs><clipPath id="jclip0_22_11785"><path fill="#fff" transform="translate(0 .5)" d="M0 0h24v24H0z"/></clipPath></defs></svg><svg fill="none" viewBox="0 0 19 17" id="favorite" xmlns="http://www.w3.org/2000/svg"><path d="M16.999 1.886A4.832 4.832 0 0013.61.5c-1.684 0-3.224.887-4.11 2.293C8.614 1.387 7.074.5 5.39.5c-1.31 0-2.54.523-3.463 1.472A5.061 5.061 0 00.5 5.485C.486 7.5 1.96 9.959 4.88 12.794a39.673 39.673 0 004.31 3.609.537.537 0 00.62-.001 39.953 39.953 0 004.288-3.609c2.908-2.833 4.388-5.29 4.402-7.301a4.945 4.945 0 00-1.501-3.606zm-3.637 10.18a40.23 40.23 0 01-3.863 3.286 39.96 39.96 0 01-3.884-3.287C2.945 9.47 1.54 7.198 1.552 5.492A4.062 4.062 0 012.693 2.67 3.736 3.736 0 015.39 1.519C7.006 1.52 8.457 2.58 9 4.157c.035.101.102.19.192.252a.538.538 0 00.614 0A.511.511 0 0010 4.157c.544-1.578 1.995-2.638 3.611-2.638a3.77 3.77 0 012.643 1.085 3.948 3.948 0 011.195 2.88c-.012 1.71-1.425 3.985-4.086 6.581z" fill="#000" stroke="#000" stroke-width=".5"/><path d="M15.018 3.436a2.666 2.666 0 00-1.998-.509.526.526 0 10.161 1.04c.417-.065.848.048 1.213.317.434.32.72.806.803 1.37.043.287.31.485.598.442h.003a.526.526 0 00.44-.597 3.098 3.098 0 00-1.22-2.063z" fill="#000" stroke="#000" stroke-width=".5"/></svg><svg fill="none" viewBox="0 0 24 24" id="home" xmlns="http://www.w3.org/2000/svg"><path d="M4.78 9.5l7-5.25 7 5.25v8.25c0 .398-.164.78-.455 1.06-.292.282-.688.44-1.1.44H6.335c-.412 0-.807-.158-1.1-.44a1.473 1.473 0 01-.455-1.06V9.5z" stroke="#C3C3C3" stroke-width="1.75" stroke-linecap="round" stroke-linejoin="round"/><path d="M9.446 19v-7h4.667v7" stroke="#C3C3C3" stroke-width="1.75" stroke-linecap="round" stroke-linejoin="round"/></svg><svg viewBox="0 0 24 25" id="lang" xmlns="http://www.w3.org/2000/svg"><path d="M12.002 2h-.072A9.932 9.932 0 004.879 4.98 9.93 9.93 0 002 12.07C2.04 17.545 6.525 22 12 22h.073a9.926 9.926 0 007.049-2.979A9.93 9.93 0 0022 11.93C21.96 6.454 17.477 2 12.002 2zm.062 18.84H12c-4.84 0-8.806-3.937-8.84-8.778-.001-.082.01-.164.01-.246.308.564.729.855 1.266 1.09.88.384 1.348.099 1.468 2.864.126 2.908 3.236 2.95 2.899 1.893-.274-.858-.307-2.044.564-2.828.871-.786.52-2.163-1.045-3.222-1.565-1.06-1.312-3.513-.653-3.696.557-.155 2.612.978 2.053-1.032-.414-1.49-2.36-1.548-3.243-1.782a8.743 8.743 0 013.916-1.791c.14.17.38.335.794.417 1.072.213 1.62.746 2.01 1.184.366.407 3.166 2.874 4.63.452a8.89 8.89 0 012.514 3.713c-.634-.121-1.565-.206-2.104.183-.871.631-.963 1.605-2.226 1.907-1.264.3-4.228 1.101-4 2.365.228 1.265-.06 1.851 1.402 2.034 1.462.185 2.53-.213 2.635.761.105.974-1.69 1.083-1.466 2.055.179.784 1.43.926 3.047.434a8.776 8.776 0 01-5.567 2.023z"/></svg><svg fill="none" viewBox="0 0 24 25" id="login" xmlns="http://www.w3.org/2000/svg"><path d="M15 3.5h4a2 2 0 012 2v14a2 2 0 01-2 2h-4M10 17.5l5-5-5-5M15 12.5H3"/></svg><svg fill="none" viewBox="0 0 123 27" id="logo" xmlns="http://www.w3.org/2000/svg"><path d="M0 1.639v-.256h16.15v2.958h-.257v-.118s-.036-.059-.036-.098c-.23-.865-.559-1.395-.97-1.592-.413-.196-1.053-.295-1.905-.295h-8.23v11.095h7.662c.66 0 1.108-.05 1.346-.157.238-.108.385-.334.412-.688h.257v2.407h-.257c0-.58-.384-.874-1.144-.874H4.752v10.043c0 .943.146 1.553.439 1.828.293.275.796.413 1.52.413v.255H0v-.255c.787 0 1.282-.148 1.492-.443.21-.294.312-.707.312-1.248V3.91c0-.845-.12-1.435-.367-1.769C1.2 1.806.723 1.639 0 1.639zM21.395 1.639v-.256h7.242c1.84 0 3.168.04 3.982.118.824.079 1.657.344 2.518.796.86.452 1.51 1.062 1.95 1.828.44.767.66 1.72.66 2.83 0 1.278-.395 2.496-1.173 3.656-.778 1.16-1.877 2.132-3.295 2.938l1.803 2.732c.394.688 1.437 2.182 3.131 4.49 1.694 2.31 3.003 3.725 3.928 4.226.924.502 1.822.757 2.682.757.86 0 1.84-.324 2.948-.973l.1.344c-1.382 1.12-3.185 1.68-5.4 1.68-1.475 0-2.747-.432-3.81-1.296-1.061-.865-2.91-3.233-5.538-7.105a.087.087 0 01-.037-.07l-2.563-3.9-2.27.068h-2.07v9.63c0 .777.1 1.327.311 1.662.202.334.705.5 1.493.5v.256h-6.583v-.255c.824-.03 1.328-.207 1.53-.511.2-.305.301-.934.301-1.877V3.909c0-.649-.082-1.19-.256-1.612-.174-.422-.696-.648-1.575-.658h-.009zm4.779.413v11.812h2.673c2.106 0 3.672-.492 4.688-1.475 1.016-.982 1.529-2.27 1.529-3.861 0-1.592-.504-3.017-1.502-4.403-.998-1.386-2.765-2.073-5.282-2.073h-2.106z" fill="#000" stroke="#000" stroke-width=".339" stroke-miterlimit="10" stroke-linecap="round"/><path d="M90.892 26.314v.256h-10.29c-1.978 0-3.708-.206-5.191-.629-1.483-.423-2.994-1.218-4.541-2.398a13.698 13.698 0 01-3.745-4.402c-.952-1.76-1.428-3.548-1.428-5.385 0-2.005.595-4.01 1.795-6.005 1.199-1.995 2.893-3.616 5.1-4.864 2.206-1.248 4.705-1.867 7.497-1.867 2.509 0 5.155.55 7.956 1.64l1.053 2.91h-.256c-.888-1.12-2.106-2.044-3.644-2.781-1.538-.737-3.26-1.101-5.155-1.101-3.286 0-5.987 1.219-8.084 3.665-2.096 2.447-3.149 5.484-3.149 9.11 0 1.504.174 2.85.522 4.03.348 1.178.998 2.338 1.95 3.488s1.978 1.985 3.067 2.535c1.09.54 2.316.914 3.662 1.13 1.355.207 2.426.305 3.223.285l1.373-.03c1.547-.058 2.518-.196 2.902-.432.385-.226.577-.806.577-1.74v-3.812c0-.737-.156-1.238-.467-1.494-.311-.255-.76-.363-1.337-.334v-.255h6.601v.255c-.741 0-1.236.138-1.483.423-.247.285-.375.835-.375 1.64v3.961c0 .796.11 1.366.32 1.72.21.354.604.52 1.172.52h.366l.01-.039zM94.637 19.249h.623c.027 2.427.604 4.117 1.73 5.08 1.126.963 2.893 1.435 5.283 1.435 2.17 0 3.818-.511 4.944-1.523s1.684-2.23 1.684-3.656c0-.865-.192-1.602-.586-2.21-.393-.61-.943-1.15-1.648-1.613-.705-.461-2.041-1.021-4-1.69-1.951-.678-3.324-1.267-4.111-1.778-.797-.511-1.456-1.268-1.987-2.29-.53-1.022-.796-2.054-.796-3.115 0-1.946.677-3.577 2.032-4.904C99.16 1.668 100.945 1 103.152 1c.851 0 1.776.098 2.774.295.989.196 1.547.324 1.666.373.046.02.092.04.137.04l1.209 3.144-.211.04s-.32-.344-.961-1.013a6.814 6.814 0 00-2.197-1.533c-.824-.363-1.758-.54-2.802-.54-1.739 0-3.13.491-4.147 1.484-1.025.982-1.529 2.171-1.529 3.567 0 .924.238 1.73.723 2.417.476.688 1.483 1.337 3.003 1.926 2.619.875 4.413 1.524 5.374 1.966.962.442 1.895 1.179 2.793 2.23.897 1.052 1.345 2.389 1.345 4.03 0 .688-.082 1.336-.238 1.955a6.674 6.674 0 01-.778 1.799c-.357.58-.787 1.1-1.291 1.572-.503.472-1.016.835-1.529 1.071-.521.246-1.336.432-2.462.55-1.126.118-1.859.187-2.216.187-4.578.03-7.416-2.191-7.178-7.321v.01z" fill="#000" stroke="#000" stroke-width=".339" stroke-linecap="round" stroke-linejoin="round"/><path d="M122.679 1.383v.256c-.338-.04-.705.02-1.117.157-.412.138-.65.334-.723.6-.073.265-.11.884-.11 1.867v19.32c0 1.05.046 1.69.128 1.926.083.235.257.422.504.58.247.157.687.225 1.327.225v.256h-6.811v-.256c.851 0 1.382-.157 1.593-.481.211-.324.311-1.061.311-2.211V4.479c0-1.2-.119-1.975-.348-2.349-.229-.373-.75-.53-1.556-.481v-.256h6.811l-.009-.01z" fill="#000" stroke="#000" stroke-width=".339" stroke-miterlimit="10" stroke-linecap="round"/><path d="M63.692 24.87c-.467-.963-.696-1.504-.696-1.622L53.887 1.01h-.458l-9 22.415c.275.197.605.315.962.354l3.58-8.805h7.489l3.652 8.942s.028.06.055.168a.605.605 0 00.12.226c.265.629.402 1.08.402 1.366 0 .422-.274.628-.815.628v.256h5.96v-.256c-.952 0-1.666-.481-2.133-1.444l-.009.01zM49.218 14.276l3.451-8.589 3.452 8.59h-6.903z" fill="#000" stroke="#000" stroke-width=".339" stroke-linecap="round" stroke-linejoin="round"/></svg><svg fill="none" viewBox="0 0 20 11" id="menu" xmlns="http://www.w3.org/2000/svg"><path d="M1 1.5h18M1 9.5h18" stroke="#000" stroke-width="2" stroke-linecap="round" stroke-linejoin="round"/></svg><svg fill="none" viewBox="0 0 24 25" id="notification" xmlns="http://www.w3.org/2000/svg"><path d="M18 8.5a6 6 0 10-12 0c0 7-3 9-3 9h18s-3-2-3-9zM15 18.5a3.786 3.786 0 01-1.269 1.464A3.113 3.113 0 0112 20.5a3.113 3.113 0 01-1.731-.536A3.786 3.786 0 019 18.5"/></svg><svg fill="none" viewBox="0 0 24 25" id="search" xmlns="http://www.w3.org/2000/svg"><path d="M11 19.5a8 8 0 100-16 8 8 0 000 16zM21 21.5l-4.35-4.35" stroke="#C5C5C5" stroke-width="2" stroke-linecap="round" stroke-linejoin="round"/></svg><svg fill="none" viewBox="0 0 32 32" id="share" xmlns="http://www.w3.org/2000/svg"><path d="M22 12a3 3 0 100-6 3 3 0 000 6zM10 19a3 3 0 100-6 3 3 0 000 6zM22 26a3 3 0 100-6 3 3 0 000 6zM12.59 17.51l6.83 3.98M19.41 10.51l-6.82 3.98" stroke="#000" stroke-width="1.5" stroke-linecap="round" stroke-linejoin="round"/></svg><svg fill="none" viewBox="0 0 24 24" id="subscribe" xmlns="http://www.w3.org/2000/svg"><path d="M12 22a9.97 9.97 0 007.071-2.929A9.97 9.97 0 0022 12a9.969 9.969 0 00-2.929-7.071A9.969 9.969 0 0012 2a9.969 9.969 0 00-7.071 2.929A9.969 9.969 0 002 12a9.969 9.969 0 002.929 7.071A9.969 9.969 0 0012 22z" stroke="#fff" stroke-width="2" stroke-linejoin="round"/><path d="M8 12l3 3 6-6" stroke="#fff" stroke-width="2" stroke-linecap="round" stroke-linejoin="round"/></svg><svg fill="none" viewBox="0 0 24 24" id="x-mark" xmlns="http://www.w3.org/2000/svg"><path d="M16.243 7.757l-8.486 8.486M7.757 7.757l8.486 8.486"/></svg></svg>