<svg width="32" height="32" viewBox="0 0 32 32" fill="none" xmlns="http://www.w3.org/2000/svg">
<path d="M15.9324 16.4186C19.6385 16.4174 22.6405 13.4118 22.6393 9.7069C22.6381 6.00077 19.6326 2.9988 15.9276 3C12.2227 3.0012 9.21948 6.00675 9.22068 9.71168C9.22546 13.4154 12.2286 16.4162 15.9324 16.4186ZM15.9324 6.93328C17.4674 6.93328 18.712 8.17782 18.712 9.71288C18.712 11.2479 17.4674 12.4913 15.9324 12.4913C14.3973 12.4913 13.1528 11.2467 13.1528 9.71168C13.1552 8.17782 14.3985 6.93448 15.9324 6.93328ZM18.645 21.8929C20.0259 21.5797 21.3434 21.0333 22.5425 20.2789C23.4559 19.6895 23.7189 18.4725 23.1295 17.5591C22.5496 16.6601 21.3565 16.3887 20.4455 16.9494C17.6826 18.6769 14.175 18.6769 11.4121 16.9494C10.4951 16.3744 9.28404 16.6493 8.7066 17.5651C8.12677 18.4821 8.39935 19.6967 9.31751 20.2765C9.31871 20.2765 9.31991 20.2777 9.31991 20.2777C10.5178 21.0309 11.8353 21.5773 13.2149 21.8917L9.46337 25.6433C8.71616 26.4323 8.75083 27.678 9.54108 28.4253C10.3002 29.1426 11.4862 29.1426 12.2454 28.4253L15.93 24.7383L19.617 28.4253C20.3845 29.1916 21.6267 29.1916 22.3942 28.4253C23.1606 27.6577 23.1606 26.4156 22.3942 25.648L18.645 21.8929Z" fill="#EB722E"/>
</svg>
