<svg width="18" height="17" viewBox="0 0 18 17" fill="none" xmlns="http://www.w3.org/2000/svg">
<path d="M8.10445 1.30244C8.47215 0.562387 9.52785 0.56239 9.89555 1.30245L11.7183 4.97096C11.8639 5.26403 12.1437 5.4673 12.4674 5.51522L16.5196 6.1151C17.3371 6.23611 17.6633 7.24014 17.0731 7.81854L14.1474 10.6857C13.9136 10.9147 13.8068 11.2436 13.8612 11.5663L14.5429 15.6056C14.6804 16.4204 13.8264 17.0409 13.0939 16.6584L9.46298 14.7618C9.17292 14.6103 8.82708 14.6103 8.53702 14.7618L4.90611 16.6584C4.17364 17.0409 3.31956 16.4204 3.45708 15.6056L4.13877 11.5663C4.19323 11.2436 4.08636 10.9147 3.85264 10.6857L0.92692 7.81853C0.336711 7.24014 0.662943 6.23611 1.4804 6.1151L5.53262 5.51522C5.85634 5.4673 6.13612 5.26403 6.28173 4.97096L8.10445 1.30244Z" fill="#DDE5D3"/>
</svg>
