<svg width="32" height="32" viewBox="0 0 32 32" fill="none" xmlns="http://www.w3.org/2000/svg">
<path fill-rule="evenodd" clip-rule="evenodd" d="M26.3622 10.785C26.3713 11.0182 26.3743 11.2513 26.3743 11.4845C26.3743 18.5541 21.4012 26.7155 12.3071 26.7155C9.51351 26.7155 6.91591 25.8252 4.72729 24.3095C5.11417 24.3519 5.50708 24.3838 5.90602 24.3838C8.22225 24.3838 10.3556 23.5251 12.0478 22.0836C9.88431 22.0518 8.05746 20.4937 7.4274 18.3739C7.72987 18.4375 8.04136 18.4694 8.35991 18.4694C8.80909 18.4694 9.2452 18.4059 9.66323 18.2787C7.39924 17.7911 5.69399 15.629 5.69399 13.0322C5.69399 13.0004 5.69399 12.9897 5.69399 12.9685C6.36123 13.3607 7.12492 13.6043 7.93585 13.6361C6.60741 12.6716 5.73416 11.0288 5.73416 9.17396C5.73416 8.19884 5.97734 7.27668 6.40542 6.48175C8.84324 9.72507 12.488 11.8555 16.5969 12.0781C16.5125 11.6859 16.4693 11.2727 16.4693 10.8593C16.4693 7.90216 18.683 5.50671 21.4142 5.50671C22.8361 5.50671 24.1204 6.15335 25.0217 7.19206C26.1502 6.95888 27.2073 6.51375 28.164 5.899C27.7932 7.1497 27.0104 8.19879 25.9874 8.85594C26.9883 8.72875 27.9429 8.44279 28.8282 8.01883C28.164 9.08933 27.3279 10.0325 26.3622 10.785Z" fill="black"/>
</svg>
