<svg width="32" height="32" viewBox="0 0 32 32" fill="none" xmlns="http://www.w3.org/2000/svg">
<g clip-path="url(#clip0_1_6027)">
<path d="M28.4857 29.0015C23.5891 32.9987 8.29985 32.9987 3.5032 29.0015C-1.39337 25.0043 -0.893726 7.91634 3.5032 3.4195C7.90012 -1.07733 24.0887 -1.07733 28.4857 3.4195C32.8826 7.91634 33.3822 25.0044 28.4857 29.0015Z" fill="#006B4B"/>
<path d="M16.0876 22.007C11.6907 25.5046 6.79411 27.3033 2.19735 27.4032C-1.20029 21.6073 -0.50075 7.51722 3.49645 3.4201C7.09392 -0.277281 18.386 -0.976821 24.8814 1.32156C26.4803 7.91694 23.1826 16.311 16.0876 22.007Z" fill="#007F5F"/>
<path d="M11.504 17.6106L14.302 10.6155H17.0001L12.6032 21.6078H10.5047L6.00781 10.6155H8.70592L11.504 17.6106ZM20.5976 12.8139C20.3978 13.0138 20.1979 13.3136 20.1979 13.6134C20.1979 13.9132 20.2978 14.2129 20.5976 14.4128C20.8974 14.6127 21.5969 14.8126 22.5962 15.1124C23.5954 15.4122 24.4948 15.7119 24.9944 16.3116C25.594 16.8112 25.8938 17.6107 25.8938 18.51C25.8938 19.5093 25.4941 20.3088 24.7946 20.9083C24.0951 21.5079 23.0958 21.8077 21.8967 21.8077C20.1979 21.8077 18.599 21.2081 17.2 19.909L18.6989 18.1103C19.8981 19.1096 20.9973 19.7092 21.9966 19.7092C22.4962 19.7092 22.7961 19.6093 23.0958 19.4094C23.3956 19.2096 23.4955 18.9097 23.4955 18.6099C23.4955 18.3101 23.3956 18.0104 23.0958 17.8105C22.796 17.6107 22.2963 17.4108 21.4969 17.2109C20.1978 16.9111 19.2984 16.5114 18.6989 16.0117C18.0993 15.5121 17.7995 14.7127 17.7995 13.7134C17.7995 12.7141 18.1992 11.9146 18.8987 11.3151C19.5982 10.7155 20.5975 10.5156 21.6967 10.5156C22.3963 10.5156 23.1956 10.6155 23.8952 10.9154C24.5947 11.2152 25.2942 11.5149 25.7938 12.0145L24.5947 13.8133C23.5954 13.1137 22.696 12.7141 21.5967 12.7141C21.1972 12.5142 20.8973 12.6141 20.5976 12.8139Z" fill="white"/>
</g>
<defs>
<clipPath id="clip0_1_6027">
<rect width="32" height="32" fill="white"/>
</clipPath>
</defs>
</svg>
