<svg width="167" height="33" viewBox="0 0 167 33" fill="none" xmlns="http://www.w3.org/2000/svg">
<g clip-path="url(#clip0_1_5794)">
<path d="M78.1031 27.5004H81.4031L86.0031 10.4004V27.5004H89.7031V4.90039H84.6031L80.0031 21.5004L75.4031 4.90039H70.2031V27.5004H73.4031V10.4004L78.1031 27.5004ZM105.203 16.3004C105.203 12.3004 103.203 10.8004 99.1031 10.8004C96.5031 10.8004 94.5031 11.6004 93.3031 12.3004V15.5004C94.3031 14.7004 96.6031 13.9004 98.6031 13.9004C100.503 13.9004 101.303 14.6004 101.303 16.3004V17.2004H100.703C94.8031 17.2004 92.1031 19.2004 92.1031 22.5004C92.1031 25.8004 94.1031 27.7004 97.1031 27.7004C99.4031 27.7004 100.403 27.0004 101.103 26.2004H101.303C101.303 26.6004 101.503 27.2004 101.603 27.5004H105.403C105.303 26.2004 105.203 24.8004 105.203 23.5004V16.3004ZM101.303 23.6004C100.803 24.3004 99.9031 24.9004 98.5031 24.9004C96.9031 24.9004 96.1031 23.9004 96.1031 22.5004C96.1031 20.6004 97.4031 19.9004 100.803 19.9004H101.403V23.6004H101.303ZM111.903 11.1004H108.303V32.2004H112.203V25.6004C113.203 27.1004 114.603 27.8004 116.303 27.8004C120.103 27.8004 122.703 24.8004 122.703 19.3004C122.703 13.8004 120.203 10.8004 116.503 10.8004C114.703 10.8004 113.203 11.6004 112.103 13.2004L111.903 11.1004ZM115.203 24.8004C113.203 24.8004 112.103 23.1004 112.103 19.4004C112.103 15.6004 113.203 13.9004 115.403 13.9004C117.503 13.9004 118.603 15.6004 118.603 19.3004C118.603 23.1004 117.503 24.8004 115.203 24.8004ZM134.803 27.5004H139.203L133.003 18.7004L138.503 11.1004H134.603L129.103 18.7004V11.1004H125.203V27.5004H129.103V19.5004L134.803 27.5004ZM152.203 26.4004V23.2004C151.003 24.0004 149.003 24.7004 147.103 24.7004C144.303 24.7004 143.203 23.4004 143.003 20.6004H152.303V18.5004C152.303 12.8004 149.803 10.7004 145.903 10.7004C141.203 10.7004 138.903 14.3004 138.903 19.3004C138.903 25.0004 141.703 27.8004 146.603 27.8004C149.303 27.8004 151.103 27.2004 152.203 26.4004ZM145.903 13.9004C147.803 13.9004 148.403 15.5004 148.403 17.5004V17.8004H143.003C143.103 15.2004 144.103 13.9004 145.903 13.9004ZM166.203 14.2004V11.1004H153.203V14.2004H157.803V27.5004H161.703V14.2004H166.203Z" fill="black"/>
<path d="M47.1027 31.5C55.4027 31.5 62.1027 24.8 62.1027 16.5C62.1027 8.2 55.4027 1.5 47.1027 1.5C38.8027 1.5 32.1027 8.2 32.1027 16.5C32.0027 24.8 38.8027 31.5 47.1027 31.5Z" fill="#FED42B"/>
<path d="M15 31.5C23.2843 31.5 30 24.7843 30 16.5C30 8.21573 23.2843 1.5 15 1.5C6.71573 1.5 0 8.21573 0 16.5C0 24.7843 6.71573 31.5 15 31.5Z" fill="#FC3F1D"/>
<path d="M17.1969 9.9H15.6969C13.0969 9.9 11.7969 11.2 11.7969 13.2C11.7969 15.4 12.6969 16.5 14.5969 17.8L16.0969 18.9L11.7969 25.6H8.29688L12.3969 19.5C9.99687 17.8 8.69687 16.2 8.69687 13.4C8.69687 9.9 11.0969 7.5 15.6969 7.5H20.2969V25.5H17.2969V9.9H17.1969Z" fill="white"/>
<mask id="mask0_1_5794" style="mask-type:luminance" maskUnits="userSpaceOnUse" x="32" y="1" width="31" height="31">
<path d="M47.1027 31.5C55.4027 31.5 62.1027 24.8 62.1027 16.5C62.1027 8.2 55.4027 1.5 47.1027 1.5C38.8027 1.5 32.1027 8.2 32.1027 16.5C32.0027 24.8 38.8027 31.5 47.1027 31.5Z" fill="white"/>
</mask>
<g mask="url(#mask0_1_5794)">
<path d="M39.7 9.69961L26.5 26.9996L30 30.9996L39.8 17.9996L38.8 25.0996L44.3 26.9996L51 16.2996C50.7 18.2996 50.2 22.8996 54.6 24.2996C61.5 26.3996 67.5 13.9996 70.3 7.69961L66.3 5.59961C63.2 12.0996 58.4 19.2996 56.5 18.7996C54.6 18.2996 56.3 12.1996 57.4 8.29961V8.19961L51.3 6.09961L44 17.9996L45 11.4996L39.7 9.69961Z" fill="black"/>
</g>
</g>
<defs>
<clipPath id="clip0_1_5794">
<rect width="167" height="32" fill="white" transform="translate(0 0.5)"/>
</clipPath>
</defs>
</svg>
