<svg width="32" height="32" viewBox="0 0 32 32" fill="none" xmlns="http://www.w3.org/2000/svg">
<path d="M20.8678 0H18.9375L15.1042 4.82895L18.9648 9.87378H20.4125C20.5405 9.87378 20.6632 9.8229 20.7537 9.73234C20.8442 9.64178 20.8951 9.51896 20.8951 9.39088V3.11325C20.8951 2.56172 21.145 2.04966 21.5498 1.67539C21.6536 1.57971 21.7351 1.46238 21.7885 1.33171C21.842 1.20103 21.8661 1.0602 21.8591 0.919174C21.8347 0.399644 21.3875 0 20.8678 0Z" fill="#CCE5DF"/>
<path d="M19.6016 1.67532C19.7053 1.57964 19.7868 1.46232 19.8403 1.33164C19.8937 1.20097 19.9178 1.06013 19.9109 0.919109C19.8864 0.399644 19.4392 0 18.9195 0H11.2529C10.7332 0 10.286 0.399644 10.2616 0.919109C10.2546 1.06014 10.2787 1.20097 10.3322 1.33165C10.3856 1.46233 10.4671 1.57966 10.5709 1.67532C10.9758 2.0496 11.2257 2.56166 11.2257 3.11319V9.39082C11.2257 9.51889 11.2765 9.64172 11.367 9.73228C11.4575 9.82284 11.5803 9.87371 11.7082 9.87371H13.156L18.9469 3.11319C18.9468 2.56172 19.1967 2.0496 19.6016 1.67532Z" fill="#E6F3EF"/>
<path d="M17.0345 3.11198L15.1042 11.8041L18.9648 9.8725V3.11198H17.0345Z" fill="#73B9A7"/>
<path d="M13.1667 3.11198V9.8725L17.0273 11.8041V3.11198H13.1667Z" fill="#73B9A7"/>
<path d="M17.0345 9.8724L15.1042 15.6671H18.9648V9.8724H17.0345Z" fill="#99F7FA"/>
<path d="M13.1667 9.8724H17.0273V15.6671H13.1667V9.8724Z" fill="#D9FDFF"/>
<path d="M23.7845 11.8047H21.8542V31.9991H23.7845C24.8506 31.9991 25.7148 31.1344 25.7148 30.0676V13.7363C25.7148 12.6695 24.8506 11.8047 23.7845 11.8047Z" fill="#CCE5DF"/>
<path d="M23.7789 30.0676V26.3145V19.9174V13.7363C23.7789 12.6695 22.9147 11.8047 21.8486 11.8047H8.33655C7.27044 11.8047 6.40625 12.6695 6.40625 13.7363V30.0676C6.40625 31.1344 7.27044 31.9991 8.33655 31.9991H21.8486C22.9147 31.9991 23.7789 31.1344 23.7789 30.0676Z" fill="#E6F3EF"/>
<path d="M16.0693 6.97585C16.6024 6.97585 17.0345 6.54345 17.0345 6.01006C17.0345 5.47667 16.6024 5.04427 16.0693 5.04427C15.5363 5.04427 15.1042 5.47667 15.1042 6.01006C15.1042 6.54345 15.5363 6.97585 16.0693 6.97585Z" fill="white"/>
<path d="M22.5417 28.7676V25.5958V20.1896V14.9657C22.5417 14.0642 21.8121 13.3333 20.912 13.3333H9.50463C8.60459 13.3333 7.875 14.0642 7.875 14.9657V28.7676C7.875 29.6692 8.60459 30.4 9.50463 30.4H20.912C21.8121 30.4 22.5417 29.6692 22.5417 28.7676Z" fill="#CCE5DF"/>
<path fill-rule="evenodd" clip-rule="evenodd" d="M22.5417 25.5952V28.7669C22.5417 29.6685 21.8121 30.3994 20.912 30.3994H9.50463C8.60459 30.3994 7.875 29.6685 7.875 28.7669V17.3327H22.5417V20.1889V25.5952Z" fill="#67EE5B"/>
</svg>
