<svg width="42" height="46" viewBox="0 0 42 46" fill="none" xmlns="http://www.w3.org/2000/svg">
<path d="M33.4967 3.21631H4.79295L4.34021 44.5947L34.8549 44.1419V39.1007L34.2683 33.8415L34.8549 29.9797V4.57446C34.8549 3.8244 34.2468 3.21631 33.4967 3.21631Z" fill="#149373"/>
<path d="M32.1505 42.7838L32.1363 41.4256L4.79072 3.21631C4.04062 3.21631 3.4325 3.8244 3.4325 4.57446V44.1419C3.4325 44.892 4.04062 45.5001 4.79072 45.5001H33.4945C34.2446 45.5001 34.8527 44.892 34.8527 44.1419H30.7923C31.5424 44.1419 32.1505 43.5338 32.1505 42.7838ZM34.8527 29.9797L32.1363 22.1719L28.4044 20.5799L34.8527 39.1007V29.9797Z" fill="#007F5F"/>
<path d="M30.7799 0.5H2.07615L1.62341 41.8783L32.1381 41.4256V31.2986L30.9786 21.6419L32.1381 17.9523V1.85815C32.1381 1.10809 31.53 0.5 30.7799 0.5Z" fill="#EDF6FF"/>
<path d="M32.1351 17.9524L29.3547 14.4778C29.0043 14.0356 28.2925 14.2833 28.2925 14.8476V19.9255C28.2925 20.1483 28.3299 20.3695 28.4031 20.58L32.1351 31.2987V17.9524Z" fill="#007F5F" fill-opacity="0.1"/>
<path d="M26.7051 38.0302H6.1507C5.97059 38.0302 5.79786 37.9587 5.6705 37.8313C5.54314 37.704 5.47159 37.5312 5.47159 37.3511C5.47159 37.171 5.54314 36.9983 5.6705 36.8709C5.79786 36.7436 5.97059 36.6721 6.1507 36.6721H26.7051C26.8852 36.6721 27.058 36.7436 27.1853 36.8709C27.3127 36.9983 27.3842 37.171 27.3842 37.3511C27.3842 37.5312 27.3127 37.704 27.1853 37.8313C27.058 37.9587 26.8852 38.0302 26.7051 38.0302ZM26.7051 33.9557H6.1507C5.97059 33.9557 5.79786 33.8842 5.6705 33.7569C5.54314 33.6295 5.47159 33.4568 5.47159 33.2767C5.47159 33.0966 5.54314 32.9238 5.6705 32.7965C5.79786 32.6691 5.97059 32.5976 6.1507 32.5976H26.7051C26.8852 32.5976 27.058 32.6691 27.1853 32.7965C27.3127 32.9238 27.3842 33.0966 27.3842 33.2767C27.3842 33.4568 27.3127 33.6295 27.1853 33.7569C27.058 33.8842 26.8852 33.9557 26.7051 33.9557ZM26.7051 29.8813H6.1507C5.97059 29.8813 5.79786 29.8097 5.6705 29.6824C5.54314 29.555 5.47159 29.3823 5.47159 29.2022C5.47159 29.0221 5.54314 28.8494 5.6705 28.722C5.79786 28.5947 5.97059 28.5231 6.1507 28.5231H26.7051C26.8852 28.5231 27.058 28.5947 27.1853 28.722C27.3127 28.8494 27.3842 29.0221 27.3842 29.2022C27.3842 29.3823 27.3127 29.555 27.1853 29.6824C27.058 29.8097 26.8852 29.8813 26.7051 29.8813ZM24.8942 25.8068H6.1507C5.97059 25.8068 5.79786 25.7353 5.6705 25.6079C5.54314 25.4806 5.47159 25.3079 5.47159 25.1278C5.47159 24.9477 5.54314 24.7749 5.6705 24.6476C5.79786 24.5202 5.97059 24.4487 6.1507 24.4487H24.8942C25.0743 24.4487 25.247 24.5202 25.3744 24.6476C25.5017 24.7749 25.5733 24.9477 25.5733 25.1278C25.5733 25.3079 25.5017 25.4806 25.3744 25.6079C25.247 25.7353 25.0743 25.8068 24.8942 25.8068ZM26.7051 21.7324H6.1507C5.97059 21.7324 5.79786 21.6608 5.6705 21.5335C5.54314 21.4061 5.47159 21.2334 5.47159 21.0533C5.47159 20.8732 5.54314 20.7005 5.6705 20.5731C5.79786 20.4458 5.97059 20.3742 6.1507 20.3742H26.7051C26.8852 20.3742 27.058 20.4458 27.1853 20.5731C27.3127 20.7005 27.3842 20.8732 27.3842 21.0533C27.3842 21.2334 27.3127 21.4061 27.1853 21.5335C27.058 21.6608 26.8852 21.7324 26.7051 21.7324ZM26.7051 17.6579H6.1507C5.97059 17.6579 5.79786 17.5864 5.6705 17.459C5.54314 17.3317 5.47159 17.159 5.47159 16.9789C5.47159 16.7988 5.54314 16.626 5.6705 16.4987C5.79786 16.3713 5.97059 16.2998 6.1507 16.2998H26.7051C26.8852 16.2998 27.058 16.3713 27.1853 16.4987C27.3127 16.626 27.3842 16.7988 27.3842 16.9789C27.3842 17.159 27.3127 17.3317 27.1853 17.459C27.058 17.5864 26.8852 17.6579 26.7051 17.6579ZM6.1507 13.5835C5.97059 13.5838 5.79774 13.5125 5.67017 13.3854C5.5426 13.2582 5.47076 13.0856 5.47046 12.9055C5.47016 12.7254 5.54142 12.5526 5.66857 12.425C5.79571 12.2975 5.96833 12.2256 6.14844 12.2253L19.6401 12.1801C20.0179 12.1784 20.3202 12.4818 20.3215 12.8569C20.3228 13.2319 20.0197 13.5369 19.6446 13.5382L6.15297 13.5835H6.1507ZM23.1262 6.79272H9.72962C9.54951 6.79272 9.37677 6.72118 9.24941 6.59382C9.12206 6.46647 9.05051 6.29375 9.05051 6.11365C9.05051 5.93354 9.12206 5.76082 9.24941 5.63347C9.37677 5.50612 9.54951 5.43457 9.72962 5.43457H23.1262C23.3063 5.43457 23.4791 5.50612 23.6064 5.63347C23.7338 5.76082 23.8053 5.93354 23.8053 6.11365C23.8053 6.29375 23.7338 6.46647 23.6064 6.59382C23.4791 6.72118 23.3063 6.79272 23.1262 6.79272Z" fill="#7E8B96"/>
<path d="M2.07392 40.0675V0.5C1.32382 0.5 0.715698 1.10809 0.715698 1.85815V41.4256C0.715698 42.1757 1.32382 42.7838 2.07392 42.7838H30.7777C31.5278 42.7838 32.1359 42.1757 32.1359 41.4256H3.43214C2.68204 41.4256 2.07392 40.8175 2.07392 40.0675Z" fill="#006B4B"/>
<path d="M30.7141 13.1196L30.2614 14.8067L30.7141 16.7769L32.5845 15.4801L30.7141 13.1196Z" fill="#7E8B96"/>
<path d="M29.6541 13.4892V16.5007L30.7163 16.7766V13.1194C30.3658 12.6772 29.6541 12.9249 29.6541 13.4892Z" fill="#5F6C75"/>
<path d="M32.585 15.48L30.7147 16.1248L29.9609 18.3047C29.9676 18.6484 31.1652 19.4094 31.1652 19.4094L34.1881 17.6813C34.1148 17.4709 34.0067 17.2742 33.8684 17.0996L32.585 15.48Z" fill="#E0BBA4"/>
<path d="M30.957 18.8068C30.8654 18.544 30.723 18.1757 30.7163 17.832V16.125L29.6541 16.501V18.5674C29.6541 18.7902 29.6915 19.0114 29.7647 19.2219L31.1668 19.4096L30.957 18.8068Z" fill="#D8AB8C"/>
<path d="M30.9517 18.8065L37.7949 40.2941C37.9448 40.7244 38.6382 40.7238 39.6242 40.3807C41.086 39.8717 41.5966 38.9706 41.5966 38.9706L34.1843 17.6812L30.9517 18.8065Z" fill="#FFD064"/>
<path d="M38.2646 39.7596L30.9549 18.8066L29.7627 19.2217L37.175 40.5112C37.4188 41.2116 38.6071 41.4347 39.829 41.0093C41.0509 40.584 41.8437 39.6713 41.5999 38.9708C41.5999 38.9708 41.1786 39.3458 40.1928 39.689C39.2067 40.0323 38.4144 40.1898 38.2646 39.7596Z" fill="#EBB044"/>
</svg>
