<svg width="56" height="55" viewBox="0 0 56 55" fill="none" xmlns="http://www.w3.org/2000/svg">
<path d="M13.3568 32.3518V32.1548C13.3568 31.0965 13.618 30.0546 14.1174 29.1215C14.6167 28.1884 15.3386 27.393 16.219 26.806L19.8724 24.3701C20.0925 24.2234 20.273 24.0245 20.3978 23.7913C20.5226 23.558 20.588 23.2975 20.588 23.0329V20.0967H35.0502V23.0329C35.0502 23.2975 35.1155 23.558 35.2403 23.7913C35.3651 24.0245 35.5456 24.2234 35.7657 24.3701L39.4191 26.806C40.2995 27.393 41.0215 28.1884 41.5208 29.1215C42.0201 30.0546 42.2813 31.0965 42.2813 32.1548V47.9999C42.2813 49.7751 40.8424 51.2141 39.0675 51.2141H16.5706C15.1904 51.2141 14.0134 50.3439 13.5581 49.1222L13.3568 32.3518Z" fill="#E6F3EF"/>
<path d="M16.5625 43.9848V46.3929C16.5625 47.2805 17.282 48 18.1694 48H37.4574C38.3449 48 39.0643 47.2804 39.0643 46.3929V32.7484C39.0643 32.5353 38.9796 32.3309 38.829 32.1802C38.6783 32.0295 38.4739 31.9448 38.2609 31.9448H17.3659C17.1528 31.9448 16.9484 32.0295 16.7978 32.1802C16.6471 32.3309 16.5624 32.5353 16.5624 32.7484L16.5625 43.9848Z" fill="#73B9A7"/>
<path d="M29.4665 40.3203C29.636 41.066 30.2984 41.5716 31.032 41.5716C31.1523 41.5715 31.2722 41.558 31.3896 41.5313C32.255 41.3345 32.7971 40.4735 32.6004 39.6079L24.5659 4.25118C24.3692 3.38559 23.5083 2.84393 22.6429 3.04018C21.7775 3.23699 21.2354 4.09797 21.4321 4.96356L29.4665 40.3203Z" fill="#767171"/>
<path d="M39.4247 26.806L35.7713 24.3701C35.5512 24.2234 35.3707 24.0245 35.2459 23.7913C35.1211 23.558 35.0558 23.2975 35.0558 23.0329V20.0967H32.8248V23.924C32.8248 24.1885 32.8901 24.449 33.015 24.6823C33.1398 24.9156 33.3203 25.1144 33.5404 25.2612L37.1937 27.697C38.0742 28.2841 38.7961 29.0794 39.2954 30.0125C39.7947 30.9456 40.056 31.9875 40.056 33.0459V47.9998C40.056 49.775 38.6171 51.214 36.8422 51.214H39.0731C40.848 51.214 42.2869 49.775 42.2869 47.9998V32.1548C42.2869 31.0965 42.0256 30.0546 41.5263 29.1215C41.027 28.1884 40.3051 27.3931 39.4247 26.806Z" fill="#CCE5DF"/>
<path d="M38.2613 31.9448H36.0304C36.2435 31.9448 36.4478 32.0295 36.5985 32.1802C36.7492 32.3309 36.8338 32.5353 36.8338 32.7484V46.3928C36.8338 47.2804 36.1144 47.9999 35.227 47.9999H37.4579C38.3454 47.9999 39.0647 47.2803 39.0647 46.3928V32.7484C39.0647 32.5353 38.9801 32.3309 38.8294 32.1802C38.6787 32.0295 38.4744 31.9448 38.2613 31.9448Z" fill="#1F8B6F"/>
<path d="M32.6019 39.6079L24.5674 4.25118C24.3707 3.38568 23.5098 2.84393 22.6444 3.04017C22.3584 3.10527 22.0959 3.24784 21.8856 3.45225C22.1108 3.66875 22.2675 3.94651 22.3365 4.25118L30.371 39.6079C30.5002 40.1764 30.3093 40.7416 29.9188 41.1193C30.2135 41.4035 30.6115 41.5716 31.0336 41.5716C31.1539 41.5715 31.2738 41.558 31.3912 41.5313C32.2564 41.3345 32.7986 40.4735 32.6019 39.6079Z" fill="#666262"/>
<path d="M35.8506 44.0581H16.5624V45.5133H35.8505C36.2523 45.5133 36.5779 45.1876 36.5779 44.7857C36.5779 44.3839 36.2523 44.0581 35.8506 44.0581Z" fill="#1F8B6F"/>
<path d="M36.4629 3.12018C35.6414 2.7839 34.7032 3.17753 34.3671 3.99905L19.905 39.3558C19.5689 40.1773 19.9624 41.1157 20.7838 41.4518C20.9767 41.531 21.1832 41.5718 21.3917 41.5718C22.0248 41.5718 22.625 41.1952 22.8795 40.5729L27.1511 30.13L27.8753 25.2354L29.2698 24.9503L37.3417 5.21618C37.6777 4.39465 37.2842 3.45627 36.4629 3.12018Z" fill="#999393"/>
<path d="M36.4645 3.11999C35.8563 2.87101 35.1847 3.02291 34.7403 3.45156C35.1994 3.895 35.3688 4.58911 35.1123 5.21599L20.6502 40.5727C20.5658 40.779 20.4393 40.9654 20.2786 41.1199C20.4249 41.2618 20.5969 41.3744 20.7855 41.4516C20.9784 41.5308 21.1849 41.5716 21.3934 41.5717C22.0265 41.5717 22.6267 41.195 22.8812 40.5727L37.3433 5.21599C37.6793 4.39447 37.2858 3.45608 36.4645 3.11999Z" fill="#767171"/>
<path d="M34.1482 20.4933L34.9971 18.9019L34.7737 17.4644H20.5882C19.7007 17.4644 18.9813 18.1839 18.9813 19.0714C18.9813 19.959 19.7007 20.6785 20.5882 20.6785H33.0377L34.1482 20.4933Z" fill="#E6F3EF"/>
<path d="M35.0558 17.4648H32.8248C33.7123 17.4648 34.4317 18.1844 34.4317 19.0719C34.4317 19.9595 33.7122 20.679 32.8248 20.679H35.0558C35.9433 20.679 36.6626 19.9595 36.6626 19.0719C36.6626 18.1844 35.9433 17.4648 35.0558 17.4648Z" fill="#CCE5DF"/>
<path d="M43.4333 8.00025C37.427 7.95959 32.4525 12.8183 32.3586 18.824C32.3304 20.6299 32.7375 22.3382 33.4818 23.8506C33.6115 24.1142 33.6463 24.4145 33.5801 24.7008L32.6338 28.8016C32.5061 29.3551 33.0021 29.8511 33.5556 29.7234L37.6564 28.7771C37.9427 28.7109 38.243 28.7457 38.5066 28.8754C40.0191 29.6197 41.7272 30.0269 43.5332 29.9986C49.5389 29.9047 54.3976 24.9302 54.357 18.924C54.3162 12.9092 49.448 8.04104 43.4333 8.00025Z" fill="#73B9A7"/>
<path d="M43.4268 10.8903C39.1822 10.8616 35.6667 14.2956 35.6004 18.5401C35.5804 19.8165 35.8681 21.0238 36.3941 22.0928C36.4858 22.2791 36.5104 22.4913 36.4636 22.6937L35.7949 25.592C35.7046 25.9832 36.0552 26.3338 36.4463 26.2435L39.3443 25.5746C39.5466 25.5279 39.7589 25.5525 39.9452 25.6442C41.014 26.1702 42.2212 26.4579 43.4975 26.438C47.7417 26.3716 51.1753 22.8558 51.1466 18.6108C51.1177 14.3598 47.6774 10.9191 43.4268 10.8903Z" fill="#1F8B6F"/>
<path d="M43.5058 24.215C43.8336 24.1373 44.0364 23.8085 43.9586 23.4806C43.8809 23.1527 43.5521 22.9499 43.2243 23.0277C42.8964 23.1054 42.6937 23.4343 42.7714 23.7621C42.8491 24.09 43.1779 24.2928 43.5058 24.215Z" fill="#E6F3EF"/>
<path d="M43.367 22.3097C43.2778 22.3097 43.1895 22.2921 43.1072 22.258C43.0248 22.2239 42.9499 22.1738 42.8869 22.1108C42.8238 22.0477 42.7738 21.9729 42.7397 21.8905C42.7056 21.8081 42.688 21.7198 42.688 21.6306V18.948C42.688 18.7679 42.7596 18.5952 42.8869 18.4679C43.0142 18.3405 43.1869 18.269 43.367 18.269C43.889 18.269 44.3748 18.0601 44.7347 17.6809C45.0945 17.302 45.2777 16.8049 45.2504 16.2813C45.1996 15.3004 44.3894 14.5165 43.4061 14.4967C42.4511 14.4767 41.6307 15.1748 41.499 16.1187C41.4868 16.2062 41.4807 16.2944 41.4808 16.3827C41.4808 16.5628 41.4093 16.7355 41.2819 16.8628C41.1546 16.9902 40.9819 17.0617 40.8018 17.0617C40.6217 17.0617 40.449 16.9902 40.3217 16.8628C40.1944 16.7355 40.1228 16.5628 40.1228 16.3827C40.1228 16.2313 40.1334 16.0793 40.1541 15.9308C40.3809 14.3062 41.7906 13.1051 43.4336 13.1389C45.1254 13.173 46.5192 14.5224 46.6068 16.211C46.6535 17.1102 46.3384 17.9643 45.7196 18.616C45.2677 19.092 44.6801 19.4176 44.0461 19.5545V21.6307C44.046 21.8108 43.9745 21.9835 43.8471 22.1108C43.7198 22.2381 43.5471 22.3097 43.367 22.3097Z" fill="#E6F3EF"/>
</svg>
