<svg width="24" height="24" viewBox="0 0 24 24" fill="none" xmlns="http://www.w3.org/2000/svg">
<path d="M17.4814 7.70282L17.4814 7.70283C19.3561 9.7486 20.6452 12.4367 20.9118 15.0592C21.1784 17.6808 20.4233 20.2346 18.2127 22.0197C15.952 23.8453 12.6835 24.3536 9.81739 23.6768C6.95147 23 4.49645 21.1409 3.85184 18.2405L3.81656 18.2484L3.85184 18.2405C3.07845 14.7664 3.91477 11.03 5.65575 7.95157C5.694 7.88403 5.7345 7.81778 5.77716 7.75293C5.99115 7.42762 6.48637 7.49624 6.61473 7.86677C6.87204 8.60947 7.23748 9.18039 7.53865 9.56572C7.68925 9.7584 7.82386 9.90477 7.92097 10.0031C7.96953 10.0523 8.00872 10.0894 8.03586 10.1144C8.04944 10.1269 8.06 10.1363 8.06721 10.1426L8.07548 10.1498L8.07765 10.1517L8.07824 10.1522L8.0784 10.1523L8.07845 10.1524L8.10178 10.1248L8.07848 10.1524L8.13681 10.2016L8.13792 10.1253C8.18386 6.95701 9.42089 4.14396 11.674 2.09864C11.8883 1.90404 12.2309 2.03941 12.2547 2.32801C12.431 4.47086 13.3489 5.75284 13.6094 6.07737C14.2953 6.93204 15.0222 8.19856 15.2635 9.41969L15.2809 9.50779L15.3294 9.4322C15.555 9.08042 15.8211 8.63944 15.935 8.06655C16.0173 7.65257 16.1264 7.39349 16.2481 7.24391C16.3678 7.09681 16.4992 7.05563 16.6349 7.07588C16.7744 7.09668 16.9227 7.18306 17.0695 7.30168C17.2157 7.41976 17.3565 7.56652 17.4814 7.70282Z" fill="#ED694A" stroke="#2E3192" stroke-width="0.0722892"/>
<path d="M12.2548 2.3313L12.2548 2.33127C12.2302 2.03631 11.8991 1.89535 11.6884 2.08578C11.6884 2.08578 11.6884 2.08578 11.6884 2.08578L11.6641 2.05897L12.2548 2.3313ZM12.2548 2.3313C12.2623 2.42009 12.2712 2.50876 12.2815 2.59727M12.2548 2.3313L12.2815 2.59727M12.2815 2.59727C10.4154 4.58901 9.3732 7.1788 9.27888 10.0651C9.27166 10.2037 9.25485 10.3344 9.15415 10.4204C8.97448 10.5536 8.72023 10.5596 8.5326 10.4138L8.13814 10.1075L12.2815 2.59727ZM6.61468 7.86713L6.6147 7.86716C6.6509 7.97131 6.69005 8.07442 6.73208 8.17635C5.0311 11.312 4.22078 15.0963 4.9885 18.6228C5.44931 20.7427 6.82457 22.3213 8.60901 23.311C6.28184 22.4426 4.40362 20.7235 3.85184 18.2409L3.81656 18.2487L3.85184 18.2409C3.07845 14.7668 3.91477 11.0303 5.65575 7.95193C5.69399 7.88439 5.73446 7.81814 5.77711 7.75329C5.99111 7.42798 6.48632 7.4966 6.61468 7.86713Z" fill="#D8553A" stroke="#2E3192" stroke-width="0.0722892"/>
<path d="M16.1367 11.9445C15.7674 11.5412 15.193 10.9968 14.9487 12.226C14.8656 12.6439 14.6714 12.9661 14.5052 13.2255C14.3259 12.3179 13.7863 11.3786 13.278 10.7452C13.0878 10.5083 12.4129 9.56634 12.2832 7.99036C12.2638 7.75514 11.9845 7.64475 11.8098 7.80337C10.1398 9.31926 9.22319 11.4043 9.18921 13.7514C9.18921 13.7514 8.49382 13.1653 8.1161 12.0749C8.01438 11.7812 7.62068 11.7252 7.44991 11.9849C7.41807 12.0333 7.38785 12.0827 7.3593 12.1331C6.07085 14.4113 5.45107 17.1778 6.02402 19.7517C6.98205 24.0622 13.3192 25.2673 16.6741 22.558C19.9565 19.9075 18.9131 14.9741 16.1367 11.9445Z" fill="#F4A32C"/>
<path d="M7.21867 20.0899C6.71139 17.5738 7.23681 14.874 8.35079 12.6259C8.25982 12.4479 8.18131 12.2638 8.11581 12.0749C8.01409 11.7813 7.62039 11.7253 7.44962 11.9849C7.41777 12.0333 7.38755 12.0828 7.35901 12.1332C6.0706 14.4114 5.45087 17.1779 6.02373 19.7518C6.46932 21.7565 8.07859 23.0891 10.01 23.669C8.63776 22.9808 7.55729 21.7717 7.21867 20.0899Z" fill="#E89528"/>
<path d="M14.8848 15.8395C14.6347 15.5665 14.2459 15.1979 14.0805 16.03C14.0243 16.313 13.8928 16.531 13.7802 16.7066C13.6588 16.0922 13.2936 15.4564 12.9495 15.0276C12.8208 14.8672 12.3639 14.2296 12.276 13.1628C12.2629 13.0035 12.0739 12.9288 11.9555 13.0362C10.8251 14.0624 10.2046 15.4738 10.1816 17.0626C10.1816 17.0626 9.71084 16.6658 9.45519 15.9277C9.38633 15.729 9.11984 15.6911 9.00425 15.8668C8.98268 15.8996 8.96222 15.933 8.94289 15.9672C8.07073 17.5094 7.65115 19.3821 8.039 21.1245C8.68751 24.0424 12.9774 24.8582 15.2484 23.0242C16.0261 22.3962 16.5083 21.5112 16.6061 20.5323C16.7537 19.0497 16.1831 17.2563 14.8848 15.8395Z" fill="#F4D44E"/>
<path d="M13.723 19.4536C13.5837 19.3015 13.367 19.0962 13.2749 19.5597C13.2436 19.7174 13.1704 19.8389 13.1076 19.9367C13.04 19.5944 12.8365 19.2401 12.6448 19.0013C12.5731 18.9119 12.3185 18.5567 12.2696 17.9623C12.2623 17.8736 12.1569 17.832 12.091 17.8918C11.4613 18.4635 11.1155 19.2499 11.1027 20.135C11.1027 20.135 10.8404 19.914 10.698 19.5027C10.6596 19.392 10.5111 19.3708 10.4468 19.4688C10.4344 19.4876 10.423 19.5064 10.4127 19.5247C9.92675 20.3839 9.69299 21.4273 9.90908 22.398C10.4012 24.612 14.4347 24.5449 14.6821 22.0681C14.7642 21.2421 14.4463 20.2429 13.723 19.4536Z" fill="#EAE9E8"/>
<path d="M10.8456 22.8373C10.6295 21.969 10.8633 21.0356 11.3492 20.2671C11.3595 20.2507 11.371 20.2339 11.3833 20.2171C11.4477 20.1295 11.5962 20.1484 11.6345 20.2474C11.777 20.6153 12.0392 20.813 12.0392 20.813C12.0498 20.1624 12.2855 19.5718 12.7183 19.0981C12.6216 18.964 12.3254 18.6408 12.2696 17.9623C12.2623 17.8736 12.1569 17.832 12.091 17.8918C11.4613 18.4635 11.1155 19.2499 11.1027 20.135C11.1027 20.135 10.8404 19.914 10.698 19.5028C10.6596 19.392 10.5111 19.3709 10.4468 19.4689C10.4344 19.4876 10.423 19.5065 10.4127 19.5248C9.92675 20.3839 9.69299 21.4273 9.90908 22.3981C10.109 23.2978 10.9306 23.8386 11.8388 23.9691C11.3489 23.7285 10.9723 23.3475 10.8456 22.8373Z" fill="#F7E7A1"/>
<path d="M8.65335 3.18961C9.66702 2.36513 9.66477 0.822609 8.65335 0C7.63968 0.824438 7.64188 2.367 8.65335 3.18961ZM20.8031 9.80686C21.8168 8.98238 21.8145 7.43986 20.8031 6.61725C20.3398 6.99403 19.7917 8.98425 20.8031 9.80686ZM2.84962 10.4347C3.58016 9.84042 3.57857 8.72878 2.84962 8.13586C2.51572 8.40741 2.12066 9.84178 2.84962 10.4347ZM15.5023 5.48841C16.2329 4.89417 16.2313 3.78253 15.5023 3.18961C14.7718 3.7838 14.7734 4.89553 15.5023 5.48841Z" fill="#D8553A"/>
<path d="M10.1211 13.3744C10.2888 11.3939 11.0452 9.63281 12.3151 8.29026C12.3019 8.19057 12.2912 8.09057 12.283 7.99036C12.2636 7.75514 11.9843 7.64475 11.8096 7.80337C10.4863 9.00459 9.637 10.5635 9.32415 12.3267L9.32368 12.3265C9.29646 12.4829 9.27307 12.6399 9.25351 12.7975C9.25356 12.7976 9.25362 12.7977 9.2537 12.7979C9.21518 13.1143 9.19357 13.4327 9.18896 13.7514C9.22431 13.7583 10.0244 14.1696 10.1211 13.3744Z" fill="#E89528"/>
<path d="M9.20801 21.5384C8.86325 19.9107 9.15687 18.1749 9.839 16.6709C9.67632 16.4427 9.54709 16.1924 9.45523 15.9277C9.38633 15.7289 9.11989 15.691 9.00425 15.8668C8.98268 15.8995 8.96222 15.933 8.94289 15.9671C8.07073 17.5093 7.65115 19.3821 8.039 21.1244C8.34275 22.4909 9.44511 23.3964 10.7647 23.7846C9.99659 23.2746 9.41558 22.5199 9.20801 21.5384ZM11.4262 16.3514C11.5405 15.5346 11.8745 14.6346 12.4004 13.8822C12.3432 13.6698 12.2981 13.4297 12.2761 13.1628C12.263 13.0035 12.0739 12.9288 11.9556 13.0362C11.2513 13.6756 10.7457 14.4649 10.4585 15.3531L10.4578 15.353C10.4126 15.4925 10.3487 15.7237 10.31 15.9062C10.3103 15.9061 10.3107 15.9061 10.311 15.9059C10.2303 16.2864 10.187 16.6738 10.1818 17.0626C10.8142 17.1415 11.3374 16.9849 11.4262 16.3514Z" fill="#E8C842"/>
</svg>
