<svg width="55" height="55" viewBox="0 0 55 55" fill="none" xmlns="http://www.w3.org/2000/svg">
<path d="M47.625 22.6258H37.53V21.0116L38.7649 20.1062L42.9089 19.2007L48.5305 20.1062V21.4487L47.625 22.6258Z" fill="#EDF6FF"/>
<path d="M38.7625 20.996V20.1062L37.7303 19.2007L36.6223 20.1062V23.5312L42.4751 24.4367L48.5282 23.5312V21.4487H39.2152C39.0952 21.4487 38.98 21.4011 38.8951 21.3162C38.8102 21.2313 38.7625 21.1161 38.7625 20.996Z" fill="#DCE9E5"/>
<path d="M26.2244 19.617H9.69324V17.2436L11.019 16.3382L18.6203 15.4327L27.1298 16.3382V18.2589L26.2244 19.617Z" fill="#E6F3EF"/>
<path d="M11.0218 17.806V16.338L9.93299 15.4326L8.77271 16.338V21.4277H27.1327V18.2587H11.4746C11.3545 18.2587 11.2393 18.211 11.1544 18.1261C11.0695 18.0412 11.0218 17.9261 11.0218 17.806Z" fill="#DCE9E5"/>
<path d="M38.2734 33.9045L36.4625 32.3864V25.8968C36.4625 25.7054 36.503 25.5161 36.5812 25.3414C36.6595 25.1668 36.7738 25.0106 36.9166 24.8832L38.3668 23.6577L38.8847 23.5315H48.527L50.0424 24.8832C50.1852 25.0106 50.2995 25.1668 50.3778 25.3414C50.456 25.5161 50.4965 25.7054 50.4965 25.8968V32.8169L49.591 34.2436L38.2734 33.9045Z" fill="#E6F3EF"/>
<path d="M36.9171 32.4695V25.8968C36.9171 25.5096 37.0823 25.1409 37.3712 24.8832L38.8866 23.5315H36.623L35.1076 24.8832C34.9648 25.0106 34.8505 25.1668 34.7722 25.3414C34.694 25.5161 34.6535 25.7054 34.6536 25.8968V32.2736L35.559 33.9045L36.9171 32.4695Z" fill="#DCE9E5"/>
<path d="M49.591 34.2436L50.4965 35.5332V46.2444C50.4965 47.2446 49.6857 48.0553 48.6856 48.0553H38.2734C37.2732 48.0553 36.4625 47.2446 36.4625 46.2444V33.9045L49.591 34.2436Z" fill="#73B9A7"/>
<path d="M48.7698 18.8627H37.4766C36.9765 18.8627 36.5712 18.4574 36.5712 17.9573V15.9159C36.5712 15.4159 37.2359 15.0105 37.736 15.0105H48.7698C49.2699 15.0105 49.6752 15.4159 49.6752 15.9159V17.7502C49.6752 18.2503 49.2699 18.8627 48.7698 18.8627Z" fill="#EDF6FF"/>
<path d="M38.1944 17.7502C38.0743 17.7502 37.9592 17.7025 37.8743 17.6176C37.7894 17.5327 37.7417 17.4176 37.7417 17.2975V15.0105H36.3836C35.8835 15.0105 35.4781 15.4159 35.4781 15.9159V19.2008C35.4781 19.7009 35.8835 20.1063 36.3836 20.1063H38.7669L42.5102 19.2008L46.3892 20.1063H48.7755C49.2756 20.1063 49.6809 19.7009 49.6809 19.2008V17.7502H46.6045L42.4948 18.6557L38.5548 17.7502H38.1944Z" fill="#DCE9E5"/>
<path d="M46.3889 15.579H40.2182L39.8947 12.596C39.822 11.8001 40.427 11.1136 40.427 11.1136H45.722C46.5208 11.1136 47.1471 11.8001 47.0745 12.596L46.8541 15.0104L46.3889 15.579Z" fill="#F2D1A5"/>
<path d="M40.778 15.0105L40.4223 11.1137H39.4316C38.6327 11.1137 38.0064 11.7998 38.079 12.5954L38.2994 15.0106L39.4458 15.7189L40.778 15.0105Z" fill="#F2BB88"/>
<path d="M40.2913 15.9159L40.5754 18.2953H46.3839L46.5992 17.7499L46.8491 15.0105H40.7778L40.2913 15.9159Z" fill="#FFE4C2"/>
<path d="M38.7657 20.1063L46.388 20.1062L46.6033 17.7498L41.4454 17.7521C41.3325 17.752 41.2237 17.7098 41.1403 17.6337C41.0568 17.5576 41.0049 17.453 40.9946 17.3405L40.782 15.0105H38.3035L38.7657 20.1063Z" fill="#F2D1A5"/>
<path d="M29.4958 27.0925L30.4012 28.3611V45.339C30.4012 46.5891 29.3878 47.6025 28.1377 47.6025H8.67125C7.42115 47.6025 6.40771 46.5891 6.40771 45.339V26.9481L29.4958 27.0925Z" fill="#73B9A7"/>
<path d="M7.76354 45.3391V28.4962L6.85812 26.9612L6.40542 26.9481L5.5 28.3612V46.2444C5.5 47.4945 6.51343 48.508 7.76354 48.508H28.1354C29.3855 48.508 30.3989 47.4945 30.3989 46.2444H8.66895C8.16898 46.2445 7.76354 45.8391 7.76354 45.3391Z" fill="#339F83"/>
<path d="M6.9574 26.948V22.3338C6.9574 21.3336 7.77644 20.5473 8.77656 20.5473L9.53285 20.5229H28.5869C29.587 20.5229 30.3977 21.3336 30.3977 22.3338V25.6442L29.4923 27.0925L6.9574 26.948Z" fill="#E6F3EF"/>
<path d="M7.76354 25.7798V22.3339C7.76354 21.3338 8.57425 20.5231 9.57437 20.5231H7.31083C6.31071 20.5231 5.5 21.3338 5.5 22.3339V25.6448L6.5865 27.4548L7.76354 25.7798Z" fill="#DCE9E5"/>
<path d="M27.9879 15.2102H9.13479C8.63472 15.2102 8.22937 14.8048 8.22937 14.3047V11.102C8.22937 10.6019 8.76184 10.1965 9.26191 10.1965H27.9879C28.4879 10.1965 28.8933 10.6019 28.8933 11.102V14.0745C28.8933 14.5745 28.4879 15.2102 27.9879 15.2102Z" fill="#E6F3EF"/>
<path d="M9.72479 14.0745C9.60472 14.0745 9.48958 14.0268 9.40468 13.9419C9.31978 13.857 9.27208 13.7418 9.27208 13.6218V10.1965H7.91396C7.4139 10.1965 7.00854 10.6019 7.00854 11.102V15.4326C7.00854 15.9327 7.4139 16.3381 7.91396 16.3381H11.021L17.7284 15.4326L24.8827 16.3381H27.9897C28.4898 16.3381 28.8951 15.9327 28.8951 15.4326V14.0745H24.9647L17.8054 14.9799L10.9397 14.0745H9.72479Z" fill="#DCE9E5"/>
<path d="M20.3528 10.9052H15.5452L11.4012 10.1956L11.2989 7.64814C11.2617 6.62246 11.9449 5.5 12.9708 5.5H23.3952C24.421 5.5 25.2421 6.35174 25.2048 7.37741L25.1026 10.1966L20.3528 10.9052Z" fill="#F2D1A5"/>
<path d="M13.1394 10.1966L12.9691 5.5H12.5012C11.4753 5.5 10.6543 6.35138 10.6915 7.37651L10.7938 10.1966L12.0218 11.0028L13.1394 10.1966Z" fill="#F2BB88"/>
<path d="M12.6078 11.102L12.74 14.889H23.9759L24.9634 14.0741L25.1041 10.1965H13.1425L12.6078 11.102Z" fill="#FFE4C2"/>
<path d="M11.0217 16.3377H24.8833L24.9654 14.0741H13.7218C13.6046 14.0741 13.4919 14.0287 13.4075 13.9473C13.3231 13.8659 13.2736 13.755 13.2694 13.6378L13.1445 10.1965H10.799L11.0217 16.3377Z" fill="#F2D1A5"/>
<path d="M30.4012 28.3611C27.2889 28.3611 27.2889 28.9044 24.1766 28.9044C21.0643 28.9044 21.0642 28.3611 17.9519 28.3611C14.8398 28.3611 14.8398 28.9044 11.7276 28.9044C9.62755 28.9044 8.94414 28.657 7.76548 28.4962L6.40771 27.4558V26.5501L7.76548 25.7796C8.94414 25.9405 9.62755 26.188 11.7276 26.188C14.8398 26.188 14.8398 25.6447 17.9519 25.6447C21.0643 25.6447 21.0643 26.188 24.1766 26.188C27.2889 26.188 27.2889 25.6447 30.4012 25.6447V28.3611Z" fill="#87CDBB"/>
<path d="M7.76308 25.78C7.19494 25.7024 6.51244 25.6447 5.5 25.6447L5.50009 28.3612C6.51262 28.3612 7.19503 28.4189 7.76318 28.4964L7.76308 25.78Z" fill="#339F83"/>
<path d="M40.3018 46.2444C40.1077 46.2444 39.9367 46.12 39.8733 45.9366C39.6332 45.2412 39.3099 44.6209 38.8736 44.1846C38.8562 44.1671 38.8387 44.1499 38.821 44.1327C38.7906 44.1031 38.7664 44.0678 38.7497 44.0288C38.7331 43.9898 38.7244 43.9478 38.7241 43.9054C38.7239 43.863 38.732 43.821 38.7482 43.7817C38.7644 43.7425 38.7881 43.7069 38.8182 43.677L38.8206 43.6745C40.0306 42.4645 40.3777 39.8436 40.4707 38.1134C40.5204 37.189 39.7618 36.4232 38.8375 36.4726C38.4103 36.4955 37.9285 36.5342 37.4268 36.5974C37.1564 36.6314 36.9171 36.4211 36.9171 36.1486V35.1857L35.7401 33.9528L34.6536 34.9898V46.697C34.6531 47.1174 34.7993 47.5248 35.0671 47.8489C35.1409 47.9384 35.2231 48.0206 35.3125 48.0944C35.6365 48.3623 36.044 48.5085 36.4644 48.5079H48.6875C49.6876 48.5079 50.4983 47.6972 50.4983 46.697V46.2443H40.3018V46.2444Z" fill="#339F83"/>
<path d="M50.4999 35.5331C47.8591 35.5331 47.8591 34.9899 45.2183 34.9899C42.5775 34.9899 42.5775 35.5331 39.9366 35.5331C38.3677 35.5331 37.7309 35.3414 36.9186 35.1857L35.606 33.6348L36.9189 32.4695C37.7311 32.6252 38.3678 32.8169 39.9366 32.8169C42.5775 32.8169 42.5775 32.2737 45.2183 32.2737C47.8591 32.2737 47.8591 32.8169 50.4999 32.8169V35.5331Z" fill="#87CDBB"/>
<path d="M36.9182 32.467H36.9184C36.3631 32.3618 35.724 32.2737 34.6538 32.2737V34.99C35.7238 34.99 36.3629 35.0781 36.9183 35.1833V32.467H36.9182Z" fill="#339F83"/>
<path d="M32.2407 39.3606C33.4665 40.5865 33.6457 42.0514 33.0354 43.2263C32.8807 43.524 30.1711 44.5034 28.6346 42.9669C27.4821 41.8143 27.4278 40.7132 27.4052 39.4218C27.3984 39.0302 27.7893 38.0175 28.2343 38.0549C29.6039 38.1696 31.3709 38.4908 32.2407 39.3606Z" fill="#DAF1A1"/>
<path d="M29.5385 42.0614C28.6686 41.1915 28.3476 39.4245 28.2328 38.0549C27.8453 38.0227 27.4568 38.0032 27.0681 37.9964C26.6765 37.9895 26.3566 38.3095 26.3634 38.7011C26.3859 39.9925 26.5752 42.7198 27.7276 43.8723C29.2641 45.4088 31.176 45.3009 32.4219 44.055C32.744 43.7328 32.9893 43.366 33.1506 42.9728C32.0231 43.4352 30.6777 43.2007 29.5385 42.0614Z" fill="#C9EB74"/>
<path d="M36.2478 43.7223C35.7105 43.7833 33.8044 43.5138 33.3644 42.9996C32.5974 42.1034 32.5049 40.516 32.6418 40.1161C32.8438 39.5257 33.7552 38.4693 34.4893 38.2658C35.6723 37.9377 37.016 37.8603 37.8129 37.8464C38.2045 37.8395 38.5243 38.1594 38.5175 38.5511C38.499 39.6151 38.3672 41.654 37.6768 42.9835C37.5292 43.2677 36.533 43.69 36.2478 43.7223Z" fill="#DAF1A1"/>
<path d="M37.6779 42.9832C37.5402 42.7324 37.3815 42.5092 37.1982 42.3259C36.1459 41.2736 34.9177 40.9927 33.8478 41.3204C33.5375 41.4154 33.2321 41.1632 33.2652 40.8404C33.3543 39.9706 33.7237 39.036 34.4545 38.3052C34.4685 38.2912 34.4838 38.278 34.4983 38.2642C33.7615 38.4678 33.0863 38.768 32.6436 39.2107C31.1071 40.7472 31.178 42.8091 32.4239 44.055C33.5467 45.1778 35.243 45.2417 36.6891 44.1298C36.7245 44.1029 36.7596 44.0747 36.7947 44.0463C36.8016 44.0407 36.8086 44.0352 36.8155 44.0295C36.8616 43.9915 36.907 43.9527 36.9516 43.913L36.9517 43.9129C37.0213 43.8514 37.0892 43.7878 37.1551 43.7223C37.358 43.5195 37.5304 43.2672 37.6779 42.9832Z" fill="#C9EB74"/>
<path d="M33.7837 47.4821C32.2472 45.9456 33.3713 43.2707 33.8747 43.1222C34.9376 42.8087 36.1532 43.0941 37.1959 44.1368C38.0897 45.0305 38.404 46.8712 38.5108 48.2549C38.5416 48.6556 37.5228 49.4762 37.1312 49.4694C35.8399 49.4469 34.9362 48.6346 33.7837 47.4821Z" fill="#DAF1A1"/>
<path d="M38.5084 48.2549C37.4965 48.1869 36.1928 48.0098 35.1965 47.5649C34.9885 47.472 34.8867 47.2361 34.9537 47.0183C35.1168 46.4884 35.1491 45.944 35.0626 45.4101C34.9821 44.9126 34.6443 43.9426 33.88 43.1208C33.4238 43.2541 33.2163 43.3154 32.8854 43.6204C32.7487 43.722 32.6197 43.8334 32.4993 43.9539C31.2535 45.1997 31.1455 47.1117 32.6821 48.6483C32.8624 48.8285 33.0811 48.9852 33.327 49.1214C34.6527 49.8558 36.7639 49.9935 37.8532 50.0125C38.2448 50.0194 38.5647 49.6994 38.5579 49.3078C38.5517 48.9564 38.5352 48.6053 38.5084 48.2549Z" fill="#C9EB74"/>
<path d="M29.5467 44.925C29.7643 44.9758 29.9976 45.0099 30.2448 45.0064C31.4642 44.9891 32.2615 44.1985 32.4101 44.0441C32.4192 44.0529 32.4406 44.0707 32.4565 44.0865C33.1083 44.7405 33.3536 45.5818 33.395 46.0089C33.484 46.9277 33.1406 47.9141 32.2738 48.7809C31.5417 49.513 30.1743 49.8564 28.9431 50.0153C28.236 50.1066 27.1552 49.239 27.448 47.1739C27.7083 45.3377 28.6759 44.7214 29.5467 44.925Z" fill="#DAF1A1"/>
<path d="M28.6653 49.4406C28.7232 46.777 29.5505 44.9249 29.5505 44.9249C29.5505 44.9249 29.0738 44.8274 28.6653 44.5885C28.1743 44.3013 27.9553 44.0899 27.9553 44.0899C27.9553 44.0899 27.8285 44.2068 27.7659 44.2694C26.6134 45.4219 26.4243 48.1492 26.4017 49.4406C26.3948 49.8321 26.7148 50.152 27.1064 50.1452C27.579 50.137 28.2442 50.1061 28.9538 50.0142C28.7764 49.886 28.6603 49.6766 28.6653 49.4406Z" fill="#C9EB74"/>
</svg>
