<svg width="56" height="55" viewBox="0 0 56 55" fill="none" xmlns="http://www.w3.org/2000/svg">
<path d="M20.8275 14.1992H31.5908V23.0691H20.8275V14.1992Z" fill="#73B9A7"/>
<path d="M41.5646 20.8108C31.3422 20.1373 21.0865 20.1373 10.8641 20.8108C8.62494 20.9582 6.806 22.6854 6.56524 24.9161C5.81061 31.9073 5.81061 38.8984 6.56524 45.8895C6.806 48.1202 8.62494 49.8475 10.8641 49.9948C21.0865 50.6684 31.3422 50.6684 41.5646 49.9948C43.8037 49.8475 45.6227 48.1202 45.8634 45.8895C46.6181 38.8984 46.6181 31.9073 45.8634 24.9161C45.6227 22.6854 43.8037 20.9582 41.5646 20.8108Z" fill="#73B9A7"/>
<path d="M9.45212 24.536C8.80789 31.7665 8.80789 39.0399 9.45212 46.2703C9.60032 47.9417 10.4534 49.3409 11.6364 50.0446C11.3791 50.0288 11.1208 50.012 10.8635 49.9952C8.62426 49.8479 6.80541 48.1207 6.56491 45.89C5.81072 38.8988 5.81072 31.9076 6.56491 24.9163C6.80541 22.6857 8.62426 20.9584 10.8635 20.8111C11.1208 20.7943 11.3791 20.7775 11.6364 20.7617C10.4534 21.4656 9.60032 22.8647 9.45212 24.536Z" fill="#339F83"/>
<path d="M35.2209 26.8456C29.2262 26.4506 23.212 26.4506 17.2173 26.8456C15.9042 26.932 14.8375 27.9449 14.6964 29.2531C14.2539 33.3409 14.2539 37.4646 14.6964 41.5524C14.8375 42.8606 15.9042 43.8734 17.2173 43.9599C23.212 44.3549 29.2262 44.3549 35.2209 43.9599C36.5339 43.8735 37.6006 42.8606 37.7418 41.5524C38.1843 37.4646 38.1843 33.3409 37.7418 29.2531C37.6006 27.9449 36.5339 26.932 35.2209 26.8456Z" fill="#F6F9F9"/>
<path d="M32.2848 5.67824C28.2406 5.44059 24.1858 5.44059 20.1415 5.67824C18.7839 5.75796 17.686 6.81731 17.5603 8.17136C17.3233 10.7174 17.3233 13.2799 17.5603 15.8259C17.6861 17.1799 18.7839 18.2393 20.1415 18.319C24.1858 18.5566 28.2406 18.5566 32.2848 18.319C33.6425 18.2393 34.7404 17.1799 34.8661 15.8259C35.1031 13.2799 35.1031 10.7174 34.8661 8.17136C34.7404 6.8174 33.6426 5.75796 32.2848 5.67824Z" fill="#F2D1A5"/>
<path d="M23.1725 18.4529C22.1616 18.423 21.1512 18.3783 20.1416 18.3187C18.7843 18.2394 17.686 17.1805 17.5602 15.8261C17.3234 13.28 17.3234 10.7174 17.5602 8.17123C17.686 6.8178 18.7842 5.75792 20.1416 5.67864C21.1512 5.61902 22.1616 5.57427 23.1725 5.54443C22.3474 6.01149 21.7666 6.86157 21.6743 7.85895C21.4179 10.6128 21.4179 13.3845 21.6743 16.1384C21.7666 17.1358 22.3474 17.9859 23.1725 18.4529Z" fill="#F2BB88"/>
<path d="M32.7123 33.2723H19.6971C19.3143 33.2723 19.004 32.962 19.004 32.5792C19.004 32.1965 19.3143 31.8862 19.6971 31.8862H32.7124C32.8034 31.8862 32.8935 31.9042 32.9776 31.939C33.0617 31.9738 33.1381 32.0249 33.2025 32.0892C33.2668 32.1536 33.3179 32.23 33.3527 32.3141C33.3875 32.3982 33.4054 32.4883 33.4054 32.5793C33.4054 32.6703 33.3875 32.7604 33.3527 32.8445C33.3178 32.9286 33.2668 33.005 33.2024 33.0693C33.138 33.1337 33.0616 33.1847 32.9775 33.2195C32.8934 33.2544 32.8033 33.2723 32.7123 33.2723ZM32.7123 38.9199H19.6971C19.3143 38.9199 19.004 38.6096 19.004 38.2269C19.004 37.8441 19.3143 37.5338 19.6971 37.5338H32.7124C32.8962 37.5339 33.0725 37.6069 33.2025 37.7369C33.3324 37.8668 33.4054 38.0431 33.4054 38.2269C33.4054 38.4107 33.3324 38.587 33.2024 38.7169C33.0724 38.8469 32.8961 38.9199 32.7123 38.9199ZM31.5272 36.0961H20.8821C20.4993 36.0961 20.189 35.7859 20.189 35.4031C20.189 35.0203 20.4993 34.7101 20.8821 34.7101H31.5272C31.91 34.7101 32.2203 35.0203 32.2203 35.4031C32.2203 35.7859 31.91 36.0961 31.5272 36.0961Z" fill="#73B9A7"/>
<path d="M44.9685 23.7286L48.3483 22.9884C49.3944 22.7593 49.3944 21.2677 48.3483 21.0386L44.9685 20.2983C44.782 20.2575 44.6112 20.1641 44.4763 20.0291C44.3413 19.8942 44.2479 19.7234 44.207 19.5369L43.4667 16.1575C43.2375 15.1115 41.7458 15.1115 41.5166 16.1575L40.7763 19.5369C40.7355 19.7234 40.642 19.8942 40.5071 20.0291C40.3721 20.1641 40.2013 20.2575 40.0148 20.2983L36.635 21.0386C35.5889 21.2677 35.5889 22.7593 36.635 22.9884L40.0148 23.7286C40.2013 23.7695 40.3721 23.8629 40.5071 23.9979C40.642 24.1328 40.7355 24.3036 40.7763 24.49L41.5166 27.8694C41.7458 28.9154 43.2375 28.9154 43.4667 27.8694L44.207 24.49C44.2479 24.3036 44.3413 24.1328 44.4763 23.9979C44.6112 23.8629 44.782 23.7695 44.9685 23.7286Z" fill="#F6E781"/>
</svg>
