<svg width="35" height="35" viewBox="0 0 35 35" fill="none" xmlns="http://www.w3.org/2000/svg">
<path d="M22.8118 0H20.7005L16.5078 5.28166L20.7303 10.7994H22.3138C22.4538 10.7994 22.588 10.7438 22.687 10.6447C22.786 10.5457 22.8416 10.4114 22.8416 10.2713V3.40512C22.8416 2.80189 23.1149 2.24182 23.5577 1.83245C23.6712 1.72781 23.7604 1.59948 23.8188 1.45655C23.8773 1.31363 23.9036 1.15959 23.896 1.00535C23.8693 0.43711 23.3802 0 22.8118 0Z" fill="#CCE5DF"/>
<path d="M21.4356 1.83238C21.5491 1.72773 21.6382 1.59941 21.6967 1.45648C21.7551 1.31356 21.7815 1.15952 21.7739 1.00528C21.7471 0.43711 21.258 0 20.6896 0H12.3042C11.7358 0 11.2467 0.43711 11.22 1.00528C11.2124 1.15952 11.2388 1.31357 11.2972 1.4565C11.3557 1.59943 11.4448 1.72775 11.5583 1.83238C12.0011 2.24175 12.2745 2.80181 12.2745 3.40505V10.2712C12.2745 10.4113 12.3301 10.5456 12.4291 10.6447C12.5281 10.7437 12.6623 10.7994 12.8023 10.7994H14.3857L20.7195 3.40505C20.7195 2.80189 20.9928 2.24175 21.4356 1.83238Z" fill="#E6F3EF"/>
<path d="M18.6191 3.40479L16.5078 12.9118L20.7303 10.7991V3.40479H18.6191Z" fill="#73B9A7"/>
<path d="M14.3906 3.40479V10.7991L18.6132 12.9118V3.40479H14.3906Z" fill="#73B9A7"/>
<path d="M18.6191 10.7993L16.5078 17.1373H20.7303V10.7993H18.6191Z" fill="#99F7FA"/>
<path d="M14.3906 10.7993H18.6132V17.1373H14.3906V10.7993Z" fill="#D9FDFF"/>
<path d="M26.0097 12.9121H23.8984V34.9998H26.0097C27.1758 34.9998 28.121 34.054 28.121 32.8871V15.0248C28.121 13.8579 27.1758 12.9121 26.0097 12.9121Z" fill="#CCE5DF"/>
<path d="M26.0014 32.8873V28.7824L21.7788 21.7856L26.0014 15.025C26.0014 13.8581 25.0562 12.9123 23.8901 12.9123H9.11126C7.94521 12.9123 7 13.8581 7 15.025V32.8873C7 34.0542 7.94521 35 9.11126 35H23.8901C25.0562 35 26.0014 34.0542 26.0014 32.8873Z" fill="#E6F3EF"/>
<path d="M23.8995 15.0254L21.0469 17.1381V29.9688L23.1581 30.761C24.5383 31.279 26.0107 30.2579 26.0107 28.7828V15.0254H23.8995Z" fill="#1F8B6F"/>
<path d="M23.8882 27.9906V15.0254H9.10938V28.7828C9.10938 30.2579 10.5817 31.279 11.962 30.761L15.3305 29.497C16.7644 28.9589 18.3445 28.9589 19.7784 29.497L21.0356 29.9688C22.4159 30.4867 23.8882 29.4657 23.8882 27.9906Z" fill="#73B9A7"/>
<path d="M17.5634 7.63073C18.1465 7.63073 18.6191 7.15779 18.6191 6.5744C18.6191 5.991 18.1465 5.51807 17.5634 5.51807C16.9804 5.51807 16.5078 5.991 16.5078 6.5744C16.5078 7.15779 16.9804 7.63073 17.5634 7.63073Z" fill="white"/>
</svg>
