<svg width="56" height="55" viewBox="0 0 56 55" fill="none" xmlns="http://www.w3.org/2000/svg">
<path fill-rule="evenodd" clip-rule="evenodd" d="M7.54712 40.4704V33.1161C7.54712 31.8419 8.33343 30.7623 9.43166 30.2692C10.1141 29.96 10.6579 29.6428 10.6499 28.7792V25.9883H15.1654V28.7792C15.1574 29.6428 15.7012 29.96 16.3836 30.2692C17.4818 30.7623 18.2682 31.842 18.2682 33.1161V40.4704H7.54712ZM37.4521 40.4704V33.1161C37.4521 31.8419 38.2358 30.7623 39.334 30.2692C40.0191 29.96 40.5603 29.6428 40.5548 28.7792V25.9883H45.0676V28.7792C45.0623 29.6428 45.6034 29.96 46.2884 30.2692C47.3839 30.7623 48.1704 31.842 48.1704 33.1161V40.4704H37.4521ZM22.4983 40.4704V33.1161C22.4983 31.8419 23.2846 30.7623 24.3829 30.2692C25.068 29.96 25.6091 29.6428 25.6037 28.7792V25.9883H30.1165V28.7792C30.1111 29.6428 30.6522 29.96 31.3372 30.2692C32.4328 30.7623 33.2192 31.842 33.2192 33.1161V40.4704H22.4983Z" fill="#EDF4FF"/>
<path fill-rule="evenodd" clip-rule="evenodd" d="M12.3412 25.9888H15.1641V28.7797C15.1561 29.6433 15.6999 29.9605 16.3823 30.2697C17.4805 30.7628 18.2669 31.8425 18.2669 33.1166V40.4709H15.4468V33.1166C15.4468 31.8424 14.6604 30.7628 13.5621 30.2697C12.8771 29.9605 12.3359 29.6433 12.3413 28.7797V25.9888H12.3412ZM42.2462 25.9888H45.0664V28.7797C45.0611 29.6433 45.6021 29.9605 46.2872 30.2697C47.3827 30.7628 48.1692 31.8425 48.1692 33.1166V40.4709H45.349V33.1166C45.349 31.8424 44.5627 30.7628 43.4645 30.2697C42.7821 29.9605 42.2383 29.6433 42.2462 28.7797V25.9888ZM27.2951 25.9888H30.1153V28.7797C30.1099 29.6433 30.651 29.9605 31.336 30.2697C32.4316 30.7628 33.218 31.8425 33.218 33.1166V40.4709H30.3977V33.1166C30.3977 31.8424 29.6115 30.7628 28.5133 30.2697C27.8309 29.9605 27.2871 29.6433 27.2951 28.7797V25.9888Z" fill="#DBEAFF"/>
<path fill-rule="evenodd" clip-rule="evenodd" d="M6.60595 40.0015H49.1111C50.6625 40.0015 51.9313 41.2703 51.9313 42.8216V47.177C51.9313 48.7285 50.6625 49.9999 49.1111 49.9999H6.60595C5.05457 50 3.78577 48.7286 3.78577 47.1771V42.8216C3.78577 41.2704 5.05457 40.0015 6.60595 40.0015Z" fill="#007F5F"/>
<path fill-rule="evenodd" clip-rule="evenodd" d="M46.2892 40.0015H49.1094C50.6608 40.0015 51.9296 41.2703 51.9296 42.8216V47.177C51.9296 48.7285 50.6608 49.9999 49.1094 49.9999H46.2892C47.8406 49.9999 49.1094 48.7285 49.1094 47.177V42.8216C49.1094 41.2704 47.8406 40.0015 46.2892 40.0015Z" fill="#006B4B"/>
<path fill-rule="evenodd" clip-rule="evenodd" d="M39.6139 26.4581H46.0086C46.939 26.4581 47.7013 25.6984 47.7013 24.7655C47.7013 23.8352 46.939 23.0728 46.0086 23.0728H39.6139C38.6836 23.0728 37.9213 23.8352 37.9213 24.7655C37.9213 25.6984 38.6836 26.4581 39.6139 26.4581ZM9.71166 26.4581H16.1036C17.0366 26.4581 17.7963 25.6984 17.7963 24.7655C17.7963 23.8352 17.0366 23.0728 16.1036 23.0728H9.71166C8.77865 23.0728 8.01904 23.8352 8.01904 24.7655C8.01895 25.6984 8.77865 26.4581 9.71166 26.4581ZM24.6628 26.4581H31.0574C31.9878 26.4581 32.7502 25.6984 32.7502 24.7655C32.7502 23.8352 31.9878 23.0728 31.0574 23.0728H24.6628C23.7325 23.0728 22.9702 23.8352 22.9702 24.7655C22.9701 25.6984 23.7325 26.4581 24.6628 26.4581Z" fill="#DBEAFF"/>
<path fill-rule="evenodd" clip-rule="evenodd" d="M43.1873 26.4581H46.0102C46.9405 26.4581 47.7029 25.6984 47.7029 24.7655C47.7029 23.8352 46.9405 23.0728 46.0102 23.0728H43.1873C44.1203 23.0728 44.88 23.8352 44.88 24.7655C44.88 25.6984 44.1203 26.4581 43.1873 26.4581ZM13.2849 26.4581H16.1051C17.038 26.4581 17.7977 25.6984 17.7977 24.7655C17.7977 23.8352 17.038 23.0728 16.1051 23.0728H13.2849C14.2153 23.0728 14.9776 23.8352 14.9776 24.7655C14.9776 25.6984 14.2153 26.4581 13.2849 26.4581ZM28.2362 26.4581H31.0589C31.9893 26.4581 32.7516 25.6984 32.7516 24.7655C32.7516 23.8352 31.9893 23.0728 31.0589 23.0728H28.2362C29.1691 23.0728 29.9288 23.8352 29.9288 24.7655C29.9288 25.6984 29.1691 26.4581 28.2362 26.4581Z" fill="#CBE2FF"/>
<path fill-rule="evenodd" clip-rule="evenodd" d="M4.72677 7.02588H50.993C51.5101 7.02588 51.9313 7.44706 51.9313 7.96425V10.6618C51.9313 11.179 51.5101 11.6028 50.993 11.6028H4.72677C4.20958 11.6026 3.78577 11.1789 3.78577 10.6617V7.96415C3.78577 7.44706 4.20958 7.02588 4.72677 7.02588Z" fill="#ECEAEC"/>
<path fill-rule="evenodd" clip-rule="evenodd" d="M48.1699 7.02588H50.9927C51.5098 7.02588 51.931 7.44706 51.931 7.96425V10.6618C51.931 11.179 51.5098 11.6028 50.9927 11.6028H48.1699C48.687 11.6028 49.1108 11.179 49.1108 10.6618V7.96415C49.1108 7.44706 48.687 7.02588 48.1699 7.02588Z" fill="#DAD8DB"/>
<path d="M27.1541 17.2352C27.1541 16.846 27.4687 16.5288 27.8578 16.5288C28.2469 16.5288 28.5642 16.846 28.5642 17.2352V19.0398C28.5642 19.429 28.247 19.7434 27.8578 19.7434C27.4686 19.7434 27.1541 19.4289 27.1541 19.0398V17.2352Z" fill="#5D5360"/>
<path fill-rule="evenodd" clip-rule="evenodd" d="M29.783 13.1567V16.2941C29.783 16.8112 29.3592 17.235 28.8421 17.235H26.8855C26.3684 17.235 25.9473 16.8112 25.9473 16.2941V13.1567H29.783Z" fill="#C2BCC1"/>
<path fill-rule="evenodd" clip-rule="evenodd" d="M23.0872 5H32.6406C33.6748 5 34.5225 5.84762 34.5225 6.88181V11.7465C34.5225 12.7808 33.6748 13.6257 32.6406 13.6257H23.0872C22.0529 13.6257 21.2079 12.7808 21.2079 11.7465V6.88172C21.2079 5.84753 22.0529 5 23.0872 5Z" fill="#007F5F"/>
<path fill-rule="evenodd" clip-rule="evenodd" d="M29.8181 5H32.6382C33.6724 5 34.5201 5.84762 34.5201 6.88181V11.7465C34.5201 12.7808 33.6724 13.6257 32.6382 13.6257H29.8181C30.8522 13.6257 31.6999 12.7808 31.6999 11.7465V6.88172C31.6998 5.84753 30.8522 5 29.8181 5Z" fill="#006B4B"/>
<path fill-rule="evenodd" clip-rule="evenodd" d="M7.55072 40.0018H18.2717V36.5578H15.5981C15.2943 36.5498 15.1289 36.2966 15.065 36.03C14.8277 35.0625 13.9535 34.3428 12.9112 34.3428C11.8691 34.3428 10.9947 35.0625 10.7575 36.03C10.6935 36.2966 10.5282 36.5498 10.2244 36.5578H7.55072V40.0018Z" fill="#FFE07D"/>
<path fill-rule="evenodd" clip-rule="evenodd" d="M22.5005 40.0018H33.2214V36.5578H30.5478C30.2439 36.5498 30.0786 36.2966 30.0147 36.03C29.7774 35.0625 28.9032 34.3428 27.8609 34.3428C26.8186 34.3428 25.9444 35.0625 25.7072 36.03C25.6432 36.2966 25.4779 36.5498 25.1741 36.5578H22.5005V40.0018Z" fill="#B3E59F"/>
<path fill-rule="evenodd" clip-rule="evenodd" d="M37.457 40.0018H48.1753V36.5578H45.5017C45.1978 36.5498 45.0352 36.2966 44.9686 36.03C44.7314 35.0625 43.8571 34.3428 42.8148 34.3428C41.7726 34.3428 40.8983 35.0625 40.6637 36.03C40.5971 36.2966 40.4344 36.5498 40.128 36.5578H37.457V40.0018Z" fill="#E0C0EF"/>
<path fill-rule="evenodd" clip-rule="evenodd" d="M27.8615 10.899C28.7358 10.899 29.4475 10.1874 29.4475 9.31303C29.4475 8.4387 28.7358 7.72705 27.8615 7.72705C26.9898 7.72705 26.2755 8.4387 26.2755 9.31303C26.2755 10.1874 26.9898 10.899 27.8615 10.899Z" fill="#E8E8E8"/>
<path fill-rule="evenodd" clip-rule="evenodd" d="M8.49163 43.0483H17.3307C17.8478 43.0483 18.2717 43.4694 18.2717 43.9865V46.0124C18.2717 46.5295 17.8478 46.9533 17.3307 46.9533H8.49163C7.97444 46.9533 7.55072 46.5295 7.55072 46.0124V43.9865C7.55072 43.4694 7.97444 43.0483 8.49163 43.0483ZM38.394 43.0483H47.233C47.7502 43.0483 48.174 43.4694 48.174 43.9865V46.0124C48.174 46.5295 47.7502 46.9533 47.233 46.9533H38.394C37.8769 46.9533 37.4557 46.5295 37.4557 46.0124V43.9865C37.4557 43.4694 37.8769 43.0483 38.394 43.0483ZM23.4428 43.0483H32.2818C32.799 43.0483 33.2228 43.4694 33.2228 43.9865V46.0124C33.2228 46.5295 32.799 46.9533 32.2818 46.9533H23.4428C22.9257 46.9533 22.5019 46.5295 22.5019 46.0124V43.9865C22.5019 43.4694 22.9257 43.0483 23.4428 43.0483Z" fill="#E8E8E8"/>
<path fill-rule="evenodd" clip-rule="evenodd" d="M14.5127 43.0483H17.3328C17.85 43.0483 18.2738 43.4694 18.2738 43.9865V46.0124C18.2738 46.5295 17.85 46.9533 17.3328 46.9533H14.5127C15.0298 46.9533 15.4536 46.5295 15.4536 46.0124V43.9865C15.4537 43.4694 15.0298 43.0483 14.5127 43.0483ZM44.415 43.0483H47.2352C47.7524 43.0483 48.1762 43.4694 48.1762 43.9865V46.0124C48.1762 46.5295 47.7524 46.9533 47.2352 46.9533H44.415C44.9321 46.9533 45.356 46.5295 45.356 46.0124V43.9865C45.356 43.4694 44.9321 43.0483 44.415 43.0483ZM29.4639 43.0483H32.284C32.8012 43.0483 33.225 43.4694 33.225 43.9865V46.0124C33.225 46.5295 32.8012 46.9533 32.284 46.9533H29.4639C29.981 46.9533 30.4048 46.5295 30.4048 46.0124V43.9865C30.4048 43.4694 29.981 43.0483 29.4639 43.0483Z" fill="#D4D4D4"/>
<path fill-rule="evenodd" clip-rule="evenodd" d="M48.1762 36.5575H45.5025C45.4525 36.5571 45.4028 36.5481 45.3559 36.5308V40.0014H48.1761L48.1762 36.5575Z" fill="#CCB2EF"/>
<path fill-rule="evenodd" clip-rule="evenodd" d="M33.2197 36.5575H30.546C30.496 36.5571 30.4463 36.5481 30.3994 36.5308V40.0014H33.2196V36.5575H33.2197Z" fill="#95D6A4"/>
<path fill-rule="evenodd" clip-rule="evenodd" d="M18.2698 36.5575H15.5962C15.5461 36.5574 15.4965 36.5483 15.4496 36.5308V40.0014H18.2698V36.5575Z" fill="#FFD064"/>
<path fill-rule="evenodd" clip-rule="evenodd" d="M18.3835 7.02588H21.2063V11.6027H18.3835V7.02588Z" fill="#DAD8DB"/>
</svg>
