<svg width="56" height="55" viewBox="0 0 56 55" fill="none" xmlns="http://www.w3.org/2000/svg">
<path d="M20.0693 36.6821L18.083 36.1951C13.4676 35.0636 9.86315 31.4614 8.72881 26.8468L8.16779 24.5643C8.02188 23.9708 8.55812 23.4342 9.15175 23.5798L9.83345 23.7469C14.4489 24.8784 18.0533 28.4806 19.1876 33.0953L20.0693 36.6821Z" fill="#78D0B1"/>
<path d="M9.83345 23.7469L9.15175 23.5798C8.55812 23.4342 8.02188 23.9707 8.16779 24.5643L8.43472 25.6501L8.64944 25.7028C13.2649 26.8343 16.8693 30.4365 18.0036 35.0511L18.2978 36.2477L20.0694 36.6821L19.1877 33.0953C18.0533 28.4806 14.4489 24.8784 9.83345 23.7469Z" fill="#61AAB7"/>
<path d="M30.5548 14.5448L32.0149 16.3556H40.1409L41.9647 14.5448V7.17196C41.9646 5.69628 40.7683 4.5 39.2926 4.5H33.2267C31.751 4.5 30.5547 5.69628 30.5547 7.17196V14.5448H30.5548Z" fill="#36527D"/>
<path d="M39.2937 4.5H37.3758C38.8516 4.5 40.0479 5.69628 40.0479 7.17196V16.3557L41.9657 14.5449V7.17196C41.9657 5.69628 40.7694 4.5 39.2937 4.5ZM33.4134 12.3734C33.2333 12.3734 33.0606 12.3019 32.9333 12.1745C32.8059 12.0472 32.7344 11.8745 32.7344 11.6944V8.00402C32.7344 7.82393 32.8059 7.65121 32.9333 7.52387C33.0606 7.39652 33.2333 7.32498 33.4134 7.32498C33.5935 7.32498 33.7663 7.39652 33.8936 7.52387C34.021 7.65121 34.0925 7.82393 34.0925 8.00402V11.6945C34.0925 11.8745 34.0209 12.0472 33.8936 12.1746C33.7662 12.3019 33.5935 12.3734 33.4134 12.3734ZM36.2607 12.3734C36.0806 12.3734 35.9079 12.3019 35.7806 12.1745C35.6532 12.0472 35.5817 11.8745 35.5817 11.6944V8.00402C35.5817 7.82393 35.6532 7.65121 35.7806 7.52387C35.9079 7.39652 36.0806 7.32498 36.2607 7.32498C36.4408 7.32498 36.6135 7.39652 36.7409 7.52387C36.8682 7.65121 36.9398 7.82393 36.9398 8.00402V11.6945C36.9398 11.7836 36.9222 11.8719 36.8881 11.9543C36.854 12.0367 36.804 12.1115 36.7409 12.1746C36.6778 12.2376 36.603 12.2876 36.5206 12.3218C36.4382 12.3559 36.3499 12.3734 36.2607 12.3734Z" fill="#223E69"/>
<path d="M39.109 12.3736C38.9289 12.3736 38.7562 12.3021 38.6288 12.1747C38.5015 12.0474 38.4299 11.8747 38.4299 11.6946V8.00424C38.4299 7.82415 38.5015 7.65143 38.6288 7.52408C38.7562 7.39674 38.9289 7.3252 39.109 7.3252C39.2891 7.3252 39.4618 7.39674 39.5892 7.52408C39.7165 7.65143 39.7881 7.82415 39.7881 8.00424V11.6947C39.788 11.8748 39.7165 12.0475 39.5891 12.1748C39.4618 12.3021 39.2891 12.3736 39.109 12.3736Z" fill="#223E69"/>
<path d="M41.9675 16.8746V14.5449H30.5576V16.8746C30.5575 17.3197 30.4142 17.753 30.1487 18.1102C29.8831 18.4675 29.5096 18.7298 29.0834 18.8582C26.3898 19.6696 24.546 22.1503 24.546 24.9635V43.6248C24.546 46.8682 27.1754 49.4975 30.4189 49.4975H42.1059C45.3494 49.4975 47.9788 46.8682 47.9788 43.6248V24.9635C47.9788 22.1503 46.1352 19.6696 43.4414 18.8582C43.0153 18.7297 42.6418 18.4674 42.3763 18.1102C42.1108 17.7529 41.9675 17.3196 41.9675 16.8746Z" fill="#E6F3EF"/>
<path d="M43.4387 18.8581L43.0794 18.6785C42.7444 18.511 42.4627 18.2535 42.2657 17.9349C42.0688 17.6163 41.9645 17.2491 41.9645 16.8746V14.5449H30.5547V15.8621H37.3765C38.9445 15.8621 40.2156 17.1332 40.2156 18.7012C40.2156 19.5153 40.8756 20.1753 41.6898 20.1753C44.3835 20.9867 46.2271 23.4674 46.2271 26.2806V44.9419C46.2271 46.4633 45.6486 47.8494 44.6996 48.8926C46.6405 47.9341 47.976 45.9358 47.976 43.6247V24.9634C47.976 22.1502 46.1324 19.6694 43.4387 18.8581Z" fill="#CCE5DF"/>
<path d="M43.0958 15.2238H29.4311C29.251 15.2238 29.0783 15.1523 28.951 15.0249C28.8236 14.8976 28.7521 14.7249 28.7521 14.5448C28.7521 14.3647 28.8236 14.192 28.951 14.0646C29.0783 13.9373 29.251 13.8657 29.4311 13.8657H43.0958C43.2759 13.8657 43.4486 13.9373 43.5759 14.0646C43.7033 14.192 43.7748 14.3647 43.7748 14.5448C43.7748 14.7249 43.7033 14.8976 43.5759 15.0249C43.4486 15.1523 43.2759 15.2238 43.0958 15.2238Z" fill="#F6E781"/>
<path d="M30.4195 46.7811H42.1064C43.8499 46.7811 45.2631 45.3678 45.2631 43.6245V29.8303C45.2631 29.3006 44.7184 28.9467 44.2334 29.1595C43.6267 29.4259 43.3108 29.8678 42.2628 29.8678C40.7626 29.8678 40.7626 28.9624 39.2625 28.9624C37.7625 28.9624 37.7625 29.8678 36.2625 29.8678C34.7625 29.8678 34.7625 28.9624 33.2624 28.9624C31.7625 28.9624 31.7625 29.8678 30.2626 29.8678C29.2148 29.8678 28.899 29.4259 28.2924 29.1596C27.8075 28.9467 27.2627 29.3007 27.2627 29.8304V43.6245C27.2627 45.3678 28.676 46.7811 30.4195 46.7811Z" fill="#73B9A7"/>
<path d="M44.2334 29.1595C43.8248 29.3389 43.5473 29.5975 43.0899 29.7475C43.0929 29.7747 43.0952 29.8021 43.0952 29.8303V43.6245C43.0952 45.3679 41.6818 46.781 39.9385 46.781H42.1064C43.8498 46.781 45.263 45.3678 45.263 43.6245V29.8303C45.2631 29.3007 44.7184 28.9466 44.2334 29.1595Z" fill="#1F8B6F"/>
<path d="M37.7763 22.6065C36.4695 22.6065 35.4061 21.5432 35.4061 20.2364V14.5448C35.4061 14.3647 35.4777 14.192 35.605 14.0646C35.7324 13.9373 35.9051 13.8657 36.0852 13.8657H37.7763C39.0832 13.8657 40.1465 14.929 40.1465 16.2359V20.2364C40.1465 21.5432 39.0832 22.6065 37.7763 22.6065ZM36.7642 15.2238V20.2364C36.7642 20.7945 37.2182 21.2484 37.7763 21.2484C38.3344 21.2484 38.7883 20.7944 38.7883 20.2364V16.2359C38.7883 15.6778 38.3343 15.2238 37.7763 15.2238H36.7642Z" fill="#F6E781"/>
<path d="M34.5101 19.1336C34.399 19.1335 34.2896 19.1063 34.1915 19.0541C34.0934 19.002 34.0096 18.9266 33.9474 18.8345C33.8852 18.7424 33.8466 18.6365 33.8349 18.526C33.8232 18.4156 33.8388 18.3039 33.8803 18.2009L34.7705 15.9887L33.2491 16.7758C33.1699 16.8173 33.0832 16.8428 32.9941 16.8507C32.905 16.8586 32.8152 16.8488 32.7299 16.8219C32.6445 16.795 32.5654 16.7515 32.4969 16.6939C32.4285 16.6363 32.372 16.5658 32.3309 16.4863C32.2898 16.4068 32.2648 16.32 32.2574 16.2309C32.2499 16.1417 32.2601 16.052 32.2875 15.9668C32.3148 15.8816 32.3587 15.8027 32.4167 15.7345C32.4746 15.6663 32.5454 15.6103 32.6251 15.5696L35.7715 13.9418C35.8946 13.878 36.0343 13.8535 36.1718 13.8715C36.3093 13.8894 36.4379 13.9491 36.5405 14.0423C36.6431 14.1356 36.7147 14.2581 36.7456 14.3932C36.7765 14.5284 36.7653 14.6698 36.7135 14.7984L35.1403 18.7077C35.0897 18.8335 35.0027 18.9412 34.8904 19.0171C34.778 19.093 34.6456 19.1335 34.5101 19.1336Z" fill="#F6E781"/>
<path d="M20.9152 39.0266L22.8797 36.1412C24.5253 33.7243 27.6575 32.8196 30.3384 33.9871L31.6176 34.5442C31.8686 34.6535 32.0925 34.8168 32.2731 35.0226C32.4538 35.2283 32.5868 35.4713 32.6628 35.7344C32.7388 35.9974 32.7558 36.2739 32.7126 36.5443C32.6695 36.8147 32.5672 37.0722 32.4131 37.2985L31.3917 38.7986C29.5006 41.5762 25.7158 42.2949 22.9381 40.4038L20.9152 39.0266Z" fill="#F1F1F4"/>
<path d="M31.3917 38.7986L32.4131 37.2985C32.644 36.9596 32.7564 36.5538 32.7329 36.1444C32.7095 35.7396 32.5543 35.3534 32.2911 35.0449C32.2375 35.2026 32.1631 35.3523 32.0697 35.4902L31.0483 36.9903C29.1572 39.7679 25.3724 40.4866 22.5947 38.5954L21.6477 37.9507L20.9152 39.0265L22.9381 40.4038C25.7159 42.2949 29.5006 41.5762 31.3917 38.7986Z" fill="#DFEAEF"/>
<path d="M21.0008 39.0249L24.3521 40.0015C27.1594 40.8197 28.9876 43.519 28.7057 46.4293L28.5712 47.818C28.5448 48.0905 28.4586 48.3539 28.3188 48.5893C28.179 48.8247 27.989 49.0264 27.7622 49.1799C27.5355 49.3335 27.2777 49.4351 27.0073 49.4776C26.7368 49.5201 26.4602 49.5023 26.1974 49.4257L24.455 48.9179C21.2289 47.9777 19.3758 44.6002 20.316 41.3742L21.0008 39.0249Z" fill="#F1F1F4"/>
<path d="M24.455 48.9179L26.1974 49.4257C26.5911 49.5405 27.0117 49.522 27.3939 49.3731C27.7717 49.2257 28.0909 48.9589 28.303 48.6132C28.1366 48.6111 27.9711 48.5865 27.8112 48.5403L26.0688 48.0325C22.8427 47.0924 20.9896 43.7149 21.9298 40.489L22.2504 39.389L21.0008 39.0249L20.316 41.3744C19.3758 44.6003 21.2289 47.9777 24.455 48.9179Z" fill="#DFEAEF"/>
<path d="M20.918 39.0146L21.0247 42.5036C21.1141 45.4263 19.1118 47.9992 16.2567 48.6304L14.8944 48.9316C14.627 48.9907 14.3499 48.9901 14.0828 48.9299C13.8157 48.8696 13.5652 48.7512 13.3491 48.5831C13.133 48.4149 12.9567 48.2012 12.8327 47.957C12.7087 47.7129 12.6401 47.4445 12.6317 47.1708L12.5763 45.3568C12.4735 41.9982 15.1131 39.1922 18.4719 39.0894L20.918 39.0146Z" fill="#F1F1F4"/>
<path d="M12.5763 45.3569L12.6317 47.1709C12.6443 47.5808 12.7918 47.9751 13.0514 48.2926C13.3084 48.6063 13.6608 48.8275 14.0552 48.9224C14.0058 48.7634 13.978 48.5985 13.9725 48.432L13.9171 46.6181C13.8143 43.2594 16.4539 40.4534 19.8127 40.3507L20.9578 40.3156L20.918 39.0146L18.4719 39.0894C15.113 39.1922 12.4735 41.9983 12.5763 45.3569Z" fill="#DFEAEF"/>
<path d="M20.9084 39.0707L17.623 40.2504C14.871 41.2385 11.8052 40.1294 10.3225 37.6091L9.61507 36.4066C9.47625 36.1706 9.39119 35.9069 9.36595 35.6343C9.34072 35.3616 9.37594 35.0868 9.46909 34.8294C9.56224 34.5719 9.71104 34.3382 9.90488 34.1448C10.0987 33.9515 10.3328 33.8032 10.5905 33.7107L12.2986 33.0974C15.4613 31.9619 18.9456 33.605 20.0813 36.7675L20.9084 39.0707Z" fill="#F1F1F4"/>
<path d="M12.2977 33.0974L10.5896 33.7107C10.2037 33.8494 9.87427 34.1115 9.65257 34.4565C9.43358 34.7978 9.33212 35.2014 9.36367 35.6057C9.49962 35.5096 9.64788 35.4322 9.80445 35.3756L11.5126 34.7623C14.6752 33.6267 18.1596 35.2698 19.2952 38.4324L19.6824 39.5106L20.9074 39.0708L20.0803 36.7675C18.9448 33.605 15.4604 31.9618 12.2977 33.0974Z" fill="#DFEAEF"/>
<path d="M20.9125 39.0136L18.7754 36.2536C16.9852 33.9417 17.0926 30.6833 19.0315 28.4945L19.9566 27.45C20.1381 27.2451 20.3626 27.0827 20.6141 26.9744C20.8656 26.8662 21.1379 26.8147 21.4115 26.8238C21.6852 26.8328 21.9534 26.9021 22.1972 27.0267C22.441 27.1513 22.6543 27.3282 22.822 27.5447L23.9331 28.9796C25.9904 31.6365 25.5044 35.458 22.8474 37.5153L20.9125 39.0136Z" fill="#F1F1F4"/>
<path d="M23.9273 28.9797L22.8161 27.5448C22.565 27.2206 22.2139 26.9883 21.8173 26.884C21.425 26.7812 21.0098 26.8094 20.6351 26.9644C20.7685 27.064 20.8879 27.1811 20.9902 27.3126L22.1013 28.7475C24.1586 31.4043 23.6726 35.2259 21.0157 37.2831L20.1097 37.9846L20.9067 39.0137L22.8416 37.5154C25.4985 35.4581 25.9846 31.6365 23.9273 28.9797Z" fill="#DFEAEF"/>
<path d="M20.9175 41.0876C22.0626 41.0876 22.9909 40.1593 22.9909 39.0143C22.9909 37.8692 22.0626 36.9409 20.9175 36.9409C19.7724 36.9409 18.8441 37.8692 18.8441 39.0143C18.8441 40.1593 19.7724 41.0876 20.9175 41.0876Z" fill="#F6E781"/>
</svg>
