<svg width="56" height="55" viewBox="0 0 56 55" fill="none" xmlns="http://www.w3.org/2000/svg">
<path d="M12.5125 16.3242H7.23901V48.9316H28.4207L30.1785 32.6279L28.4207 16.3242H12.5125Z" fill="#007F5F"/>
<path d="M49.6102 16.3242H28.4286V48.9316H49.6102V16.3242Z" fill="#007F5F"/>
<path d="M8.56531 47.6133V17.6426H13.3993L12.5204 15.0059H5.92859V50.25H28.4286L29.3075 48.9316L28.4286 47.6133H8.56531Z" fill="#006B4B"/>
<path d="M50.9286 15.0059H44.3368L43.4579 17.6426H48.2919V47.6133H28.4286V50.25H50.9286V15.0059Z" fill="#006B4B"/>
<path d="M28.427 13.6482C26.082 12.3032 23.367 11.5342 20.4729 11.5342C17.5788 11.5342 14.8638 12.3032 12.5188 13.6483V38.3848L28.427 43.6582L30.1848 27.3545L28.427 13.6482Z" fill="#FFF5F5"/>
<path d="M36.3811 11.5342C33.487 11.5342 30.772 12.3032 28.427 13.6483V43.6582L44.3352 38.3848V13.6482C41.9902 12.3032 39.2752 11.5342 36.3811 11.5342ZM23.1536 38.3848H12.5188V41.085L28.427 43.6582C28.427 40.7458 26.066 38.3848 23.1536 38.3848Z" fill="#EBE5F1"/>
<path d="M25.7903 41.085H12.5188V43.7852H28.427L28.5149 43.7678L28.427 43.7218C28.427 42.2654 27.2465 41.085 25.7903 41.085Z" fill="#FFF5F5"/>
<path d="M44.3368 38.3848H33.702C30.7896 38.3848 28.4286 40.7458 28.4286 43.6582L44.3368 41.085V38.3848Z" fill="#CECEE5"/>
<path d="M31.0653 41.085H44.3368V43.7852H28.4286V43.7217C28.4286 42.2654 29.6091 41.085 31.0653 41.085Z" fill="#EBE5F1"/>
<path d="M32.3853 20.7627H40.3833V23.3994H32.3853V20.7627ZM32.3853 26.0361H40.3833V28.6729H32.3853V26.0361ZM32.3853 31.3096H40.3833V33.9463H32.3853V31.3096Z" fill="#CECEE5"/>
<path d="M16.4755 20.7627H24.4735V23.3994H16.4755V20.7627ZM16.4755 26.0361H24.4735V28.6729H16.4755V26.0361ZM16.4755 31.3096H24.4735V33.9463H16.4755V31.3096ZM16.4755 15.4893H24.4735V18.126H16.4755V15.4893Z" fill="#EBE5F1"/>
<path d="M32.3853 15.4893H40.3833V18.126H32.3853V15.4893Z" fill="#CECEE5"/>
<path d="M24.6045 5.25C24.5587 5.25 24.513 5.25044 24.4673 5.25141C19.6047 5.34993 17.4524 11.4357 21.1226 14.6271L28.4312 20.9824L30.189 13.1162L28.4312 6.46482C27.3498 5.69991 26.0298 5.25 24.6045 5.25Z" fill="#FE93B1"/>
<path d="M32.3925 5.25141C32.3468 5.25045 32.3011 5.24998 32.2553 5.25C30.83 5.25 29.51 5.69991 28.4286 6.46482V20.9824L35.7372 14.6271C39.4074 11.4357 37.2551 5.34993 32.3925 5.25141Z" fill="#FE6391"/>
</svg>
