<svg width="56" height="55" viewBox="0 0 56 55" fill="none" xmlns="http://www.w3.org/2000/svg">
<path d="M23.056 10.7383H31.592V19.2276H23.056V10.7383Z" fill="#CCE5DF"/>
<path d="M38.1218 12.4598H16.5178C15.6279 12.4598 14.9064 11.7383 14.9064 10.8483V6.61147C14.9064 5.72151 15.6279 5 16.5178 5H38.1218C39.0117 5 39.7332 5.72151 39.7332 6.61147V10.8484C39.7331 11.7384 39.0117 12.4598 38.1218 12.4598Z" fill="#E6F3EF"/>
<path d="M20.9071 9.98067C20.0172 9.98067 19.2957 9.25916 19.2957 8.3692V5H16.5177C15.6278 5 14.9064 5.72151 14.9064 6.61147V10.8484C14.9064 11.7384 15.6278 12.4599 16.5177 12.4599H38.1217C39.0116 12.4599 39.733 11.7385 39.733 10.8484V9.98076L20.9071 9.98067Z" fill="#C2DBD5"/>
<path d="M39.736 16.9619H15C13.4355 16.9619 12.151 18.1992 12.0925 19.7627L11.0736 46.9816C11.0118 48.63 12.3315 50 13.981 50H40.755C42.4046 50 43.7242 48.63 43.6625 46.9816L42.6435 19.7627C42.5849 18.1992 41.3005 16.9619 39.736 16.9619Z" fill="#E6F3EF"/>
<path d="M23.4992 47.3192C20.2292 47.3192 17.6133 44.6034 17.7356 41.3355L18.6436 17.0819C18.6451 17.0417 18.6479 17.0018 18.651 16.9619H15C13.4355 16.9619 12.151 18.1991 12.0925 19.7627L11.0736 46.9816C11.0118 48.63 12.3315 50 13.981 50H40.755C42.2904 50 43.5394 48.8129 43.6552 47.3192H23.4992Z" fill="#CCE5DF"/>
<path d="M39.733 21.3802V37.9009C39.733 42.3648 36.1148 45.9832 31.6502 45.9832H22.9892C18.5247 45.9832 14.9064 42.3648 14.9064 37.9009V21.3802C14.9064 20.9942 15.22 20.6807 15.606 20.6807H39.0334C39.4195 20.6807 39.733 20.9942 39.733 21.3802Z" fill="#73B9A7"/>
<path d="M18.6991 44.7516C18.0485 43.7783 17.6853 42.5987 17.7326 41.3354L18.5058 20.6807H15.606C15.22 20.6807 14.9064 20.9942 14.9064 21.3802V37.9009C14.9064 40.7887 16.4211 43.3223 18.6991 44.7516Z" fill="#1F8B6F"/>
<path d="M29.7074 16.9619H25.0247V22.1463C25.0247 22.9355 25.6645 23.5753 26.4537 23.5753H28.2785C29.0677 23.5753 29.7075 22.9356 29.7075 22.1463V16.9619H29.7074Z" fill="#E6F3EF"/>
<path d="M25.0212 20.6807V22.1462C25.0212 22.9354 25.661 23.5753 26.4502 23.5753H28.275C29.0642 23.5753 29.704 22.9355 29.704 22.1462V20.6807H25.0212Z" fill="#E6F3EF"/>
<path d="M28.7243 21.9438H25.9097V40.8298C25.9097 41.026 25.9876 41.2141 26.1263 41.3528C26.265 41.4915 26.4531 41.5694 26.6492 41.5694H27.9848C28.1809 41.5694 28.369 41.4915 28.5077 41.3528C28.6464 41.2141 28.7243 41.026 28.7243 40.8298V21.9438Z" fill="#CCE5DF"/>
</svg>
