<svg width="56" height="56" viewBox="0 0 56 56" fill="none" xmlns="http://www.w3.org/2000/svg">
<path d="M30.1233 29.6651L6.01629 20.9093C2.44368 19.6116 -1.01915 23.0745 0.278388 26.6472L9.03418 50.7543C9.74735 52.718 12.4262 52.9612 13.4814 51.1581L16.2164 46.4849L23.0942 53.3628C25.7556 56.0242 30.0704 56.0242 32.7317 53.3628C35.3931 50.7014 35.3931 46.3866 32.7317 43.7252L25.8539 36.8474L30.527 34.1124C32.3302 33.0572 32.087 30.3784 30.1233 29.6651Z" fill="#EBEBEB"/>
<path d="M5.08491 26.6473L13.794 50.624L13.4813 51.1587C12.4264 52.9615 9.74774 52.7179 9.03382 50.7542L0.278347 26.6473C-1.01909 23.0746 2.44374 19.6118 6.01636 20.9092L7.00216 21.2672C5.28665 22.3018 4.28838 24.4537 5.08491 26.6473ZM30.317 54.923C27.8898 55.8351 25.0469 55.3162 23.0945 53.3638L16.2162 46.485C17.1136 44.9516 19.2185 44.6808 20.4748 45.9372L27.9011 53.3638C28.6094 54.072 29.4355 54.5921 30.317 54.923Z" fill="#C3C3C3"/>
<path d="M41.7042 32.6764C39.6875 32.6764 38.0526 31.0414 38.0526 29.0247V27.4757C38.0526 23.8712 40.3223 20.647 43.7007 19.4525C46.2418 18.554 47.8792 16.041 47.6823 13.3414C47.4669 10.3854 45.0735 8.01019 42.1152 7.8164C38.9862 7.60972 36.1984 9.86944 35.7676 12.957C35.7289 13.2355 35.7095 13.5164 35.7096 13.7976C35.7096 15.8144 34.0747 17.4493 32.0579 17.4493C30.0412 17.4493 28.4062 15.8144 28.4062 13.7976C28.4062 13.1794 28.4494 12.557 28.5344 11.9476C29.491 5.09089 35.666 0.0740807 42.5923 0.528582C49.1677 0.959236 54.4874 6.23923 54.9665 12.8104C55.4017 18.7829 51.7703 24.3457 46.1352 26.3383C45.6691 26.5031 45.3559 26.9601 45.3559 27.4756V29.0247C45.3559 31.0414 43.721 32.6764 41.7042 32.6764ZM41.7042 43.5421C39.6875 43.5421 38.0526 41.9071 38.0526 39.8904V39.8601C38.0526 37.8434 39.6875 36.2084 41.7042 36.2084C43.721 36.2084 45.3559 37.8434 45.3559 39.8601V39.8904C45.3559 41.9071 43.721 43.5421 41.7042 43.5421Z" fill="#1E9D7D"/>
<path d="M31.7547 11.9487C31.6692 12.5615 31.6265 13.1795 31.627 13.7983C31.627 15.2356 32.4569 16.4795 33.6643 17.0742C33.1624 17.3222 32.61 17.4508 32.0501 17.4499C30.0346 17.4499 28.3984 15.8156 28.3984 13.7983C28.3984 13.1799 28.4423 12.558 28.528 11.9487C29.4838 5.09043 35.6599 0.0743677 42.5856 0.528547C42.8336 0.544983 43.0799 0.568723 43.3243 0.59966C37.4602 1.32207 32.5956 5.92585 31.7547 11.9487ZM46.9212 19.4526C43.5431 20.6474 41.2723 23.8722 41.2723 27.4764V29.025C41.2723 30.4623 42.1041 31.7062 43.3115 32.3009C42.8096 32.549 42.2571 32.6776 41.6973 32.6767C39.6799 32.6767 38.0457 31.0424 38.0457 29.025V27.4764C38.0457 23.8722 40.3148 20.6474 43.6946 19.4526C46.2354 18.5534 47.8715 16.0418 47.6745 13.3422C47.4903 10.8032 45.6992 8.69282 43.3225 8.02712C43.9769 7.84302 44.6579 7.77207 45.3362 7.81733C48.2947 8.01069 50.6878 10.3856 50.903 13.3422C51.1 16.0418 49.462 18.5534 46.9212 19.4526ZM43.3115 43.1664C42.8096 43.4144 42.2571 43.5431 41.6973 43.5422C39.6799 43.5422 38.0457 41.9078 38.0457 39.8905V39.8594C38.0457 37.8439 39.68 36.2077 41.6973 36.2077C42.2774 36.2077 42.8246 36.3428 43.3115 36.5835C42.104 37.1799 41.2723 38.4239 41.2723 39.8594V39.8905C41.2723 41.3279 42.1041 42.5718 43.3115 43.1664Z" fill="#007F5F"/>
</svg>
