<svg width="56" height="70" viewBox="0 0 56 70" fill="none" xmlns="http://www.w3.org/2000/svg">
<g clip-path="url(#clip0_1563_32956)">
<path d="M55.0992 83.9141C55.0992 87.6356 52.1451 90.6523 48.501 90.6523H7.50442C3.86029 90.6523 0.90625 87.6356 0.90625 83.9141V8.08594C0.90625 4.36443 3.86029 1.34766 7.50442 1.34766H48.501C52.1451 1.34766 55.0992 4.36443 55.0992 8.08594V83.9141Z" fill="#F8F7F7"/>
<path d="M54.3831 86.9695C53.2922 89.1563 51.0682 90.6531 48.501 90.6531H7.50442C3.86047 90.6531 0.90625 87.6362 0.90625 83.9148V8.08672C0.90625 5.46148 2.37544 3.18844 4.52029 2.07617V82.4773C4.52029 84.9588 6.48918 86.9695 8.91906 86.9695H54.3831Z" fill="#E8E8E8"/>
<path d="M34.6868 8.08594C35.4156 8.08594 36.0065 7.48257 36.0065 6.73828C36.0065 5.99399 35.4156 5.39062 34.6868 5.39062C33.958 5.39062 33.3672 5.99399 33.3672 6.73828C33.3672 7.48257 33.958 8.08594 34.6868 8.08594Z" fill="#E8E8E8"/>
<path d="M48.5003 92H7.50374C3.13786 92 -0.414062 88.3726 -0.414062 83.9141V8.08594C-0.414062 3.62735 3.13786 0 7.50374 0H48.5003C52.8662 0 56.4181 3.62735 56.4181 8.08594V83.9141C56.4181 88.3726 52.8662 92 48.5003 92ZM7.50374 2.69531C4.59315 2.69531 2.2252 5.11355 2.2252 8.08594V83.9141C2.2252 86.8865 4.59315 89.3047 7.50374 89.3047H48.5003C51.4109 89.3047 53.7789 86.8865 53.7789 83.9141V8.08594C53.7789 5.11355 51.4109 2.69531 48.5003 2.69531H7.50374Z" fill="#007F5F"/>
<path d="M30.2891 8.08594H21.4915C21.1415 8.08594 20.8059 7.94395 20.5584 7.69122C20.3109 7.43848 20.1719 7.0957 20.1719 6.73828C20.1719 6.38086 20.3109 6.03808 20.5584 5.78534C20.8059 5.53261 21.1415 5.39063 21.4915 5.39062H30.2891C30.6391 5.39062 30.9747 5.53261 31.2222 5.78534C31.4697 6.03808 31.6087 6.38086 31.6087 6.73828C31.6087 7.0957 31.4697 7.43848 31.2222 7.69122C30.9747 7.94395 30.6391 8.08594 30.2891 8.08594Z" fill="#E8E8E8"/>
<path d="M15.0696 32.6133C14.7196 32.6133 14.384 32.4713 14.1365 32.2186C13.889 31.9658 13.75 31.623 13.75 31.2656V24.0781C13.75 23.7207 13.889 23.3779 14.1365 23.1252C14.384 22.8725 14.7196 22.7305 15.0696 22.7305C15.4196 22.7305 15.7553 22.8725 16.0028 23.1252C16.2502 23.3779 16.3893 23.7207 16.3893 24.0781V31.2656C16.3893 31.623 16.2502 31.9658 16.0028 32.2186C15.7553 32.4713 15.4196 32.6133 15.0696 32.6133Z" fill="#F8F7F7"/>
<path d="M10 51.9847V15.6534C10 15.36 10.1166 15.0785 10.3241 14.871C10.5316 14.6635 10.8131 14.5469 11.1066 14.5469H46.4142C46.7077 14.5469 46.9891 14.6635 47.1967 14.871C47.4042 15.0785 47.5208 15.36 47.5208 15.6534V51.9847C47.5208 52.2782 47.4042 52.5597 47.1967 52.7672C46.9891 52.9747 46.7077 53.0913 46.4142 53.0913H11.1066C10.8131 53.0913 10.5316 52.9747 10.3241 52.7672C10.1166 52.5597 10 52.2782 10 51.9847Z" fill="#3CBB9B"/>
<path d="M39.9955 24.0164C36.9133 20.9342 31.994 20.8098 28.7628 23.6423C25.5316 20.8098 20.6123 20.9342 17.5301 24.0164C14.4523 27.0942 14.3239 32.0038 17.1436 35.2351L25.9014 44.0138C27.4806 45.5969 30.0449 45.5969 31.6241 44.0138L40.3818 35.2351C43.2017 32.0038 43.0733 27.0942 39.9955 24.0164Z" fill="#F9F7F8"/>
<path d="M46.8946 59H45.4304C44.8198 59 44.325 58.3286 44.325 57.5C44.325 56.6714 44.8198 56 45.4304 56H46.8946C47.5052 56 48 56.6714 48 57.5C48 58.3286 47.5051 59 46.8946 59ZM40.2408 59H11.1054C10.4948 59 10 58.3286 10 57.5C10 56.6714 10.4948 56 11.1054 56H40.2409C40.8516 56 41.3464 56.6714 41.3464 57.5C41.3464 58.3286 40.8514 59 40.2408 59Z" fill="#E5E1E5"/>
<path d="M46.8946 65H45.4304C44.8198 65 44.325 64.3286 44.325 63.5C44.325 62.6714 44.8198 62 45.4304 62H46.8946C47.5052 62 48 62.6714 48 63.5C48 64.3286 47.5051 65 46.8946 65ZM40.2408 65H11.1054C10.4948 65 10 64.3286 10 63.5C10 62.6714 10.4948 62 11.1054 62H40.2409C40.8516 62 41.3464 62.6714 41.3464 63.5C41.3464 64.3286 40.8514 65 40.2408 65Z" fill="#E5E1E5"/>
</g>
<defs>
<clipPath id="clip0_1563_32956">
<rect width="56" height="92" fill="white"/>
</clipPath>
</defs>
</svg>
