<svg width="24" height="25" viewBox="0 0 24 25" fill="none" xmlns="http://www.w3.org/2000/svg">
<path d="M17.2489 9.86344C17.343 9.70402 17.3971 9.5184 17.3971 9.32031V7.34375C17.3971 6.75121 16.915 6.26953 16.3229 6.26953H15.4816V2.78906C15.4816 2.07836 14.9032 1.5 14.1925 1.5H11.8077C11.097 1.5 10.5186 2.07836 10.5186 2.78906V3.69141H8.44452C8.29112 3.21789 7.97014 2.78434 7.51466 2.44961C5.47376 0.948238 2 2.03225 2 4.33594C2 5.05223 2.37641 5.73973 3.03255 6.22227C4.82535 7.5402 7.82456 6.89421 8.44452 4.98047H10.5186V6.26953H9.6773C9.08476 6.26953 8.60307 6.75121 8.60307 7.34375V9.32031C8.60307 9.51238 8.65335 9.69242 8.74229 9.84797C4.0364 12.6322 3.23059 19.0511 7.00032 22.9169C7.36169 23.2873 7.86615 23.5 8.38479 23.5H17.6159C18.1332 23.5 18.6351 23.2903 18.9926 22.9246C22.7667 19.0632 21.9759 12.6918 17.2489 9.86344ZM5.27382 5.625C4.19787 5.625 3.28908 5.03461 3.28908 4.33594C3.28908 3.63727 4.19787 3.04688 5.27382 3.04688C6.72575 3.04688 7.78713 4.09922 6.98314 4.98047C6.63423 5.36246 5.99098 5.625 5.27382 5.625ZM11.8077 2.78906H14.1925V6.26953H11.8077V2.78906ZM9.89215 9.10547V7.55859H16.1081V9.10547H9.89215ZM18.0709 22.0232C17.954 22.1426 17.7882 22.2109 17.6159 22.2109H8.38479C8.21162 22.2109 8.04361 22.14 7.9233 22.0171C4.32145 18.3236 5.7623 12.1471 10.6153 10.3945H15.3754C20.2299 12.1514 21.6869 18.3242 18.0709 22.0232Z" fill="black"/>
<path d="M16.9903 13.7014H8.99328C8.5103 13.7014 8.07159 13.9682 7.84858 14.3975C6.89114 16.2378 6.97119 18.5642 8.23057 20.3723C8.46991 20.7165 8.8648 20.9219 9.28633 20.9219H16.714C17.1355 20.9219 17.5304 20.7165 17.7702 20.3727C18.9816 18.6327 19.1565 16.3094 18.129 14.385C18.019 14.1785 17.855 14.0058 17.6544 13.8853C17.4538 13.7649 17.2242 13.7013 16.9903 13.7014ZM16.7144 19.6328H16.714L9.2859 19.6324C8.31385 18.2336 8.24742 16.4231 8.99328 14.9905L16.992 14.9926C17.8033 16.5112 17.6333 18.3112 16.7144 19.6328ZM20.4561 3.74776L21.3155 3.10323C21.6003 2.88964 21.658 2.48564 21.4444 2.20089C21.2308 1.91614 20.8268 1.85843 20.5421 2.07198L19.6827 2.71651C19.3979 2.93011 19.3402 3.3341 19.5538 3.61886C19.7674 3.90357 20.1713 3.96136 20.4561 3.74776ZM21.3155 5.95533L20.4561 5.3108C20.1714 5.0972 19.7673 5.15495 19.5538 5.4397C19.3402 5.72446 19.3979 6.12845 19.6827 6.34205L20.5421 6.98658C20.8269 7.20022 21.2309 7.14238 21.4444 6.85767C21.658 6.57292 21.6003 6.16892 21.3155 5.95533Z" fill="black"/>
</svg>
