<svg width="24" height="25" viewBox="0 0 24 25" fill="none" xmlns="http://www.w3.org/2000/svg">
<path d="M9.34232 11.3842C9.93378 10.9179 10.6052 10.563 11.3237 10.337V2.50004H15.0582V10.337C17.5834 11.1302 19.4151 13.4891 19.4151 16.276C19.4151 19.7134 16.6284 22.5 13.1909 22.5C11.6465 22.5 10.2335 21.9375 9.14551 21.0063" stroke="black" stroke-width="1.2" stroke-miterlimit="22.926" stroke-linecap="round" stroke-linejoin="round"/>
<path d="M10.2852 2.50003H16.0978" stroke="black" stroke-width="1.2" stroke-miterlimit="22.926" stroke-linecap="round" stroke-linejoin="round"/>
<path d="M9.42578 15.5686C9.7289 15.6909 10.0253 15.861 10.3457 15.861C10.8461 15.861 11.2881 15.4461 11.7884 15.4461C12.2889 15.4461 12.7308 15.861 13.2313 15.861C13.7317 15.861 14.1736 15.4461 14.674 15.4461C15.1744 15.4461 15.6164 15.861 16.1168 15.861C16.6172 15.861 17.0592 15.4461 17.5596 15.4461C18.06 15.4461 18.5214 15.7227 19.0024 15.861" stroke="black" stroke-width="1.2" stroke-miterlimit="22.926" stroke-linecap="round" stroke-linejoin="round"/>
<path d="M12.9837 17.9996C12.9872 17.9996 12.9894 17.999 12.9913 17.9982C12.9937 17.9972 12.9965 17.9954 12.9993 17.9927C13.002 17.9899 13.0038 17.9871 13.0048 17.9848C13.0056 17.9829 13.0062 17.9807 13.0062 17.9772C13.0062 17.9737 13.0056 17.9715 13.0048 17.9696C13.0038 17.9673 13.002 17.9645 12.9993 17.9617C12.9965 17.959 12.9937 17.9572 12.9913 17.9562C12.9894 17.9554 12.9872 17.9548 12.9837 17.9548C12.9803 17.9548 12.9781 17.9554 12.9762 17.9562C12.9738 17.9572 12.971 17.959 12.9682 17.9617C12.9655 17.9645 12.9637 17.9673 12.9627 17.9696C12.9619 17.9715 12.9613 17.9737 12.9613 17.9772C12.9613 17.9807 12.9619 17.9829 12.9627 17.9848C12.9637 17.9871 12.9655 17.9899 12.9682 17.9927C12.971 17.9954 12.9738 17.9972 12.9762 17.9982C12.9781 17.999 12.9803 17.9996 12.9837 17.9996Z" fill="black" stroke="black" stroke-width="1.2"/>
<path d="M14.8109 13.0619C14.8144 13.0619 14.8166 13.0613 14.8185 13.0605C14.8208 13.0595 14.8237 13.0577 14.8264 13.055C14.8292 13.0522 14.8309 13.0494 14.8319 13.0471C14.8327 13.0451 14.8333 13.043 14.8333 13.0395C14.8333 13.036 14.8327 13.0338 14.8319 13.0319C14.8309 13.0296 14.8292 13.0267 14.8264 13.024C14.8237 13.0212 14.8208 13.0195 14.8185 13.0185C14.8166 13.0177 14.8144 13.0171 14.8109 13.0171C14.8074 13.0171 14.8052 13.0177 14.8033 13.0185C14.801 13.0195 14.7981 13.0212 14.7954 13.024C14.7926 13.0267 14.7909 13.0296 14.7899 13.0319C14.7891 13.0338 14.7885 13.036 14.7885 13.0395C14.7885 13.043 14.7891 13.0451 14.7899 13.0471C14.7909 13.0494 14.7926 13.0522 14.7954 13.055C14.7981 13.0577 14.801 13.0595 14.8033 13.0605C14.8052 13.0613 14.8074 13.0619 14.8109 13.0619Z" fill="black" stroke="black" stroke-width="1.2"/>
<path d="M15.266 19.2444C15.2694 19.2444 15.2716 19.2438 15.2735 19.243C15.2759 19.242 15.2787 19.2403 15.2815 19.2375C15.2842 19.2347 15.286 19.2319 15.287 19.2296C15.2878 19.2277 15.2884 19.2255 15.2884 19.222C15.2884 19.2185 15.2878 19.2163 15.287 19.2144C15.286 19.2121 15.2842 19.2093 15.2815 19.2065C15.2787 19.2038 15.2759 19.202 15.2736 19.201C15.2717 19.2002 15.2695 19.1996 15.266 19.1996C15.2625 19.1996 15.2603 19.2002 15.2584 19.201C15.2561 19.202 15.2532 19.2038 15.2505 19.2065C15.2477 19.2093 15.2459 19.2121 15.245 19.2144C15.2441 19.2163 15.2436 19.2185 15.2436 19.222C15.2436 19.2255 15.2441 19.2277 15.245 19.2296C15.2459 19.2319 15.2477 19.2347 15.2505 19.2375C15.2532 19.2403 15.2561 19.242 15.2584 19.243C15.2603 19.2438 15.2625 19.2444 15.266 19.2444Z" fill="black" stroke="black" stroke-width="1.2"/>
<path d="M9.06244 7.47927V20.1759C9.06244 21.4539 8.01677 22.4996 6.73874 22.4996C5.4607 22.4996 4.41504 21.454 4.41504 20.1759V7.47927H9.06244Z" stroke="black" stroke-width="1.2" stroke-miterlimit="22.926" stroke-linecap="round" stroke-linejoin="round"/>
<path d="M4 7.47929H9.47729" stroke="black" stroke-width="1.2" stroke-miterlimit="22.926" stroke-linecap="round" stroke-linejoin="round"/>
<path d="M4.83008 19.3465H5.61848" stroke="black" stroke-width="1.2" stroke-miterlimit="22.926" stroke-linecap="round" stroke-linejoin="round"/>
<path d="M4.83008 16.8569H5.61848" stroke="black" stroke-width="1.2" stroke-miterlimit="22.926" stroke-linecap="round" stroke-linejoin="round"/>
<path d="M4.83008 14.3672H5.61848" stroke="black" stroke-width="1.2" stroke-miterlimit="22.926" stroke-linecap="round" stroke-linejoin="round"/>
<path d="M4.83008 12.0021H8.85506" stroke="black" stroke-width="1.2" stroke-miterlimit="22.926" stroke-linecap="round" stroke-linejoin="round"/>
</svg>
