<svg width="121" height="120" viewBox="0 0 121 120" fill="none" xmlns="http://www.w3.org/2000/svg">
<g id="icon">
<g id="Group">
<path id="Vector" d="M78.7151 0H71.4765L57.1016 18.1085L71.5788 37.0267H77.0078C77.4877 37.0267 77.948 36.8359 78.2874 36.4963C78.6268 36.1567 78.8174 35.6961 78.8174 35.2158V11.6747C78.8174 9.60646 79.7546 7.68623 81.2727 6.2827C81.6619 5.9239 81.9675 5.48393 82.1679 4.99389C82.3683 4.50386 82.4587 3.97575 82.4326 3.4469C82.3409 1.49866 80.664 0 78.7151 0Z" fill="#CCE5DF"/>
<path id="Vector_2" d="M73.9901 6.28246C74.3792 5.92366 74.6848 5.48368 74.8853 4.99365C75.0857 4.50362 75.1761 3.9755 75.15 3.44666C75.0583 1.49866 73.3814 0 71.4325 0H42.6826C40.7337 0 39.0568 1.49866 38.9654 3.44666C38.9392 3.97551 39.0295 4.50365 39.23 4.9937C39.4304 5.48374 39.736 5.92371 40.1252 6.28246C41.6434 7.68599 42.5806 9.60622 42.5806 11.6745V35.2156C42.5806 35.6958 42.7712 36.1564 43.1106 36.496C43.45 36.8356 43.9103 37.0264 44.3902 37.0264H49.8192L71.535 11.6745C71.5348 9.60646 72.4719 7.68599 73.9901 6.28246Z" fill="#E6F3EF"/>
<path id="Vector_3" d="M64.3402 11.6738L57.1016 44.2692L71.5788 37.0258V11.6738H64.3402Z" fill="#73B9A7"/>
<path id="Vector_4" d="M49.8359 11.6738V37.0258L64.3132 44.2692V11.6738H49.8359Z" fill="#73B9A7"/>
<path id="Vector_5" d="M64.3402 37.0254L57.1016 58.7556H71.5788V37.0254H64.3402Z" fill="#99F7FA"/>
<path id="Vector_6" d="M49.8359 37.0254H64.3132V58.7556H49.8359V37.0254Z" fill="#D9FDFF"/>
<path id="Vector_7" d="M89.6761 44.2695H82.4375V119.999H89.6761C93.674 119.999 96.9147 116.756 96.9147 112.755V51.5129C96.9147 47.5124 93.674 44.2695 89.6761 44.2695Z" fill="#CCE5DF"/>
<path id="Vector_8" d="M89.6475 112.757V98.6833V74.6943V51.5149C89.6475 47.5144 86.4068 44.2715 82.4089 44.2715H31.7386C27.7407 44.2715 24.5 47.5144 24.5 51.5149V112.757C24.5 116.758 27.7407 120.001 31.7386 120.001H82.4089C86.4068 120.001 89.6475 116.758 89.6475 112.757Z" fill="#E6F3EF"/>
<path id="Vector_9" d="M60.7209 26.1633C62.7198 26.1633 64.3402 24.5418 64.3402 22.5416C64.3402 20.5414 62.7198 18.9199 60.7209 18.9199C58.722 18.9199 57.1016 20.5414 57.1016 22.5416C57.1016 24.5418 58.722 26.1633 60.7209 26.1633Z" fill="white"/>
<path id="Vector_10" d="M85 107.878V95.9843V75.7108V56.1215C85 52.7406 82.2641 50 78.8889 50H36.1111C32.7359 50 30 52.7406 30 56.1215V107.878C30 111.259 32.7359 114 36.1111 114H78.8889C82.2641 114 85 111.259 85 107.878Z" fill="#CCE5DF"/>
<path id="Intersect" fill-rule="evenodd" clip-rule="evenodd" d="M83.4075 112H31.5925C32.7102 113.229 34.3207 114 36.1111 114H78.8889C80.6793 114 82.2898 113.229 83.4075 112Z" fill="#007F5F"/>
</g>
</g>
</svg>
