<svg width="24" height="25" viewBox="0 0 24 25" fill="none" xmlns="http://www.w3.org/2000/svg">
<path d="M4.46582 14.5118V21.7074C4.46582 22.1427 4.82312 22.5001 5.25837 22.5001H19.5531C19.9896 22.5001 20.3457 22.1439 20.3457 21.7074V14.5118" stroke="black" stroke-width="1.3" stroke-miterlimit="10" stroke-linecap="round" stroke-linejoin="round"/>
<path d="M12.4045 9.81738L15.938 6.40718C16.8373 5.53906 16.8637 4.09178 15.9955 3.19244C15.1263 2.29193 13.6802 2.26676 12.781 3.13492L12.4045 3.49704L12.0292 3.13492C11.1287 2.26676 9.68271 2.29193 8.81461 3.19244C7.94651 4.09178 7.97172 5.53906 8.871 6.40718L12.4045 9.81738Z" stroke="black" stroke-width="1.3" stroke-miterlimit="10" stroke-linecap="round" stroke-linejoin="round"/>
<path d="M15.7053 6.63137C15.7053 6.63137 16.743 7.6684 17.4079 8.33288L20.0937 11.02L22.4762 13.4014C22.921 13.8475 22.9222 14.5765 22.4762 15.0226C22.0301 15.4686 21.3011 15.4686 20.8551 15.0226L14.0566 8.22256" stroke="black" stroke-width="1.3" stroke-miterlimit="10" stroke-linecap="round" stroke-linejoin="round"/>
<path d="M9.10419 6.63133L2.33453 13.4014C1.88849 13.8474 1.88849 14.5764 2.33453 15.0225C2.77934 15.4685 3.50955 15.4685 3.95559 15.0225L10.7541 8.22252" stroke="black" stroke-width="1.3" stroke-miterlimit="10" stroke-linecap="round" stroke-linejoin="round"/>
<path d="M9.81737 13.1076C8.90732 13.1076 8.16992 13.8462 8.16992 14.7564C8.16992 15.6664 8.90732 16.4051 9.81737 16.4051C10.7286 16.4051 11.4661 15.6664 11.4661 14.7564C11.4661 13.8462 10.7286 13.1076 9.81737 13.1076Z" stroke="black" stroke-width="1.3" stroke-miterlimit="10" stroke-linecap="round" stroke-linejoin="round"/>
<path d="M10.4736 22.5V20.7289C10.4736 19.8272 11.0384 19.4867 11.5072 19.2841M13.3033 19.2841C13.7734 19.4867 14.3381 19.8272 14.3381 20.7289V22.5" stroke="black" stroke-width="1.3" stroke-miterlimit="10" stroke-linecap="round" stroke-linejoin="round"/>
<path d="M12.405 17.2121C11.7251 17.2121 11.1748 17.7624 11.1748 18.4423C11.1748 19.1222 11.7251 19.6738 12.405 19.6738C13.0848 19.6738 13.6364 19.1222 13.6364 18.4423C13.6364 17.7624 13.0848 17.2121 12.405 17.2121Z" stroke="black" stroke-width="1.3" stroke-miterlimit="10" stroke-linecap="round" stroke-linejoin="round"/>
<path d="M7.23047 22.5V17.8176C7.23047 16.6113 7.98707 16.1533 8.61533 15.8835M11.0194 15.8835C11.5302 16.1029 12.1249 16.4459 12.3311 17.2144" stroke="black" stroke-width="1.3" stroke-miterlimit="10" stroke-linecap="round" stroke-linejoin="round"/>
<path d="M14.9924 13.1076C15.9025 13.1076 16.6411 13.8463 16.6411 14.7564C16.6411 15.6665 15.9025 16.4051 14.9924 16.4051C14.0823 16.4051 13.3438 15.6665 13.3438 14.7564C13.3438 13.8463 14.0823 13.1076 14.9924 13.1076Z" stroke="black" stroke-width="1.3" stroke-miterlimit="10" stroke-linecap="round" stroke-linejoin="round"/>
<path d="M17.5801 22.5V17.8176C17.5801 16.6113 16.8235 16.1533 16.1953 15.8835M13.79 15.8835C13.2792 16.1029 12.6845 16.4458 12.4795 17.2144" stroke="black" stroke-width="1.3" stroke-miterlimit="10" stroke-linecap="round" stroke-linejoin="round"/>
<path d="M18.7533 9.67822L18.752 9.67555" stroke="black" stroke-width="1.3" stroke-miterlimit="10" stroke-linecap="round" stroke-linejoin="round"/>
</svg>
