<svg width="24" height="25" viewBox="0 0 24 25" fill="none" xmlns="http://www.w3.org/2000/svg">
<path d="M5.52522 6.33222C5.38739 6.24028 5.35019 6.05401 5.44213 5.91618L5.75956 5.44032C5.8515 5.30248 6.03777 5.26528 6.17561 5.35723L6.65145 5.67465C6.78928 5.7666 6.82648 5.95287 6.73454 6.0907L6.41712 6.56656C6.32518 6.70439 6.1389 6.74159 6.00107 6.64965L5.52522 6.33222ZM4.28579 9.95821C4.33491 9.79991 4.26768 9.62317 4.11591 9.55657L3.59227 9.32676C3.4406 9.26019 3.26249 9.32884 3.20795 9.48523C3.12186 9.73209 3.06133 9.98714 3.02731 10.2464C3.00577 10.4105 3.13398 10.5519 3.29935 10.5606L3.87035 10.5908C4.03591 10.5996 4.17546 10.4719 4.20271 10.3083C4.22245 10.1899 4.2502 10.0729 4.28579 9.95821ZM4.22486 8.28171C4.08703 8.18977 4.04983 8.0035 4.14177 7.86567L4.45919 7.38981C4.55113 7.25197 4.73741 7.21477 4.87524 7.30672L5.35109 7.62415C5.48892 7.71609 5.52612 7.90236 5.43418 8.04019L5.11675 8.51605C5.02481 8.65389 4.83854 8.69109 4.7007 8.59914L4.22486 8.28171ZM10.0721 2.5C9.51978 2.5 9.07207 2.94772 9.07207 3.5V4.86949L5.70706 9.95434C5.20992 10.7055 5.39859 11.6986 6.13654 12.2152C6.56028 12.5223 7.15968 12.7161 7.70639 12.7495L7.65985 13.9343C7.653 14.1086 7.69187 14.2816 7.77259 14.4363L8.25029 15.3514L7.87307 18.2291C7.68612 19.4722 8.85043 20.697 10.1373 20.5251L13.2113 20.198L13.5702 21.7283C13.6762 22.1804 14.0794 22.5 14.5438 22.5H19.7295C20.2818 22.5 20.7295 22.0523 20.7295 21.5V3.5C20.7295 2.94772 20.2818 2.5 19.7295 2.5H10.0721ZM19.5576 21.3281H15.4726C15.0083 21.3281 14.605 21.0085 14.499 20.5564L14.3856 20.0728L16.0759 19.8929C17.5561 19.7354 18.8363 18.8817 19.5576 17.6315V21.3281ZM19.5576 13.9766L18.8586 16.3135C18.4635 17.6342 17.3226 18.5817 15.9519 18.7276L10.0133 19.3598C9.50589 19.4265 8.96152 18.9514 9.03558 18.3767L9.38019 15.7479C9.7319 15.6678 10.1566 15.6529 10.5383 15.7905C11.021 15.9811 11.5883 15.9948 12.1342 15.9126C12.3978 15.8729 12.56 15.6136 12.5083 15.3521L12.4734 15.1758C12.4186 14.8987 12.1464 14.7294 11.8664 14.7657C11.5587 14.8055 11.24 14.8022 10.9338 14.6874C10.4139 14.49 9.7433 14.468 9.17675 14.5939L8.95578 14.1706C8.87505 14.0159 8.83618 13.8429 8.84303 13.6685L8.8743 12.8727C10.7444 13.2792 11.5025 11.4532 10.5283 10.4242L10.4677 10.3636C10.2725 10.1684 9.95586 10.1684 9.7606 10.3636L9.63908 10.4852C9.44383 10.6804 9.44383 10.997 9.63908 11.1923L9.69963 11.2528C9.85444 11.4159 9.79854 11.7542 9.45956 11.756L7.6326 11.5634C7.33629 11.532 7.05277 11.4259 6.80856 11.2552C6.70613 11.1843 6.63568 11.076 6.61243 10.9536C6.58919 10.8312 6.615 10.7046 6.6843 10.6011L10.0778 5.4731C10.1862 5.30942 10.2439 5.11749 10.2439 4.92123V3.67188H19.5576V13.9766ZM4.39717 11.8359C4.32979 11.6845 4.16273 11.5958 4.00467 11.6458L3.45938 11.8181C3.30147 11.868 3.21275 12.0369 3.27478 12.1905C3.37267 12.4329 3.49518 12.6645 3.64037 12.8819C3.73238 13.0196 3.92201 13.0414 4.05214 12.9389L4.50148 12.5852C4.63171 12.4827 4.65249 12.2947 4.56526 12.1538C4.5021 12.0518 4.44594 11.9455 4.39717 11.8359Z" fill="black"/>
</svg>
