<svg width="24" height="25" viewBox="0 0 24 25" fill="none" xmlns="http://www.w3.org/2000/svg">
<path d="M20.4447 11.2975H18.6543V8.89444C18.6543 6.77728 17.0813 5.02069 15.0412 4.72808V2.83576C15.0412 2.50365 14.7715 2.23438 14.439 2.23438H9.62159C9.28899 2.23438 9.01941 2.50365 9.01941 2.83572V4.72796C6.97923 5.02069 5.40634 6.77728 5.40634 8.89444V14.905C5.2941 14.9022 5.43428 14.903 3.60218 14.903C3.26974 14.903 3 15.1721 3 15.5044V17.169C3 20.2544 5.49984 22.7644 8.57215 22.7644C8.57215 22.7644 9.58883 22.7656 13.7975 22.7656C17.7951 22.7656 21.0469 19.5178 21.0469 15.5262V11.8987C21.0469 11.5664 20.7774 11.2975 20.4447 11.2975H20.4447ZM10.2238 3.43706H13.8368V4.68489H10.2238V3.43706ZM6.6107 8.89444C6.6107 7.23622 7.96106 5.88757 9.62159 5.88757H14.439C16.0994 5.88757 17.4499 7.23622 17.4499 8.89444V11.2973H16.8761C13.3386 11.2973 10.3847 13.8407 9.75238 17.1926C8.99404 16.1563 7.88892 15.3907 6.6107 15.0694V8.89444ZM4.2044 17.169V16.1059C5.26009 16.1059 5.80033 16.0548 6.61074 16.3216C8.35942 16.8949 9.62685 18.5506 9.62685 20.4986V20.705L7.34259 18.4098C7.10818 18.1742 6.72696 18.1731 6.49111 18.4071C6.25525 18.6413 6.25401 19.0221 6.48846 19.2576L8.78143 21.5617H8.57219C6.16384 21.5617 4.2044 19.5913 4.2044 17.169ZM19.8426 15.5261C19.8426 18.8548 17.1307 21.5629 13.7975 21.5629H11.6763L17.1608 16.0517C17.3952 15.8161 17.3941 15.4354 17.1581 15.2013C16.9223 14.9672 16.5411 14.9684 16.3066 15.2039L10.8312 20.706V18.5369C10.8312 15.2082 13.543 12.5002 16.8761 12.5002H19.8425L19.8426 15.5261Z" fill="black"/>
</svg>
