<svg width="24" height="25" viewBox="0 0 24 25" fill="none" xmlns="http://www.w3.org/2000/svg">
<path d="M16.7377 3.37444L16.7377 3.37444C17.9573 2.15461 19.9317 2.13974 21.1391 3.34316L21.1038 3.37857L21.1391 3.34317C22.3509 4.55148 22.3551 6.51399 21.1429 7.72693C19.9129 8.95808 13.3594 15.5148 10.5866 18.289L9.55811 19.318C8.36485 20.5119 6.78801 21.3003 5.11768 21.5383L3.65518 21.7468L3.03925 22.363C2.79007 22.6124 2.386 22.6123 2.13687 22.363C1.88771 22.1137 1.88771 21.7095 2.13687 21.4602L2.75285 20.844L2.9612 19.3806C3.199 17.7095 3.98706 16.1318 5.18032 14.938L14.2069 5.90653L13.512 5.21125C13.1093 4.80828 12.4573 4.80836 12.0547 5.21125L12.0193 5.17591L12.0547 5.21125L8.20992 9.05803C8.20991 9.05803 8.20991 9.05803 8.20991 9.05804C7.96074 9.30738 7.55667 9.30734 7.30754 9.05804C7.30754 9.05804 7.30753 9.05803 7.30753 9.05803L16.7377 3.37444ZM16.7377 3.37444L15.1093 5.00373L16.7377 3.37444ZM20.2403 6.82433L20.2404 6.82425L20.2403 6.82433ZM20.2403 6.82433L19.8309 7.23411M20.2403 6.82433L19.8309 7.23411M19.8309 7.23411L17.2578 4.65963L17.64 4.27725C18.364 3.55314 19.5297 3.54116 20.2384 4.24752C20.95 4.95718 20.954 6.11005 20.2406 6.824L19.8309 7.23411ZM18.9287 8.13704L13.4205 13.648L10.8474 11.0735L16.3554 5.56248L18.9287 8.13704ZM8.65577 18.4152C7.08312 19.9887 5.38268 20.2195 4.26998 20.3705C4.21374 20.3782 4.159 20.3856 4.10585 20.393C4.11382 20.3348 4.12184 20.2739 4.13021 20.2102C4.26691 19.171 4.49618 17.428 6.08266 15.8407L9.9451 11.9763L12.5182 14.5508L8.65577 18.4152Z" fill="black" stroke="black" stroke-width="0.1"/>
</svg>
