<svg width="83" height="83" viewBox="0 0 83 83" fill="none" xmlns="http://www.w3.org/2000/svg">
<rect width="83" height="83" rx="41.5" fill="#F8CACA"/>
<g clip-path="url(#clip0_1_1620)">
<path d="M58.7816 17C54.382 17 44.4883 28.3874 44.4883 28.3874L58.7244 39.418L58.7816 17Z" fill="#B78C7A"/>
<path d="M51.6531 32.5171L58.5061 29.1775C54.1117 24.871 50.843 23.6407 47.4883 25.155L51.6531 32.5171Z" fill="#AB7B64"/>
<path d="M58.7824 17C57.3534 17 54.7627 21.8281 53.1289 25.1968L59.2115 31.4512C60.3362 24.8199 60.6811 17.9725 58.7824 17Z" fill="#EEBFB6"/>
<path d="M58.7817 17C59.1076 17.8283 59.4937 21.2699 58.906 26.3699C58.7711 27.5403 57.3975 28.1005 56.4863 27.3536C55.2974 26.379 54.1881 25.6633 53.1282 25.1968C52.2531 27.0013 51.6523 28.3873 51.6523 28.3873L58.7245 39.4179C58.7245 39.4179 63.8998 17 58.7817 17Z" fill="#EAA598"/>
<path d="M36.509 25.1555C33.2313 21.7888 28.0682 17 25.2148 17L27.6495 29.7937L36.509 25.1555Z" fill="#B78C7A"/>
<path d="M36.509 25.1555C33.9403 23.817 30.9047 24.8114 28.8655 26.1356C27.4569 23.0787 25.2148 17 25.2148 17L25.2721 39.4179L39.5082 28.3873C39.5082 28.3873 38.2853 26.9801 36.509 25.1555Z" fill="#AB7B64"/>
<path d="M25.217 17C22.309 17 22.724 24.2367 23.6247 30.4868L30.8498 27.1267L25.217 17Z" fill="#EEBFB6"/>
<path d="M32.3468 28.3873C32.3468 28.3873 27.4118 17 25.2174 17C25.2174 17 26.9916 21.8103 28.375 25.0246C28.6491 25.6615 28.4463 26.4049 27.8845 26.8115C26.2142 28.0204 24.7003 29.417 23.625 30.4869C24.3095 35.2374 25.2745 39.418 25.2745 39.418L32.3468 28.3873Z" fill="#EAA598"/>
<path d="M20.3806 28.3572C20.2152 28.3573 20.0545 28.3022 19.9239 28.2007C19.7933 28.0992 19.7003 27.9571 19.6596 27.7968C19.6189 27.6365 19.6328 27.4672 19.6991 27.3157C19.7654 27.1642 19.8803 27.0391 20.0257 26.9602C23.5185 25.0673 28.599 25.0174 32.3806 26.8387C32.4685 26.881 32.5473 26.9403 32.6123 27.0131C32.6774 27.0859 32.7274 27.1708 32.7597 27.2629C32.7919 27.3551 32.8057 27.4526 32.8002 27.5501C32.7947 27.6476 32.77 27.743 32.7277 27.8309C32.6853 27.9189 32.6261 27.9977 32.5533 28.0627C32.4805 28.1278 32.3956 28.1779 32.3034 28.2101C32.2113 28.2423 32.1137 28.2561 32.0162 28.2506C31.9188 28.2451 31.8233 28.2205 31.7354 28.1781C28.4107 26.5768 23.784 26.6143 20.7339 28.2673C20.6255 28.3263 20.504 28.3572 20.3806 28.3572ZM63.6159 28.3572C63.4925 28.3572 63.371 28.3263 63.2625 28.2673C60.2125 26.6143 55.586 26.5768 52.2611 28.1781C52.0834 28.2637 51.8791 28.2752 51.693 28.2101C51.5069 28.145 51.3543 28.0086 51.2687 27.831C51.1832 27.6534 51.1717 27.449 51.2368 27.2629C51.3019 27.0768 51.4382 26.9242 51.6158 26.8387C55.3974 25.0174 60.4781 25.0673 63.9707 26.9602C64.1163 27.039 64.2314 27.164 64.2978 27.3156C64.3642 27.4671 64.3782 27.6365 64.3374 27.7969C64.2967 27.9573 64.2036 28.0995 64.0729 28.201C63.9422 28.3025 63.7814 28.3575 63.6159 28.3572Z" fill="#FFEAD9"/>
<path d="M62.6634 65.2657V48.4175C65.3328 39.9036 58.2095 31.1338 52.2513 27.0582C51.5021 26.6394 50.7709 26.2885 50.0697 26.0078C47.7239 25.069 45.3693 24.5273 41.9994 24.5273C38.6295 24.5273 36.275 25.069 33.9292 26.0078C28.5743 28.1506 21.4775 34.382 17.9317 43.7849C17.5567 44.7794 17.3711 45.8355 17.3711 46.8984V64.2746L62.6634 65.2657Z" fill="#FFEAD9"/>
<path d="M52.2513 27.0586C56.8323 30.667 63.3507 39.4189 60.6813 46.9457C60.2755 48.0898 59.699 48.7262 59.2723 49.0641C58.9148 49.3471 58.699 49.772 58.699 50.2279V62.7886C58.699 63.6096 58.0334 64.2752 57.2124 64.2752H17.3711V65.2663C17.3711 65.8137 17.8148 66.2574 18.3622 66.2574H65.6366C66.184 66.2574 66.6277 65.8137 66.6277 65.2663V46.8986C66.6277 45.8377 66.4433 44.7834 66.0691 43.7906C62.9881 35.6164 57.2234 29.8384 52.2513 27.0586Z" fill="#F4DABD"/>
<path d="M42.0001 49.3887L34.5938 54.8427C34.5938 54.8427 36.969 57.8367 42.0001 57.8367C47.0312 57.8367 49.4064 54.8427 49.4064 54.8427L42.0001 49.3887Z" fill="#B78C7A"/>
<path d="M41.9982 28.4902C33.8319 28.4902 23.3164 36.3067 23.3164 46.9439C24.0378 48.9779 25.5844 51.5743 28.0531 51.5743C28.5595 53.2822 31.2522 54.841 34.5919 54.841C40.5432 54.841 41.9982 50.706 41.9982 49.387C41.9982 50.706 43.4534 54.841 49.4046 54.841C52.7442 54.841 55.437 53.2822 55.9434 51.5743C58.412 51.5743 59.9587 48.9779 60.6801 46.9439C60.6801 36.3068 50.1645 28.4902 41.9982 28.4902Z" fill="#9A695E"/>
<path d="M29.0441 50.5846C26.5755 50.5846 24.0378 48.9792 23.3164 46.9453C23.3164 51.9718 28.862 54.8423 34.5918 54.8423C31.2522 54.8424 29.5505 52.2925 29.0441 50.5846ZM54.9523 50.5846C54.446 52.2925 52.7443 54.8423 49.4047 54.8423C55.135 54.8423 60.6801 51.9717 60.6801 46.9453C59.9587 48.9793 57.421 50.5846 54.9523 50.5846Z" fill="#855B51"/>
<path d="M34.7014 38.611C32.6314 37.4158 30.1853 37.7774 29.2378 39.4185C28.6882 40.3703 28.7646 41.5433 29.3287 42.5941C31.2794 44.5447 34.8015 44.3857 35.7428 42.7553C36.2924 41.8034 36.2163 39.9177 34.7014 38.611Z" fill="#BEEEDD"/>
<path d="M34.7008 38.6094C34.7008 38.6094 35.5649 40.353 34.7512 41.7626C33.8099 43.393 31.3895 43.7598 29.3281 42.5925C29.7366 43.3534 30.4003 44.0503 31.2697 44.5522C33.3397 45.7474 35.7859 45.3858 36.7334 43.7447C37.6808 42.1037 36.7708 39.8045 34.7008 38.6094Z" fill="#94CCD4"/>
<path d="M54.7617 39.4184C54.7617 39.4184 55.3738 41.4081 51.4706 43.6617C48.7656 45.2234 47.2656 43.7463 47.2656 43.7463C46.3181 42.1052 47.2281 39.806 49.2981 38.6109C51.368 37.4159 53.8141 37.7774 54.7617 39.4184Z" fill="#BEEEDD"/>
<path d="M54.7618 39.418C54.7618 39.418 54.1819 40.8589 51.0444 42.6703C48.8701 43.9257 47.2656 43.7459 47.2656 43.7459C48.2131 45.387 50.6593 45.7485 52.7293 44.5534C54.7992 43.3583 55.7093 41.0591 54.7618 39.418Z" fill="#94CCD4"/>
<path d="M35.1879 55.585C31.6152 55.585 28.988 53.0047 28.3329 50.7952C28.2795 50.607 28.3025 50.4054 28.3968 50.234C28.4911 50.0627 28.6492 49.9354 28.8368 49.8798C29.0243 49.8242 29.2262 49.8447 29.3987 49.937C29.5712 50.0293 29.7003 50.1858 29.7582 50.3727C29.8713 50.754 31.5622 54.0983 35.1879 54.0983C37.5081 54.0983 38.7769 53.409 39.9822 52.1048C40.917 51.0933 41.2563 49.9257 41.2563 49.3877V47.4913C41.2563 47.2942 41.3346 47.1051 41.474 46.9657C41.6134 46.8264 41.8024 46.748 41.9996 46.748C42.1967 46.748 42.3857 46.8264 42.5251 46.9657C42.6645 47.1051 42.7428 47.2942 42.7428 47.4913V49.3877C42.7428 49.9257 43.0822 51.0933 44.017 52.1048C45.2222 53.409 46.4911 54.0983 48.8113 54.0983C52.4371 54.0983 54.128 50.7539 54.241 50.3726C54.3 50.1872 54.4294 50.0323 54.6014 49.9412C54.7733 49.8501 54.9741 49.8301 55.1607 49.8854C55.3472 49.9407 55.5047 50.067 55.5992 50.237C55.6937 50.4071 55.7178 50.6075 55.6663 50.7951C55.0112 53.0047 52.3839 55.5849 48.8113 55.5849C45.3424 55.5849 43.9671 54.241 42.9252 53.1137C42.5682 52.7267 42.2576 52.2994 41.9996 51.8405C41.7417 52.2995 41.431 52.7268 41.074 53.1137C40.0321 54.2411 38.6567 55.585 35.1879 55.585Z" fill="#5F6C75"/>
<path d="M42.0014 48.2356H41.9988C41.8868 48.2356 41.1522 48.2177 40.1554 47.7752C39.9778 47.6936 39.8395 47.5453 39.7704 47.3624C39.7014 47.1796 39.7071 46.9769 39.7864 46.7982C39.8657 46.6196 40.0121 46.4793 40.194 46.4079C40.376 46.3364 40.5787 46.3395 40.7584 46.4164C41.4841 46.7385 41.9968 46.7489 42.0019 46.7489C42.0035 46.7489 42.5162 46.7384 43.2419 46.4164C43.6168 46.25 44.0563 46.419 44.2229 46.7942C44.3894 47.1694 44.2201 47.6086 43.8449 47.7752C42.848 48.2177 42.1135 48.2356 42.0014 48.2356ZM33.9776 42.3259C33.88 42.3259 33.7834 42.3067 33.6932 42.2693C33.603 42.232 33.5211 42.1772 33.452 42.1082C33.383 42.0392 33.3283 41.9572 33.2909 41.8671C33.2536 41.7769 33.2344 41.6802 33.2344 41.5826V38.6124C33.2344 38.4153 33.3127 38.2262 33.4521 38.0868C33.5915 37.9474 33.7805 37.8691 33.9776 37.8691C34.1748 37.8691 34.3638 37.9474 34.5032 38.0868C34.6426 38.2262 34.7209 38.4153 34.7209 38.6124V41.5826C34.7209 41.6802 34.7017 41.7769 34.6643 41.8671C34.627 41.9572 34.5723 42.0392 34.5032 42.1082C34.4342 42.1772 34.3523 42.232 34.2621 42.2693C34.1719 42.3067 34.0752 42.3259 33.9776 42.3259ZM50.0226 42.3259C49.9249 42.3259 49.8283 42.3067 49.7381 42.2693C49.6479 42.232 49.566 42.1772 49.497 42.1082C49.4279 42.0392 49.3732 41.9572 49.3358 41.8671C49.2985 41.7769 49.2793 41.6802 49.2793 41.5826V38.6124C49.2793 38.4153 49.3576 38.2262 49.497 38.0868C49.6364 37.9474 49.8254 37.8691 50.0226 37.8691C50.2197 37.8691 50.4087 37.9474 50.5481 38.0868C50.6875 38.2262 50.7658 38.4153 50.7658 38.6124V41.5826C50.7658 41.6802 50.7466 41.7769 50.7093 41.8671C50.6719 41.9572 50.6172 42.0392 50.5482 42.1082C50.4791 42.1772 50.3972 42.232 50.307 42.2693C50.2168 42.3067 50.1202 42.3259 50.0226 42.3259Z" fill="#4E5A61"/>
<path d="M23.9464 60.0095C23.7994 60.0095 23.6557 59.9659 23.5335 59.8842C23.4113 59.8026 23.316 59.6865 23.2597 59.5507C23.2035 59.4149 23.1887 59.2654 23.2174 59.1213C23.246 58.9771 23.3168 58.8446 23.4207 58.7407L26.3939 55.7674C26.5338 55.6302 26.7222 55.5538 26.9181 55.5547C27.114 55.5556 27.3016 55.6339 27.4402 55.7724C27.5787 55.9109 27.657 56.0985 27.6579 56.2945C27.6588 56.4904 27.5824 56.6787 27.4452 56.8186L24.472 59.7918C24.403 59.861 24.3211 59.9158 24.2309 59.9531C24.1407 59.9905 24.044 60.0097 23.9464 60.0095ZM28.7419 63.5152C28.6115 63.5151 28.4833 63.4807 28.3704 63.4154C28.2575 63.3501 28.1637 63.2562 28.0986 63.1432C28.0334 63.0303 27.9991 62.9021 27.9992 62.7717C27.9992 62.6412 28.0336 62.5131 28.0988 62.4001L30.2012 58.7587C30.2997 58.588 30.4621 58.4634 30.6525 58.4124C30.8429 58.3614 31.0458 58.3881 31.2165 58.4867C31.3872 58.5852 31.5118 58.7476 31.5628 58.938C31.6138 59.1284 31.5871 59.3313 31.4886 59.502L29.3862 63.1434C29.321 63.2566 29.2271 63.3505 29.114 63.4158C29.0008 63.4811 28.8725 63.5153 28.7419 63.5152ZM55.2565 63.5152C55.1259 63.5153 54.9976 63.481 54.8845 63.4157C54.7713 63.3505 54.6774 63.2565 54.6121 63.1434L52.5098 59.502C52.4609 59.4175 52.4293 59.3241 52.4165 59.2274C52.4038 59.1306 52.4102 59.0323 52.4355 58.938C52.4607 58.8437 52.5043 58.7553 52.5638 58.6779C52.6232 58.6004 52.6973 58.5355 52.7818 58.4867C52.8664 58.4378 52.9597 58.4062 53.0565 58.3934C53.1532 58.3807 53.2516 58.3871 53.3459 58.4124C53.4402 58.4376 53.5285 58.4812 53.606 58.5407C53.6834 58.6001 53.7484 58.6742 53.7972 58.7587L55.8995 62.4001C55.9648 62.5131 55.9992 62.6412 55.9992 62.7716C55.9993 62.9021 55.965 63.0303 55.8999 63.1433C55.8347 63.2563 55.741 63.3501 55.628 63.4154C55.5151 63.4807 55.387 63.5151 55.2565 63.5152ZM38.391 61.9716C38.3065 61.9228 38.2132 61.8911 38.1164 61.8784C38.0196 61.8656 37.9213 61.8721 37.827 61.8973C37.7327 61.9226 37.6443 61.9662 37.5669 62.0256C37.4894 62.0851 37.4245 62.1592 37.3757 62.2437L36.2031 64.2747L36.6709 64.7702L37.9197 64.2747L38.6631 62.9871C38.7617 62.8163 38.7884 62.6134 38.7373 62.423C38.6863 62.2326 38.5617 62.0702 38.391 61.9716Z" fill="#F4DABD"/>
<path d="M36.2014 64.2734L35.2716 65.884C35.2063 65.9969 35.1719 66.1251 35.1719 66.2555C35.1718 66.386 35.2061 66.5141 35.2713 66.6271C35.3364 66.7401 35.4302 66.834 35.5431 66.8993C35.6561 66.9646 35.7842 66.999 35.9147 66.999C36.0453 66.9991 36.1736 66.9648 36.2868 66.8996C36.3999 66.8343 36.4938 66.7404 36.5591 66.6272L37.9181 64.2734H36.9666H36.2014Z" fill="#EEC190"/>
<path d="M58.6982 56.8619L57.6038 55.7674C57.464 55.6302 57.2756 55.5538 57.0797 55.5547C56.8838 55.5556 56.6961 55.6339 56.5576 55.7724C56.4191 55.9109 56.3408 56.0985 56.3399 56.2945C56.3389 56.4904 56.4153 56.6787 56.5525 56.8186L58.6982 58.9643L59.1937 58.2327L58.6982 56.8619Z" fill="#F4DABD"/>
<path d="M60.578 58.7403L58.6992 56.8615V58.964L59.5267 59.7915C59.5957 59.8606 59.6776 59.9154 59.7678 59.9528C59.858 59.9901 59.9547 60.0093 60.0524 60.0092C60.1993 60.0091 60.343 59.9654 60.4652 59.8838C60.5873 59.8021 60.6826 59.686 60.7388 59.5502C60.7951 59.4144 60.8098 59.265 60.7812 59.1209C60.7525 58.9767 60.6818 58.8443 60.578 58.7403Z" fill="#EEC190"/>
</g>
<defs>
<clipPath id="clip0_1_1620">
<rect width="50" height="50" fill="white" transform="translate(17 17)"/>
</clipPath>
</defs>
</svg>
