<svg width="83" height="83" viewBox="0 0 83 83" fill="none" xmlns="http://www.w3.org/2000/svg">
<rect width="83" height="83" rx="41.5" fill="#E9C88A"/>
<g clip-path="url(#clip0_1_1599)">
<path d="M22.4688 43.8105H41.2188V56.3105H22.4688V43.8105Z" fill="#E29A6B"/>
<path d="M33.9709 53.2922C32.2861 53.2922 30.9148 51.9128 30.9537 50.2285C30.955 50.1726 30.9557 50.1166 30.9557 50.0604C30.9557 46.6086 28.5072 43.8104 25.4869 43.8104H22.4688V56.3104H41.2188V53.2922H33.9709ZM48.5354 30.1198C48.3573 30.1195 48.1851 30.0562 48.0491 29.9412C47.9132 29.8262 47.8222 29.6669 47.7924 29.4913C47.7626 29.3158 47.7958 29.1353 47.8861 28.9819C47.9765 28.8284 48.1182 28.7119 48.2861 28.6528L53.2277 26.9238C53.3215 26.8899 53.4211 26.875 53.5207 26.8798C53.6203 26.8846 53.718 26.9092 53.8081 26.952C53.8981 26.9948 53.9788 27.0551 54.0455 27.1293C54.1121 27.2035 54.1634 27.2901 54.1963 27.3843C54.2293 27.4784 54.2432 27.5781 54.2374 27.6777C54.2315 27.7772 54.206 27.8747 54.1623 27.9643C54.1186 28.0539 54.0575 28.134 53.9827 28.1999C53.9078 28.2658 53.8206 28.3162 53.7262 28.3482L48.7846 30.0772C48.7045 30.1053 48.6202 30.1197 48.5354 30.1198Z" fill="#CE845C"/>
<path d="M52.1562 31.3125H31.8438V43.8125H52.1562C55.1766 43.8125 57.625 41.0143 57.625 37.5625C57.625 34.1107 55.1766 31.3125 52.1562 31.3125Z" fill="#E29A6B"/>
<path d="M57.4645 36.0535C56.8737 38.7763 54.7212 40.7944 52.1562 40.7944H43.3459C41.6611 40.7944 40.2898 39.415 40.3287 37.7307C40.33 37.6748 40.3307 37.6188 40.3307 37.5625C40.3307 34.1107 37.8822 31.3125 34.8619 31.3125H31.8438V43.8125H52.1562C55.1766 43.8125 57.625 41.0143 57.625 37.5625C57.625 37.0423 57.5693 36.5368 57.4645 36.0535Z" fill="#CE845C"/>
<path d="M45.9416 34.1161C44.491 33.9042 43.6394 32.3704 44.2267 31.0271L45.9723 27.0348C46.0256 26.913 46.1132 26.8093 46.2244 26.7365C46.3357 26.6638 46.4657 26.625 46.5987 26.625H48.9449C49.3872 26.625 49.7129 27.0386 49.6095 27.4686L48.4619 32.2365C48.2853 33.4519 47.1566 34.2936 45.9416 34.1161Z" fill="#CE845C"/>
<path d="M53.962 28.4085L53.2042 28.1906C53.03 28.1404 52.8828 28.0232 52.795 27.8645C52.7073 27.7059 52.6861 27.5189 52.7362 27.3447L52.9542 26.5869C53.4998 24.69 55.4798 23.5946 57.3767 24.1402L58.1345 24.3581C58.3087 24.4083 58.4559 24.5255 58.5436 24.6842C58.6314 24.8428 58.6526 25.0298 58.6024 25.204L58.3845 25.9619C57.839 27.8587 55.8589 28.9541 53.962 28.4085Z" fill="#32B191"/>
<path d="M55.9744 27.4028C55.193 27.1781 54.7418 26.3625 54.9666 25.5812C55.1336 24.9971 55.4474 24.4655 55.8781 24.0371C54.5305 24.2325 53.3553 25.1936 52.9546 26.5872L52.7366 27.345C52.6865 27.5192 52.7076 27.7062 52.7954 27.8649C52.8832 28.0235 53.0303 28.1408 53.2046 28.1909L53.9624 28.4089C55.2538 28.7804 56.5838 28.3911 57.4734 27.5063C56.9721 27.5788 56.461 27.5435 55.9744 27.4028Z" fill="#1E9D7D"/>
<path d="M37.5648 47.6911H26.5082C26.3081 47.6911 26.1162 47.6116 25.9747 47.4701C25.8332 47.3286 25.7537 47.1367 25.7537 46.9366C25.7537 46.7365 25.8332 46.5446 25.9747 46.4031C26.1162 46.2616 26.3081 46.1821 26.5082 46.1821H37.5647C37.7648 46.1821 37.9568 46.2616 38.0983 46.4031C38.2398 46.5446 38.3193 46.7365 38.3193 46.9366C38.3193 47.1367 38.2398 47.3286 38.0983 47.4701C37.9569 47.6116 37.7649 47.6911 37.5648 47.6911ZM35.7499 50.8161H33.0402C32.8401 50.8161 32.6482 50.7366 32.5067 50.5951C32.3652 50.4536 32.2857 50.2617 32.2857 50.0616C32.2857 49.8615 32.3652 49.6696 32.5067 49.5281C32.6482 49.3866 32.8401 49.3071 33.0402 49.3071H35.7499C35.95 49.3071 36.1419 49.3866 36.2834 49.5281C36.4249 49.6696 36.5044 49.8615 36.5044 50.0616C36.5044 50.2617 36.4249 50.4536 36.2834 50.5951C36.1419 50.7366 35.95 50.8161 35.7499 50.8161ZM32.6249 53.9411H26.131C25.9309 53.9411 25.7389 53.8616 25.5975 53.7201C25.456 53.5786 25.3765 53.3867 25.3765 53.1866C25.3765 52.9865 25.456 52.7946 25.5975 52.6531C25.7389 52.5116 25.9309 52.4321 26.131 52.4321H32.6249C32.825 52.4321 33.0169 52.5116 33.1584 52.6531C33.2999 52.7946 33.3794 52.9865 33.3794 53.1866C33.3794 53.3867 33.2999 53.5786 33.1584 53.7201C33.0169 53.8616 32.825 53.9411 32.6249 53.9411ZM50.9596 38.2785H42.4152C42.2151 38.2785 42.0232 38.199 41.8817 38.0575C41.7402 37.916 41.6607 37.7241 41.6607 37.524C41.6607 37.3239 41.7402 37.132 41.8817 36.9905C42.0232 36.849 42.2151 36.7695 42.4152 36.7695H50.9596C51.1597 36.7695 51.3516 36.849 51.4931 36.9905C51.6346 37.132 51.7141 37.3239 51.7141 37.524C51.7141 37.7241 51.6346 37.916 51.4931 38.0575C51.3516 38.199 51.1597 38.2785 50.9596 38.2785ZM41.9999 41.4035H35.1496C34.9495 41.4035 34.7576 41.324 34.6161 41.1825C34.4746 41.041 34.3951 40.8491 34.3951 40.649C34.3951 40.4489 34.4746 40.257 34.6161 40.1155C34.7576 39.974 34.9495 39.8945 35.1496 39.8945H41.9999C42.2 39.8945 42.3919 39.974 42.5334 40.1155C42.6749 40.257 42.7544 40.4489 42.7544 40.649C42.7544 40.8491 42.6749 41.041 42.5334 41.1825C42.3919 41.324 42.2 41.4035 41.9999 41.4035ZM53.2358 41.4035H46.1514C45.9513 41.4035 45.7594 41.324 45.6179 41.1825C45.4764 41.041 45.3969 40.8491 45.3969 40.649C45.3969 40.4489 45.4764 40.257 45.6179 40.1155C45.7594 39.974 45.9513 39.8945 46.1514 39.8945H53.2358C53.4359 39.8945 53.6279 39.974 53.7693 40.1155C53.9108 40.257 53.9903 40.4489 53.9903 40.649C53.9903 40.8491 53.9108 41.041 53.7693 41.1825C53.6279 41.324 53.4359 41.4035 53.2358 41.4035ZM39.8054 35.1535H35.7365C35.5364 35.1535 35.3445 35.074 35.203 34.9325C35.0615 34.791 34.982 34.5991 34.982 34.399C34.982 34.1989 35.0615 34.007 35.203 33.8655C35.3445 33.724 35.5364 33.6445 35.7365 33.6445H39.8054C40.0055 33.6445 40.1974 33.724 40.3389 33.8655C40.4804 34.007 40.5599 34.1989 40.5599 34.399C40.5599 34.5991 40.4804 34.791 40.3389 34.9325C40.1974 35.074 40.0055 35.1535 39.8054 35.1535Z" fill="#BF7859"/>
<path d="M61.5312 43.8105H41.2188V56.3105H61.5312C64.5516 56.3105 67 53.5123 67 50.0605C67 46.6088 64.5516 43.8105 61.5312 43.8105Z" fill="#E29A6B"/>
<path d="M66.8395 48.5515C66.2487 51.2742 64.0962 53.2924 61.5312 53.2924H52.7209C51.0361 53.2924 49.6648 51.913 49.7037 50.2286C49.705 50.1728 49.7057 50.1167 49.7057 50.0605C49.7057 46.6088 47.2572 43.8105 44.2369 43.8105H41.2188V56.3105H61.5312C64.5516 56.3105 67 53.5123 67 50.0605C67.0005 49.5532 66.9466 49.0473 66.8395 48.5515Z" fill="#CE845C"/>
<path d="M54.5 47.6905H44.9297C44.7296 47.6905 44.5377 47.611 44.3962 47.4695C44.2547 47.328 44.1752 47.1361 44.1752 46.936C44.1752 46.7359 44.2547 46.544 44.3962 46.4025C44.5377 46.261 44.7296 46.1815 44.9297 46.1815H54.5C54.7001 46.1815 54.892 46.261 55.0335 46.4025C55.175 46.544 55.2545 46.7359 55.2545 46.936C55.2545 47.1361 55.175 47.328 55.0335 47.4695C54.892 47.611 54.7001 47.6905 54.5 47.6905ZM60.3346 50.8155H51.7903C51.5902 50.8155 51.3983 50.736 51.2568 50.5945C51.1153 50.453 51.0358 50.2611 51.0358 50.061C51.0358 49.8609 51.1153 49.669 51.2568 49.5275C51.3983 49.386 51.5902 49.3065 51.7903 49.3065H60.3346C60.5347 49.3065 60.7267 49.386 60.8682 49.5275C61.0096 49.669 61.0891 49.8609 61.0891 50.061C61.0891 50.2611 61.0096 50.453 60.8682 50.5945C60.7267 50.736 60.5347 50.8155 60.3346 50.8155ZM51.375 53.9405H45.0807C44.8806 53.9405 44.6887 53.861 44.5472 53.7195C44.4057 53.578 44.3262 53.3861 44.3262 53.186C44.3262 52.9859 44.4057 52.794 44.5472 52.6525C44.6887 52.511 44.8806 52.4315 45.0807 52.4315H51.375C51.5751 52.4315 51.767 52.511 51.9085 52.6525C52.05 52.794 52.1295 52.9859 52.1295 53.186C52.1295 53.3861 52.05 53.578 51.9085 53.7195C51.767 53.861 51.5751 53.9405 51.375 53.9405ZM62.6109 53.9405H55.5264C55.3263 53.9405 55.1344 53.861 54.9929 53.7195C54.8514 53.578 54.7719 53.3861 54.7719 53.186C54.7719 52.9859 54.8514 52.794 54.9929 52.6525C55.1344 52.511 55.3263 52.4315 55.5264 52.4315H62.6109C62.811 52.4315 63.0029 52.511 63.1444 52.6525C63.2859 52.794 63.3654 52.9859 63.3654 53.186C63.3654 53.3861 63.2859 53.578 63.1444 53.7195C63.0029 53.861 62.811 53.9405 62.6109 53.9405ZM62.3125 47.6905H58.5554C58.3553 47.6905 58.1634 47.611 58.0219 47.4695C57.8804 47.328 57.801 47.1361 57.801 46.936C57.801 46.7359 57.8804 46.544 58.0219 46.4025C58.1634 46.261 58.3553 46.1815 58.5554 46.1815H62.3125C62.5126 46.1815 62.7045 46.261 62.846 46.4025C62.9875 46.544 63.067 46.7359 63.067 46.936C63.067 47.1361 62.9875 47.328 62.846 47.4695C62.7045 47.611 62.5126 47.6905 62.3125 47.6905Z" fill="#BF7859"/>
<path d="M22.4688 56.3105C25.4891 56.3105 27.9375 53.5123 27.9375 50.0605C27.9375 46.6088 25.4891 43.8105 22.4688 43.8105C19.4484 43.8105 17 46.6088 17 50.0605C17 53.5123 19.4484 56.3105 22.4688 56.3105Z" fill="#FBEBC7"/>
<path d="M22.4688 52.74C23.7632 52.74 24.8125 51.5408 24.8125 50.0614C24.8125 48.5821 23.7632 47.3828 22.4688 47.3828C21.1743 47.3828 20.125 48.5821 20.125 50.0614C20.125 51.5408 21.1743 52.74 22.4688 52.74Z" fill="#FFB889"/>
<path d="M31.8438 43.8125C34.8641 43.8125 37.3125 41.0143 37.3125 37.5625C37.3125 34.1107 34.8641 31.3125 31.8438 31.3125C28.8234 31.3125 26.375 34.1107 26.375 37.5625C26.375 41.0143 28.8234 43.8125 31.8438 43.8125Z" fill="#FBEBC7"/>
<path d="M31.8438 40.2029C33.1382 40.2029 34.1875 39.0037 34.1875 37.5243C34.1875 36.045 33.1382 34.8457 31.8438 34.8457C30.5493 34.8457 29.5 36.045 29.5 37.5243C29.5 39.0037 30.5493 40.2029 31.8438 40.2029Z" fill="#FFB889"/>
<path d="M56.8931 35.1535C56.9923 35.1536 57.0906 35.1341 57.1823 35.0961C56.9848 34.5712 56.7261 34.0834 56.4165 33.6445H52.4078C52.2077 33.6445 52.0158 33.724 51.8743 33.8655C51.7328 34.007 51.6533 34.1989 51.6533 34.399C51.6533 34.5991 51.7328 34.791 51.8743 34.9325C52.0158 35.074 52.2077 35.1535 52.4078 35.1535H56.8931Z" fill="#BF7859"/>
<path d="M41.2188 56.3105C44.2391 56.3105 46.6875 53.5123 46.6875 50.0605C46.6875 46.6088 44.2391 43.8105 41.2188 43.8105C38.1984 43.8105 35.75 46.6088 35.75 50.0605C35.75 53.5123 38.1984 56.3105 41.2188 56.3105Z" fill="#FBEBC7"/>
<path d="M41.2188 52.74C42.5132 52.74 43.5625 51.5408 43.5625 50.0614C43.5625 48.5821 42.5132 47.3828 41.2188 47.3828C39.9243 47.3828 38.875 48.5821 38.875 50.0614C38.875 51.5408 39.9243 52.74 41.2188 52.74Z" fill="#FFB889"/>
</g>
<defs>
<clipPath id="clip0_1_1599">
<rect width="50" height="50" fill="white" transform="translate(17 17)"/>
</clipPath>
</defs>
</svg>
