<svg width="83" height="83" viewBox="0 0 83 83" fill="none" xmlns="http://www.w3.org/2000/svg">
<g clip-path="url(#clip0_1_1648)">
<rect width="83" height="83" rx="41.5" fill="#3BB9FF"/>
<path d="M53.3775 25.1875C42.5324 39.291 46.5365 55.0156 46.5365 55.0156L52.0482 83.2227H6.49551C6.49551 83.2227 1 78.0189 1 62.4889C1 62.4889 1.63223 56.5395 3.15605 53.3135C4.67988 50.0875 12.6395 40.0529 12.6395 40.0529L23.1604 38.8371L30.9578 30.2291H39.4037L46.0502 25.2037H53.3775V25.1875Z" fill="#4893CC"/>
<path d="M33.1463 31.54L30.2607 30.9727L23.1441 38.835L12.6232 40.0508C12.6232 40.0508 4.64746 50.0691 3.13984 53.3113C1.63223 56.5373 1 62.4867 1 62.4867C1 78.0168 6.49551 83.2205 6.49551 83.2205H37.8637C19.5939 64.2375 33.1463 31.54 33.1463 31.54Z" fill="#3279AF"/>
<path d="M16.7246 42.8736L13.6283 39.9395L12.6232 40.0529C12.6232 40.0529 4.64746 50.0713 3.13984 53.3135C1.63223 56.5395 1 62.4889 1 62.4889C1 78.0189 6.49551 83.2227 6.49551 83.2227H20.8908C7.11152 63.0562 16.7246 42.8736 16.7246 42.8736Z" fill="#275E87"/>
<path d="M71.1551 58.193C64.3789 66.3146 82.373 83.2227 82.373 83.2227H46.5631C46.5631 83.2227 40.3867 77.5975 40.3867 69.6379L41.6836 63.6236L50.2105 54.5293H68.1074L71.1551 58.193Z" fill="#4893CC"/>
<path d="M61.7527 55.3074L60.5045 54.5293H50.2105L41.6836 63.6236L40.3867 69.6379C40.3867 77.5975 46.5631 83.2227 46.5631 83.2227H63.7143C50.0484 65.8283 61.7527 55.3074 61.7527 55.3074Z" fill="#3279AF"/>
<path d="M1 62.4914C1 52.2785 8.00313 36.5215 21.7338 36.5215C28.51 36.5215 28.51 46.8316 21.7338 46.8316C17.3568 46.8316 16.7246 42.8762 16.7246 42.8762C6.51172 42.8762 1 62.4914 1 62.4914Z" fill="#9CD3FC"/>
<path d="M23.1602 36.6955C23.1602 36.6955 31.1035 26.3691 38.2201 26.3691C44.6883 26.3691 44.9963 36.5334 38.5119 36.5334C35.0914 36.5334 33.1623 31.5404 33.1623 31.5404C33.1623 31.5404 28.1207 34.4908 25.1703 37.7492" fill="#9CD3FC"/>
<path d="M40.375 26.8248C40.375 26.8248 48.8371 20 57.3803 20C66.118 20 65.1615 30.2939 58.434 30.2939C54.3164 30.2939 53.4086 25.1551 53.4086 25.1551C53.4086 25.1551 46.4217 26.1602 42.3852 28.6566M40.375 69.6379C40.375 69.6379 40.375 52.6812 53.976 52.6812C59.1311 52.6812 57.7531 61.1596 53.6031 61.1596C49.4531 61.1596 50.1502 57.35 50.1502 57.35C50.1502 57.35 44.1035 60.3004 40.375 69.6379Z" fill="#9CD3FC"/>
<path d="M55.7461 53.1189C55.7461 53.1189 58.7938 49.5039 65.9752 49.5039C70.7574 49.5039 71.2762 53.1189 71.2762 53.1189C71.2762 53.1189 78.0199 51.9842 78.5387 56.6691C79.0574 61.3379 72.6541 63.0725 71.0979 58.2254C71.0979 58.2254 69.1525 61.1272 65.9752 61.1272C61.809 61.1272 61.7441 55.3236 61.7441 55.3236C61.7441 55.3236 59.3287 55.3236 57.3186 56.3287" fill="#9CD3FC"/>
</g>
<defs>
<clipPath id="clip0_1_1648">
<rect width="83" height="83" rx="41.5" fill="white"/>
</clipPath>
</defs>
</svg>
