<svg width="83" height="83" viewBox="0 0 83 83" fill="none" xmlns="http://www.w3.org/2000/svg">
<rect width="83" height="83" rx="41.5" fill="#ADACF5"/>
<g clip-path="url(#clip0_1_1564)">
<path d="M55.4969 28.7051H28.1906C26.2095 28.7051 24.5977 30.3169 24.5977 32.298V51.6998C24.5977 53.681 26.2095 55.2928 28.1906 55.2928H31.7836V61.7601C31.7836 62.3554 32.5024 62.6953 32.9622 62.3122L41.3854 55.2929H55.4971C57.4782 55.2929 59.09 53.6811 59.09 51.6999V32.2979C59.0898 30.3169 57.478 28.7051 55.4969 28.7051Z" fill="#F3F2ED"/>
<path d="M26.7534 51.6999V32.298C26.7534 30.3169 28.3652 28.7051 30.3463 28.7051H28.1906C26.2095 28.7051 24.5977 30.3169 24.5977 32.298V51.6999C24.5977 53.6811 26.2095 55.2929 28.1906 55.2929H30.3464C28.3652 55.2929 26.7534 53.6811 26.7534 51.6999ZM33.9393 55.2929H31.7835V61.7602C31.7835 62.3555 32.5023 62.6954 32.9621 62.3123L33.9393 61.498V55.2929Z" fill="#E7E5DA"/>
<path d="M31.7245 21.5229C30.3242 21.4632 28.9999 22.1913 27.9775 23.5493C26.9551 22.1913 25.6311 21.4636 24.2305 21.5229C22.9252 21.5777 21.7974 22.3405 21.2874 23.5136C20.6619 24.9523 21.0681 26.6699 22.4017 28.2258C24.9569 31.2068 27.5226 32.6394 27.6305 32.699C27.7369 32.757 27.8562 32.7875 27.9774 32.7875C28.0987 32.7875 28.218 32.757 28.3244 32.699C28.4324 32.6394 30.9981 31.2068 33.5532 28.2258C34.8869 26.6698 35.293 24.9523 34.6674 23.5136C34.1573 22.3405 33.0296 21.5777 31.7245 21.5229Z" fill="#E58383"/>
<path d="M28.7691 32.2097C28.6612 32.1502 26.0955 30.7175 23.5404 27.7366C22.2067 26.1805 21.8005 24.4629 22.4261 23.0243C22.6749 22.4494 23.0832 21.9578 23.6025 21.6076C22.5711 21.8414 21.7134 22.5332 21.2874 23.5131C20.6619 24.9518 21.0681 26.6694 22.4017 28.2253C24.9569 31.2063 27.5226 32.6389 27.6305 32.6985C27.7369 32.7565 27.8562 32.787 27.9774 32.787C28.0987 32.787 28.218 32.7565 28.3244 32.6985C28.3561 32.681 28.6004 32.5444 28.9927 32.2863C28.9144 32.2734 28.8389 32.2475 28.7691 32.2097Z" fill="#DB7979"/>
<path d="M52.9861 49.5463C51.5845 49.4869 50.2615 50.2147 49.2392 51.5727C48.2169 50.2148 46.8944 49.4872 45.4922 49.5463C44.187 49.6011 43.0592 50.3638 42.5491 51.537C41.9236 52.9757 42.3298 54.6933 43.6634 56.2492C46.2185 59.2302 48.7842 60.6628 48.8922 60.7224C48.9986 60.7805 49.1179 60.8109 49.2391 60.8109C49.3603 60.8109 49.4796 60.7805 49.5861 60.7224C49.694 60.6628 52.2597 59.2302 54.8149 56.2492C56.1486 54.6932 56.5547 52.9757 55.9291 51.537C55.4191 50.3639 54.2914 49.601 52.9861 49.5463Z" fill="#E58383"/>
<path d="M50.33 60.2345C50.222 60.1749 47.6563 58.7423 45.1012 55.7613C43.7674 54.2053 43.3613 52.4878 43.9869 51.0491C44.2536 50.4346 44.702 49.9165 45.272 49.5645C44.0628 49.6921 43.0337 50.4326 42.553 51.5381C41.9275 52.9767 42.3337 54.6944 43.6673 56.2503C46.2224 59.2312 48.7881 60.6639 48.8961 60.7234C49.0025 60.7815 49.1218 60.8119 49.243 60.8119C49.3643 60.8119 49.4835 60.7815 49.59 60.7234C49.6242 60.7046 49.906 60.5471 50.3557 60.2466C50.3472 60.2423 50.3383 60.2392 50.33 60.2345Z" fill="#DB7979"/>
<path d="M66.5015 27.7225C65.6386 25.7377 63.7849 24.4494 61.6639 24.3605C59.3526 24.2632 57.1658 25.5873 55.5321 28.0297C53.8984 25.5872 51.709 24.2625 49.4004 24.3605C47.2793 24.4495 45.4257 25.7377 44.5627 27.7225C43.4963 30.1753 44.1527 33.0614 46.3635 35.6408C50.7194 40.7227 55.0294 42.9111 55.2107 43.0017C55.3106 43.0512 55.4205 43.0769 55.532 43.0769C55.6435 43.0769 55.7535 43.0512 55.8534 43.0017C56.0348 42.9111 60.3448 40.7227 64.7007 35.6408C66.9116 33.0615 67.568 30.1753 66.5015 27.7225Z" fill="#E58383"/>
<path d="M56.6406 42.3214C56.4592 42.2307 52.1492 40.0423 47.7934 34.9605C45.5826 32.3811 44.9261 29.495 45.9927 27.0422C46.438 26.0179 47.1475 25.1799 48.0211 24.5957C46.4974 25.0625 45.232 26.1824 44.5627 27.7218C43.4963 30.1747 44.1527 33.0607 46.3635 35.6401C50.7194 40.722 55.0294 42.9104 55.2107 43.001C55.3106 43.0505 55.4205 43.0762 55.532 43.0762C55.6435 43.0762 55.7535 43.0505 55.8534 43.001C55.9051 42.9752 56.2922 42.7789 56.9195 42.3941C56.8226 42.389 56.7277 42.3643 56.6406 42.3214Z" fill="#DB7979"/>
<path d="M35.3735 36.609H29.6248C29.4342 36.609 29.2515 36.5333 29.1167 36.3986C28.982 36.2638 28.9062 36.081 28.9062 35.8904C28.9062 35.6999 28.982 35.5171 29.1167 35.3823C29.2515 35.2476 29.4342 35.1719 29.6248 35.1719H35.3735C35.5641 35.1719 35.7468 35.2476 35.8816 35.3823C36.0164 35.5171 36.0921 35.6999 36.0921 35.8904C36.0921 36.081 36.0164 36.2638 35.8816 36.3986C35.7468 36.5333 35.5641 36.609 35.3735 36.609ZM42.5594 36.609H38.2479C38.0573 36.609 37.8745 36.5333 37.7398 36.3986C37.605 36.2638 37.5293 36.081 37.5293 35.8904C37.5293 35.6999 37.605 35.5171 37.7398 35.3823C37.8745 35.2476 38.0573 35.1719 38.2479 35.1719H42.5594C42.75 35.1719 42.9327 35.2476 43.0675 35.3823C43.2023 35.5171 43.278 35.6999 43.278 35.8904C43.278 36.081 43.2023 36.2638 43.0675 36.3986C42.9327 36.5333 42.75 36.609 42.5594 36.609Z" fill="#C3BDA3"/>
<path d="M38.9664 42.359H29.6248C29.4342 42.359 29.2515 42.2833 29.1167 42.1486C28.982 42.0138 28.9062 41.831 28.9062 41.6404C28.9062 41.4499 28.982 41.2671 29.1167 41.1323C29.2515 40.9976 29.4342 40.9219 29.6248 40.9219H38.9664C39.157 40.9219 39.3398 40.9976 39.4745 41.1323C39.6093 41.2671 39.685 41.4499 39.685 41.6404C39.685 41.831 39.6093 42.0138 39.4745 42.1486C39.3398 42.2833 39.157 42.359 38.9664 42.359ZM46.8709 42.359H42.5594C42.3688 42.359 42.186 42.2833 42.0513 42.1486C41.9165 42.0138 41.8408 41.831 41.8408 41.6404C41.8408 41.4499 41.9165 41.2671 42.0513 41.1323C42.186 40.9976 42.3688 40.9219 42.5594 40.9219H46.8709C47.0615 40.9219 47.2443 40.9976 47.379 41.1323C47.5138 41.2671 47.5895 41.4499 47.5895 41.6404C47.5895 41.831 47.5138 42.0138 47.379 42.1486C47.2443 42.2833 47.0615 42.359 46.8709 42.359ZM35.3735 45.952H29.6248C29.4342 45.952 29.2515 45.8763 29.1167 45.7415C28.982 45.6067 28.9062 45.424 28.9062 45.2334C28.9062 45.0428 28.982 44.86 29.1167 44.7253C29.2515 44.5905 29.4342 44.5148 29.6248 44.5148H35.3735C35.5641 44.5148 35.7468 44.5905 35.8816 44.7253C36.0164 44.86 36.0921 45.0428 36.0921 45.2334C36.0921 45.424 36.0164 45.6067 35.8816 45.7415C35.7468 45.8763 35.5641 45.952 35.3735 45.952ZM50.4639 45.952H38.2479C38.0573 45.952 37.8745 45.8763 37.7398 45.7415C37.605 45.6067 37.5293 45.424 37.5293 45.2334C37.5293 45.0428 37.605 44.86 37.7398 44.7253C37.8745 44.5905 38.0573 44.5148 38.2479 44.5148H50.4639C50.6544 44.5148 50.8372 44.5905 50.972 44.7253C51.1067 44.86 51.1824 45.0428 51.1824 45.2334C51.1824 45.424 51.1067 45.6067 50.972 45.7415C50.8372 45.8763 50.6544 45.952 50.4639 45.952ZM42.5594 49.5449H29.6248C29.4342 49.5449 29.2515 49.4692 29.1167 49.3345C28.982 49.1997 28.9062 49.0169 28.9062 48.8263C28.9062 48.6358 28.982 48.453 29.1167 48.3182C29.2515 48.1835 29.4342 48.1078 29.6248 48.1078H42.5594C42.75 48.1078 42.9327 48.1835 43.0675 48.3182C43.2023 48.453 43.278 48.6358 43.278 48.8263C43.278 49.0169 43.2023 49.1997 43.0675 49.3345C42.9327 49.4692 42.75 49.5449 42.5594 49.5449Z" fill="#DBD7C8"/>
</g>
<defs>
<clipPath id="clip0_1_1564">
<rect width="50" height="50" fill="white" transform="translate(17 17)"/>
</clipPath>
</defs>
</svg>
