<svg width="83" height="83" viewBox="0 0 83 83" fill="none" xmlns="http://www.w3.org/2000/svg">
<rect width="83" height="83" rx="41.5" fill="#FFEC87"/>
<path d="M43.7724 49.9252H49.3873L55.4186 63.4355C55.7493 64.1762 55.0349 64.9537 54.2688 64.6867L51.5477 63.7383C51.2028 63.6181 50.8243 63.6394 50.4951 63.7976L48.5832 64.717L48.2302 64.8322C47.699 65.0876 47.0679 64.7847 46.9346 64.2106L43.7724 49.9252ZM40.8254 49.9121H35.118L29.1045 63.3823C28.7712 64.129 29.4064 64.9095 30.1745 64.6291L30.3323 64.5715L32.6353 63.7307C32.9746 63.6069 33.3489 63.6209 33.678 63.7698L36.2126 64.9163C36.7416 65.1556 37.3575 64.8513 37.4888 64.2857L40.8254 49.9121Z" fill="#007F5F"/>
<path d="M45.1811 50.0438L43.5898 49.9258L46.9204 64.2732C47.0537 64.8474 47.6848 65.1501 48.216 64.8948L48.5859 64.7176L45.1811 50.0438Z" fill="#006B4B"/>
<path d="M53.3982 63.741C53.0533 63.6208 52.6748 63.6421 52.3456 63.8003L52.0815 63.9272L54.2683 64.6894C54.6714 64.8299 55.0602 64.6809 55.2899 64.4003L53.3982 63.741Z" fill="#006B4B"/>
<path d="M36.6932 49.9141H35.0272L29.0137 63.3843C28.6804 64.1309 29.4081 64.9115 30.1763 64.631L36.6932 49.9141ZM35.1829 59.3086C35.0729 59.3086 34.9645 59.2825 34.8665 59.2324C34.7686 59.1822 34.684 59.1096 34.6196 59.0203C34.5553 58.931 34.5131 58.8278 34.4965 58.719C34.4799 58.6102 34.4894 58.4991 34.5242 58.3947L36.1902 53.3967C36.2501 53.2242 36.3756 53.0821 36.5394 53.0014C36.7033 52.9207 36.8924 52.9079 37.0657 52.9656C37.239 53.0234 37.3825 53.1471 37.4652 53.31C37.5479 53.4729 37.563 53.6618 37.5074 53.8358L35.8414 58.8338C35.7953 58.972 35.7069 59.0922 35.5888 59.1774C35.4706 59.2626 35.3286 59.3085 35.1829 59.3086ZM49.4363 59.3086C49.2906 59.3086 49.1486 59.2627 49.0304 59.1775C48.9123 59.0922 48.8239 58.972 48.7778 58.8338L46.965 53.4085C46.8437 53.0447 47.1872 53.0789 47.5509 52.9577C47.7256 52.8995 47.9162 52.913 48.0809 52.9953C48.2455 53.0776 48.3708 53.222 48.429 53.3966L50.095 58.3946C50.1238 58.4811 50.1353 58.5724 50.1289 58.6634C50.1224 58.7543 50.0981 58.8431 50.0573 58.9246C50.0165 59.0061 49.9601 59.0789 49.8912 59.1386C49.8224 59.1983 49.7424 59.2439 49.6559 59.2727C49.5851 59.2964 49.5109 59.3086 49.4363 59.3086Z" fill="#006B4B"/>
<path d="M58.6208 38.1965C58.5741 38.0835 58.5741 37.9565 58.6208 37.8435L60.2361 33.9315C60.7216 32.7558 60.2816 31.4017 59.1979 30.736L55.5915 28.5206C55.4873 28.4565 55.4127 28.3539 55.384 28.235L54.3915 24.1205C54.0932 22.8841 52.9413 22.0472 51.6732 22.1456L47.4534 22.473C47.3315 22.4825 47.2107 22.4432 47.1176 22.3639L43.8962 19.6187C42.9282 18.7938 41.5043 18.7938 40.5363 19.6187L37.3149 22.3639C37.2218 22.4432 37.1011 22.4825 36.9791 22.473L32.7593 22.1456C31.4912 22.0472 30.3394 22.8841 30.0411 24.1205L29.0485 28.235C29.0199 28.3539 28.9452 28.4566 28.841 28.5206L25.2347 30.7359C24.151 31.4016 23.7109 32.7558 24.1964 33.9314L25.8118 37.8434C25.8584 37.9565 25.8584 38.0834 25.8118 38.1964L24.1964 42.1084C23.7109 43.2841 24.151 44.6382 25.2347 45.3039L28.841 47.5193C28.9452 47.5834 29.0198 47.6861 29.0485 47.805L30.0411 51.9194C30.3394 53.1559 31.4912 53.9927 32.7593 53.8944L36.9791 53.5669C37.1011 53.5575 37.2218 53.5967 37.3149 53.676L40.5363 56.4212C41.5043 57.2461 42.9282 57.2461 43.8962 56.4212L47.1176 53.676C47.2107 53.5967 47.3315 53.5575 47.4534 53.5669L51.6732 53.8944C52.9413 53.9927 54.0932 53.1559 54.3915 51.9194L55.384 47.805C55.4127 47.6861 55.4873 47.5834 55.5915 47.5193L59.1979 45.3039C60.2816 44.6382 60.7216 43.284 60.2361 42.1084L58.6208 38.1965Z" fill="#FEE45A"/>
<path d="M32.0073 53.8451C31.0587 53.6378 30.2793 52.9057 30.0405 51.9209L29.0483 47.8059C29.0194 47.6873 28.9449 47.5848 28.841 47.5208L25.2341 45.305C24.1512 44.6396 23.7107 43.2855 24.1966 42.1091L25.8117 38.1977C25.858 38.0848 25.858 37.9571 25.8117 37.8441L24.1966 33.9328C23.7107 32.7564 24.1512 31.4023 25.2341 30.7368L28.841 28.521C28.9447 28.4572 29.0197 28.3544 29.0483 28.236L30.0405 24.121C30.1506 23.666 30.3817 23.2494 30.7094 22.9152C31.0371 22.581 31.4492 22.3417 31.9018 22.2227L30.3978 28.5608C30.2821 29.0403 29.9878 29.4457 29.5676 29.7048L25.9616 31.9197C25.4554 32.2307 25.2527 32.8536 25.4794 33.4024L27.0945 37.3147C27.188 37.5384 27.2361 37.7785 27.2361 38.0209C27.2361 38.2634 27.188 38.5034 27.0945 38.7271L25.4794 42.6394C25.2527 43.1883 25.4554 43.8112 25.9616 44.1222L29.5685 46.3379C29.9878 46.5962 30.2821 47.0016 30.3978 47.481L32.0073 53.8451Z" fill="#F4DA50"/>
<path d="M56.095 38.7254C55.9082 38.2732 55.9082 37.7654 56.095 37.3132L57.7582 33.2853C57.8002 33.1837 57.8046 33.0704 57.7706 32.9659C57.7366 32.8613 57.6665 32.7723 57.5728 32.7147L53.8597 30.4337C53.4428 30.1776 53.1443 29.7668 53.0295 29.2912L52.0076 25.0549C51.9818 24.9481 51.9187 24.8539 51.8298 24.7892C51.7409 24.7246 51.6318 24.6938 51.5222 24.7023L47.1775 25.0395C46.6896 25.0773 46.2067 24.9204 45.8343 24.6031L42.5175 21.7765C42.4338 21.7052 42.3274 21.666 42.2175 21.666C42.1075 21.666 42.0011 21.7052 41.9174 21.7765L38.6006 24.6031C38.2282 24.9204 37.7453 25.0774 37.2575 25.0395L32.9127 24.7023C32.8031 24.6938 32.694 24.7246 32.6051 24.7892C32.5161 24.8539 32.4531 24.948 32.4273 25.0549L31.4053 29.2912C31.2906 29.7668 30.9921 30.1776 30.5752 30.4337L26.862 32.7147C26.7683 32.7723 26.6982 32.8613 26.6643 32.9659C26.6303 33.0704 26.6347 33.1837 26.6766 33.2853L28.3399 37.3132C28.5266 37.7654 28.5266 38.2732 28.3399 38.7254L26.6766 42.7534C26.6347 42.855 26.6303 42.9682 26.6642 43.0728C26.6982 43.1774 26.7683 43.2664 26.862 43.324L30.5752 45.605C30.992 45.8611 31.2905 46.2719 31.4053 46.7475L32.4273 50.9837C32.4531 51.0906 32.5161 51.1848 32.605 51.2494C32.694 51.3141 32.803 51.3449 32.9126 51.3364L37.2574 50.9992C37.7452 50.9614 38.2281 51.1183 38.6005 51.4356L41.3169 53.7504C41.568 53.9645 41.8873 54.0821 42.2173 54.0821C42.5474 54.0821 42.8666 53.9645 43.1178 53.7504L45.8341 51.4356C46.2065 51.1182 46.6895 50.9613 47.1773 50.9992L51.522 51.3364C51.6316 51.3449 51.7407 51.3141 51.8297 51.2494C51.9186 51.1848 51.9817 51.0906 52.0075 50.9837L53.0295 46.7474C53.1442 46.2718 53.4427 45.861 53.8596 45.6049L57.5727 43.3239C57.6664 43.2663 57.7365 43.1773 57.7705 43.0727C57.8045 42.9681 57.8001 42.8549 57.7581 42.7533L56.095 38.7254Z" fill="#FED402"/>
<path d="M33.7554 51.2715L33.7534 51.2725V51.2715H33.7554Z" fill="#FF9350"/>
<path d="M37.3675 43.3541C37.3675 43.3541 37.497 43.5882 37.7483 43.8826C37.8021 43.9467 37.8588 44.0085 37.9181 44.0677C38.4585 44.5964 39.4658 45.1783 40.9054 45.1783H48.1629C48.8699 45.1783 49.5472 44.7479 49.6441 44.0677C49.6536 44.0016 49.6583 43.9349 49.6582 43.8681C49.6582 43.0934 49.0301 42.4654 48.2554 42.4654H47.5681L49.146 42.371C49.8554 42.3701 50.5353 41.9398 50.6377 41.2587C50.6481 41.1898 50.6535 41.1191 50.6535 41.0473V41.0467C50.6535 40.2631 50.0183 39.628 49.2349 39.628H47.5681L49.5443 39.535C50.2482 39.5343 50.922 39.1024 51.0118 38.423C51.0198 38.3629 51.0239 38.3016 51.0239 38.2393V38.2093C51.0239 37.4257 50.3886 36.7906 49.6052 36.7906H47.5681L49.1728 36.6981C49.8767 36.6981 50.5509 36.2666 50.6413 35.5873C50.6495 35.526 50.6536 35.4642 50.6535 35.4023V35.3415C50.6535 34.5747 50.0319 33.9531 49.2652 33.9531H46.0624C44.5759 33.9531 43.4958 32.6193 43.7696 31.1512L44.1049 29.3545C44.2841 28.394 43.8922 27.4316 43.1293 26.868C43.0108 26.7805 42.9411 26.7534 42.9411 26.7534C42.5246 26.5484 41.9227 26.7329 41.7741 27.1744L40.1721 31.935C39.7116 33.3036 38.6463 34.727 37.3675 35.3874L37.189 39.3016L37.3675 43.3541Z" fill="#FFE5C2"/>
<path d="M41.0974 32.4903L42.9407 26.7534L42.7473 26.6357C42.3308 26.4307 41.8298 26.6403 41.6812 27.0818L40.0793 31.8424C39.6187 33.211 38.646 34.6344 37.3672 35.2948L37.2754 35.9814L37.369 36.5693C39.3148 35.6573 40.4897 34.2503 41.0974 32.4903Z" fill="#FFE5C2"/>
<path d="M41.0974 32.4903L42.9407 26.7534L42.7473 26.6357C42.3308 26.4307 41.8298 26.6403 41.6812 27.0818L40.0793 31.8424C39.6187 33.211 38.646 34.6344 37.3672 35.2948L37.2754 35.9814L37.369 36.5693C39.3148 35.6573 40.4897 34.2503 41.0974 32.4903Z" fill="#F6DCBA"/>
<path d="M37.2756 44.1853C37.2756 44.7328 36.8318 45.1765 36.2844 45.1765H35.1972C34.6498 45.1765 34.2061 44.7327 34.2061 44.1853V35.0349C34.2061 34.4874 34.6499 34.0437 35.1972 34.0437L35.3167 33.9512H36.377C36.9245 33.9512 37.3682 34.395 37.3682 34.9423V44.0658L37.2756 44.1853Z" fill="#F8F7F7"/>
<path d="M35.5937 44.0659C35.52 44.0659 35.4494 44.0366 35.3973 43.9846C35.3453 43.9325 35.316 43.8619 35.316 43.7882V33.9512H35.104C34.5565 33.9512 34.1128 34.395 34.1128 34.9423V44.2778C34.1128 44.8253 34.5566 45.269 35.104 45.269H36.3763C36.9238 45.269 37.3675 44.8252 37.3675 44.2778V44.0658L35.5937 44.0659Z" fill="#E8E8E8"/>
<path d="M47.2947 36.5115C47.2947 36.5851 47.324 36.6558 47.376 36.7078C47.4281 36.7599 47.4987 36.7892 47.5724 36.7892H49.24C49.9713 36.7892 50.5414 36.2932 50.6455 35.5859H48.2202C47.7091 35.5859 47.2947 36.0003 47.2947 36.5115ZM47.2947 39.3472C47.2947 39.4208 47.324 39.4915 47.376 39.5435C47.4281 39.5956 47.4987 39.6249 47.5724 39.6249H49.6442C50.4019 39.6064 50.9314 39.058 51.0161 38.4216H48.2203C47.7091 38.4216 47.2947 38.836 47.2947 39.3472ZM47.2947 42.1829C47.2947 42.2566 47.324 42.3272 47.376 42.3793C47.4281 42.4313 47.4987 42.4606 47.5724 42.4606H49.3075C50.0501 42.425 50.5552 41.859 50.642 41.2574H48.2203C47.7091 41.2575 47.2947 41.6718 47.2947 42.1829ZM49.6484 44.0664H37.9224C38.4042 44.631 39.2122 45.2696 40.8171 45.2696H48.2597C49.0296 45.2696 49.5548 44.6841 49.6484 44.0664Z" fill="#FFE5C2"/>
<path d="M47.2947 36.5115C47.2947 36.5851 47.324 36.6558 47.376 36.7078C47.4281 36.7599 47.4987 36.7892 47.5724 36.7892H49.24C49.9713 36.7892 50.5414 36.2932 50.6455 35.5859H48.2202C47.7091 35.5859 47.2947 36.0003 47.2947 36.5115ZM47.2947 39.3472C47.2947 39.4208 47.324 39.4915 47.376 39.5435C47.4281 39.5956 47.4987 39.6249 47.5724 39.6249H49.6442C50.4019 39.6064 50.9314 39.058 51.0161 38.4216H48.2203C47.7091 38.4216 47.2947 38.836 47.2947 39.3472ZM47.2947 42.1829C47.2947 42.2566 47.324 42.3272 47.376 42.3793C47.4281 42.4313 47.4987 42.4606 47.5724 42.4606H49.3075C50.0501 42.425 50.5552 41.859 50.642 41.2574H48.2203C47.7091 41.2575 47.2947 41.6718 47.2947 42.1829ZM49.6484 44.0664H37.9224C38.4042 44.631 39.2122 45.2696 40.8171 45.2696H48.2597C49.0296 45.2696 49.5548 44.6841 49.6484 44.0664Z" fill="#F6DCBA"/>
<path d="M63.5481 21.6331C62.8732 20.0809 61.4236 19.0735 59.7649 19.004C57.9573 18.9278 56.2472 19.9633 54.9696 21.8734C53.692 19.9632 51.9798 18.9273 50.1744 19.004C48.5157 19.0735 47.066 20.0809 46.3912 21.6331C45.5572 23.5513 46.0705 25.8083 47.7994 27.8255C51.2059 31.7997 54.5765 33.5111 54.7182 33.582C54.7964 33.6207 54.8824 33.6408 54.9695 33.6408C55.0567 33.6408 55.1427 33.6207 55.2209 33.582C55.3627 33.5111 58.7333 31.7997 62.1397 27.8255C63.8687 25.8084 64.3821 23.5513 63.5481 21.6331Z" fill="#E58383"/>
<path d="M55.8365 33.0495C55.6946 32.9786 52.3241 31.2672 48.9177 27.293C47.1888 25.2759 46.6754 23.0188 47.5095 21.1006C47.8577 20.2997 48.4126 19.6443 49.0957 19.1874C47.9042 19.5525 46.9146 20.4283 46.3912 21.6322C45.5572 23.5504 46.0705 25.8074 47.7994 27.8245C51.2059 31.7987 54.5765 33.5101 54.7182 33.581C54.7964 33.6197 54.8824 33.6398 54.9695 33.6398C55.0567 33.6398 55.1427 33.6197 55.2209 33.581C55.2613 33.5608 55.564 33.4073 56.0546 33.1064C55.9788 33.1024 55.9046 33.083 55.8365 33.0495Z" fill="#DB7979"/>
</svg>
