<svg width="92" height="92" viewBox="0 0 92 92" fill="none" xmlns="http://www.w3.org/2000/svg">
<g id="svg">
<g id="Group 61">
<g id="Group">
<path id="Vector" d="M49.1067 60.2248H59.2541L70.1541 84.641C70.7518 85.9796 69.4607 87.3848 68.0762 86.9023L63.1585 85.1883C62.5351 84.971 61.8511 85.0096 61.2561 85.2955L57.801 86.957L57.1631 87.1652C56.2029 87.6267 55.0625 87.0794 54.8216 86.0418L49.1067 60.2248ZM43.7809 60.2012H33.4663L22.5985 84.545C21.9962 85.8943 23.1441 87.3049 24.5323 86.7981L24.8173 86.694L28.9795 85.1746C29.5927 84.9507 30.2692 84.9761 30.8639 85.2451L35.4444 87.3171C36.4005 87.7497 37.5135 87.1997 37.7509 86.1775L43.7809 60.2012Z" fill="#007F5F"/>
</g>
<path id="Vector_2" d="M51.6527 60.4398L48.7769 60.2266L54.796 86.1555C55.0369 87.1933 56.1773 87.7404 57.1374 87.2789L57.8058 86.9588L51.6527 60.4398Z" fill="#006B4B"/>
<path id="Vector_3" d="M66.5029 85.1937C65.8795 84.9765 65.1955 85.015 64.6005 85.3009L64.1233 85.5303L68.0752 86.9077C68.8038 87.1616 69.5063 86.8923 69.9215 86.3852L66.5029 85.1937Z" fill="#006B4B"/>
<path id="Vector_4" d="M36.313 60.2051H33.3022L22.4344 84.5489C21.8321 85.8982 23.1473 87.3088 24.5355 86.802L36.313 60.2051ZM33.5837 77.1832C33.3849 77.1832 33.1889 77.136 33.0119 77.0454C32.8349 76.9548 32.6819 76.8234 32.5657 76.6621C32.4494 76.5008 32.3731 76.3142 32.3432 76.1176C32.3132 75.9211 32.3304 75.7202 32.3933 75.5316L35.4041 66.4991C35.5123 66.1872 35.7391 65.9305 36.0352 65.7846C36.3314 65.6388 36.6731 65.6156 36.9863 65.72C37.2995 65.8244 37.5589 66.048 37.7083 66.3424C37.8577 66.6368 37.8851 66.9782 37.7845 67.2926L34.7737 76.3251C34.6904 76.5749 34.5307 76.7921 34.3171 76.9461C34.1036 77.1001 33.847 77.1831 33.5837 77.1832ZM59.3428 77.1832C59.0795 77.1831 58.8229 77.1002 58.6093 76.9462C58.3958 76.7922 58.2361 76.5749 58.1528 76.3251L54.8765 66.5203C54.6574 65.8629 55.2781 65.9247 55.9355 65.7055C56.2511 65.6004 56.5956 65.6249 56.8932 65.7736C57.1908 65.9224 57.4171 66.1833 57.5224 66.4989L60.5332 75.5314C60.5853 75.6877 60.6061 75.8527 60.5944 76.0171C60.5827 76.1814 60.5388 76.3418 60.4651 76.4892C60.3914 76.6366 60.2894 76.768 60.165 76.8759C60.0405 76.9838 59.896 77.0662 59.7397 77.1183C59.6118 77.1612 59.4777 77.1831 59.3428 77.1832Z" fill="#006B4B"/>
<path id="Vector_5" d="M75.9412 39.0284C75.8569 38.8241 75.8569 38.5948 75.9412 38.3905L78.8605 31.3205C79.7379 29.1959 78.9427 26.7487 76.9841 25.5456L70.4667 21.5418C70.2784 21.4261 70.1435 21.2405 70.0917 21.0256L68.2979 13.5899C67.7588 11.3553 65.6771 9.84288 63.3853 10.0207L55.7592 10.6125C55.5388 10.6295 55.3207 10.5586 55.1524 10.4153L49.3306 5.45409C47.5811 3.96322 45.0079 3.96322 43.2584 5.45409L37.4366 10.4153C37.2684 10.5586 37.0502 10.6295 36.8298 10.6125L29.2037 10.0207C26.9119 9.84288 24.8303 11.3553 24.2912 13.5899L22.4974 21.0256C22.4456 21.2405 22.3107 21.4261 22.1223 21.5418L15.6049 25.5454C13.6463 26.7486 12.8511 29.1959 13.7285 31.3203L16.6478 38.3903C16.7321 38.5946 16.7321 38.824 16.6478 39.0283L13.7285 46.0982C12.8511 48.2228 13.6463 50.67 15.6049 51.8731L22.1223 55.8769C22.3107 55.9926 22.4455 56.1782 22.4974 56.3931L24.2912 63.8288C24.8303 66.0634 26.9119 67.5758 29.2037 67.398L36.8298 66.8062C37.0502 66.7892 37.2684 66.8601 37.4366 67.0034L43.2584 71.9646C45.0079 73.4555 47.5811 73.4555 49.3306 71.9646L55.1524 67.0034C55.3207 66.8601 55.5388 66.7892 55.7592 66.8062L63.3853 67.398C65.6771 67.5758 67.7588 66.0634 68.2979 63.8288L70.0917 56.3931C70.1435 56.1782 70.2783 55.9926 70.4667 55.8769L76.9841 51.8731C78.9427 50.67 79.7379 48.2227 78.8605 46.098L75.9412 39.0284Z" fill="#FEE45A"/>
<path id="Vector_6" d="M27.8446 67.3092C26.1301 66.9345 24.7217 65.6114 24.2902 63.8317L22.4971 56.3949C22.4448 56.1805 22.3102 55.9954 22.1224 55.8797L15.6039 51.8753C13.6469 50.6726 12.8507 48.2255 13.7288 46.0995L16.6477 39.0307C16.7313 38.8267 16.7313 38.5958 16.6477 38.3918L13.7288 31.323C12.8507 29.197 13.6469 26.7499 15.6039 25.5472L22.1224 21.5428C22.3097 21.4274 22.4452 21.2417 22.4971 21.0276L24.2902 13.5908C24.4891 12.7687 24.9068 12.0157 25.499 11.4117C26.0912 10.8077 26.8359 10.3752 27.6539 10.1602L24.9358 21.6147C24.7267 22.4812 24.1948 23.2138 23.4354 23.6822L16.9186 27.6849C16.0037 28.2469 15.6374 29.3726 16.0472 30.3645L18.966 37.435C19.1349 37.8393 19.2219 38.2731 19.2219 38.7112C19.2219 39.1494 19.1349 39.5832 18.966 39.9875L16.0472 47.058C15.6374 48.0499 16.0037 49.1756 16.9186 49.7376L23.4371 53.742C24.1948 54.2087 24.7267 54.9413 24.9358 55.8078L27.8446 67.3092Z" fill="#F4DA50"/>
<path id="Vector_7" d="M71.3765 39.9846C71.0389 39.1673 71.0389 38.2496 71.3765 37.4324L74.3823 30.153C74.4582 29.9694 74.4661 29.7647 74.4047 29.5757C74.3433 29.3867 74.2166 29.2258 74.0472 29.1218L67.3368 24.9995C66.5833 24.5367 66.0439 23.7943 65.8365 22.9347L63.9895 15.2788C63.9429 15.0857 63.8291 14.9155 63.6683 14.7987C63.5076 14.6819 63.3105 14.6262 63.1124 14.6415L55.2605 15.2509C54.3789 15.3193 53.5061 15.0357 52.8331 14.4622L46.8388 9.35402C46.6876 9.2251 46.4953 9.1543 46.2966 9.1543C46.0979 9.1543 45.9057 9.2251 45.7544 9.35402L39.7602 14.4622C39.0872 15.0358 38.2144 15.3194 37.3328 15.2509L29.4808 14.6415C29.2827 14.6262 29.0856 14.6819 28.9248 14.7987C28.7641 14.9154 28.6502 15.0857 28.6035 15.2788L26.7565 22.9347C26.5492 23.7943 26.0098 24.5367 25.2563 24.9995L18.5458 29.1218C18.3765 29.2258 18.2498 29.3868 18.1884 29.5757C18.127 29.7647 18.1349 29.9694 18.2108 30.153L21.2166 37.4324C21.5542 38.2496 21.5542 39.1673 21.2166 39.9846L18.2108 47.264C18.1349 47.4476 18.127 47.6523 18.1884 47.8413C18.2498 48.0303 18.3765 48.1912 18.5458 48.2952L25.2563 52.4175C26.0097 52.8803 26.5491 53.6227 26.7565 54.4823L28.6035 62.1382C28.6501 62.3313 28.764 62.5015 28.9247 62.6183C29.0855 62.7351 29.2826 62.7908 29.4807 62.7754L37.3326 62.1661C38.2142 62.0977 39.087 62.3812 39.76 62.9548L44.669 67.1381C45.123 67.525 45.6999 67.7375 46.2964 67.7375C46.8928 67.7375 47.4698 67.525 47.9237 67.1381L52.8327 62.9548C53.5057 62.3812 54.3785 62.0976 55.2601 62.1661L63.112 62.7754C63.3102 62.7908 63.5073 62.7351 63.6681 62.6183C63.8289 62.5015 63.9428 62.3312 63.9894 62.138L65.8364 54.4821C66.0437 53.6225 66.5831 52.8801 67.3366 52.4173L74.0471 48.295C74.2164 48.191 74.3431 48.0301 74.4045 47.8411C74.4659 47.6521 74.458 47.4474 74.3821 47.2638L71.3765 39.9846Z" fill="#FED402"/>
<path id="Vector_8" d="M31.0038 62.6582L31.0002 62.66V62.6582H31.0038Z" fill="#FF9350"/>
<path id="Vector_9" d="M37.5316 48.3494C37.5316 48.3494 37.7657 48.7724 38.2198 49.3045C38.3171 49.4204 38.4195 49.5321 38.5267 49.639C39.5034 50.5944 41.3238 51.6462 43.9255 51.6462H57.0414C58.3191 51.6462 59.5432 50.8683 59.7183 49.639C59.7354 49.5195 59.7439 49.399 59.7438 49.2784C59.7438 47.8782 58.6087 46.7432 57.2086 46.7432H55.9665L58.8181 46.5726C60.1002 46.5711 61.3288 45.7935 61.514 44.5626C61.5327 44.4379 61.5424 44.3103 61.5426 44.1805V44.1793C61.5426 42.7633 60.3946 41.6155 58.9787 41.6155H55.9665L59.5378 41.4474C60.8101 41.4462 62.0276 40.6655 62.1901 39.4378C62.2044 39.3292 62.2118 39.2183 62.2118 39.1058V39.0516C62.2118 37.6355 61.0638 36.4877 59.6479 36.4877H55.9665L58.8664 36.3204C60.1387 36.3204 61.3571 35.5406 61.5205 34.313C61.5352 34.2022 61.5426 34.0905 61.5426 33.9786V33.8687C61.5426 32.4831 60.4192 31.3597 59.0335 31.3597H53.2454C50.5589 31.3597 48.6068 28.9492 49.1018 26.296L49.7076 23.049C50.0315 21.3131 49.3232 19.5738 47.9446 18.5553C47.7303 18.3971 47.6044 18.3482 47.6044 18.3482C46.8517 17.9777 45.7639 18.3111 45.4953 19.109L42.6002 27.7124C41.7679 30.1858 39.8428 32.7582 37.5316 33.9517L37.209 41.0257L37.5316 48.3494Z" fill="#FFE5C2"/>
<g id="Vector_10">
<path d="M44.2724 28.7156L47.6037 18.3478L47.2542 18.135C46.5015 17.7645 45.596 18.1434 45.3276 18.9413L42.4325 27.5447C41.6001 30.0181 39.8423 32.5905 37.5312 33.784L37.3652 35.0248L37.5343 36.0873C41.0508 34.4392 43.1743 31.8964 44.2724 28.7156Z" fill="#FFE5C2"/>
<path d="M44.2724 28.7156L47.6037 18.3478L47.2542 18.135C46.5015 17.7645 45.596 18.1434 45.3276 18.9413L42.4325 27.5447C41.6001 30.0181 39.8423 32.5905 37.5312 33.784L37.3652 35.0248L37.5343 36.0873C41.0508 34.4392 43.1743 31.8964 44.2724 28.7156Z" fill="#F6DCBA"/>
</g>
<path id="Vector_11" d="M37.3654 49.8509C37.3654 50.8403 36.5634 51.6421 35.5741 51.6421H33.6094C32.62 51.6421 31.8181 50.8401 31.8181 49.8509V33.314C31.8181 32.3246 32.6202 31.5227 33.6094 31.5227L33.8253 31.3555H35.7416C36.731 31.3555 37.5329 32.1575 37.5329 33.1467V49.6349L37.3654 49.8509Z" fill="#F8F7F7"/>
<path id="Vector_12" d="M34.326 49.6351C34.1929 49.6351 34.0652 49.5822 33.9711 49.4881C33.877 49.394 33.8242 49.2664 33.8242 49.1333V31.3555H33.4409C32.4515 31.3555 31.6497 32.1575 31.6497 33.1467V50.0181C31.6497 51.0075 32.4517 51.8094 33.4409 51.8094H35.7404C36.7298 51.8094 37.5317 51.0074 37.5317 50.0181V49.6349L34.326 49.6351Z" fill="#E8E8E8"/>
<g id="Group_2">
<g id="Vector_13">
<path d="M55.4724 35.9832C55.4724 36.1163 55.5253 36.244 55.6194 36.3381C55.7135 36.4322 55.8411 36.485 55.9742 36.485H58.988C60.3096 36.485 61.3398 35.5886 61.528 34.3105H57.1449C56.2212 34.3105 55.4724 35.0594 55.4724 35.9832ZM55.4724 41.108C55.4724 41.2411 55.5253 41.3687 55.6194 41.4628C55.7135 41.5569 55.8411 41.6098 55.9742 41.6098H59.7185C61.0878 41.5765 62.0447 40.5853 62.1978 39.4353H57.1451C56.2212 39.4353 55.4724 40.1842 55.4724 41.108ZM55.4724 46.2328C55.4724 46.3659 55.5253 46.4935 55.6194 46.5876C55.7135 46.6817 55.8411 46.7346 55.9742 46.7346H59.11C60.452 46.6704 61.3649 45.6473 61.5217 44.5601H57.1451C56.2212 44.5603 55.4724 45.3091 55.4724 46.2328ZM59.726 49.6367H38.5344C39.4052 50.657 40.8655 51.8112 43.7659 51.8112H57.2163C58.6077 51.8112 59.5569 50.7531 59.726 49.6367Z" fill="#FFE5C2"/>
<path d="M55.4724 35.9832C55.4724 36.1163 55.5253 36.244 55.6194 36.3381C55.7135 36.4322 55.8411 36.485 55.9742 36.485H58.988C60.3096 36.485 61.3398 35.5886 61.528 34.3105H57.1449C56.2212 34.3105 55.4724 35.0594 55.4724 35.9832ZM55.4724 41.108C55.4724 41.2411 55.5253 41.3687 55.6194 41.4628C55.7135 41.5569 55.8411 41.6098 55.9742 41.6098H59.7185C61.0878 41.5765 62.0447 40.5853 62.1978 39.4353H57.1451C56.2212 39.4353 55.4724 40.1842 55.4724 41.108ZM55.4724 46.2328C55.4724 46.3659 55.5253 46.4935 55.6194 46.5876C55.7135 46.6817 55.8411 46.7346 55.9742 46.7346H59.11C60.452 46.6704 61.3649 45.6473 61.5217 44.5601H57.1451C56.2212 44.5603 55.4724 45.3091 55.4724 46.2328ZM59.726 49.6367H38.5344C39.4052 50.657 40.8655 51.8112 43.7659 51.8112H57.2163C58.6077 51.8112 59.5569 50.7531 59.726 49.6367Z" fill="#F6DCBA"/>
</g>
</g>
</g>
<g id="Group 62">
<path id="Vector_14" d="M84.8459 9.09461C83.6263 6.28943 81.0065 4.46869 78.0088 4.34311C74.7422 4.20547 71.6516 6.07686 69.3427 9.52875C67.0338 6.07674 63.9394 4.20458 60.6766 4.34311C57.6789 4.46882 55.0591 6.28943 53.8395 9.09461C52.3323 12.5612 53.26 16.6401 56.3845 20.2857C62.5408 27.4679 68.6323 30.5608 68.8884 30.6889C69.0296 30.7588 69.185 30.7952 69.3426 30.7952C69.5002 30.7952 69.6556 30.7588 69.7968 30.6889C70.0532 30.5608 76.1445 27.4679 82.3008 20.2857C85.4254 16.6403 86.3531 12.5612 84.8459 9.09461Z" fill="#E58383"/>
<path id="Vector_15" d="M70.9094 29.7257C70.653 29.5976 64.5616 26.5047 58.4055 19.3225C55.281 15.6771 54.3532 11.598 55.8605 8.13143C56.4899 6.68388 57.4927 5.49944 58.7273 4.67383C56.5739 5.3336 54.7855 6.91638 53.8395 9.09201C52.3323 12.5586 53.26 16.6375 56.3845 20.2831C62.5408 27.4653 68.6323 30.5582 68.8884 30.6863C69.0296 30.7562 69.185 30.7926 69.3426 30.7926C69.5002 30.7926 69.6556 30.7562 69.7968 30.6863C69.8698 30.6498 70.417 30.3723 71.3035 29.8286C71.1665 29.8213 71.0324 29.7863 70.9094 29.7257Z" fill="#DB7979"/>
</g>
</g>
</svg>
