<svg width="24" height="25" viewBox="0 0 24 25" fill="none" xmlns="http://www.w3.org/2000/svg">
<g clip-path="url(#clip0_4_4697)">
<path d="M9.84134 14.664L3.48047 12.5437L9.84134 10.4234L11.9616 4.06253L14.0819 10.4234L20.4428 12.5437L14.0819 14.664L11.9616 21.0249L9.84134 14.664Z" stroke="black" stroke-width="1.3" stroke-miterlimit="10" stroke-linecap="round" stroke-linejoin="round"/>
<path d="M21.4268 4.95318L23.3017 4.01568L21.4268 3.07813L20.4892 1.20319L19.5518 3.07813L17.6768 4.01568L19.5518 4.95318L20.4892 6.82817L21.4268 4.95318Z" stroke="black" stroke-width="1.3" stroke-miterlimit="10" stroke-linecap="round" stroke-linejoin="round"/>
<path d="M4.45311 21.9219L6.32811 20.9844L4.45311 20.0468L3.51562 18.1719L2.57807 20.0468L0.703125 20.9844L2.57807 21.9219L3.51562 23.7969L4.45311 21.9219Z" stroke="black" stroke-width="1.3" stroke-miterlimit="10" stroke-linecap="round" stroke-linejoin="round"/>
<path d="M19.0312 16.7624V19.5749" stroke="black" stroke-width="1.3" stroke-miterlimit="10" stroke-linecap="round" stroke-linejoin="round"/>
<path d="M17.625 18.1687H20.4375" stroke="black" stroke-width="1.3" stroke-miterlimit="10" stroke-linecap="round" stroke-linejoin="round"/>
<path d="M4.96875 4.10618V6.91867" stroke="black" stroke-width="1.3" stroke-miterlimit="10" stroke-linecap="round" stroke-linejoin="round"/>
<path d="M3.5625 5.51244H6.37499" stroke="black" stroke-width="1.3" stroke-miterlimit="10" stroke-linecap="round" stroke-linejoin="round"/>
</g>
<defs>
<clipPath id="clip0_4_4697">
<rect width="24" height="24" fill="white" transform="translate(0 0.5)"/>
</clipPath>
</defs>
</svg>
