<svg width="32" height="32" viewBox="0 0 32 32" fill="none" xmlns="http://www.w3.org/2000/svg">
<path d="M8.2974 5.52316H7.64474C6.55502 5.52316 5.67158 4.63973 5.67158 3.55001V2.48837C5.67158 2.43421 5.68224 2.38057 5.70296 2.33053C5.72369 2.28048 5.75407 2.23501 5.79237 2.19671C5.83067 2.15841 5.87614 2.12803 5.92618 2.10731C5.97623 2.08658 6.02986 2.07592 6.08403 2.07593H6.32425C7.41397 2.07593 8.2974 2.95936 8.2974 4.04908V5.52316ZM6.3513 7.35809L6.65411 7.93627C7.15974 8.90164 8.35222 9.2743 9.31752 8.76867L10.258 8.27609C10.3548 8.22533 10.4276 8.13817 10.4602 8.03377C10.4929 7.92937 10.4827 7.81628 10.432 7.71938L10.3205 7.50653C9.81486 6.54116 8.62238 6.1685 7.65708 6.67413L6.3513 7.35809ZM4.80499 9.28401H4.15226C3.06254 9.28401 2.17911 8.40057 2.17911 7.31085V6.24921C2.1791 6.19505 2.18976 6.14141 2.21049 6.09137C2.23121 6.04133 2.26159 5.99585 2.29989 5.95755C2.33819 5.91925 2.38366 5.88887 2.43371 5.86815C2.48375 5.84742 2.53739 5.83676 2.59155 5.83677H2.83177C3.92149 5.83677 4.80492 6.7202 4.80492 7.80992V9.28401H4.80499ZM2.84366 14.9287H2.19093C1.10121 14.9287 0.217778 14.0453 0.217778 12.9556V11.8939C0.21777 11.8398 0.228432 11.7861 0.249157 11.7361C0.269881 11.6861 0.300261 11.6406 0.338562 11.6023C0.376862 11.564 0.422333 11.5336 0.472377 11.5129C0.522421 11.4922 0.576058 11.4815 0.630223 11.4815H0.870441C1.96016 11.4815 2.84359 12.3649 2.84359 13.4547L2.84366 14.9287ZM2.90812 16.2512L3.52755 16.4569C4.56175 16.8003 5.67859 16.2403 6.02201 15.2061L6.35657 14.1986C6.37365 14.1472 6.38043 14.0929 6.37653 14.0389C6.37263 13.9849 6.35813 13.9321 6.33386 13.8837C6.30958 13.8353 6.27601 13.7921 6.23505 13.7567C6.19409 13.7212 6.14655 13.6942 6.09515 13.6771L5.86714 13.6014C4.83294 13.258 3.7161 13.818 3.37268 14.8522L2.90812 16.2512ZM4.47429 22.602L5.122 22.5214C6.20343 22.3871 6.97119 21.4014 6.83675 20.32L6.70584 19.2665C6.69917 19.2127 6.68197 19.1608 6.65523 19.1137C6.62849 19.0666 6.59273 19.0252 6.55 18.9919C6.50726 18.9586 6.45839 18.9341 6.40617 18.9197C6.35395 18.9053 6.29941 18.9013 6.24565 18.908L6.00723 18.9376C4.9258 19.072 4.15804 20.0576 4.29248 21.1391L4.47429 22.602ZM3.55512 20.6536L2.94449 20.8841C1.92494 21.269 0.786448 20.7546 0.401573 19.7351L0.0265937 18.7419C0.0074572 18.6912 -0.00150906 18.6373 0.00020703 18.5831C0.00192312 18.529 0.0142879 18.4757 0.0365952 18.4264C0.0589025 18.377 0.0907152 18.3325 0.130216 18.2955C0.169717 18.2584 0.216133 18.2295 0.266812 18.2104L0.491542 18.1255C1.51109 17.7407 2.64958 18.2551 3.03446 19.2746L3.55512 20.6536ZM6.07214 24.9196L5.6106 25.3812C4.84001 26.1518 3.59066 26.1518 2.82014 25.3812L2.06947 24.6305C1.99213 24.5532 1.94869 24.4483 1.94869 24.3389C1.94869 24.2295 1.99213 24.1246 2.06947 24.0473L2.23932 23.8774C3.00991 23.1068 4.25926 23.1068 5.02978 23.8774L6.07214 24.9196ZM10.1759 28.1004L9.85728 28.67C9.3253 29.6211 8.12305 29.9609 7.17195 29.429L6.2454 28.9107C6.14993 28.8573 6.07958 28.7682 6.04982 28.6629C6.02006 28.5577 6.03334 28.4449 6.08673 28.3494L6.20401 28.1398C6.73598 27.1887 7.93823 26.8489 8.88933 27.3808L10.1759 28.1004ZM12.0954 28.8519L12.4217 28.2867C12.9666 27.3429 12.6432 26.1361 11.6995 25.5912L10.7801 25.0604C10.6854 25.0057 10.5728 24.9909 10.4671 25.0192C10.3615 25.0475 10.2714 25.1167 10.2167 25.2114L10.0966 25.4194C9.5517 26.3632 9.87508 27.5699 10.8189 28.1148L12.0954 28.8519ZM23.7025 5.52316H24.3552C25.4449 5.52316 26.3283 4.63973 26.3283 3.55001V2.48837C26.3283 2.43421 26.3177 2.38057 26.2969 2.33053C26.2762 2.28048 26.2458 2.23501 26.2075 2.19671C26.1692 2.15841 26.1238 2.12803 26.0737 2.10731C26.0237 2.08658 25.97 2.07592 25.9159 2.07593H25.6757C24.5859 2.07593 23.7025 2.95936 23.7025 4.04908V5.52316ZM25.6485 7.35809L25.3457 7.93627C24.8401 8.90164 23.6476 9.2743 22.6823 8.76867L21.7419 8.27609C21.6939 8.25097 21.6513 8.21663 21.6166 8.17505C21.5819 8.13348 21.5557 8.08547 21.5396 8.03377C21.5234 7.98207 21.5176 7.9277 21.5225 7.87375C21.5273 7.81981 21.5428 7.76735 21.5679 7.71938L21.6794 7.50653C22.185 6.54116 23.3775 6.1685 24.3428 6.67413L25.6485 7.35809ZM27.1949 9.28401H27.8475C28.9372 9.28401 29.8207 8.40057 29.8207 7.31085V6.24921C29.8207 6.19505 29.81 6.14141 29.7893 6.09137C29.7686 6.04133 29.7382 5.99585 29.6999 5.95755C29.6616 5.91925 29.6161 5.88887 29.5661 5.86815C29.516 5.84742 29.4624 5.83676 29.4082 5.83677H29.168C28.0783 5.83677 27.1949 6.7202 27.1949 7.80992V9.28401ZM29.1563 14.9287H29.8089C30.8986 14.9287 31.7821 14.0453 31.7821 12.9556V11.8939C31.7821 11.8398 31.7714 11.7861 31.7507 11.7361C31.73 11.6861 31.6996 11.6406 31.6613 11.6023C31.623 11.564 31.5775 11.5336 31.5275 11.5129C31.4774 11.4922 31.4238 11.4815 31.3696 11.4815H31.1294C30.0397 11.4815 29.1563 12.3649 29.1563 13.4547V14.9287ZM29.0917 16.2512L28.4723 16.4569C27.4381 16.8003 26.3213 16.2403 25.9778 15.2061L25.6433 14.1986C25.6262 14.1472 25.6194 14.0929 25.6233 14.0389C25.6272 13.9849 25.6417 13.9321 25.666 13.8837C25.6903 13.8353 25.7238 13.7921 25.7648 13.7567C25.8058 13.7212 25.8533 13.6942 25.9047 13.6771L26.1327 13.6014C27.1669 13.258 28.2837 13.818 28.6272 14.8522L29.0917 16.2512ZM27.5256 22.602L26.8778 22.5215C25.7964 22.3871 25.0287 21.4015 25.1631 20.3201L25.294 19.2665C25.3007 19.2128 25.3179 19.1609 25.3446 19.1138C25.3714 19.0667 25.4071 19.0253 25.4499 18.992C25.4926 18.9587 25.5415 18.9342 25.5937 18.9198C25.6459 18.9054 25.7004 18.9014 25.7542 18.9081L25.9926 18.9377C27.074 19.0721 27.8418 20.0577 27.7074 21.1391L27.5256 22.602ZM28.4447 20.6536L29.0554 20.8841C30.0749 21.269 31.2134 20.7546 31.5983 19.7351L31.9733 18.7419C31.9924 18.6912 32.0014 18.6373 31.9996 18.5831C31.9979 18.529 31.9856 18.4757 31.9633 18.4264C31.9409 18.377 31.9091 18.3325 31.8696 18.2955C31.8301 18.2584 31.7837 18.2295 31.733 18.2104L31.5083 18.1255C30.4888 17.7407 29.3503 18.2551 28.9654 19.2746L28.4447 20.6536ZM25.9278 24.9196L26.3893 25.3812C27.1599 26.1518 28.4093 26.1518 29.1798 25.3812L29.9304 24.6305C30.0078 24.5532 30.0512 24.4483 30.0512 24.3389C30.0512 24.2295 30.0078 24.1246 29.9304 24.0473L29.7606 23.8774C28.99 23.1068 27.7407 23.1068 26.9701 23.8774L25.9278 24.9196ZM21.824 28.1004L22.1426 28.67C22.6745 29.6211 23.8768 29.9609 24.8279 29.429L25.7545 28.9107C25.8499 28.8573 25.9203 28.7682 25.95 28.6629C25.9798 28.5577 25.9665 28.4449 25.9131 28.3494L25.7958 28.1398C25.2639 27.1887 24.0616 26.8489 23.1105 27.3808L21.824 28.1004ZM19.9045 28.8519L19.5781 28.2867C19.0332 27.3429 19.3566 26.1361 20.3004 25.5912L21.2197 25.0604C21.3145 25.0057 21.4271 24.9909 21.5327 25.0192C21.6384 25.0475 21.7285 25.1167 21.7831 25.2114L21.9033 25.4194C22.4481 26.3632 22.1248 27.5699 21.181 28.1148L19.9045 28.8519Z" fill="#FEE45A"/>
<path d="M16.8103 7.68528L18.4253 10.9576C18.4899 11.0884 18.5853 11.2016 18.7034 11.2874C18.8214 11.3732 18.9586 11.4289 19.103 11.4499L22.7141 11.9746C23.4523 12.0819 23.747 12.989 23.2129 13.5098L20.5999 16.0569C20.4954 16.1588 20.4172 16.2845 20.3721 16.4233C20.327 16.5621 20.3163 16.7097 20.341 16.8535L20.9579 20.4501C21.084 21.1853 20.3123 21.746 19.652 21.3988L16.4221 19.7007C16.2929 19.6328 16.1492 19.5974 16.0033 19.5974C15.8573 19.5974 15.7136 19.6328 15.5845 19.7007L12.3545 21.3988C11.6942 21.7459 10.9226 21.1853 11.0487 20.4501L11.6655 16.8535C11.6902 16.7097 11.6795 16.5621 11.6344 16.4233C11.5893 16.2845 11.5112 16.1588 11.4067 16.0569L8.79358 13.5098C8.25942 12.9891 8.55419 12.082 9.29239 11.9746L12.9036 11.4499C13.048 11.4289 13.1851 11.3731 13.3031 11.2874C13.4212 11.2016 13.5166 11.0884 13.5812 10.9576L15.1962 7.68528C15.5264 7.01636 16.4802 7.01636 16.8103 7.68528Z" fill="#FED402"/>
<path d="M14.8377 17.8198C14.8624 17.676 14.8517 17.5283 14.8066 17.3896C14.7616 17.2508 14.6834 17.1251 14.5789 17.0232L11.9658 14.4761C11.4316 13.9554 11.7264 13.0482 12.4646 12.9409L16.0758 12.4162C16.2202 12.3952 16.3573 12.3394 16.4754 12.2537C16.5934 12.1679 16.6889 12.0547 16.7534 11.9239L17.8279 9.74682L16.8103 7.68492C16.4801 7.016 15.5263 7.016 15.1961 7.68492L13.5812 10.9572C13.5166 11.0881 13.4212 11.2013 13.3031 11.287C13.1851 11.3728 13.0479 11.4286 12.9035 11.4496L9.29236 11.9743C8.55417 12.0815 8.25945 12.9887 8.79355 13.5094L11.4066 16.0566C11.5111 16.1584 11.5893 16.2841 11.6344 16.4229C11.6795 16.5617 11.6902 16.7093 11.6655 16.8532L11.0486 20.4498C10.9225 21.1849 11.6942 21.7456 12.3545 21.3985L14.4092 20.3182L14.8377 17.8198Z" fill="#FAC600"/>
<path d="M16.0028 29.9239C8.48266 29.9239 2.36456 23.8058 2.36456 16.2857C2.36456 13.4663 3.21773 10.7605 4.83178 8.46079C6.40932 6.2131 8.59435 4.5105 11.1506 3.53696C11.2697 3.49282 11.4015 3.49752 11.5172 3.55003C11.6329 3.60254 11.7232 3.69862 11.7684 3.81737C11.8137 3.93611 11.8102 4.06791 11.7587 4.18409C11.7073 4.30027 11.612 4.39144 11.4937 4.43775C9.1181 5.34245 7.08731 6.92508 5.62081 9.01448C4.12121 11.1511 3.32858 13.6654 3.32858 16.2856C3.32858 23.2742 9.01425 28.9599 16.0029 28.9599C22.9915 28.9599 28.6772 23.2742 28.6772 16.2856C28.6772 13.6654 27.8845 11.1512 26.3849 9.01448C24.9184 6.92501 22.8876 5.34245 20.5121 4.43775C20.2633 4.34302 20.1385 4.06457 20.2332 3.81581C20.328 3.56704 20.6064 3.44218 20.8552 3.53696C23.4114 4.51043 25.5964 6.2131 27.174 8.46079C28.788 10.7605 29.6412 13.4663 29.6412 16.2857C29.6411 23.8058 23.523 29.9239 16.0028 29.9239Z" fill="#FED402"/>
</svg>
