<svg width="32" height="32" viewBox="0 0 32 32" fill="none" xmlns="http://www.w3.org/2000/svg">
<path d="M10.6667 11.6079H21.3333M10.6667 16.6275H18.6667M24 5.33337C25.0609 5.33337 26.0783 5.73001 26.8284 6.43603C27.5786 7.14205 28 8.09962 28 9.09808V19.1373C28 20.1358 27.5786 21.0933 26.8284 21.7993C26.0783 22.5054 25.0609 22.902 24 22.902H17.3333L10.6667 26.6667V22.902H8C6.93913 22.902 5.92172 22.5054 5.17157 21.7993C4.42143 21.0933 4 20.1358 4 19.1373V9.09808C4 8.09962 4.42143 7.14205 5.17157 6.43603C5.92172 5.73001 6.93913 5.33337 8 5.33337H24Z" stroke="black" stroke-width="2" stroke-linecap="round" stroke-linejoin="round"/>
</svg>
