<svg width="24" height="25" viewBox="0 0 24 25" fill="none" xmlns="http://www.w3.org/2000/svg">
<path d="M4.54455 22.4226L4.38676 20.6869C4.37335 20.5392 4.30859 20.4009 4.20374 20.2961C4.0989 20.1912 3.96061 20.1265 3.81295 20.113L2.0772 19.9553C1.54202 19.9066 1.30642 19.2559 1.6864 18.8759L8.85311 11.7092L12.7906 15.6467L5.62393 22.8134C5.24391 23.1934 4.5932 22.9577 4.54455 22.4226Z" fill="#007F5F"/>
<path d="M8.85317 11.7092L4.73792 15.8244C5.14988 16.321 5.90363 16.5606 6.3596 17.0165C6.86791 17.5249 7.10728 18.4032 7.7336 18.7656C8.21016 19.0413 8.8423 18.9682 9.43018 19.0072L12.7907 15.6467L8.85317 11.7092Z" fill="#006B4B"/>
<path d="M19.4553 22.4226L19.6131 20.6869C19.6265 20.5392 19.6913 20.4009 19.7961 20.2961C19.901 20.1912 20.0393 20.1265 20.1869 20.113L21.9227 19.9553C22.4578 19.9066 22.6934 19.2559 22.3135 18.8759L15.1468 11.7092L11.2092 15.6467L18.3759 22.8134C18.756 23.1934 19.4067 22.9577 19.4553 22.4226Z" fill="#007F5F"/>
<path d="M19.262 15.8244L15.1468 11.7092L11.2092 15.6467L14.5697 19.0072C15.1577 18.9682 15.7897 19.0414 16.2663 18.7656C16.8926 18.4033 17.132 17.5249 17.6403 17.0166C18.0963 16.5606 18.85 16.321 19.262 15.8244Z" fill="#006B4B"/>
<path d="M8.85296 11.7092L8.43042 12.1317L10.9341 14.6354C10.9559 14.6572 10.9732 14.6831 10.985 14.7116C10.9969 14.7402 11.0029 14.7707 11.0029 14.8016C11.0029 14.8325 10.9969 14.8631 10.985 14.8916C10.9732 14.9201 10.9559 14.9461 10.9341 14.9679L4.45569 21.4463L4.54445 22.4226C4.59309 22.9578 5.24385 23.1934 5.62382 22.8134L12.7905 15.6467L8.85296 11.7092ZM22.3134 18.8759L15.1467 11.7092L14.5129 12.343L19.8457 17.6758C20.3667 18.1968 20.0437 19.0889 19.31 19.1556L18.2693 19.2502C17.8515 19.2882 17.5206 19.6192 17.4826 20.0369L17.388 21.0776C17.3689 21.2868 17.2828 21.4626 17.1574 21.5949L18.3759 22.8134C18.7559 23.1934 19.4066 22.9578 19.4553 22.4226L19.613 20.6869C19.6265 20.5392 19.6912 20.4009 19.7961 20.2961C19.9009 20.1912 20.0392 20.1265 20.1869 20.113L21.9226 19.9553C22.4577 19.9066 22.6934 19.2559 22.3134 18.8759Z" fill="#006B4B"/>
<path d="M20.5313 10.5312C20.5313 11.2702 19.889 11.9149 19.7068 12.5965C19.5183 13.3018 19.7467 14.1802 19.3895 14.7977C19.0271 15.424 18.1487 15.6633 17.6404 16.1716C17.1321 16.68 16.8927 17.5583 16.2664 17.9207C15.649 18.2779 14.7705 18.0496 14.0653 18.2381C13.3837 18.4203 12.739 19.0625 11.9999 19.0625C11.2609 19.0625 10.6162 18.4203 9.93462 18.2381C9.2294 18.0496 8.35092 18.2779 7.73351 17.9207C7.10719 17.5584 6.86782 16.68 6.35951 16.1717C5.8512 15.6634 4.97285 15.424 4.61047 14.7977C4.25322 14.1802 4.48156 13.3018 4.29309 12.5966C4.1109 11.915 3.46863 11.2702 3.46863 10.5312C3.46863 9.7922 4.1109 9.14751 4.29305 8.46591C4.48156 7.76068 4.25322 6.8822 4.61043 6.26479C4.9728 5.63847 5.8512 5.3991 6.35947 4.89079C6.86778 4.38248 7.10715 3.50413 7.73346 3.14175C8.35092 2.7845 9.22936 3.01284 9.93458 2.82437C10.6162 2.64218 11.2609 1.99991 11.9999 1.99991C12.739 1.99991 13.3837 2.64218 14.0653 2.82433C14.7705 3.01284 15.649 2.7845 16.2664 3.14171C16.8927 3.50409 17.1321 4.38248 17.6404 4.89075C18.1487 5.39906 19.027 5.63843 19.3894 6.26474C19.7467 6.8822 19.5183 7.76064 19.7068 8.46586C19.889 9.14747 20.5313 9.7922 20.5313 10.5312Z" fill="#FEE45A"/>
<path d="M12 17.9391C15.6244 17.9391 18.5626 15.0009 18.5626 11.3765C18.5626 7.75215 15.6244 4.814 12 4.814C8.37565 4.814 5.4375 7.75215 5.4375 11.3765C5.4375 15.0009 8.37565 17.9391 12 17.9391Z" fill="#FEDF30"/>
<path d="M11.9999 17.0938C15.6243 17.0938 18.5625 14.1556 18.5625 10.5312C18.5625 6.90684 15.6243 3.96869 11.9999 3.96869C8.37553 3.96869 5.43738 6.90684 5.43738 10.5312C5.43738 14.1556 8.37553 17.0938 11.9999 17.0938Z" fill="#FED402"/>
<path d="M12.6125 7.16487L13.4104 8.79415C13.4589 8.8932 13.5307 8.97901 13.6196 9.04422C13.7086 9.10943 13.812 9.15211 13.9211 9.16858L15.7564 9.44577C16.3203 9.53096 16.5369 10.2295 16.12 10.6188L14.8078 11.8438C14.7246 11.9215 14.6621 12.0188 14.6261 12.1269C14.5901 12.235 14.5818 12.3504 14.6019 12.4625L14.9301 14.2963C15.0314 14.8625 14.4296 15.2922 13.927 15.0124L12.3316 14.1246C12.2302 14.0681 12.116 14.0385 12 14.0385C11.8839 14.0385 11.7697 14.0681 11.6683 14.1246L10.0729 15.0124C9.57033 15.2921 8.96846 14.8625 9.06981 14.2963L9.39802 12.4625C9.4181 12.3504 9.40976 12.235 9.37379 12.1269C9.33782 12.0188 9.27535 11.9215 9.19208 11.8438L7.87994 10.6188C7.46301 10.2295 7.67954 9.53096 8.24355 9.44577L10.0789 9.16858C10.1879 9.15211 10.2914 9.10944 10.3803 9.04423C10.4693 8.97901 10.5411 8.8932 10.5896 8.79415L11.3875 7.16487C11.6368 6.65541 12.363 6.65541 12.6125 7.16487Z" fill="#FAC600"/>
<path d="M14.0559 4.29745C15.7583 5.48306 16.8723 7.45461 16.8723 9.68637C16.8723 13.3108 13.9342 16.2489 10.3098 16.2489C9.59168 16.2489 8.90052 16.1335 8.25378 15.9204C9.31601 16.6602 10.6073 17.094 11.9999 17.094C15.6243 17.094 18.5625 14.1559 18.5625 10.5315C18.5625 7.6252 16.6733 5.16018 14.0559 4.29745Z" fill="#FAC600"/>
<path d="M12.6126 6.31953L13.4105 7.94881C13.459 8.04786 13.5308 8.13367 13.6197 8.19888C13.7087 8.2641 13.8121 8.30677 13.9212 8.32324L15.7565 8.60043C16.3204 8.68562 16.537 9.3842 16.1201 9.77344L14.8079 10.9984C14.7247 11.0762 14.6622 11.1735 14.6262 11.2816C14.5903 11.3897 14.5819 11.505 14.602 11.6171L14.9302 13.451C15.0315 14.0172 14.4297 14.4468 13.9271 14.1671L12.3318 13.2792C12.2303 13.2228 12.1162 13.1932 12.0001 13.1932C11.884 13.1932 11.7698 13.2228 11.6684 13.2792L10.073 14.1671C9.57045 14.4468 8.96858 14.0171 9.06994 13.451L9.39814 11.6171C9.41822 11.505 9.40989 11.3897 9.37391 11.2816C9.33794 11.1735 9.27547 11.0762 9.1922 10.9984L7.88006 9.77344C7.46314 9.3842 7.67966 8.68562 8.24367 8.60043L10.079 8.32324C10.1881 8.30678 10.2915 8.2641 10.3804 8.19889C10.4694 8.13368 10.5412 8.04786 10.5897 7.94881L11.3876 6.31953C11.637 5.81007 12.3631 5.81007 12.6126 6.31953Z" fill="#FFF844"/>
<path d="M15.7564 8.60044L13.9469 8.32715C14.2432 8.74707 14.2366 9.36227 13.8017 9.76828L13.283 10.2525C13.149 10.3776 13.0485 10.5343 12.9906 10.7082C12.9327 10.8821 12.9193 11.0678 12.9516 11.2483L13.0856 11.997C13.1945 12.6058 12.7982 13.1166 12.282 13.2542C12.2988 13.2619 12.3154 13.2702 12.3317 13.2792L13.927 14.1671C14.4296 14.4468 15.0314 14.0171 14.9301 13.451L14.6019 11.6172C14.5818 11.505 14.5902 11.3897 14.6261 11.2816C14.6621 11.1735 14.7246 11.0762 14.8078 10.9984L16.12 9.77345C16.5369 9.38421 16.3204 8.68563 15.7564 8.60044Z" fill="#F5ED3A"/>
</svg>
