<svg width="24" height="25" viewBox="0 0 24 25" fill="none" xmlns="http://www.w3.org/2000/svg">
<path d="M11.5514 6.71296V12.0586M14.8811 17.8164V19.1703C14.8811 21.0092 13.3904 22.4999 11.5514 22.4999C9.71244 22.4999 8.22168 21.0092 8.22168 19.1703V9.20933H14.8811V14.1579V17.8164ZM15.1244 6.07288C16.0146 5.18272 16.2885 3.88338 15.982 2.6207C14.7193 2.31416 13.4199 2.5881 12.5297 3.47826C11.6395 4.36842 11.3656 5.66776 11.6721 6.9304C12.9349 7.23698 14.2342 6.96304 15.1244 6.07288Z" stroke="black" stroke-width="1.1" stroke-miterlimit="10" stroke-linecap="round" stroke-linejoin="round"/>
<path d="M14.8811 12.9513C13.8348 13.0974 12.7334 12.8856 11.7746 12.2703C10.6781 11.5667 9.39523 11.3904 8.22163 11.6743M7.97834 6.07291C7.08816 5.18275 6.81421 3.8834 7.12076 2.62073C8.38347 2.31418 9.6828 2.58812 10.573 3.47828C11.4632 4.36844 11.7371 5.66779 11.4306 6.93043C10.1679 7.23701 8.86852 6.96307 7.97834 6.07291Z" stroke="black" stroke-width="1.1" stroke-miterlimit="10" stroke-linecap="round" stroke-linejoin="round"/>
<path d="M10.7843 15.8546C11.3015 15.8546 11.7209 15.4353 11.7209 14.918C11.7209 14.4008 11.3015 13.9815 10.7843 13.9815C10.267 13.9815 9.84766 14.4008 9.84766 14.918C9.84766 15.4353 10.267 15.8546 10.7843 15.8546Z" stroke="black" stroke-width="1.1" stroke-miterlimit="10" stroke-linecap="round" stroke-linejoin="round"/>
<path d="M12.4419 18.8468C12.8909 18.8468 13.2549 18.4828 13.2549 18.0338C13.2549 17.5848 12.8909 17.2208 12.4419 17.2208C11.9929 17.2208 11.6289 17.5848 11.6289 18.0338C11.6289 18.4828 11.9929 18.8468 12.4419 18.8468Z" stroke="black" stroke-width="1.1" stroke-miterlimit="10" stroke-linecap="round" stroke-linejoin="round"/>
<path d="M11.6717 6.93047L13.2162 5.38604M11.4302 6.93047L9.88574 5.38604" stroke="black" stroke-width="1.1" stroke-miterlimit="10" stroke-linecap="round" stroke-linejoin="round"/>
</svg>
