<svg width="55" height="55" viewBox="0 0 55 55" fill="none" xmlns="http://www.w3.org/2000/svg">
<path d="M40.6172 31.0879V14.8011" stroke="#C3C3C3" stroke-width="3" stroke-miterlimit="10" stroke-linecap="round" stroke-linejoin="round"/>
<path d="M40.6199 50.1519V50.1523H4.84766V4.84718H30.666" stroke="#C3C3C3" stroke-width="3" stroke-miterlimit="10" stroke-linecap="round" stroke-linejoin="round"/>
<path d="M30.668 4.84774V14.8008H40.6219" stroke="#C3C3C3" stroke-width="3" stroke-miterlimit="10" stroke-linecap="round" stroke-linejoin="round"/>
<path d="M40.6215 14.8047L30.668 4.85118" stroke="#C3C3C3" stroke-width="3" stroke-miterlimit="10" stroke-linecap="round" stroke-linejoin="round"/>
<path d="M50.1595 40.6195C50.1595 45.8844 45.8915 50.1523 40.6266 50.1523C35.3617 50.1523 31.0938 45.8844 31.0938 40.6195C31.0938 35.3546 35.3617 31.0866 40.6266 31.0866C45.8915 31.0866 50.1595 35.3546 50.1595 40.6195Z" stroke="#C3C3C3" stroke-width="3" stroke-miterlimit="10" stroke-linecap="round" stroke-linejoin="round"/>
<path d="M40.6172 36.7298V40.623" stroke="#C3C3C3" stroke-width="3" stroke-miterlimit="10" stroke-linecap="round" stroke-linejoin="round"/>
<path d="M40.6172 40.6209V44.5137" stroke="#C3C3C3" stroke-width="3" stroke-miterlimit="10" stroke-linecap="round" stroke-linejoin="round"/>
<path d="M36.7305 40.6191H40.6237" stroke="#C3C3C3" stroke-width="3" stroke-miterlimit="10" stroke-linecap="round" stroke-linejoin="round"/>
<path d="M40.6172 40.6191H44.51" stroke="#C3C3C3" stroke-width="3" stroke-miterlimit="10" stroke-linecap="round" stroke-linejoin="round"/>
<path d="M10.4883 38.873H25.6081" stroke="#C3C3C3" stroke-width="3" stroke-miterlimit="10" stroke-linecap="round" stroke-linejoin="round"/>
<path d="M10.4883 33.2344H25.6081" stroke="#C3C3C3" stroke-width="3" stroke-miterlimit="10" stroke-linecap="round" stroke-linejoin="round"/>
<path d="M34.0371 27.5938H26.8672" stroke="#C3C3C3" stroke-width="3" stroke-miterlimit="10" stroke-linecap="round" stroke-linejoin="round"/>
<path d="M21.2318 27.5938H10.4883" stroke="#C3C3C3" stroke-width="3" stroke-miterlimit="10" stroke-linecap="round" stroke-linejoin="round"/>
<path d="M34.04 21.9551H22.082" stroke="#C3C3C3" stroke-width="3" stroke-miterlimit="10" stroke-linecap="round" stroke-linejoin="round"/>
<path d="M16.5321 21.9551H10.4883" stroke="#C3C3C3" stroke-width="3" stroke-miterlimit="10" stroke-linecap="round" stroke-linejoin="round"/>
<path d="M10.4883 16.3145H25.6081" stroke="#C3C3C3" stroke-width="3" stroke-miterlimit="10" stroke-linecap="round" stroke-linejoin="round"/>
</svg>
